/* XPM */
static char *__resized[] = {
/* columns rows colors chars-per-pixel */
"64 73 199 2 ",
"   c None",
".  c #2A2E1E",
"X  c #272B1D",
"o  c #2C311E",
"O  c #2E3520",
"+  c #2C3820",
"@  c #313620",
"#  c #3B3621",
"$  c #333921",
"%  c #3B3A22",
"&  c #433622",
"*  c #423A23",
"=  c #4C3924",
"-  c #4D3723",
";  c #5A3725",
":  c #533A25",
">  c #5B3A25",
",  c #543724",
"<  c #633625",
"1  c #643A26",
"2  c #6B3A27",
"3  c #723B28",
"4  c #7C3A29",
"5  c #733827",
"6  c #3C4425",
"7  c #3F4A26",
"8  c #414B27",
"9  c #444D28",
"0  c #4A492B",
"q  c #465129",
"w  c #4A552B",
"e  c #4D5A2C",
"r  c #515E2E",
"t  c #5B582B",
"y  c #4E4E33",
"u  c #444936",
"i  c #545131",
"p  c #6C4E2A",
"a  c #4E6129",
"s  c #54622E",
"d  c #59692E",
"f  c #576530",
"g  c #596731",
"h  c #5C6B32",
"j  c #5F6B3D",
"k  c #5F7431",
"l  c #636C38",
"z  c #637334",
"x  c #667A34",
"c  c #697B36",
"v  c #6C7E38",
"b  c #676D2F",
"n  c #585C4C",
"m  c #5E6251",
"M  c #5C614F",
"N  c #696B47",
"B  c #766E4D",
"V  c #6D7A4B",
"C  c #7A6F50",
"Z  c #676D57",
"A  c #737769",
"S  c #823B2A",
"D  c #8A3B2A",
"F  c #983D2C",
"G  c #A43D2D",
"H  c #AA3D2E",
"J  c #B23E2F",
"K  c #BB3F30",
"L  c #B63E30",
"P  c #88412B",
"I  c #6E8139",
"U  c #6E8236",
"Y  c #72853A",
"T  c #758A3B",
"R  c #798E3D",
"E  c #7C923E",
"W  c #778745",
"Q  c #7F9541",
"!  c #6F8344",
"~  c #849D3D",
"^  c #87A03E",
"/  c #88A23F",
"(  c #809642",
")  c #859D42",
"_  c #899E48",
"`  c #889959",
"'  c #8F8F55",
"]  c #87A042",
"[  c #8AA344",
"{  c #8FA945",
"}  c #8DA34A",
"|  c #91AC46",
" . c #93A44D",
".. c #94AD49",
"X. c #95B246",
"o. c #96B149",
"O. c #99B54B",
"+. c #9EBB4C",
"@. c #9AA554",
"#. c #94AA55",
"$. c #96AB59",
"%. c #99AD5D",
"&. c #96A854",
"*. c #9BB05F",
"=. c #A1BE4E",
"-. c #A5AA5E",
";. c #A0A75A",
":. c #A4BD52",
">. c #ABBD5A",
",. c #A5B856",
"<. c #8D9479",
"1. c #8A9767",
"2. c #A4946A",
"3. c #AC9672",
"4. c #9AAE60",
"5. c #9DB163",
"6. c #9DAE71",
"7. c #ACAB65",
"8. c #AFAB68",
"9. c #B3AC6C",
"0. c #AAB463",
"q. c #B3BD63",
"w. c #BBBD6B",
"e. c #B6B868",
"r. c #BBAF73",
"t. c #A2B274",
"y. c #A9BA7A",
"u. c #BDB771",
"i. c #C1AF79",
"p. c #C2B17A",
"a. c #C6B97A",
"s. c #A3C14F",
"d. c #A5C350",
"f. c #AFC05C",
"g. c #A8C055",
"h. c #B1C35D",
"j. c #BDC16B",
"k. c #ADC176",
"l. c #C4C671",
"z. c #CBC877",
"x. c #C1C36F",
"c. c #8B8D84",
"v. c #8E8F88",
"b. c #93968C",
"n. c #AFBE82",
"m. c #B0B995",
"M. c #B6B8AE",
"N. c #B0B1AC",
"B. c #D1BA86",
"V. c #D4B68A",
"C. c #D5B98A",
"Z. c #DDBC92",
"A. c #CDB883",
"S. c #E1BD96",
"D. c #B2C284",
"F. c #B5C489",
"G. c #BBCB8D",
"H. c #BCCA95",
"J. c #BDC1B1",
"K. c #DBCC87",
"L. c #D8C785",
"P. c #CFCB92",
"I. c #E3D38C",
"U. c #EBC49D",
"Y. c #E8C996",
"T. c #F0CB9E",
"R. c #EED198",
"E. c #F2D49C",
"W. c #F8D89F",
"Q. c #E1CC8D",
"!. c #CAD4AC",
"~. c #CCD8AB",
"^. c #C2C3BE",
"/. c #D2DCB5",
"(. c #D5DEBB",
"). c #CFDAB0",
"_. c #F4CCA2",
"`. c #FCD4A6",
"'. c #FFD6A8",
"]. c #FFD9AB",
"[. c #FAD4A4",
"{. c #D9E3BE",
"}. c #C4C5C2",
"|. c #CBCCCA",
" X c #D8D8D7",
".X c #DDE4C6",
"XX c #DCE1D0",
"oX c #EBEFDE",
"OX c #E5EBD7",
"+X c #EBF0DF",
"@X c #E0E7CC",
"#X c #EAEBE6",
"$X c #EBEBEA",
"%X c #E7E7E6",
"&X c #EDF1E2",
"*X c #EFF0EE",
"=X c #F0F2EA",
"-X c #F6F7F4",
";X c #F8F8F8",
/* pixels */
"                                          o o o o o O o o o o o o . O . o O . o O o o o o o o o o o o o O . . O . o O o         ",
"                                          $ $ @ $ $ $ @ @ @ $ $ # $ $ $ O $ @ @ @ @ @ @ @ @ $ $ @ $ @ @ $ $ $ @ @ @ @ $         ",
"                                          6 6 6 6 6 6 6 6 6 6 6 6 6 6 6 7 7 6 7 7 6 7 7 6 6 6 6 6 6 6 6 6 6 6 6 6 6 6 6         ",
"                                        7 q q w w w w w w r r r s s s r r r r r r r r r s s s s s s s s s r f r f r r w 9       ",
"                      @ @ o O o o X o $ 8 e h h z z h z z z c v v v I I v v v v I I v I v v I I V v v v I v I I v c z h e 6 $ . ",
"                  $ $ @ @ @ @ O o o o 6 w h c Y T T T T R E ( ) ] [ ) ) ) ) ] _ ] ] ) ] ) } ) ) [ ) [ ) ) [ ] _ [ ) R z r 6 @ O ",
"                @ $ $ $ $ $ % 6 6 $ % 8 e z Y Q ) ) ) ~ ) [ | o.O.O.O.O.O.O.O.O.O.o.O.O.O.O.O.o.o.O.o.O.O.O.O.+.+...) v f 6 @ O ",
"                O @ + 6 6 7 8 8 9 8 9 w f v Q ] [ [ [ [ { | ..O.+.+.=.=.=.=.d.d.s.:.+.+.+.O.+.O.+.O.+.O.O.+.+.d.d.+.[ v f 6 @ . ",
"              o O + $ 6 7 e f f d d a d x T Q [ { { ] ] / { { X.O.+.+.:.s.d.d.d.d.s.+.+.o.o.o.o.O.o.o.o.o.O.O.d.d.+.{ Y f 7 @ o ",
"          + + o O @ $ 7 e h x I Y U U U T E ) ] [ ] ] ] / ] { { ....O.+.=.:.s.d.s.=.O.o.....{ { { { { { { | o.+.:.+.[ I r 7 @ o ",
"        % % $ # @ O % 7 r x T ( ] Q Q ] ^ ) ) _ ] ] [ } [ [ ] [ { | o.O.+.+.+.+.O.O...| [ [ [ [ } [ [ [ [ { | O.O.o.) v r 6 @ o ",
"        = * = & # # % 7 f v Q } #.*.5.4.#._ Q Q Q } $.4.4.$.#.} [ | o.O.+.O...{ { [ [ [ [ { [ { [ [ [ } { [ [ { { ) R z e 6 @ O ",
"      : 1 1 1 > - # % 8 s U E ..0.k.D.D.t.` ! v W 1.t.D.D.t.%.{ [ { X.O.O.| ) Q Y T Q ) { { | | | | | | { { } Q R I j f 9 % $ O ",
"+ $ * > 3 S D 4 < - 6 8 s U Q #.k.H.~.!.m.<.V N V <.m.!.!.G.6.#.[ { X.+.O.[ T z h z Y ( { o.O.o.o.o.O.O.o...) T x f e 9 6 $ $ O ",
"+ + * > S F G F 5 , % 8 a x Q %.D.).@XXXJ.<.Z r Z <.M.XX.X~.D.$.{ { X.O.X.) c f w r c Q ..O.+.+.+.+.+.+.+.o.) I f q 6 $ $ $ $ @ ",
"o $ * 1 S H H G 4 ; 6 7 a x Q 4.G..X&X%XJ.c.m u m b.}.#XoX{.D.%.[ { X.O.o.) v s w f c ( ..:.d.=.+.+.+.d.+.O.] I f q 6 6 $ $ $ @ ",
"+ + * 1 D H K H S ; * 7 a x E %.G..X&X=X}.c.n u M v.}.$X=X{.F.4.{ | X.O.O.] T z h k T ] o.=.s.s.:.:.=.s.d.O.[ Q z f w 7 6 $ $ O ",
"+ $ * 1 D J K H S ; * 7 a x ~ *.G..X=X#X^.c.n 6 n v.}.$X&X{.F.%.[ / X.O.O.{ ) R Y W ) | O.=.=.=.+.+.=.=.+.+.o.] Q I l e 8 6 $ O ",
"+ $ * 1 D H L G 4 ; 6 7 a x E *.G..X&X#X}.v.n u m v.}.$X&X{.D.%.{ / X.o.+.O.o.{ [ { | O.+.=.=.=.+.=.=.+.d.O.O.O.{ _ T k w 6 @ O ",
"+ + % > 4 F H F 4 : * 7 a x E O.G.{.&X#X}.b.Z n A b.|.$X#X{.D.$.{ / | O.+.+.+.O.+.O.+.+.+.+.=.+.=.+.+.=.+.+.+.+.+.o.) v r 7 O O ",
"+ $ % : 3 P F S < - % 7 a x ( %.G.{.&X*X XN.c.A v.N. X*X#X(.F.$.{ / X.O.+.=.s.s.d.+.:.+.+.=.+.+.+.+.+.+.d.+.+.d.d.O.} I r 6 @ o ",
"+ $ # = > 2 3 1 , & % 7 s c ( 5.G..X=X-X%X|.N.N.M.|.$X;X&X(.F.4.{ [ | O.+.=.=.s.+.d.=.=.=.+.+.=.+.=.=.+.+.+.d.d.d.+.[ Y s 7 @ o ",
"$ $ # % = = : = & @ $ 7 a U ( %.G.{.=X;X;X%X X X X$X-X;X#X/.D.$.X./ / +.+.=.=.=.=.=.=.=.+.:.s.+.=.=.+.+.+.d.+.+.d.O.[ v s 6 @ O ",
"@ $ $ $ $ # # # # # % 8 r x Q &.D.).OX-X;X;X*X*X=X-X;X-XOX~.D.#.| / / +.+.=.=.=.+.=.+.+.+.+.+.+.+.+.+.=.+.+.d.d.=.O._ v r 7 @ o ",
"$ $ @ + + $ $ # # & = i t b T ` 6.H.|.OX&X&XoXoXoX+XoXOX.XH.y.#.{ { | O.=.=.=.+.+.+.=.=.+.=.+.=.+.+.+.=.=.+.s.d.d.O.[ I f 7 O o ",
"$ @ $ + + + $ % - 1 5 p p p z ! ` n.H.!././././././.).~.H.D.5.#.{ / X.O.+.=.=.=.=.+.+.+.+.+.+.=.=.=.=.=.s.s.s.d.d.+.[ I r 7 @ o ",
"      + + + # * 1 4 D D p p t g V ` 6.y.D.F.D.D.D.D.D.k.t.5.#.} [ | X.+.+.=.=.+.=.+.+.+.=.=.+.+.+.=.+.=.s.s.d.d.d.+.[ I s 6 @ o ",
"        + + # : 3 F G F S 1 0 q g ! ` #.+.$.$.$.$.$.$.$.#.#.} { [ | ..O.+.+.=.=.+.:.+.+.+.+.=.+.+.+.+.+.+.+.+.=.+.O.) I r 7 @ o ",
"        + + % > 4 G J H D 1 * 8 e k E Q / X./ [ Q [ / { / ] ] ] [ { ..o.+.+.+.+.+.+.s.+.+.+.=.=.=.+.O.o.| | | ....[ Q z e 6 @ O ",
"        + + # > S G K J D < & 6 e k E Q Q / / Q / Q Q / / Q ] ] [ [ | | X.o.O.+.+.+.=.s.s.s.s.s.d.O.| [ E W T R T W z g 9 6 @ O ",
"        + + % > 4 G K J D < & % e k T Q / / / / Q Q / Q ^ Q ] ] _ [ { { | ..O.O.+.s.s.s.s.s.s.d.d.O.[ Q c h h h h f r q 9 $ @ @ ",
"        + + # > 4 G L H D < & 8 a k W Q / / / / { / / / ^ ] ] ] ) [ [ [ { ..o.O.+.+.+.=.+.=.:.d.+...( c f q 8 8 8 8 8 7 $ $ @ @ ",
"        + $ % : 3 F G G S > * 7 e z R ) [ [ [ [ [ ) [ ) ) [ [ [ [ [ [ [ [ | ..O.+.+.O.O.o.o.O.O.o.] W k w % $ + $ $ $ $ $ $ $ @ ",
"        + @ % - 1 S D S 5 , % 6 a x R ) [ [ [ ) ) [ ) [ [ [ [ { { { { | | ..o.+.+.o.{ ] Q Q Q Q Q R v f 8 $ o X O O O O @ $ $ $ ",
"        O + $ * : 1 2 1 , & # 7 f x ~ _ { [ ) [ [ ) [ ) [ [ | ............o.+.+.O...Q T x j k z l k d e 7                       ",
"        + $ $ # * = , - & # # 8 r z R ) { [ [ [ [ ) ) [ [ | ..X.O.O.O.O.O.O.=.=.O.{ R k r q q q e e q 8                         ",
"        $ @ $ $ $ $ # # @ @ $ 6 e z T ( ) [ ) [ ) [ ) [ [ | O.O.+.+.+.+.=.=.=.=.O.] T h q 6 % 6 6 $ %                           ",
"          $ $ @ @ $ $ + O O $ 6 w h c T E ( ) ) [ ~ ) [ [ | X.+.+.+.+.+.=.=.s.=.O.] R k e 7 6 % $ O O                           ",
"            $ + + + + + + O O 6 8 w f z v R ~ ) [ ) ~ [ [ | X.O.+.+.+.+.+.+.+.+.X.X.Q Y x s w 6 % O o                           ",
"                        O O $ $ % 7 q r h v R ~ [ [ ~ [ / | X.O.+.+.+.+.+.+.+.+.+.X.X.^ E U d w 6 + o                           ",
"                          $ $ $ $ $ % 8 r l R ) [ [ _ } { ..O.=.s.d.s.s.=.=.=.:.=.=.:.+.X.) v s 8 $ o                           ",
"                          $ $ @ O O O 6 w k T ) [ .. . .@.;.,.>.d.d.h.h.h.h.h.>.>.h.h.h.h.@.W l 9 $ o                           ",
"                            $ @ O o o $ q h I )  .&.;.-.0.e.w.a.l.l.l.l.l.l.l.l.l.l.z.z.l.-.' l 9 $ o                           ",
"                                o X o $ q h Y )  .;.8.r.a.a.z.L.K.K.K.K.K.K.K.K.I.I.I.I.K.a.1.N y $ o                           ",
"                                  o O 6 w h Y ) @.7.r.p.C.L.Y.T.E.W.E.E.E.E.E.E.E.E.W.W.W.L.2.B y $ o                           ",
"                                  6 6 9 s k T [ @.8.r.V.S.U.T.`.[.'.'.'.[.[.`.`.'.'.].].[.C.3.C y $ o                           ",
"                                9 w r h z U E _ @.9.p.V.S._._.`.].].].].].].].].].].].].`.Z.3.C y $ .                           ",
"                    @ @ o . O 6 e h c Y R E ) [ @.9.p.V.S.U._.`.].].].].].].].].].].].].].Z.3.C y % .                           ",
"                  $ $ + o o + 8 f v Q [ [ ] ] { @.7.r.V.S.U._.[.'.].].'.`.].].].].].].].[.Z.3.C y $ o                           ",
"                  @ $ $ $ % 6 w h T [ | o.{ [ } @.7.i.V.S.U._.[.'.].'.].].'.`.`.].].].].[.Z.3.C y $ o                           ",
"                @ $ $ % 6 8 w f v Q  .O.o.| { } @.7.i.V.S.U._.`.'.].'.'.'.'.`.].].].].].[.Z.3.C e $ o                           ",
"                o @ $ 6 q f z Y E ] { ..X.{ ] { @.7.A.V.S._._.`.'.].].].'.'.].'.].].].].`.Z.3.C y $ o                           ",
"                  O $ 8 r z Q ) [ { { { { [ / } @.7.i.V.S.U._.`.].].].].].'.].].].].].].[.Z.3.C y $ .                           ",
"                  O % 9 h Y ) ....| [ [ [ / ) [ @.2.r.V.Z.U.T.[.`.`.'.`.'.'.'.`.].].].].[.C.3.B y % o                           ",
"                  O $ 9 f v Q [ [ [ [ / ~ ) [ _ &.7.9.i.B.C.Q.Y.R.E.E.[._.`.[.[.[.[.].W.Y.A.2.B y $ o                           ",
"                O @ $ 7 e h v T Q ~ ) [ [ [ ) [  .@.7.8.r.a.z.L.K.K.Y.T.T.T.T.T.Y.R.R.I.L.r.' N u % o                           ",
"                O @ $ 6 7 w r h v R ( [ [ [ [ _ }  .@.;.-.0.q.j.l.z.K.Y.S.S.U.U.U.Q.L.z.j.7.( l q $ o                           ",
"                  $ $ $ $ 6 8 w f c E ) [ [ [ [ _ [ [  .&.&.+.d.q.w.a.C.Z.Z.S.Z.C.L.a.j.>.&.W d 8 % o                           ",
"                  $ @ @ O O $ 7 e z Y Q ~ ) ) ) _ [ [ { | ..O.+.,.q.w.a.B.V.V.V.B.a.j.q.,.[ Y s 7 $ o                           ",
"                    $ O O O O % w f z v Y R ( ) [ [ { / | X.X.+.:.>.w.w.a.a.a.a.u.u.q.>.O.[ Y d 8 $ o                           ",
"                                8 w r f z Y R ) [ | | | o.O.+.+.d.g.>.j.e.w.e.e.q.q.>.:.O.[ Y f 8 $ O                           ",
"                                  6 7 q r x R ) | ..X.O.+.O.+.+.+.=.:.>.>.>.>.>.>.>.g.d.+.[ T f 8 $ O                           ",
"                                  @ $ 7 e b T ) { X.O.+.+.+.O.o.o...o.o.o.o.O.+.+.+.+.d.+.[ Y f 8 $ O                           ",
"                                  o O % w h T ) ..X.+.=.O.o.[ ) Q Q E E ) ] { | o.O.d.d.+.{ Y f 8 $ O                           ",
"                                  X O % w h R [ | +.=.+.o.[ R v z l z k c Y E [ X.O.=.s.+.{ Y f 8 $ O                           ",
"                                  O O 6 w h T ) ..+.=.+...( c f e q w w a k I ( [ o.+.=.+.{ T f 7 % O                           ",
"                                  O O 6 w h I ) [ | o...[ Y h q % $ $ $ 7 e z Y ) [ X.o..._ Y f 8 $ O                           ",
"                                  O $ $ 9 f z Y R ) ) ) Q c f 6 @ o o O $ 9 r z I R ) ] ) Q c s 8 $ O                           ",
"                                  O $ $ 7 w f h l c v c z h w 6 O X X o @ 7 q f h z c v v z h r 8                               ",
"                                  @ $ $ 6 7 9 w e r r r r w 9     o o O @ $ 7 8 w e e r r r e q                                 ",
"                                  @ $ $ $ $ 6 6 6 7 7 6 6 7         @ @ $ $ $ 6 6 6 6 6 6 6 6                                   ",
"                                  $ $ @ @ $ $ @ @ @ $ @ @ $         $ $ @ $ $ @ $ $ O $ $ $ $                                   ",
"                                  @ @ @ @ O O O O o o o o o         $ @ @ @ @ O O o o o o o O                                   "
};
