/* XPM */
static char *_1_resized[] = {
/* columns rows colors chars-per-pixel */
"64 68 206 2 ",
"   c None",
".  c #262E1A",
"X  c #2A2E1E",
"o  c #222B17",
"O  c #2D321F",
"+  c #323B1F",
"@  c #2F3420",
"#  c #2C3820",
"$  c #313621",
"%  c #3A3621",
"&  c #343A22",
"*  c #3B3C23",
"=  c #3D3F29",
"-  c #423622",
";  c #4C3623",
":  c #433923",
">  c #4C3924",
",  c #553925",
"<  c #5C3A26",
"1  c #583724",
"2  c #6B3A27",
"3  c #683A27",
"4  c #743B28",
"5  c #7B3B29",
"6  c #743727",
"7  c #3B4325",
"8  c #3F4826",
"9  c #3B4226",
"0  c #414A27",
"q  c #444D28",
"w  c #414727",
"e  c #445327",
"r  c #465229",
"t  c #49542A",
"y  c #4D5A2C",
"u  c #4C5227",
"i  c #515D2D",
"p  c #4C4C32",
"a  c #444832",
"s  c #504E36",
"d  c #4D5238",
"f  c #555736",
"g  c #594C29",
"h  c #6F4A2A",
"j  c #54622E",
"k  c #5B6D2D",
"l  c #5B702D",
"z  c #576430",
"x  c #596630",
"c  c #5D6C32",
"v  c #5E7132",
"b  c #62612D",
"n  c #647435",
"m  c #667935",
"M  c #6A7B37",
"N  c #6B7E38",
"B  c #69753D",
"V  c #606D3B",
"C  c #625E41",
"Z  c #5B604D",
"A  c #6B6546",
"S  c #697046",
"D  c #777748",
"F  c #7B7151",
"G  c #6A6D62",
"H  c #737866",
"J  c #74786A",
"K  c #833B2A",
"L  c #8D3B2B",
"P  c #9B3D2C",
"I  c #933C2B",
"U  c #A33D2D",
"Y  c #AC3D2E",
"T  c #B33E2F",
"R  c #BB3E30",
"E  c #8C402B",
"W  c #827656",
"Q  c #87795A",
"!  c #6E8139",
"~  c #72853A",
"^  c #768B3B",
"/  c #798E3D",
"(  c #738836",
")  c #7D933E",
"_  c #7F9540",
"`  c #7F904A",
"'  c #7C8C56",
"]  c #7C8D4B",
"[  c #849D3D",
"{  c #88A23F",
"}  c #858D4B",
"|  c #809641",
" . c #849C42",
".. c #889B47",
"X. c #898455",
"o. c #889252",
"O. c #9B9A5C",
"+. c #87A042",
"@. c #8BA344",
"#. c #8FA946",
"$. c #8DA44A",
"%. c #91AC46",
"&. c #92A54D",
"*. c #93AE48",
"=. c #95B247",
"-. c #96B149",
";. c #99B54B",
":. c #9EBB4D",
">. c #99B947",
",. c #8FA453",
"<. c #94A451",
"1. c #9AA654",
"2. c #94A954",
"3. c #9CAA54",
"4. c #96AB58",
"5. c #98A85A",
"6. c #9DB555",
"7. c #A0BE4E",
"8. c #A3A85C",
"9. c #ABBC5B",
"0. c #A4B855",
"q. c #998A63",
"w. c #919D6E",
"e. c #AC9671",
"r. c #A7956C",
"t. c #97A868",
"y. c #9EB264",
"u. c #9AAA75",
"i. c #ABAA64",
"p. c #ACA569",
"a. c #B3AC6C",
"s. c #A2B56B",
"d. c #A8B868",
"f. c #BAB96D",
"g. c #B6B76A",
"h. c #BCA779",
"j. c #ABBD77",
"k. c #BFB574",
"l. c #C0A67F",
"z. c #C4B37B",
"x. c #C4BD75",
"c. c #A3C14F",
"v. c #A6C450",
"b. c #BFC26E",
"n. c #C8C675",
"m. c #C0C26E",
"M. c #8C8F82",
"N. c #AEBD81",
"B. c #A4A79B",
"V. c #A6AE8D",
"C. c #AAACA7",
"Z. c #B8B9B5",
"A. c #C7AB83",
"S. c #CBB483",
"D. c #CEBD80",
"F. c #DABB8E",
"G. c #D4BC88",
"H. c #DCBA92",
"J. c #E0BB96",
"K. c #B3C484",
"L. c #B9C98A",
"P. c #BCC995",
"I. c #BFCAA2",
"U. c #DBC58A",
"Y. c #DDC98A",
"T. c #D6C684",
"R. c #C2CF9F",
"E. c #DFC091",
"W. c #E1CC8D",
"Q. c #E5C496",
"!. c #EAC59C",
"~. c #ECC99A",
"^. c #E6C895",
"/. c #F0CC9E",
"(. c #EAD094",
"). c #F1D09D",
"_. c #C6D2A3",
"`. c #C8D4A6",
"'. c #CCD6AC",
"]. c #D2DBB6",
"[. c #C7CDB7",
"{. c #F4CDA2",
"}. c #F8CFA5",
"|. c #F6D3A1",
" X c #FBD4A5",
".X c #FFD7A8",
"XX c #FFD9AB",
"oX c #FFD9A7",
"OX c #FFDFB1",
"+X c #DAE3BF",
"@X c #FFE0B1",
"#X c #D7D7D7",
"$X c #CFD1C9",
"%X c #DCE5C3",
"&X c #DEE6C8",
"*X c #DFE0DC",
"=X c #E5EBD6",
"-X c #E9EDDA",
";X c #E1E3DC",
":X c #E1E7CF",
">X c #E8E8E8",
",X c #EEF2E5",
"<X c #F2F4EB",
"1X c #F0F3E7",
"2X c #F7F7F6",
"3X c #EEEEF1",
/* pixels */
"                                                                                                                                ",
"                                                                                                                                ",
"                                                                                                                                ",
"                                                                                                                                ",
"                                        O O @ @ @ @ @ @ @ X @ @ @ @ @ @ @ @ @ @ @ @ @ @ @ @ @ @ @ @ @ @                         ",
"                                      & & * & & & & & * & & & * & & & * & & & & & * & & & & & * & & & * &                       ",
"                                    0 0 q q q q r r r r y y r r y r r r t t y r r r t t y r r r y r t r r                       ",
"                      @           * r i x c c k c c v n n m m n n m n m B n m m m B n m m m m n m m n V z y 9                   ",
"                $ $ $ $ $ @ @ O O 7 i v ! ( ~ ~ ~ ^ _ |  . . . . . .|  . . . . . . . . . . . . . . . ./ n y 7 O                 ",
"              $ $ $ $ & 9 & & & 7 q z ! [  ... . .@.#.*.;.;.;.;.;.;.;.;.;.;.;.;.;.;.*.;.;.-.;.;.:.;.;.+.! y 9 O                 ",
"              @ $ & 7 8 q r r e e j v ^  .@.#.@.@.#.*.;.;.:.:.7.7.v.v.7.:.:.:.:.:.;.;.;.;.:.;.:.7.v.7.#.! i 9 O X               ",
"          # # @ $ & 8 y x v v k k n ! )  .#.#.@.#.$.%.*.;.;.:.:.v.v.v.v.v.:.;.-.*.*.*.;.-.*.-.-.:.v.c.#.~ i 9 @ X               ",
"        $ $ $ @ # & r c M ^ ^ ^ / / )  . .@.@.[ +.@.@.#.#.*.;.:.6.c.7.7.:.;.*.#.$.@.#.#.@.@.#.#.;.:.:.$.! i 9 O                 ",
"        * : * % & 9 t v / ..$.&.2.o.$... .| [ [  .@. . .@.#.-.:.:.:.;.*.%.#.@.@.@.@.@.@.@.@.@.@.#.*.#. .M y 9 @                 ",
"      , < < , ; % = e v _ $.6.j.j.j.t.o.~ ~ ^ [ [  . .+.@.#.-.;.;.#. ._ _ | ..#.#.#.#.#.#.#.#.#.@. ./ N x q & $                 ",
"# & : 3 5 K 6 < : * e l ^ $.b.P._.P.V.' V x m ( [ [ +.+.@.%.;.:.*. .! v n ~  .*.;.-.-.-.;.-.-.$._ ! c i q 8 & $                 ",
"# $ > 2 I U P 6 ; * e l ^ 2.b.].:X$XC.' d d v ]  .@.@.+.@.*.;.;.%./ c y i m  .-.:.:.:.:.:.:.:.%._ n r 8 9 & $ $                 ",
"# & > 4 E R U 5 1 w e k ^ 2.L.+X1X;XC.J 8 8 z ] 5.5.,.$.$.#.;.:.%./ c y i M  .;.7.7.:.:.:.v.:.*._ c y 8 & & & $                 ",
"# & > 4 U R T K , * 8 l ^ 2.L.&X<X;XC.G 8 8 S w.N.j.s.2.@.#.>.;.*.| N n m ] #.;.7.v.7.7.7.v.:.-...~ c i r 7 & @                 ",
"# $ > 6 P R Y K , 7 e l / 2.L.&X<X;XC.G a d ' B.'._.K.5.$.@.=.>.;.%. ./ [  .*.:.7.7.7.:.7.:.:.:.*. ._ M j q 9 @                 ",
"@ & > 2 P Y U 5 , * e l ^ 2.L.%X3X*XC.G Z Z M.$X=X%XP.y.%.{ =.;.6.:.-.-.-.;.>.:.:.7.7.:.:.7.:.:.:.:.*. .n y 9 @                 ",
"# & : 3 L P L 6 - 9 e l ^ 2.L.%X3X3XZ.M.G J C.#X<X-X_.s.#.{ %.:.7.7.7.7.7.:.7.7.:.:.7.:.7.:.:.7.:.v.:.@.! y 9 @                 ",
"# & : , 3 5 6 1 & 7 8 l / 4.L.%X<X3X#XZ.B.C.$X>X2X-XR.s.$.{ %.>.7.c.7.c.c.7.7.7.:.:.:.:.7.:.:.7.v.v.:.#.~ i 9 @                 ",
"$ $ % : > , ; - 7 7 e l / 4.L.%X<X2X3X#X$X#X>X3X2X=XR.s.#.@.%.:.:.7.7.7.7.c.:.:.7.7.6.7.:.7.:.7.7.v.:.$.! y 9 @                 ",
"$ & & & * % % % & * u n ^ ,.b.[.,X2X2X3X1X<X2X2X1X&XP.y.$.@.=.>.7.7.7.:.:.:.7.:.:.7.:.:.7.:.:.:.7.v.;.@.! y 7 $                 ",
"$ $ $ $ # $ & - ; , g b M ` u.P.%X:X-X-X-X-X-X=X&X'.K.y.*.#.=.>.:.:.7.:.7.:.7.:.7.:.:.7.7.7.7.7.v.v.:.#.! y 7 O                 ",
"    $ # # $ * , 6 h h h b S ' u.K.I.`.`.`.`.`.I.P.L.j.6.-.=.>.:.7.:.7.7.7.:.:.7.7.:.:.:.7.c.c.c.v.v.7.#.~ i 9 O                 ",
"      # @ & > 2 L P L h p i v ] t.s.b.y.s.s.s.s.s.y.6.>.6.>.:.:.:.7.:.:.:.7.:.:.:.:.7.6.:.7.:.c.7.v.:.#.! y 9 @                 ",
"        # * , 6 P T P 6 ; w j ! ` _ =.%.$.$.>.#.$.*.=.>.>.:.:.:.:.7.:.7.:.:.7.:.:.7.:.:.:.;.;.;.;.;.*. .M y 9 @                 ",
"        @ & , K U R U 6 ; * e m _ _ { { _ _ _ { @._ #.=.;.;.:.:.7.:.7.:.7.7.7.7.7.7.v.:.-.$.| _ _ _ _ ! x r & $ O               ",
"        # * , K Y R U 6 ; * y v _ %.{ { _ { _ _ _ +.#.#.*.-.>.:.:.7.:.7.7.7.7.c.v.v.v.;.@._ M c c c c z t 8 & $ #               ",
"        # & , 5 U R U 6 ; w y m _ _ #._ %._ { { #.+.+.#.$.*.;.:.:.7.7.:.:.7.7.7.:.v.:.;. .m i r 0 0 0 8 7 7 & $                 ",
"        @ * > 6 I U I 2 : 7 t v ~ |  .|  .@.@.+.+.+.+.+.+.#.=.;.;.7.:.:.:.;.=.%.*.*.*.@./ c 0 & @ $ $ & & $ & $                 ",
"        # & : 3 5 K 6 < : 7 8 i n N / [  .+.+.+. .+. .[ { @.#.%.=.;.:.>.=.@.) ^ ! ] ^ ~ m j 8 @ X X X @ @ $ $                   ",
"        $ $ * ; < < , ; * & 7 q y c m /  .@.@. .+.+. . .[ +.+.@.#.=.;.;.@.) m x z z z z j t                                     ",
"        $ $ * * * : - * & & $ & 9 r c ~ | @.@.@.@.+.@. .@.@.@.@.%.-.:.;.#./ x r 8 9 8 8 8                                       ",
"        $ & $ $ $ $ $ $ $ $ $ @ & w j N | @.&.&.<.<.1.3.3.1.3.1.8.0.9.9.3.o.S f p : % @ $                                       ",
"          & $ # # # # # $ $ @ O @ 9 j N [ &.3.8.i.a.a.g.f.k.f.f.f.m.m.n.f.p.O.W A s = X o                                       ",
"                            O O O 8 i !  .1.8.a.z.S.T.U.Y.Y.U.U.Y.Y.W.W.W.G.S.h.q.A a @ o                                       ",
"                              @ + 8 j M | <.i.k.S.F.Q.~.).|.|.{.|.).|.|.|. X}.J.A.Q f w $                                       ",
"                                + 7 y n ~ } O.a.z.G.Q./..X.X.X.XXXXXXXXXXXXXOX XH.e.F C s p                                     ",
"                                  7 e y c B } O.a.z.G.Q./.{. X.XXXXXXXXXXXXXXXXX~.S.e.q.W C p                                   ",
"                                    8 8 u i B } 8.a.z.G.J./.}..XXXXXXXXX.XXXXX.X}.!.H.A.q.F s &                                 ",
"                                      7 0 u v ^ ..8.f.S.H.!.{.}..X.XXX.X.X.X.X.XXX.X|.Q.h.W s & X                               ",
"                                    q r i x n ^  .8.a.S.H.!.{.|..XXX.X.X.X.X.X.XXXOXOX{.A.W s $ . .                             ",
"                          $ @ X @ 7 y c M ~ / )  .1.a.z.H.J.{..XXXXXXXXXXXoX.XXXXX@X@X|.A.W p % . O $                           ",
"                        $ $ $ @ $ 0 x ~  .+.{ +...8.a.A.H.J.{..X.XXX.X.X.XXX.XXXXXXXXX~.V.Q g & . O $ $                         ",
"                      $ $ & $ & 9 y n _ *.>.=.#.@.1.p.z.G.Q.^./.). X|..X.X|..X|.XXoXoX^.h.Q f w + & & $ $                       ",
"                      @ $ & 8 r i n ^ @.*.;.%.#.@.O.1.a.z.x.T.Y.W.(.)./.{.{.{././.).(.n.a.o.S i e 7 & $ $                       ",
"                      @ $ 9 t x ! )  .#.*.*.#.#.@.&.<.8.8.g.g.m.n.T.W.!.!.{.!.!.^.W.n.m.g.1.| N x e 7 $ O                       ",
"                      @ @ 8 i N  .$.%.#.#.@.@.+.@.....&.&.3.;.9.b.f.D.F.J.J.J.F.D.x.g.9.7.7.%. .! y 7 $ O                       ",
"                      @ $ 7 i N | #.@. ._ ) |  .+.@.+.@.#.%.;.:.0.9.a.l.A.A.G.z.x.g.0.:.:.7.:.#.~ j 8 $ O                       ",
"                      @ $ 9 t c ! ~ ~ N M N ^ _  .@.@.%.%.=.>.:.;.1.O.q.q.p.h.z.f.9.0.=.>.:.>.#.~ j 8 O O                       ",
"                      $ $ & 8 t i j j y i x m /  .%.%.%.=.>.:.:.;...D A D X.8.9.9.0.-.%.%.-.-. .! j 8 $ O                       ",
"                      $ $ & & 9 9 8 9 * 9 t c ^  .%.*.-.:.:.7.;.&.^ c y f B  .3.0.-.#...+.@.+.) m i 9 $ O                       ",
"                        $ $ $ $ $ @ O $ & q k ~  .%.:.:.:.:.-.#.) n t 9 0 j ~  . .[ ) / / / / ! c y 9 $                         ",
"                          $ $ O O X X X $ 0 z ~  .*.>.6.:.*. .~ n i 8 + + e k m m m n v c n c c j r 9                           ",
"                                    X O $ q x ~  .%.:.:.;.+.~ x r 8 9 & 9 7 e y y t t t r r t e q 0                             ",
"                                      @ & q x ~  .%.;.;.%._ n r * $ $ $ & & & 7 9 9 & 7 * 7 9 9 *                               ",
"                                      O & r x ~  .#.@. ._ N j 8 $ O $ $ $ $ O O @ @ $ @ O O O O                                 ",
"                                      @ & q c ^  . ./ N n x t 9                           O                                     ",
"                                      O * q c ^ | / M j t q 8                                                                   ",
"                                      @ & 0 x N / ~ c r 7 $                                                                     ",
"                                      @ & w y v n n i 8 $                                                                       ",
"                                      $ & 9 q y y y r 7                                                                         ",
"                                      $ & & 9 7 8 q 8                                                                           ",
"                                      $ $ & & $ $ &                                                                             ",
"                                      $ $ $ $ $ O O                                                                             "
};
