/* XPM */
static char *_2_resized[] = {
/* columns rows colors chars-per-pixel */
"64 77 207 2 ",
"   c None",
".  c #2A2E1E",
"X  c #272E1A",
"o  c #2C311E",
"O  c #30381F",
"+  c #2E3520",
"@  c #2C3820",
"#  c #313621",
"$  c #3B3621",
"%  c #333921",
"&  c #3A3B23",
"*  c #423622",
"=  c #433A23",
"-  c #4B3924",
";  c #4B3623",
":  c #533724",
">  c #5B3725",
",  c #523A25",
"<  c #5B3A25",
"1  c #633625",
"2  c #633A26",
"3  c #693A27",
"4  c #6E3C28",
"5  c #753A28",
"6  c #7D3A29",
"7  c #743827",
"8  c #3C4425",
"9  c #3F4A26",
"0  c #3D432D",
"q  c #414B27",
"w  c #444E29",
"e  c #49482A",
"r  c #465129",
"t  c #4A552A",
"y  c #4D5A2C",
"u  c #515E2D",
"i  c #5A572B",
"p  c #4E4D33",
"a  c #454B36",
"s  c #505032",
"d  c #6D4D2A",
"f  c #4E6129",
"g  c #54612E",
"h  c #5A6A2E",
"j  c #58672D",
"k  c #576530",
"l  c #586631",
"z  c #5C6C32",
"x  c #5F7431",
"c  c #636C38",
"v  c #637334",
"b  c #667A34",
"n  c #697B37",
"m  c #6C7E38",
"M  c #687731",
"N  c #65712F",
"B  c #595E4C",
"V  c #565A4B",
"C  c #5E6252",
"Z  c #6D7B48",
"A  c #796F50",
"S  c #6F704F",
"D  c #6C7060",
"F  c #833B2A",
"G  c #8B3B2A",
"H  c #9C3D2C",
"J  c #943C2C",
"K  c #A43D2D",
"L  c #AA3D2E",
"P  c #B33E2F",
"I  c #BB3F30",
"U  c #8B412B",
"Y  c #6E8139",
"T  c #6D8136",
"R  c #72853A",
"E  c #758A3B",
"W  c #798E3D",
"Q  c #728736",
"!  c #7C923E",
"~  c #798746",
"^  c #7F9541",
"/  c #6D8142",
"(  c #7F8275",
")  c #849C3E",
"_  c #88A13E",
"`  c #809741",
"'  c #859D42",
"]  c #889D45",
"[  c #84984D",
"{  c #889655",
"}  c #858450",
"|  c #87A042",
" . c #8AA344",
".. c #8FA945",
"X. c #8DA349",
"o. c #91AC46",
"O. c #92A34C",
"+. c #93AD48",
"@. c #98AE4D",
"#. c #95B146",
"$. c #96B249",
"%. c #99B54B",
"&. c #9EBB4D",
"*. c #98B847",
"=. c #95A551",
"-. c #9BA655",
";. c #94AB54",
":. c #99AE5D",
">. c #98AA58",
",. c #9CB25D",
"<. c #9BB452",
"1. c #8EA256",
"2. c #A1BE4E",
"3. c #A3A85C",
"4. c #A3BB52",
"5. c #ACBC5C",
"6. c #A4B457",
"7. c #8E946A",
"8. c #AD9672",
"9. c #AE9972",
"0. c #A5956B",
"q. c #9BAD67",
"w. c #9CB160",
"e. c #9FAE77",
"r. c #ABAB64",
"t. c #AEA968",
"y. c #B1AD69",
"u. c #B0AF67",
"i. c #A5B867",
"p. c #B4BD63",
"a. c #B8B96B",
"s. c #BCAF74",
"d. c #ACBD7C",
"f. c #A6B777",
"g. c #BEB772",
"h. c #C3BC75",
"j. c #C3B27A",
"k. c #C6BB79",
"l. c #A3C14F",
"z. c #A6C450",
"x. c #A8C055",
"c. c #B2C15F",
"v. c #B6C461",
"b. c #BEC36C",
"n. c #AEC17B",
"m. c #B0C07F",
"M. c #C9C974",
"N. c #CAC677",
"B. c #D1CC7B",
"V. c #8C8D86",
"C. c #909387",
"Z. c #94978D",
"A. c #9FA787",
"S. c #B0BD8C",
"D. c #B7B8B5",
"F. c #B1B3AA",
"G. c #CEBB82",
"H. c #CCB583",
"J. c #D4B68B",
"K. c #D5BB8A",
"L. c #DDBB92",
"P. c #E1BD96",
"I. c #B3C384",
"U. c #BBCB8D",
"Y. c #B5C48A",
"T. c #BBC994",
"R. c #BEC5AB",
"E. c #DAC788",
"W. c #C1CF98",
"Q. c #E1CF8B",
"!. c #E4D28D",
"~. c #ECC59D",
"^. c #ECC99B",
"/. c #E5C695",
"(. c #F4D49D",
"). c #ECD197",
"_. c #CAD5A9",
"`. c #CFD9B0",
"'. c #CAD3B0",
"]. c #D4DDBC",
"[. c #D1DBB3",
"{. c #D1DCAF",
"}. c #F4CCA2",
"|. c #F8CFA4",
" X c #F5D1A1",
".X c #FCD4A6",
"XX c #FFD7A8",
"oX c #FFD9AB",
"OX c #FAD9A2",
"+X c #FFDDB0",
"@X c #DAE3BE",
"#X c #C6C7C5",
"$X c #D9D9D9",
"%X c #D7DCC9",
"&X c #DCE5C2",
"*X c #DDE1D1",
"=X c #E9EEDB",
"-X c #E4E9D4",
";X c #E1E8CE",
":X c #EAEAEB",
">X c #E9EAE5",
",X c #EEF2E3",
"<X c #EEF0EA",
"1X c #F0F4E6",
"2X c #F2F4ED",
"3X c #F8F8F8",
"4X c #EDECF1",
/* pixels */
"                                          + + + o + + . + o o o o o . o o o . o + . . + . . o o o o o o . . + o . + . .         ",
"                                          # # # # # % # # # # # # # # # # % % # % # % # # % # # # # # # # # # # # # # #         ",
"                                          8 8 8 8 9 8 8 9 8 8 9 q 8 0 q 8 9 9 9 8 8 9 8 9 0 9 9 8 9 9 9 9 9 9 0 9 0 9 9         ",
"                                        9 w r t t t t t t t u u u g g u g u u u k u u g u u g u u g u u g u g u u u u t r       ",
"                      @ # o o o . . o % 9 u l x c v v v v v n m Y Y m m m m m m Y m Y Y Y Y Y Y m m Y Y Y m Y Y m n n l t 8 # . ",
"                  % % % # # # # + + + 8 t l n R E E E E W ! ) ] | ]  . .] ] ]  .] | | ] ' ]  .] ]  .]  .]  .|  . .' W v u q # o ",
"                # % % % % % & 8 % % 8 9 y x E ^ ' ' ' ' ]  .o.+.$.%.%.%.%.%.%.%.%.%.%.$.%.$.%.%.%.%.%.%.$.$.%.&.%.%.' m u 8 % . ",
"                + # % % 8 9 w w r w 9 y l m ^  ... . . ...o.$.%.&.&.2.2.l.l.l.l.l.l.&.&.&.&.%.%.%.&.%.%.&.&.&.z.z.%. .R g 9 % o ",
"            @ O + @ % 8 w y g l h k k h T Q ^ o....... ...o.#.$.%.%.&.2.l.l.l.z.z.l.&.&.$.$.$.$.$.$.$.$.$.$.&.l.x.2.X.R g 9 + . ",
"          @ @ o + + % 9 t z n Y R R T T Q ! ^ .. . . . . . . ...+.$.%.&.&.l.l.l.l.l.%.$.+...o...o.....X.....$.&.2.&. .R k 9 # o ",
"        & % & # # # % 9 g b W ` ^  . .^ ^ ^ | ^ ' | |  .| |  . ...o.$.&.&.&.&.&.&.%.+... . . . . . . . . ...+.$.%.$.' m u 8 # + ",
"        - - - = $ $ & w g T ! X.;.w.w.w.:.X.^ ^ ! ! ` ' ] | | |  .o.$.%.&.%.$... . . . ... ... . ..... ... .X.....' E v t 8 # o ",
"      , 2 3 3 < ; = & w g T ! +.i.n.I.I.S.7.~ Y n Q W ) ! | | |  .o.$.%.%.+.' ~ R E ^ ' ..o.+.o.o.o.o.o.+...| ^ ~ m x y w 8 # + ",
"@ % = < 5 F F 6 1 - & q g T ^ ;.n.T.{._.Y.7.S l j M Q ! _ | | |  .o.$.&.$. .R v l x Y ` o.+.%.%.$.$.%.%.$.+.' E v k y 9 8 % # # ",
"@ # = < 6 H K J 7 : & q f b ^ w.I.{.*X*XR.V.C s t j Q )  . . .|  .+.%.%.$.' n k t g n ^ +.&.2.&.&.&.&.4.&.#.' Y k r 8 8 % % # # ",
"@ # = 2 G K P K 6 > & 9 f b ^ w.U.@X,X:X#XV.C w w z ~ 1.;.;.1.X.X.o.$.&.$.' m k t k n ` +.2.4.2.&.&.2.2.2.$.' Y z r 8 & & % % # ",
"@ @ = 2 G L I L F > = 9 f M ^ w.U.&X1X<X#XV.V 0 9 Z ( f.n.w.,.+. .o.#.*.$. .E v z v E | %.&.l.l.&.2.2.z.z.%. .^ b k y q 8 & @ @ ",
"@ % = 2 G L I L F > = 9 f M ^ w.U.&X1X:X#XV.V 0 V D e.R.R.U.q.;.....#.&.<...' ^ W ~ ' o.&.2.&.l.2.2.2.&.&.&.+. .^ Y x g q & % + ",
"@ @ = 2 F L I K F > 8 9 f x ! ,.U.&X,X>X#XV.B a B 7.F.%X&X_.n.;. ...#.%.&.%.#... ...+.%.&.&.2.&.&.2.2.&.2.&.&.$.+. .~ v t 8 % + ",
"@ + = < F H L J 5 : = 9 f T ! <.U.&X,X>X#XZ.D V D Z.#X>X=X@Xm.;..._ ..&.&.&.&.&.&.&.&.&.&.&.2.&.2.&.&.2.&.&.&.&.&.$.' n u 9 # . ",
"+ # = , 4 F G F 3 ; & 9 f b ^ w.U.&X1X2X$XF.C.( Z.D.$X3X<X].Y.:. ._ #.&.&.l.l.&.2.2.2.&.&.&.l.&.&.&.&.&.&.&.l.z.l.&. .Y k 9 # o ",
"@ # & - < 3 4 3 : $ % 9 f M ` w.U.&X1X3X:X#XD.F.D.$X4X3X1X].Y.:. ._ o.*.&.2.&.z.l.2.2.l.&.&.&.&.&.2.l.&.&.l.&.z.z.&. .R u 0 % . ",
"% % % $ = - - - $ $ % q g b ) :.U.@X,X3X3X:X$X$X$X4X3X3X,X].I.:.o._ _ 2.&.l.&.l.2.l.&.&.&.l.4.&.2.4.&.&.&.2.l.z.2.%. .Y u 9 # o ",
"+ % % % $ $ & & $ $ & e f M ) 3.I._.-X2X3X3X2X4X2X3X3X2X-X_.I.:..._ #.*.&.&.2.&.&.&.&.2.&.&.&.&.&.&.&.&.&.&.2.l.l.%.] m u 9 # o ",
"% # @ % @ % # & $ ; - i i M m { e.T.&X-X=X=X=X=X=X=X=X;X@XT.n.;.o.o.#.2.2.2.%.2.2.&.2.2.&.2.&.2.2.&.2.2.2.2.2.z.z.%. .Y k 9 # . ",
"% % % + @ @ % $ : 2 4 5 d i c Z ~ A.T._.`.[.{.`.`.`.{.R.T.I.n.*.#.#.$.$.2.2.2.2.&.&.&.&.&.&.&.2.&.&.2.2.2.2.z.z.z.&. .Y u 9 # o ",
"      @ @ @ % - 2 6 G U d d i l / 7.q.f.I.n.I.n.n.I.n.n.f.w.,.<.%.$.2.2.2.2.2.2.&.2.2.&.2.2.&.&.&.2.&.2.2.4.z.z.z.&. .Y u 9 # o ",
"        @ @ $ : 5 J L H F 2 - w k / ^ 1.;.<.;.<.1.;.;.;.;.<.%.*.2.2.%.2.2.2.2.$.&.2.&.&.&.&.2.&.2.&.&.&.&.&.&.4.&.$.] m u 0 # o ",
"        @ @ & < 6 K I L G 2 = q y x ! ^ _ _ _ _ ^ ^ _ _ o.#.#.*.$.2.2.2.%.2.2.2.&.2.&.&.2.&.2.2.2.&.%.+.o. .o.o.o.] W v y 8 # o ",
"        @ @ & < F K I L G 1 $ 8 9 x ! ^ _ _ _ ^ _ ^ ^ _ _ _ ..#.#.2.$.2.2.2.2.%.2.&.2.l.l.l.l.l.2.&.+.' ` R R R R R v g w 8 # + ",
"        @ @ & < F K I P G 1 * 8 f x E ^ _ _ ^ _ _ _ ^ ^ ^ _ o.o.+.#.$.2.%.2.2.2.2.2.2.l.l.l.z.z.l.%. .W v z k k l k u w q % % # ",
"        @ @ $ < 6 H I K G 1 ; 8 f Z / ^ #._ o.^ ..^ _ .._ ..| ..X.+.#.$.2.2.2.2.&.&.&.&.&.&.2.l.&.+.` n u w 9 q q q 9 9 % % # # ",
"        @ + $ , 5 J K H 6 > * q y v ! )  . . .' '  .'  . .' '  . ...+.%.2.4.2.2.&.&.%.$.+.+.+.+.+.| ~ x r 8 # + # % % % % % # % ",
"        @ # & - 2 5 G F 3 : * 8 f b ! ] .. . . . .'  . .'  .' |  . .o.+.#.%.2.%.&.$. .' ^ ^ ^ ^ ^ R n g q # . . . + + + # # % # ",
"        @ % % = , < 3 2 : * $ 9 y n !  ... . .| '  . .'  .' ' | ]  ...o.+.#.$.2.&...' Y x z z z v z k y 9                       ",
"        @ % % $ = - ; ; * $ % 9 y b W ' .. . .] | ] ' _  .] | | )  . . .X.#.$.%.*. .~ x y w w w r r w q                         ",
"        % # % % % & % $ # # % 9 y v E ^ '  .'  . . .'  . . . . . ... .....o.%.2.$. .E z r 8 8 & & & %                           ",
"          % # % + @ @ + @ + # 8 y k b R W ` ' ' | |  .) _  . . . ..._ o...o.$.%.*...W x g q 8 % % + +                           ",
"              @     @ @ @ + % % 9 t k c n W ! ' | | ' _ _  ._ o.o.o.o._ _ #.%.*.*.o.^ E b h t q % + +                           ",
"                        + % % % & 8 w y z n ! '  . .| | _ o.+.+.#.*.%.%.*.*.%.2.*.*.#...! R z t 8 @ +                           ",
"                          % % % % % 8 8 y v E '  . .X. ...+.%.2.2.2.2.4.2.2.4.2.2.4.2.4.$.] R i q % o                           ",
"                          # % # + @ + & t x R ' X.o.O.-.3.6.6.5.c.c.c.c.c.c.p.c.c.v.v.v.5.3.` c w % o                           ",
"                            % # + . + 8 t z R ] O.-.3.3.u.g.h.M.M.M.M.M.M.M.N.N.M.B.M.B.M.u.{ c e & o                           ",
"                                + . # & r z R ' =.3.y.s.j.k.E.E.Q.Q.!.Q.!.!.E.Q.!.!.!.!.B.j.0.S a % o                           ",
"                                  o o 8 t z E ' -.3.j.j.K./.^.^.(.(. X(.(.(.(.(.(.(.(.OX(.K.0.A s % X                           ",
"                                  o O 8 t z E ] -.u.j.J.L.~. X|.XXoXoXXXXXoXXXXXoXoX+XoX.XE.8.A p & o                           ",
"                                  . o 8 r h R ] 3.u.j.J.P.~.}.XXoXoXoXoXoXoXoXoXoXoX+X+X.XP.8.A p 8 X                           ",
"                                  . o 8 r z T ] 3.y.j.J.P.~.}..XXXoXoXoXXXoXoXoXoXoX+X+X.XL.8.A p % X                           ",
"                                  + + 8 r z E ] -.u.j.J.P.~.|..XXXXXoXoXXXoXXXoXoXoXoX+X.XL.9.A p % X                           ",
"                                  & 8 w y v E ] >.u.j.J.P.~.}..XXXoXXXXXOXXXXXXXoXoX+XoX.XL.8.A p & o                           ",
"                                q y y k v T !  .-.t.j.J.P.~.|..XoXoXoXXXXXXXXXXXoXoXoX+X.XL.9.A p % X X                         ",
"                    % + o . o 8 y z n Y E ! !  .-.t.j.J.P.~.}..XXXoXoXoXXXoXoXXXoXoXoXoX.XL.9.A p @ X X o %                     ",
"                  % % + + o # 9 g m ! ]  ._ ] O.-.t.j.J.P.P.|.XXXXXXXXXXXXXXXXXXoXoXoXoX.XL.9.A p # o X O O %                   ",
"                  # % % # % 8 w z E | +.#.o. . .=.r.s.H.P.P.^.(.OXOXXXXXXX.XXXXXOXXXoXoX|.L.9.A s & O o O % %                   ",
"                # # # & 8 q r l n ^ ..%.$.#...] O.3.t.j.J.K.E./.).).(.}.|.|.|.|. X(.(.(.).k.t.} c t 0 8 % % % %                 ",
"                + + % 9 w u v Y !  .+.%.#..... .O.-.r.t.s.g.N.N.E.E././.~.~.}.}.^.^.Q.Q.B.h.3.{ ~ x u w 8 % + o                 ",
"                + + % w g n W '  .o.o.o.o... . .] O.=.>.r.6.p.v.b.M.E.E.P.P.~.P.P.L.B.N.b.p.6.@.] W v y w % # o                 ",
"                  + % w l R ' o.o...] ] ' ] '  .X. . .X.O.@.%.4.5.v.k.K.J.L.L.P.L.G.h.a.5.2.2.*.$. .R z w % +                   ",
"                  + % w k R `  . .' ^ W ! ) ` ] ]  .| ....#.#.&.4.p.a.k.H.J.J.J.j.k.a.5.4.%.&.2.&.o.W z r % +                   ",
"                + + % q y z m R R m v n R E ` '  .........#.*.&.x.5.v.a.h.h.k.k.h.a.5.6.$.$.*.&.%.X.W z w 8 o .                 ",
"                + + % 8 q y g g u u u u v R ! ' ..o.o.+.$.*.&.&.z.x.c.v.p.a.v.a.p.5.6.<.+.+.+.$.$.] R z w % # o                 ",
"                  + % % & 0 q q 9 9 q w u v E ' ..o.$.%.&.&.&.&.&.&.&.4.4.4.5.4.4.<.%.O... ... . .) Y g r % #                   ",
"                  % # % % % % % # # O 8 t v R ] o.$.&.&.&.$.$.+.o.......#...+.+.....] ' ! ! ` ) ^ E v g w % +                   ",
"                    % % # o o o o . o & r z R ' o.$.&.&.&.+.| ^ W ~ W W E W W W E E R T m n n n n v z y q %                     ",
"                                . . + & r v R ' o.%.2.&.$.' R n z z z z z h z z z h h g g g g g g u y r q                       ",
"                                  o + 8 r z R ] o.%.2.%.o.^ v u r w w r r r r r r w w w w r q q q q q q                         ",
"                                  o % 8 t v R ` ..+.$.o.] R l w & % % % % 8 % % % 8 8 % % % 8 % % % %                           ",
"                                  o + 8 r v W '  . .] ) R v u 9 + . o o o O o @ o o o o + o o + # +                             ",
"                                  o % 8 t v W ' ` ^ R b c g t 8                             o o                                 ",
"                                  o + 8 y v W ` ^ R z u t w 9                                                                   ",
"                                  o # & t x R ! R v u q 8 %                                                                     ",
"                                  + % 8 w k v R n z t % o                                                                       ",
"                                  # % & q t g z l u q %                                                                         ",
"                                  # @ % 8 q r r r w 9                                                                           ",
"                                  % # % % % 8 8 8 8                                                                             ",
"                                  # % # % % % # # %                                                                             ",
"                                  % % # # # + o o                                                                               "
};
