/* XPM */
static char *_3_resized[] = {
/* columns rows colors chars-per-pixel */
"64 77 202 2 ",
"   c None",
".  c #2B2F1E",
"X  c #262A1C",
"o  c #2C311E",
"O  c #2E3520",
"+  c #2C3820",
"@  c #313620",
"#  c #3B3621",
"$  c #333922",
"%  c #3A3C23",
"&  c #423622",
"*  c #433A23",
"=  c #4B3924",
"-  c #4B3623",
";  c #5B3724",
":  c #523A25",
">  c #5C3A25",
",  c #533724",
"<  c #633524",
"1  c #633A26",
"2  c #693A27",
"3  c #6E3C28",
"4  c #7D3A29",
"5  c #753A28",
"6  c #3B4325",
"7  c #3E4926",
"8  c #414A27",
"9  c #444D29",
"0  c #494A2C",
"q  c #475129",
"w  c #4A552A",
"e  c #4D592C",
"r  c #515E2D",
"t  c #5B572B",
"y  c #4E4E33",
"u  c #434935",
"i  c #515136",
"p  c #6B4B27",
"a  c #4E622A",
"s  c #54622E",
"d  c #58692F",
"f  c #566430",
"g  c #586630",
"h  c #5C6B32",
"j  c #626D37",
"k  c #647435",
"l  c #667A34",
"z  c #697B37",
"x  c #6B7E38",
"c  c #666B2E",
"v  c #575C4A",
"b  c #5B5F50",
"n  c #5B654A",
"m  c #686D47",
"M  c #746E4B",
"N  c #646B56",
"B  c #7A6F50",
"V  c #6E7C4A",
"C  c #717866",
"Z  c #833B2A",
"A  c #8A3C2B",
"S  c #873726",
"D  c #983C2C",
"F  c #A43D2D",
"G  c #AB3D2E",
"H  c #B33E2F",
"J  c #BB3F30",
"K  c #8A402A",
"L  c #6E8139",
"P  c #6C8137",
"I  c #71853A",
"U  c #758A3C",
"Y  c #798F3D",
"T  c #7C923E",
"R  c #798945",
"E  c #7E9440",
"W  c #7A8858",
"Q  c #7C8671",
"!  c #849D3E",
"~  c #88A23F",
"^  c #87A03F",
"/  c #809741",
"(  c #849C42",
")  c #899D46",
"_  c #899E4C",
"`  c #8A9857",
"'  c #888D4F",
"]  c #87A042",
"[  c #8AA344",
"{  c #8EA945",
"}  c #8DA34A",
"|  c #91AC46",
" . c #92A44C",
".. c #93AD48",
"X. c #98AE4D",
"o. c #95B146",
"O. c #96B249",
"+. c #9AB54A",
"@. c #9EBB4C",
"#. c #98B847",
"$. c #94A552",
"%. c #9BA655",
"&. c #93A954",
"*. c #96AB5A",
"=. c #99AE5D",
"-. c #9DAA55",
";. c #9CB15F",
":. c #A0BE4E",
">. c #A3A95C",
",. c #A3BC52",
"<. c #ADBD5C",
"1. c #A7B65A",
"2. c #8D967B",
"3. c #8E906D",
"4. c #AD9672",
"5. c #A7956C",
"6. c #9CAD6A",
"7. c #9CB160",
"8. c #9CAB76",
"9. c #ACAB65",
"0. c #AFAC68",
"q. c #B1AD69",
"w. c #B0AF67",
"e. c #A2B56C",
"r. c #B3BC63",
"t. c #B9B86C",
"y. c #ABBB7A",
"u. c #A8BB70",
"i. c #BEB872",
"p. c #BCAF74",
"a. c #C3B27A",
"s. c #C5BA78",
"d. c #A3C14F",
"f. c #A6C350",
"g. c #A8C055",
"h. c #B2C15F",
"j. c #B6C461",
"k. c #BCC16A",
"l. c #C9C974",
"z. c #CAC577",
"x. c #D0CB7B",
"c. c #8A8D84",
"v. c #93958B",
"b. c #8E9088",
"n. c #9EA88B",
"m. c #ADB989",
"M. c #ACB594",
"N. c #ABADA7",
"B. c #B3B9A8",
"V. c #CCB882",
"C. c #D1BA85",
"Z. c #D4B68B",
"A. c #D6BB8A",
"S. c #DABB8F",
"D. c #DDBB92",
"F. c #E1BD96",
"G. c #B6C58A",
"H. c #BACA8D",
"J. c #B4C487",
"K. c #BECE90",
"L. c #BBC1AF",
"P. c #DAC788",
"I. c #E1CF8B",
"U. c #E4D28D",
"Y. c #ECC59D",
"T. c #ECC99B",
"R. c #E5C695",
"E. c #F4D49D",
"W. c #ECD197",
"Q. c #C3CEA2",
"!. c #C8D4A5",
"~. c #C3C6BC",
"^. c #CED8B2",
"/. c #D4DDBA",
"(. c #D3DDB7",
"). c #F4CCA2",
"_. c #F8CFA4",
"`. c #F5D1A1",
"'. c #FCD4A6",
"]. c #FFD7A8",
"[. c #FFD9AB",
"{. c #FAD9A2",
"}. c #FFDDB0",
"|. c #D8E1BD",
" X c #D7E0BD",
".X c #C4C5C3",
"XX c #CACAC8",
"oX c #D6D6D4",
"OX c #D4D9C6",
"+X c #DBE4C3",
"@X c #DFE8C3",
"#X c #E8EDDB",
"$X c #EBF0DF",
"%X c #E5E5E4",
"&X c #EAEBE5",
"*X c #ECEDEA",
"=X c #E7E9E1",
"-X c #EEF2E3",
";X c #EFF0EC",
":X c #F1F5E7",
">X c #F5F5F5",
",X c #F9F9F8",
/* pixels */
"                                                                                                                                ",
"                                                                                                                                ",
"                                                                                                                                ",
"                                                                                                                                ",
"                      $ @ O o o o O o O o o o o o o . o o . O . . . . . . . o . . . . . . . . . . O . . . . . . . .             ",
"                  @ $ $ @ @ @ @ + O O O @ @ @ @ @ @ O + @ O O O @ O O O @ O O @ O + @ O @ + O + O O O + @ @ O + @ @ +           ",
"                $ @ $ $ $ $ % 6 6 % % 6 6 $ $ 6 % 6 % 6 % 6 6 6 6 % 6 6 6 6 6 % % 6 6 % % 6 % 6 % 6 6 % % 6 6 % % 6 % 6         ",
"                O @ $ $ 6 7 9 q q q q q q q q q q q q q q w w w e e e e w w e e e e e e e e e e e e e e e e e e e e e w         ",
"            + + O + $ 6 9 e s h h h d h h h h d d d h h h h k l k z k k z k k z k z k k z k z z k z l k k z k z z j j f w 6     ",
"          + + O O @ $ 7 w h z L I U L L L L I I I I I T U U R E / / / / / E / / E / / / / E E / / / / / / / / / / E U j e 7 $ O ",
"        # $ # $ @ @ $ 7 r z U / ! E T T E T ( T E E E E E { { ..O.O.+.O.O.O.O.O.O.O.O.O...O.O.O.O.O.O.X.O.O.O.+.+.../ x r 7 O O ",
"        = = = * # # % 9 d L T [ [ { { [ [ [ [ [ ] [ E | E | o.#.@.@.@.@.@.d.@.f.:.,.@.@.@.@.+.+.@.+.@.+.+.@.:.d.f.+.[ L r 7 @ . ",
"      : 1 2 2 > : & % 9 f P E [ { [ ~ ~ ] { { { { ] ] { o.o.o.#.+.@.@.f.f.f.f.f.f.f.@.@.+.+.O.+.+.O.O.+.O.+.@.d.f.:.} I f 7 @ . ",
"+ $ * > 5 Z A 5 < = % 7 d z E [ { [ ^ ^ ] ] [ { [ ] ~ E E #.E #.O.O.+.@.@.:.f.f.f.:.@.O.| | | ............| +.:.f.@.{ I r 7 $ . ",
"+ $ * > Z D F D 5 , * 9 f z E [ ] ] ] ] ] [ } [ ] ] { ] E E O.E } | +.@.@.@.:.@.@.+.O...[ | [ [ [ [ [ [ [ { | O.+.+.) x s 6 @ O ",
"+ @ * 1 Z F H F 4 , 6 7 a z E [ &.*.*.*.&._ E E E [ &.*.*.&.&.O.[ | O.+.@.@.+.| { { { [ [ [ [ [ [ [ [ [ [ { } ....[ E k e 7 @ . ",
"+ O * 2 A G J G Z ; % 8 a P T ..;.u.k.y.6.&.R R R W e.m.u.e.;.E [ ..O.+.@...[ E E E E [ [ | { { ..{ { | { { [ / E U z f q 6 + O ",
"+ + * 1 A G J G S ; * 7 a P T &.u.H.!.L.M.Q V h R 3.G.L.K.G.y.E [ { o.+.O.] E z h k I / | O.O.O.X...O.O.O.| ) Y z h e 9 6 % $ O ",
"+ $ * 1 A G H F S ; * 7 a l T *.J.!.@XOXB.2.N s N 2.L.OX@XL.k.*.[ { o.+.O.( P f e f z E ..+.@.@.@.+.@.@.@.O./ L h w 7 6 % $ @ @ ",
"+ + # > 4 D G D 5 , 6 7 a l T =.H.|.#X#XL.c.v v N b..X&X$X/.H.=.| ~ O.@.O./ z f w r z E O.@.d.d.@.@.:.:.@.O.) L f 9 6 % $ $ @ $ ",
"+ $ # : 3 A A 4 < - % 7 a l E 7.K.+X*X*X.Xc.v 7 b b..X*X-X XG.=.{ ~ #.#.O.) I j f h I ) O.,.d.d.:.:.f.:.:.+.[ Y k r q 7 6 $ + $ ",
"+ $ # = > 2 3 2 , & % 7 a P / 7.K.@X:X*X.Xc.v u b b..X*X-X+XG.=.{ [ o.+.+.| E U L U E } +.:.d.@.:.:.:.:.:.@.| ( R z h e 7 % $ O ",
"$ $ $ # * : : = & @ % 7 a l E ;.K.+X*X*X.Xc.v u b v..X&X-X XJ.;.| ~ o.#.+.O...[ ] [ ..O.@.:.:.:.@.@.:.:.@.@.+.X.{ / I h w 6 $ O ",
"$ $ $ $ $ # # $ # # % 9 a l T *.G.|.*X%X.Xb.N v N v.XX&X$X(.J.=.{ ~ | #.@.@.@.+.+.+.+.@.@.@.@.:.@.:.:.@.@.@.:.@.@.O./ z r 7 O . ",
"+ $ @ $ + $ $ # & = : 0 t c I ` J./.-X*XoXN.Q C Q N.oX*X-X(.J.=.} ~ o.:.:.:.:.:.:.:.:.@.:.@.:.@.:.@.@.:.@.:.d.d.f.+.[ L f 6 @ O ",
"$ @ @ + + + + % : 1 5 p p p c W n.L.&X>X%XXXN.N.N.XX%X>X-X XJ.=.| ~ ~ #.:.:.:.:.d.d.:.:.:.@.@.:.@.@.:.@.:.@.d.d.f.@.[ L f 7 @ . ",
"      + + + $ = 1 4 D A p p t m 2.L.=X,X>X%XoXXXoX%X>X,X-X(.J.=.{ { | :.:.:.:.:.d.:.:.:.:.:.@.@.:.@.:.@.@.:.d.d.d.@.[ L r 7 @ O ",
"        + + # : 5 D G D Z > 0 v Q B.oX>X,X>X;X&X;X>X,X>X$XL.m.=.[ ~ ~ :.:.:.:.:.@.:.@.@.@.@.:.@.@.:.@.:.@.@.d.d.:.+.) z r 7 @ . ",
"        + + # > 4 F H G S < * i Q n.L.$X:X:X-X-X*X:X-X#X+XL.k.*.| ~ ~ +.:.:.#.:.@.@.:.@.@.:.@.@.:.@.:.@.@.:.d.d.d.+.) x s 6 $ . ",
"        + + % > 4 F J G S < & u N Q L.^.|.+X+X|.+X+X X^.Q.J.6.&.{ ~ +.O.:.:.:.:.:.@.:.d.d.d.d.d.d.d.d.d.d.d.d.d.f.@.[ I s 7 $ . ",
"        + + # > Z F J H S < = u n W 8.J.H.H.H.G.J.G.G.m.k.6.*._ { { o.:.+.:.:.:.:.:.:.d.d.d.f.d.d.f.d.d.d.d.d.f.f.@.} L s 6 @ . ",
"        + + # > 4 F H F S < * 8 f R W 7.;.7.7.;.7.7.7.*.*.&.} [ [ { ..O.:.:.:.:.@.:.@.@.@.@.@.@.@.@.@.@.@.@.d.d.d.+.) x s 8 @ O ",
"        + + # : 5 A F D 4 ; & 7 e l T ) { { [ [ [ ) [ { [ [ ( [ [ { ..+.@.@.:.@.@.@.+.O.....| | o...........O.O.O.[ E z e 6 $ O ",
"        + $ # = 2 4 A Z 2 , # 7 a l U ! ) ~ ! ! ! ! ! ! ! ~ ( ] )  .| X.O.@.@.@.@.O.[ ( T R T R T T T Y T Y Y E E U z d q 6 O O ",
"        + $ $ * : > 2 1 , = # 7 e l T ! ~ ~ ! ! ! ! ! ! ! ( ( ] ~ [ { { | O.+.@.+...E L l h h h h k j h k h k j j h f e 7 % @ O ",
"        + $ $ # # = - - # # # 7 e l T ! ~ [ ] [ [ ! ( ! [ ( ] ] ) ~ [ [ { | O.@.#.{ Y j e q q 9 q q q w q q q q q q 7 7 6 $ $ @ ",
"        $ $ @ $ $ # $ # @ @ $ 7 e k I T [ ) [ ( ) ( [ ( [ ] [ [ [ ~ [ [ } | +.:.O.[ U h q 6 6 $ 6 6 $ % % % % % % % % $ $ $ $ @ ",
"          $ $ @ $ + + + + O @ 6 w d l U U / / [ [ ~ ] [ ] ~ [ [ [ { [ { { | O.#.#.{ Y k r 9 7 % + o O O O + o O + O O @ O + @ $ ",
"              +     + + + O $ $ 7 w d h x U ! ( [ ] ] ! ~ [ ~ | | o.| | | O.O.#.#.{ ! U l d w 8 $ o o . . .                     ",
"                        O $ $ $ % 7 9 e h x U ( ] [ ] ] [ { o.| o.o.o.o.O.#.#.:.+.#.| [ ! I j w 7 + o o                         ",
"                          $ $ $ $ $ $ 8 r k U / [ [ ) [ { X.O.:.:.,.:.,.,.:.,.,.:.,.:.,.O.) L f 8 $ o                           ",
"                          @ $ @ o o @ 6 w k U ( {  .%.$.-.>.1.<.h.h.h.h.h.h.h.h.h.j.j.j.h.>./ g 9 $ o                           ",
"                              @ o o @ $ w h U (  .%.>.>.w.i.s.l.l.l.l.l.l.l.l.l.l.l.x.x.l.w.' j 0 $ o                           ",
"                                o o @ 6 w h I )  .>.q.p.s.s.P.P.P.U.U.U.I.U.P.I.U.U.U.U.I.a.5.m y % o                           ",
"                                  o o 6 w h U ! %.9.p.V.Z.R.Y.T.E.E.E.E.E.E.E.`.E.E.E.{.E.A.5.M y $ .                           ",
"                                  o $ 6 w h U ) -.0.a.C.D.Y.).'.].[.[.].].[.].].{.[.}.[.'.P.4.B y $ .                           ",
"                                o o o 6 w h I ( %.0.a.Z.F.Y._.].[.[.[.[.[.].[.[.[.}.}.}.'.F.4.B i $ .                           ",
"                    $ @ @ o o o o X o $ q h U ) >.q.a.S.F.Y.).'.[.[.[.[.].[.[.[.[.[.}.}.'.D.4.B i $ .                           ",
"                  $ $ @ $ O + @ O O @ 6 w h U ( -.0.a.Z.F.F._.'.[.[.{.[.].].].[.].[.}.}.'.D.4.B i $ .                           ",
"                  @ $ $ % 6 6 7 6 6 6 9 s k Y ) %.0.a.Z.F.).).'.].[.[.].].].].].].[.}.[.`.S.4.B y $ .                           ",
"                @ @ $ % 8 w e f s r f f k P T [ %.0.a.Z.F.F.).'.[.[.].].].].].].].[.}.[.'.F.4.B i $ .                           ",
"                O O $ 7 w g z x L L L L I Y T [ %.0.a.Z.F.).).'.].[.[.[.].[.[.].[.[.[.[.'.F.4.B i $ .                           ",
"                  O % 9 f x E ) [ [ ] ) ( ! (  .%.0.a.Z.F.F._.'.].[.].].].].[.].{.[.[.}.'.F.4.B i $ .                           ",
"                  O $ 9 g I [ | +.+.+.O.o.{ [ [ $.9.p.Z.F.F.T.`.'.'.{.].'.].].].[.].[.{.`.D.5.B y $ o                           ",
"                  O % 8 f z E [ | +.+.+.O...[ { $.>.0.a.V.C.P.U.W.E.E.).`._._.'.`.`.{.E.R.s.5.m 0 $ o                           ",
"                O @ $ 6 w g z U / { O.+.o.{ [ [  .%.>.0.p.a.s.x.x.P.I.T.Y.).Y.Y.T.T.U.I.x.q.' m 0 % o                           ",
"                O @ $ % 7 9 e h x T [ | | { [ [  . .$.-.>.1.r.j.k.z.P.S.R.F.F.Y.R.P.P.z.k.>.' h 9 $ o                           ",
"                  $ $ $ $ % 6 q f z Y ( [ [ ) [ ) ) [ } X.&.+.,.<.t.z.C.Z.D.F.D.A.C.s.j.<. .U d 9 $ o                           ",
"                  $ @ @ O O $ 6 w h x Y ! ( ( ) [ [ [ [ { | #.#.,.r.t.s.V.V.Z.C.V.s.t.h.@.[ U s 9 $ o                           ",
"                    $ O O O + $ 8 e h l x Y / ) [ [ { { ..O.#.@.f.<.r.i.s.s.s.a.i.t.j.<.+.[ L d 8 $ o                           ",
"                        O O @ $ 6 8 w s k L T ) [ | ..o.O.+.@.:.d.<.<.j.r.r.t.r.r.r.g.,.+.[ I f 8 $ o                           ",
"                        @ @ @ $ $ $ 6 9 r k Y ( { ..O.+.+.@.@.@.@.@.@.,.,.,.,.<.,.,.g.f.@.[ U f 9 $ o                           ",
"                          @ @ $ $ @ $ 6 w k U ( | O.+.+.@.+.O.| | | { o.X.O.O.+.@.@.:.d.@.{ I g 9 $ o                           ",
"                            $ @ o o o % q h I ( | +.:.:.@.| ) E Y Y U Y T T [ | O.+.@.:.@.{ U g 8 $ o                           ",
"                                O . O % w h U ( ..+.:.:.O.) U l h h h h k P Y ! { o.@.d.@...I g 8 $ O                           ",
"                                  O O 6 w h I ( | @.+.@.| T k r q 9 8 8 e d z T [ ..+.@.+.{ U g 9 $ O                           ",
"                                  O $ 6 w j U ( { ..O...) I h 9 $ @ @ $ 7 e k U ( { o.O.| ) L f 8 $ O                           ",
"                                  O @ 6 w k U ( [ [ ( / U k r 6 O X . O $ w h I / [ [ ] / U l s 8 $                             ",
"                                  o @ 6 e k U ( / E I l j d q $ o X X o $ q k U ( ( T I z k f e 7                               ",
"                                  o $ 6 w k U / E L h s w q         . o 6 w j U / E L k r q 9 9                                 ",
"                                  O @ 6 w h U T U k e 9 6 $         o @ 6 w h I T U k r 8 % $                                   ",
"                                  O @ % q f l L l h q % O           o @ 6 9 f k L z h q 6 O                                     ",
"                                  O + % 7 w f h g r 8 $             @ $ $ 8 w f h g r 8 $                                       ",
"                                  @ $ $ 6 7 q q w 9 7               @ @ $ 6 7 q w w q 7                                         ",
"                                  @ $ $ $ % 6 6 6 6                 $ @ $ $ $ 6 6 6 6                                           ",
"                                  $ $ + $ $ # @ $ @                 @ $ $ @ $ $ $ @ $                                           ",
"                                  $ @ $ @ O O o O                   $ @ @ @ O O O o O                                           "
};
