/* XPM */
static char *_4_resized[] = {
/* columns rows colors chars-per-pixel */
"64 68 204 2 ",
"   c None",
".  c #232D16",
"X  c #252E19",
"o  c #2A2E1E",
"O  c #263119",
"+  c #2C321E",
"@  c #2F381F",
"#  c #31361F",
"$  c #323B1E",
"%  c #3E341E",
"&  c #2F3520",
"*  c #2C3820",
"=  c #273720",
"-  c #313620",
";  c #3D3622",
":  c #343A22",
">  c #3B3B23",
",  c #383E28",
"<  c #443923",
"1  c #4B3923",
"2  c #463722",
"3  c #543925",
"4  c #5C3A26",
"5  c #583722",
"6  c #643A26",
"7  c #6A3B27",
"8  c #6E3B28",
"9  c #733B28",
"0  c #7A3B29",
"q  c #743A27",
"w  c #3B4324",
"e  c #3F4825",
"r  c #3C422C",
"t  c #364220",
"y  c #414B26",
"u  c #444D29",
"i  c #44462C",
"p  c #475129",
"a  c #49542A",
"s  c #4E5A2C",
"d  c #495525",
"f  c #515E2D",
"g  c #505F26",
"h  c #444A33",
"j  c #484B32",
"k  c #464C38",
"l  c #4B513B",
"z  c #4C5533",
"x  c #515A35",
"c  c #54622E",
"v  c #5B6C2D",
"b  c #58662F",
"n  c #576430",
"m  c #586631",
"M  c #5E6D32",
"N  c #57613B",
"B  c #5F7032",
"V  c #626E38",
"C  c #627334",
"Z  c #677835",
"A  c #697C36",
"S  c #6C7E39",
"D  c #66753B",
"F  c #61732F",
"G  c #565C47",
"H  c #5C614E",
"J  c #5D6642",
"K  c #5E6250",
"L  c #686A48",
"P  c #766C4E",
"I  c #6A7647",
"U  c #757B4C",
"Y  c #676A5C",
"T  c #696D5D",
"R  c #656B57",
"E  c #6D7557",
"W  c #71795B",
"Q  c #717469",
"!  c #727668",
"~  c #6F7363",
"^  c #853C2A",
"/  c #8A3C2B",
"(  c #943D2C",
")  c #9B3D2D",
"_  c #A43D2D",
"`  c #AA3E2E",
"'  c #B23E2F",
"]  c #B93E30",
"[  c #B73E30",
"{  c #6E8139",
"}  c #6D8235",
"|  c #708437",
" . c #71843B",
".. c #768A3C",
"X. c #798E3D",
"o. c #728837",
"O. c #7D933E",
"+. c #778843",
"@. c #7E9440",
"#. c #748053",
"$. c #7B8365",
"%. c #7F8375",
"&. c #80973E",
"*. c #819A3F",
"=. c #809641",
"-. c #849C42",
";. c #889F43",
":. c #8B8E51",
">. c #87A142",
",. c #8BA344",
"<. c #8EA945",
"1. c #8EA149",
"2. c #91AC47",
"3. c #92A34D",
"4. c #94AE49",
"5. c #94B146",
"6. c #96B149",
"7. c #99B54B",
"8. c #9EBB4D",
"9. c #98B847",
"0. c #9DAB54",
"q. c #9AA455",
"w. c #9FB352",
"e. c #A1BE4E",
"r. c #A4AA5D",
"t. c #A1AA59",
"y. c #A3BA53",
"u. c #ABBD5A",
"i. c #A6B757",
"p. c #B0BE5F",
"a. c #838A6F",
"s. c #828678",
"d. c #95936F",
"f. c #B19A74",
"g. c #AD9871",
"h. c #ABAB64",
"j. c #B5AD6D",
"k. c #B4BD64",
"l. c #B8BA6A",
"z. c #B9AE72",
"x. c #BBB072",
"c. c #BFBB72",
"v. c #C3BC75",
"b. c #C7B77D",
"n. c #A3C14F",
"m. c #A6C450",
"M. c #AFC15C",
"N. c #B2C45D",
"B. c #BBC06A",
"V. c #C5C572",
"C. c #C9C974",
"Z. c #CCC57A",
"A. c #CFD077",
"S. c #93968A",
"D. c #96998D",
"F. c #949984",
"G. c #93968B",
"H. c #9DA194",
"J. c #A2A49B",
"K. c #A9ACA3",
"L. c #ABACA6",
"P. c #AEB0AA",
"I. c #AEB0A7",
"U. c #B2B4AA",
"Y. c #B8BAB2",
"T. c #CEB586",
"R. c #CEBA82",
"E. c #D4B98A",
"W. c #D4BB88",
"Q. c #DEBC94",
"!. c #E0BC95",
"~. c #BFC1BA",
"^. c #D9C687",
"/. c #DDC090",
"(. c #E2CF8D",
"). c #E0C68F",
"_. c #E4D18E",
"`. c #E3C395",
"'. c #E6C398",
"]. c #ECC49D",
"[. c #ECCC99",
"{. c #F1CE9E",
"}. c #ECD494",
"|. c #F3D29E",
" X c #C2C4BD",
".X c #F5CDA3",
"XX c #F8CEA5",
"oX c #F7D5A1",
"OX c #FBD5A5",
"+X c #FFD7A9",
"@X c #FFD9AB",
"#X c #FED9A5",
"$X c #FFDEB0",
"%X c #C9CAC5",
"&X c #D1D2CD",
"*X c #DDDEDA",
"=X c #D7D8D4",
"-X c #CED0C9",
";X c #E5E5E3",
":X c #E8E9E6",
">X c #EBECEA",
",X c #F0F0EF",
"<X c #F5F5F4",
"1X c #FEFEFE",
/* pixels */
"                                                    @ + & & + & & & & + & & & o + + + & & o + + + + & + + + & & o + + +         ",
"                                                    : - - ; - - - - : - - - : - : : - : : - , - - - : - : : - : : - : :         ",
"                                                    e y y y y y y u u u u u u u u u u u u u u u u u u u u u u u u u u u y       ",
"                                                  u s n n m n m m m M M B V M M M M M M M B C M B M M C M C M M V M M c s y     ",
"                                - - - - - * + # , u b Z | |  .S  ...X.O.O.@.@.@.O.@.O.@.@.@.@.@.@.@.@.@.@.@.@.@.@.@.X.S n u - & ",
"                              - - - : : : : - - : d v | O.&.&.&.-.-.<.4.6.6.6.6.6.6.6.6.6.6.4.6.6.6.6.6.4.4.6.6.7.6.4.X.M u : o ",
"                              - - , > y u y w # : y c Z  ...o.o.X.-.<.7.8.e.e.e.n.n.n.n.y.8.8.7.7.8.7.8.8.7.8.8.n.n.6.=.C u : + ",
"                          * * * - w u f b f u t $ t y c v v v v C o.-.6.8.e.e.n.n.n.n.n.n.8.7.4.6.6.6.6.6.6.6.8.n.m.8.=.C u - & ",
"                        * * * - - e s C S Z c e # # t e u y y y g C ..,.6.7.e.e.e.n.n.e.8.6.4.<.<.<.<.<.<.<.<.6.8.8.7.-.M u - @ ",
"                      ; > ; ; - - e f A .. .C x h h r r i r i h z M S @.,.4.7.8.e.7.7.6.4.<.<.,.;.,.;.,.,.,.,.<.6.6.4.+.M y - + ",
"                      3 4 3 1 ; : e s F S +.U E T T Y Y Y Y Y Y R E I  .O.*.5.7.6.<.;.*.-.;.,.<.<.<.4.<.<.<.,.,.,.-.X.Z f e : & ",
"                  ; 3 7 q q 7 1 > t e s m I $.F.H.J.K.J.H.J.J.H.F.a.E V C X.<.6.2.&.S Z S @.,.4.6.4.4.4.4.4.4.>.X.S M f y t ; * ",
"                * ; 4 0 ( ) ^ 4 < : # w p K s.U.&X*X*X*X=X*X*X=X XD.W x f A ;.5.1. .n s M ..<.7.8.8.7.8.8.8.5.>.{ n p w , - - - ",
"                - ; 4 ^ ` ' ( 7 < - O O r L D.%X,X1X1X1X1X1X1X1X*XL.! l d C *.4.>.S n d m ..<.8.y.e.8.8.n.e.8.-.{ n y w - , : - ",
"              = * > 4 / ' ] ) 9 < - O X , G S.&X1X1X1X1X1X1X1X1X:XP.Q k y v *.4.<.X.C m D @.4.8.m.e.e.e.n.e.8.<.+.Z f p e : : - ",
"              = : ; 4 / ' ] ) 9 < * O X , K S.-X1X1X1X1X1X1X1X1X:XP.Q k y v *.6.4.1.O...@.<.7.8.e.e.8.e.y.8.8.6.,.@.{ M a e - @ ",
"                * ; 4 / ` ' ( 8 < - O O w H D.-X<X1X1X1X1X1X1X1X;XL.! k u v O.5.8.7.4.2.5.7.8.8.8.8.e.8.e.e.8.8.7.4.,. .n u - * ",
"                * > 3 0 ) ) ^ 6 < - O + , H S.-X<X1X1X1X1X1X1X1X;XL.! k d F O.7.8.m.8.8.8.8.8.8.8.e.e.8.8.8.8.e.m.e.6.@.M u - + ",
"              * - > 1 6 0 0 9 3 > * O O , K D.&X1X1X1X1X1X1X1X1X;XP.! k e v O.9.m.m.m.e.m.8.8.e.8.e.8.8.8.e.8.m.m.m.7.@.C u : & ",
"              * - : < 1 4 4 3 < - * O O , K D.&X1X1X1X1X1X1X1X1X;XP.! h e v O.7.e.m.m.e.e.8.e.8.8.8.8.e.8.8.8.e.m.e.7.@.V u : o ",
"                - : : > < > ; > % # # o , G S.%X,X1X1X1X1X1X1X1X*XK.! l p F O.7.e.m.8.8.8.8.e.e.e.8.8.8.e.8.8.e.n.e.6.@.M u : + ",
"                : - - - - - > < 1 2 % # > G %.P.&X:X<X1X1X<X>X*X XH.W N c A >.7.e.e.e.8.e.8.8.8.e.8.e.8.e.e.8.8.n.n.7.O.M u : + ",
"                  : * * * : < 4 7 7 5 2 , k R s.J.~.*X,X<X;X%XP.D.a.#.S { O.<.8.e.e.e.8.e.8.8.e.8.8.8.8.e.e.m.m.m.m.7.=.C u : + ",
"                      * * ; 4 9 / / 9 3 > r k G ~ S. X;X>X&XL.Q W E +.=.>.2.6.8.e.e.e.8.8.8.e.8.8.e.e.e.e.e.e.m.m.n.7.O.C u : + ",
"                      * - < 6 / ` ` ^ 6 % * * t l ! I.*X:X XS.G z m o.2.9.e.8.8.e.e.8.8.8.e.8.8.8.8.8.8.8.7.7.7.8.8.4.O.m u - + ",
"                      * * < 6 ( ' ' ( 6 < + O O , Y K.*X>X Xs.G w c o.2.e.e.e.e.y.8.8.e.8.e.e.e.n.n.8.8.4.,.;.-.-.-.O.D c y : * ",
"                      = : < 7 ( [ [ ( 6 > + . . , Y K.*X>X Xs.r t d } <.7.e.8.e.8.8.8.8.e.e.e.m.n.n.n.7.;...D Z Z Z M n a w : - ",
"                      * - < 6 ( ' ' / 6 ; O . O r T K.*X>X Xs.G w g A *.4.6.8.7.8.m.8.8.e.e.e.e.n.n.8.4.+.C f p u a p u w : - - ",
"                      * * < 6 / ` _ ^ 4 ; # @ $ i T K.-X=XY.%.J u g A &.<.4.7.7.8.8.8.8.8.7.6.7.7.7.6.-.{ n w : : : > : : - - : ",
"                      * - > 3 9 / ^ 8 3 > : t u n E d.J.U.H.$.N f F | &.,.2.6.6.7.8.8.8.4.>.-.@.O.@.@...C a : + o o & * - - : - ",
"                      * - > < 3 6 6 3 < > e d b D I $.%.%.$.E I S  .&.-.,.,.<.2.6.7.8.7.,.X.Z m m M M m f u                     ",
"                      - : : ; < 2 2 < ; : y c A ..+.I J J J I ..&.&.*.*.;.;.,.<.4.6.8.6.-.Z c u u y u p y                       ",
"                        : - : : ; - - - : y n S ..S M d p c A O.-.;.>.>.,.>.,.,.<.8.8.6.-.Z s e t , : - -                       ",
"                        - - - * = * & * : e s M Z Z m g c v | O.,.<.2.2.2.<.<.<.<.9.9.5.>. .B s u t - * +                       ",
"                                    * - : , y d f n v C Z } O.*.,.<.2.4.4.4.5.5.5.8.8.7.2.>.X.A c u , @ o                       ",
"                                      - - : : > y s B  .O.*.-.;.,.2.6.7.e.e.9.e.8.8.8.8.8.8.5.-.{ f w # +                       ",
"                                      - ; * * - : a M X.;.1.3.3.3.t.i.u.u.M.M.M.M.M.M.M.N.N.M.w.@.N y # o                       ",
"                                        - * o & : a M X.<.3.0.h.h.l.V.V.C.C.C.C.C.V.C.V.A.A.C.l.:.V i - o                       ",
"                                            + @ , p M X.1.0.h.z.b.b.^.(._.}._.(._.(._._._.}._.R.g.V i - X                       ",
"                                            + # : d v ..1.r.j.b.W.'.|.|.|.|.|.|.oXoXoXoX#X#XoX/.g.P j # X                       ",
"                                              * t a M X.1.r.x.T.!.].XXOX+X@X@X@X@X+X+X+X@X$X@X'.f.P i @ X                       ",
"                                              + $ u v  .1.r.x.T.!.{.XXOX@X@X@X@X@X@X+X@X$X$X@X'.f.P j @ X                       ",
"                                              & # u b ..1.r.x.T.!.].XXOX@X@X+X+X+X+X+X@X@X$X+X'.f.P j @ .                       ",
"                                            : : e s C ..1.r.x.T.Q.]..XOX+X@X+X+X+X+X+X+X@X@X+X`.f.P j - X                       ",
"                                            u a c v } O.1.r.z.T.!.]..XOX+X+X+X+X+X+X+X+X@X$X+X'.f.P i + X                       ",
"                                  - + o - y f Z S ..O.-.1.r.z.T.!.].XX+X@X@X@X+X@X@X+X+X@X$X@X'.f.P i + O + -                   ",
"                              - - - @ + - p V X.;.1.;.;.1.r.j.T.!.]..XOX@X+X+X+X+X+X+X+X@X@X@X'.f.P j + O # - -                 ",
"                              - - : - , y s S -.6.7.2.;.3.q.j.b.E.).[.{.oXOXOXOXXX+XOXOX@X#XoX).z.P x > : - : -                 ",
"                              - : , e a n Z +.<.7.7.4.,.1.q.r.j.b.b.^.^.(.[.[..X.XXX.X.X[.}.(.Z.j.:.V a e w - - *               ",
"                              * : w a B  .@.;.<.4.4.<.,.1.3.q.t.h.k.l.V.Z.^.).`.].].'.'.).^.Z.B.r.3.=.Z c y t - &               ",
"                              & : y n  .;.<.4.<.,.<.,.>.,.;.1.3.3.6.y.u.N.v.W.Q.Q.!.Q.E.R.V.k.u.y.7.3.O.Z a > -                 ",
"                              & - y n  .;.,.>.-.O.O.*.-.>.,.>.,.<.4.7.8.u.l.v.R.E.E.E.R.x.k.i.8.8.e.7.;.S s w *                 ",
"                              & - e s C  . .{ S A { X.=.;.>.,.<.2.5.9.8.y.u.l.v.v.v.v.v.l.i.w.6.9.8.7.;.S f > * +               ",
"                              - - , y a n n f s f M S O.;.2.4.4.6.8.8.8.m.M.N.k.k.l.k.k.i.y.4.4.4.5.4.*.Z a > - +               ",
"                              - : : : w w w > w e s Z X.>.2.6.7.8.8.8.8.8.7.w.y.y.y.y.y.7.2.,.,.,.,.*.X.C a > -                 ",
"                              - - * ; - - * & - : a M ..>.4.7.e.8.9.<.,.,.,.>.,.,.,.>.-.-.O.+...X.X.X.S v p w *                 ",
"                                  - * + + o o o : u M ..>.6.8.e.7.<.O. .S S A S A A } A Z Z C M M C M M s p >                   ",
"                                            o + : d M ..>.5.8.8.5.-.S c s d s s s s s s s a a d p p p d p                       ",
"                                            & & w a M ..;.4.7.6.,...m u w : : w w w w r t , : > > t > : ,                       ",
"                                              - : a V X.-.<.1.-.O.D f w & o + * + & + & & & @ * - & - *                         ",
"                                              - > a C +.-.-...S C n a :                           &                             ",
"                                              * w d C O.=...C f p y                                                             ",
"                                              - : p M  .X.S n y , #                                                             ",
"                                              - t y c C Z M s w +                                                               ",
"                                              - : e p s f s u                                                                   ",
"                                              : : : > e y e                                                                     ",
"                                              - - : - : : :                                                                     ",
"                                              - - - - * & &                                                                     "
};
