/* XPM */
static char *_5_resized[] = {
/* columns rows colors chars-per-pixel */
"64 73 209 2 ",
"   c None",
".  c #262E19",
"X  c #2A2E1D",
"o  c #222B15",
"O  c #263119",
"+  c #2C321E",
"@  c #29341A",
"#  c #33361E",
"$  c #35391D",
"%  c #2F3520",
"&  c #2C3820",
"*  c #313620",
"=  c #333921",
"-  c #3A3A23",
";  c #3A3D27",
":  c #433923",
">  c #4B3924",
",  c #483723",
"<  c #533924",
"1  c #5B3A25",
"2  c #553621",
"3  c #633A26",
"4  c #6A3B27",
"5  c #733B28",
"6  c #7C3B29",
"7  c #44351F",
"8  c #39421F",
"9  c #3C4425",
"0  c #3F4825",
"q  c #3D432A",
"w  c #374022",
"e  c #3F4430",
"r  c #414B26",
"t  c #434D28",
"y  c #42462A",
"u  c #4D5B26",
"i  c #465129",
"p  c #4A552B",
"a  c #4E5A2B",
"s  c #475226",
"d  c #515E2D",
"f  c #424631",
"g  c #454B35",
"h  c #4A4C35",
"j  c #4C513E",
"k  c #4C5436",
"l  c #55543A",
"z  c #58593A",
"x  c #504F35",
"c  c #54612E",
"v  c #5B6B2D",
"b  c #59672D",
"n  c #566331",
"m  c #586531",
"M  c #5C6A32",
"N  c #5D683E",
"B  c #5F7032",
"V  c #616E36",
"C  c #637334",
"Z  c #677835",
"A  c #697B36",
"S  c #6C7D39",
"D  c #667539",
"F  c #4E5340",
"G  c #555A48",
"H  c #535944",
"J  c #615A42",
"K  c #5C6348",
"L  c #5F6352",
"P  c #676946",
"I  c #736B4B",
"U  c #6D7C41",
"Y  c #6A7547",
"T  c #777948",
"R  c #676B5D",
"E  c #6C725B",
"W  c #727B59",
"Q  c #7B6F52",
"!  c #6D7162",
"~  c #74776C",
"^  c #747968",
"/  c #7B7F71",
"(  c #6B6F61",
")  c #833C2A",
"_  c #8A3C2B",
"`  c #933D2C",
"'  c #9C3D2D",
"]  c #A43D2E",
"[  c #AB3E2E",
"{  c #B33E2F",
"}  c #BA3F30",
"|  c #847758",
" . c #6D8235",
".. c #6E8139",
"X. c #72853B",
"o. c #758A3B",
"O. c #798D3D",
"+. c #708536",
"@. c #7D933E",
"#. c #7D953D",
"$. c #7B8B42",
"%. c #788546",
"&. c #7F9440",
"*. c #768156",
"=. c #7B8365",
"-. c #7E8173",
";. c #80973F",
":. c #828C48",
">. c #809641",
",. c #859C42",
"<. c #8B9A4A",
"1. c #8C8857",
"2. c #91865D",
"3. c #8E9352",
"4. c #969C55",
"5. c #8BA344",
"6. c #8FA946",
"7. c #8EA349",
"8. c #87A042",
"9. c #91AB47",
"0. c #92A44C",
"q. c #94AE49",
"w. c #94B147",
"e. c #96B249",
"r. c #99B54B",
"t. c #9EBB4C",
"y. c #9AA754",
"u. c #9FB550",
"i. c #A0BE4E",
"p. c #A3AC5A",
"a. c #A2A45D",
"s. c #A2BA52",
"d. c #ACBB5C",
"f. c #A7B559",
"g. c #968762",
"h. c #83867B",
"j. c #848877",
"k. c #8B9279",
"l. c #A59869",
"z. c #AA9570",
"x. c #ABAA64",
"c. c #A8A763",
"v. c #B3AB6D",
"b. c #B5BA67",
"n. c #BCAE74",
"m. c #BCA37B",
"M. c #B6AB70",
"N. c #BFB972",
"B. c #BCB572",
"V. c #AEB362",
"C. c #C1BB73",
"Z. c #C6B67C",
"A. c #C0A77F",
"S. c #A3C14F",
"D. c #A6C450",
"F. c #BDC36B",
"G. c #C8C476",
"H. c #D2C97E",
"J. c #969A8B",
"K. c #9C9F94",
"L. c #9DA094",
"P. c #A2A59C",
"I. c #A8AB9D",
"U. c #AAACA4",
"Y. c #AAACA5",
"T. c #B2B4AC",
"R. c #B5B8AF",
"E. c #BABBB5",
"W. c #B7B8B2",
"Q. c #AEB1A8",
"!. c #CCB484",
"~. c #D3B58B",
"^. c #D6BA8B",
"/. c #D2BB86",
"(. c #DCBA92",
"). c #C5AA81",
"_. c #E2BF95",
"`. c #DCC48B",
"'. c #DEC98B",
"]. c #D6C584",
"[. c #E1CC8D",
"{. c #E3C295",
"}. c #EAC49B",
"|. c #EDC99C",
" X c #E8C896",
".X c #F1CC9F",
"XX c #F4D29E",
"oX c #EBD195",
"OX c #C3C4BF",
"+X c #F4CCA2",
"@X c #F6D2A1",
"#X c #FBD4A5",
"$X c #FFD7A9",
"%X c #FFD9AA",
"&X c #FFDFB0",
"*X c #FFE1B2",
"=X c #C6C8C1",
"-X c #D5D6D2",
";X c #DDDEDA",
":X c #D8D9D5",
">X c #D3D4CF",
",X c #E0E1DE",
"<X c #E4E4E2",
"1X c #E9E9E7",
"2X c #ECEDEB",
"3X c #F3F4F2",
"4X c #FEFEFE",
"5X c #F8F8F7",
"6X c #EFF0EE",
/* pixels */
"                                          % % % % % X % + X % % X X X % X X % X % X X X % X X X X X % X + % X % X % % X         ",
"                                          * * * * * * * * * * * = = * * - % = = % = = = = = = = = = = = = & * * * * * *         ",
"                                          9 9 9 q - 9 9 9 9 9 r 0 y 0 0 q 0 q 0 0 0 9 9 q 0 0 0 0 0 q 0 9 9 9 q 0 0 q 9         ",
"                                        r p p p a a a a a d d d d d d d d d d d a n d n d d d d d d d d n d c n d d a a t       ",
"                      = * + % + + + % w i c M C C C C C Z Z S S ........S S S ......S ....S ..S S S ..S ..........S C m a q * X ",
"                  = = & * * * * % % = 9 p M A X.o.O.o.o.O.&.>.,.,.8.,.8.,.8.8.,.,.8.8.,.,.,.5.8.8.<.8.8.5.,.8.5.8.,.O.Z d 0 * + ",
"                * = = = = - - = = = = 9 p M  .@.&.;.#.#.>.5.9.q.r.r.r.r.r.r.r.r.r.r.r.r.r.r.r.e.r.r.r.r.e.r.r.r.r.e.,.S d 0 = + ",
"                % * = w 9 0 i t 9 w $ $ r c C  .o.X.o.o.@.>.6.e.t.s.t.S.s.i.D.D.s.D.t.t.r.t.r.t.r.t.r.r.u.r.i.D.D.t.7...d 0 = X ",
"              % % & = 9 t d n n p 0 $ $ 8 0 u v v v v B Z o.,.9.r.t.D.S.i.D.D.D.D.i.i.r.r.e.e.e.r.e.e.e.w.r.r.D.D.t.6...m 0 & % ",
"          & % % % % = 0 d M A Z M s 8 # $ 8 0 s s r r s c C O.8.w.r.r.t.i.D.D.i.D.t.r.e.q.6.6.6.6.6.6.6.6.9.r.t.s.t.5...n 9 = X ",
"        - - = = * * = r d Z X.X.A n t w w w q e 0 0 q 0 p M ..&.5.q.r.r.t.t.t.t.r.e.e.9.5.5.5.5.7.5.5.5.5.5.9.e.r.e.,...d 0 * % ",
"        , , , , - - - 0 d C X.$.U Y K K G G G G G G H H K Y U $.@.8.q.r.t.r.q.9.7.5.5.5.5.6.5.5.5.5.5.5.6.5.6.6.6.8.$.B p 9 % % ",
"      < 1 3 4 1 < : = 9 i c C S *.=.j.j.h.h.h.h.h.h.h.-.=.^ Y D S O.8.w.r.q.,.@.o.o.&.,.7.6.q.6.9.q.6.q.9.7.5.&.&...B n t w = % ",
"& = - 1 5 ) ) 6 3 > - w 9 r d K *.k.I.R.E.E.W.T.W.E.E.R.P.k.W N M A #.9.w.5.O.Z M C X.>.6.r.r.r.e.e.e.r.e.9.,.$.C n a 0 q - = % ",
"@ = , 1 ) ' ] ` 5 < - = @ $ 0 N ^ I.=X,X1X1X1X<X1X1X1X;XOXL.^ l p v o.6.w.,.X.m p d Z &.q.r.S.t.r.t.t.t.t.e.,...n i 9 - = = * % ",
"& = : 3 ) ] { ] ) 1 - & @ O = F -.Q.;X5X4X4X4X4X4X4X4X5X-XU.~ j t c  .5.q.,.S c a n Z >.e.t.S.t.i.t.t.S.t.r.8...n i 0 w = = = = ",
"& & : 3 _ [ } [ ) 1 : # O O = F / T.<X4X4X4X4X4X4X4X4X4X,XY.~ j 0 u  .5.q.6.$.B B B %.8.r.i.i.i.S.S.S.D.D.r.5.&.C m p 0 q = = % ",
"& = : 3 _ [ } [ _ 1 - + O . = F / T.<X4X4X4X4X4X4X4X4X4X;XY.~ j 0 u  .5.r.w.8.$.X.O.&.6.u.i.i.i.t.t.t.t.t.t.q.8.&...B d t w = % ",
"& & : 3 ) [ } ] ) 1 - # O O = F / T.;X4X4X4X4X4X4X4X4X5X;XU.~ j e c  .8.r.r.r.6.6.6.9.r.t.i.i.i.t.t.t.D.t.r.r.e.6.,.$.B p 9 = % ",
"& & : 1 ) ' [ ' 6 1 - + O O = F / Q.;X5X4X4X4X4X4X4X4X5X;XU.~ j 0 c ..8.t.i.t.t.r.r.t.t.t.t.t.i.t.t.t.t.D.t.t.t.t.e.,.S d q % % ",
"% * : < 5 ) ` ) 4 > - + O + ; F -.T.,X4X4X4X4X4X4X4X4X4X;XY.~ j 0 u  .5.r.S.D.D.S.i.i.i.t.t.i.t.s.t.t.t.t.S.S.D.D.t.7...c 0 * % ",
"% * - , 1 4 5 4 < : = + O O = F -.T.<X4X4X4X4X4X4X4X4X4X;XY.~ j 0 u  .5.t.S.D.i.S.i.i.i.i.i.t.i.t.i.i.t.t.t.t.D.D.r.5...c 0 * X ",
"& = - - , < < > , - - + O + = F -.T.,X4X4X4X4X4X4X4X4X4X;XY.~ j 9 u  .8.r.S.D.i.i.i.i.i.i.t.t.t.t.i.t.t.t.t.D.D.D.r.8...d 0 * % ",
"* = = = = - - - - # - # + @ - F ^ U.-X3X4X4X4X4X4X4X4X6X>XU.^ l i c  .5.t.S.i.i.t.i.t.i.t.t.i.i.i.t.t.i.t.i.t.D.i.r.7.S d 0 * X ",
"= = * = % % = - - , , , $ # : h E J.E.:X1X3X5X4X5X6X1X-XE.J.*.K n B o.6.r.i.S.i.t.t.i.t.t.i.t.t.t.i.t.i.i.i.S.D.D.r.8...d q & + ",
"= * & % & & = - < 3 4 3 2 7 - f G ~ J.Q.OX;X6X3X2X;XOXU.J.j.*.....o.8.9.t.i.i.i.i.t.t.i.t.t.i.t.t.t.i.i.i.S.S.D.D.r.6...n q = + ",
"      & & & = , 3 6 _ ) 4 2 - q e G R -.P.OX,X6X,XOXL.j.^ W %.&.&.5.6.r.t.i.i.i.i.t.t.t.i.i.t.t.i.t.i.i.S.S.S.D.D.t.5...n 0 = + ",
"        & * - < 5 ` ] ' ) 1 : = w w g G j.R.;X2X:XY.-.K n N X.5.w.e.t.t.t.t.i.t.t.t.i.i.t.t.t.i.i.t.t.t.t.t.i.i.i.r.8.S d 0 * X ",
"        & & - 1 ) ] { [ _ 3 : = & O & g ~ U.:X1X-XP.( h r c +.6.r.i.i.t.i.t.i.t.i.t.i.t.i.i.i.i.i.t.r.w.9.6.6.9.9.5.&.C a 9 * % ",
"        & & - 1 6 ] } { ` 4 : = . o @ e ! U.:X2X-XP.R e 9 u  .6.r.i.i.i.t.i.i.t.t.t.i.i.i.i.S.S.i.t.q.8.&.$.$.o.O.o.C n t 9 * % ",
"        & & - 1 ) ] } { ` 4 , + . o @ e ^ U.;X2X-XP.R e 8 u  .;.e.t.t.t.t.i.i.t.i.i.i.i.S.S.D.D.S.r.5.$.S M M M M n d p 0 - * % ",
"        & & - 1 6 ] { [ _ 3 , # O O & g ! U.-X1X-XP.R g 0 u Z #.6.e.r.t.t.i.t.i.t.i.i.t.i.i.S.i.i.w.&...n p 0 0 0 i 0 q - = * * ",
"        & % - < 5 ` ] ] ) 3 , * + @ % g E K.=X:XOXK.E k s b A ;.5.6.w.r.t.t.t.i.t.t.r.r.w.w.e.r.q.5.O.M p - = % = = = = = = = = ",
"        & # - > 3 ) _ ) 5 < - * + + & e L h.U.T.I.k.E N c v  .#.8.6.6.w.w.r.t.t.t.w.6.;.;.#.#.#.&.O.S m r = % X X % % % = = % = ",
"        % & = , < 3 4 4 1 , = * + @ % e F R / h.j.*.U C B  .O.;.8.8.5.6.w.w.w.t.r.6.;.X.Z B B C C C M a 0                       ",
"        & = = = : > > > , - - = & # % ; ; j G L R Y ..+.+.#.;.;.8.8.8.5.8.w.w.r.r.5.O.V u i i i p p i t                         ",
"        = * = - - - - = - * = * = = = = - q q t n V $.&.,.5.7.7.7.7.7.7.9.e.u.s.s.5.o.V x y ; - 9 - -                           ",
"          = * = = % & % * = * = = & = = $ $ 0 i c S :.4.p.p.p.p.p.p.p.u.u.f.d.F.b.p.3.T V x h - = & %                           ",
"            = & & & & & & & * = * * = = 9 r p V D :.4.v.M.N.N.C.C.N.N.N.N.G.G.G.C.C.v.l.| | J h = X o                           ",
"                                % % = w r u B S :.4.c.n.Z./.].'.'.'.'.`.`.'.[.'.[.`.^.~.).z.| H ; % o                           ",
"                                  % * 9 i c A &.0.c.M.).^.{. X|.@X@XXXXX+X+X#X#X@X@X@X@X}.!.l.Q x - %                           ",
"                                    % 9 i v A $.3.a.M.Z./._.|.XX#X#X$X$X$X%X$X$X$X%X%X%X#X{.m.| P l h y                         ",
"                                      9 i u M S %.3.l.M.Z.^.{.|.+X#X#X$X%X%X%X%X%X%X*X*X%X.X^.z.g.| P J x                       ",
"                                        0 i p n V S 3.c.v.Z./.{.}.+X#X$X%X%X%X%X%X%X%X%X%X#X X~.A.z.g.I l -                     ",
"                                          w 0 t d C o.<.p.v.Z.^._.}.+X#X#X$X$X$X%X%X$X%X$X$X#XXX_.~.z.| z ; +                   ",
"                                          9 0 t d B X.,.0.c.Z.!.(.}.+X#X$X$X%X$X$X$X$X$X$X$X%X%X#X{.m.| z ; + .                 ",
"                                          i a n B A O.,.0.c.n.~._.}.+X#X$X%X$X$X%X$X$X$X$X%X&X&X$X|.m.| l - + . %               ",
"                              % % X % - i n Z S +.O.#.,.0.x.n.!.(.}.+X#X$X%X%X%X$X%X%X$X$X%X&X*X&X|.A.| l = X . + *             ",
"                          * = * % + = 9 a Z O.,.8.8.8.8.0.c.n.!.(.}.+X@X$X$X%X%X$X$X$X$X$X$X%X&X$X}.m.| z ; X + + = =           ",
"                          = % - = = w t m ..,.q.e.w.5.6.4.c.M.!.^.{.}.XXXX#X$X#X$X#X$X$X$X$X%X%X#X{.m.2.z 0 - + $ = = =         ",
"                          % = = w e p m Z @.5.e.r.w.6.5.0.y.v.n.Z./.`.[.oXoXXXXX+X#X+X+XXXXX@XXXoX].v.1.Y d 0 9 w = = &         ",
"                          % = 9 t d B ..$.,.6.r.e.q.5.5.0.4.y.x.v.B.G.G.H.].[. X|.+X+X+X|. X X[.].G.x.y.$.Z v p 9 = = %         ",
"                          % = 0 a B $.>.6.6.6.9.6.6.5.5.5.<.0.y.p.p.V.F.F.G.H.`.{.}.}._.{.{.].G.F.F.f.r.7.&.A n t w * %         ",
"                          % = 0 n S &.6.6.6.5.,.8.,.,.8.5.5.7.5.9.q.r.t.d.b.N.Z.~.~.(.(.^./.C.b.d.t.t.t.r.6.$.C p - % +         ",
"                          % = 0 d Z &.5.8.>.&.O.@.&.,.,.5.5.5.5.6.w.w.t.t.f.x.v.m.m.).!.!.C.N.d.t.r.t.t.t.e.&.C a 9 % X         ",
"                          % = 9 p n Z ..X.S Z Z S X.@.,.5.5.5.6.6.w.r.t.t.y.y.2.g.g.z.M.N.N.d.f.r.e.r.t.r.e.&.C a - * +         ",
"                          * = - 0 i d n n a a n M A X.,.5.6.q.w.w.t.t.i.r.9.:.T I T 1.4.V.b.f.u.e.6.w.e.e.5.$.B p w % %         ",
"                          * = = - 9 0 0 0 q 9 0 a B X.,.5.9.r.r.t.i.S.t.w.>.S z l n D <.y.t.u.e.6.5.5.5.5.,.X.M i w % %         ",
"                          = = = * = = * % % * - t M ..,.6.w.r.t.t.t.r.w.8.X.M i 0 i M o.8.6.5.8.&.&.&.&.#.O.S m i q %           ",
"                            = & % % % % + X % = t m ..&.6.e.t.t.r.w.6.#.X.C p 9 = 9 a B ..O.X...S Z A Z Z Z M d t w %           ",
"                                        X X + - t m ..&.6.r.t.i.r.6.&.Z M p r w = w r u m M M n c c d n c a a p r               ",
"                                          + % 9 t M S ,.6.e.u.r.e.&.S m i 0 w = & - w 0 0 0 i t 0 r r 0 t 0 r 0                 ",
"                                          + + w i m ..;.6.9.e.w.8.$.B i - = * = = = = = w w - = - = = = - = =                   ",
"                                          + = = i M X.;.,.6.,.&.o.S m 0 = X + % * * * % & & % % % % % % % * %                   ",
"                                          % % w i M X.,.,.&.X.A V m p 0                                                         ",
"                                          X % - i M X.&.#.X.C c a t 0                                                           ",
"                                          % % w i m ..@.o.A n r 9 =                                                             ",
"                                          % = = t n C S A M a 9 *                                                               ",
"                                          % * - q s n n M d t -                                                                 ",
"                                          * * = w 9 i p p i t                                                                   ",
"                                          * = = = w - 9 9 9                                                                     ",
"                                          = * = = = = * * =                                                                     ",
"                                          = = * & * % % % X                                                                     "
};
