/* XPM */
static char *__resized[] = {
/* columns rows colors chars-per-pixel */
"64 73 202 2 ",
"   c None",
".  c #2B2F1E",
"X  c #272B1D",
"o  c #2C311E",
"O  c #2F3520",
"+  c #2C3820",
"@  c #313620",
"#  c #3B3621",
"$  c #333921",
"%  c #3A3C23",
"&  c #433622",
"*  c #423A23",
"=  c #4C3924",
"-  c #4D3723",
";  c #5B3724",
":  c #533A25",
">  c #5C3A25",
",  c #543724",
"<  c #643A26",
"1  c #673825",
"2  c #723B28",
"3  c #7C3A29",
"4  c #793926",
"5  c #3B4325",
"6  c #3F4926",
"7  c #414B27",
"8  c #444D29",
"9  c #4B492C",
"0  c #465129",
"q  c #4A562B",
"w  c #4E5A2C",
"e  c #515D2D",
"r  c #5B582C",
"t  c #4E4E33",
"y  c #444935",
"u  c #515236",
"i  c #684A27",
"p  c #6C5028",
"a  c #4E622A",
"s  c #54622E",
"d  c #566530",
"f  c #596631",
"g  c #5C6B31",
"h  c #526238",
"j  c #656B39",
"k  c #647435",
"l  c #667A34",
"z  c #697B37",
"x  c #6B7D38",
"c  c #64753B",
"v  c #666D2E",
"b  c #575B4A",
"n  c #5B5F50",
"m  c #5C664B",
"M  c #6A6C47",
"N  c #766E4D",
"B  c #646A55",
"V  c #7A6F50",
"C  c #6B764E",
"Z  c #6F7665",
"A  c #823B2A",
"S  c #8A3C2A",
"D  c #893626",
"F  c #983C2C",
"G  c #A43D2D",
"H  c #AB3D2E",
"J  c #B33E2F",
"K  c #BB3F30",
"L  c #B63E30",
"P  c #87412A",
"I  c #6E8139",
"U  c #72853A",
"Y  c #758A3B",
"T  c #798E3D",
"R  c #7C923E",
"E  c #798944",
"W  c #7F9540",
"Q  c #74844D",
"!  c #7E876E",
"~  c #849D3E",
"^  c #88A23F",
"/  c #87A03E",
"(  c #809740",
")  c #849C42",
"_  c #899D46",
"`  c #899E4B",
"'  c #8A9B59",
"]  c #96915C",
"[  c #888D4E",
"{  c #87A042",
"}  c #8AA344",
"|  c #8FA945",
" . c #8DA349",
".. c #91AC46",
"X. c #93A44D",
"o. c #94AE49",
"O. c #95B246",
"+. c #96B149",
"@. c #99B54A",
"#. c #9EBB4C",
"$. c #92A652",
"%. c #9BA655",
"&. c #94A955",
"*. c #96AB5A",
"=. c #99AD5C",
"-. c #9BAA52",
";. c #95AA57",
":. c #A0BE4E",
">. c #A4AA5D",
",. c #A4BC53",
"<. c #ABBD5A",
"1. c #A5B856",
"2. c #8E967B",
"3. c #88916F",
"4. c #A4946A",
"5. c #AC9672",
"6. c #9BAD67",
"7. c #9DB163",
"8. c #9FAD7A",
"9. c #ACAB65",
"0. c #AFAC68",
"q. c #B2AD6A",
"w. c #A5B569",
"e. c #B3BD63",
"r. c #BBBD6B",
"t. c #B6B868",
"y. c #BBAF73",
"u. c #AABB7A",
"i. c #A9BA77",
"p. c #BDB771",
"a. c #C3B27A",
"s. c #C6B97A",
"d. c #A3C14F",
"f. c #A5C350",
"g. c #AFC15C",
"h. c #A8C055",
"j. c #B1C35D",
"k. c #BDC16B",
"l. c #B2C37F",
"z. c #C5C771",
"x. c #C6C971",
"c. c #CCC779",
"v. c #C1C46F",
"b. c #8A8C84",
"n. c #8D9086",
"m. c #92958A",
"M. c #9B9E95",
"N. c #9EAB83",
"B. c #ACB88B",
"V. c #A0A997",
"C. c #A8A9A3",
"Z. c #B5BBA9",
"A. c #D1BA86",
"S. c #D4B68A",
"D. c #D5B98A",
"F. c #DDBC92",
"G. c #CDB883",
"H. c #E1BD96",
"J. c #B5C489",
"K. c #B6C689",
"L. c #BCCB92",
"P. c #BAC2AA",
"I. c #DBCC87",
"U. c #D9C886",
"Y. c #D0CC95",
"T. c #E3D38C",
"R. c #EBC49D",
"E. c #E8C996",
"W. c #F0CB9E",
"Q. c #EED198",
"!. c #F2D49C",
"~. c #F8D89F",
"^. c #E1CC8D",
"/. c #C1CCA2",
"(. c #C8D4A5",
"). c #C2C3BD",
"_. c #D3DCB9",
"`. c #D2DCB6",
"'. c #CBD4B5",
"]. c #F4CCA2",
"[. c #FCD4A6",
"{. c #FFD6A8",
"}. c #FFD9AB",
"|. c #FAD4A4",
" X c #D8E1BD",
".X c #C5C5C3",
"XX c #C8C9C6",
"oX c #D4D7CB",
"OX c #D6D7D3",
"+X c #CED3C4",
"@X c #DBE3C3",
"#X c #DFE8C3",
"$X c #E9EDDD",
"%X c #E5E7DF",
"&X c #EBF0DF",
"*X c #E9EBE5",
"=X c #ECEDEA",
"-X c #E4E4E3",
";X c #EEF1E3",
":X c #F1F5E8",
">X c #F5F5F5",
",X c #F9FAF9",
/* pixels */
"                                                                                                                                ",
"                                                                                                                                ",
"                                                                                                                                ",
"                                                                                                                                ",
"                      O @ O o o o o o O o o o o o O o . o o . . . O . . . . . . O . . . . . . . . O . . . . . . . O             ",
"                  $ $ $ @ @ @ @ O O O O @ @ @ o @ O O + O O O + O O O O @ O O @ O O O O O O O O O O O O @ O O O O @ O           ",
"                @ $ $ $ $ $ % % 5 % $ 5 % 5 % 5 % % % 5 % 5 % 5 % 5 5 5 5 5 5 % 5 5 % 5 5 % % 5 % 5 5 5 5 5 5 5 % 5 5 %         ",
"                O @ + 5 5 6 8 0 0 0 0 0 8 0 0 8 0 0 0 0 0 q q q q q q q q q q q q q q q w q w w q q q q q q q q q q q 0         ",
"              + O + $ 5 8 q s g g g g g d g f g d g f g g g k k k l c k k k l c k k k k c k k l k l l c k l k k c k g d q 6     ",
"          + + O O O $ 6 q g l I U U I I I I I I I I I U U Y E W W ( ( ( W W W ( ( ( ( ( ( ( ( ( ( ( ( ( ( ( ( ( W R U k w 6 @ O ",
"        $ # # @ @ @ % 6 s l Y ( ~ ( ( W ~ W ( W ( ~ W ( ) { | ..+.+.+.+.+.+.+.+.+.+.+.+.o.+.o.o.+.o.+.o.+.o.@.@.@.| ( x s 5 @ . ",
"        = = = & # # % 6 d x W } } } } { ) } } } } ) { { | | O.@.#.#.#.#.:.:.#.d.:.:.#.#.#.@.#.@.:.@.@.#.@.#.:.:.d.#.} I s 6 @ O ",
"      : < < < > - & % 8 d I W } | ^ ^ ^ } } } | } } ^ ^ } | O.O.@.#.#.:.f.f.f.f.f.d.,.#.@.+.@.@.@.@.@.+.@.@.#.:.d.:.| U s 6 @ . ",
"+ $ # > 2 A A 3 < - % 8 d x W } | } / / / } } } } } ^ / { | | | o.@.#.#.:.d.f.f.d.:.#.+.o...........X.......@.:.d.#. .U s 5 $ . ",
"+ $ * < A F G F 2 , % 8 a z R { } } } { } {  ._ { { } _ { { {  .| o.+.#.#.#.:.#.#.@.+...| | } } } } | }  .| ..@.#.@._ x s 5 @ O ",
"+ $ # < A G J G 3 , 5 6 s I R  .X.&.*.&.$.` ( W ) ` $.&.&.&. . .} ..+.@.#.#.@.+.o.| | | } } } } } }  .} } |  .....| ( c w 6 @ . ",
"+ + * < S J K G A ; * 7 a I W  .7.w.J.i.6.' E E W ' 6.l.i.7.*. .} | +.@.@.O.} ( T W ~ _ | | | ......| .... .} _ ( T z f 0 5 $ O ",
"+ $ * < S H K H A ; * 6 a l W &.l.K.L.L.B.3.C c Q 3.B.P.L.K.7.$.| | O.@.@.} R x k k U ) | O.+.O.o.o.@.o.o...) T x g e 0 5 % @ O ",
"+ $ * < S H L G A ; 5 7 a I T +.l.(. XoXP.2.m h B n.P.oX@X(.l.&.} | O.@.+._ I f e d z ( ..@.#.@.@.@.@.#.@.o.) U g q 6 5 % $ $ O ",
"+ + # > A F H F 4 , * 7 a l R ;.K. X$X$XP.n.n u B m.P.-X*X_.J.&.} | O.#.+.( x s q e c ( o.:.d.:.:.:.:.:.#.@.) x d 8 5 $ $ $ @ $ ",
"+ $ # : 2 P F A 1 - # 6 a l ( 7.L.@X=X=X.Xb.n 6 n n.XX=X;X XK.=.| ^ O.#.@._ U g s g U ) @.#.d.:.:.:.:.d.:.@.} Y k e 8 6 5 $ + $ ",
"+ $ # = > 1 2 < , & $ 6 a l ( 7.L.@X:X=X.Xb.b y n n.XX=X;X@XK.=.} } ^ #.@. .W U x U W  .@.:.d.d.:.:.:.:.:.#...) Y c g q 6 % $ O ",
"+ $ % # = = : = & @ % 6 a I ( 7.L.#X=X=X.Xb.n % n n..X*X;X XK.=.O.^ O.:.#.+.| } ) _ | o.#.:.:.:.:.#.:.:.:.#.@.o.} ( U g q 5 $ o ",
"$ $ O % % # # # # # % 7 a l W =.K. X=X-X.Xm.B b B m.XX*X;X_.J.=...^ ^ #.#.#.@.@.@.@.@.#.#.#.#.:.#.:.:.#.:.#.#.#.#.o.( z w 5 $ o ",
"@ $ $ O + $ $ # # - = 9 r v U ' J._.*X=XOXV.! Z b.C.XX=X;X_.J.=.} ^ O.:.:.:.:.:.#.:.:.:.#.:.#.:.#.:.#.:.:.:.d.d.:.#.} I s 6 @ . ",
"$ @ $ + + + + % : > 2 i p p v Q N.'.*X>X-X.XC.M.C..X-X>X;X_.J.*...^ ^ @.:.:.:.:.d.d.:.:.:.#.#.:.:.#.:.#.#.:.d.d.d.#.} I d 5 @ . ",
"      + + + $ = < 3 S S i i w C m.P.%X,X>X-XOXXXOX-X>X,X;X_.J.*.| ^ O.#.#.:.:.d.:.d.:.:.#.:.#.#.#.:.:.#.:.:.d.d.d.#.} I s 6 $ O ",
"        + + # : 2 F G G A ; 9 b ! Z.OX>X,X>X=X*X=X>X,X>X%X(.J.*.| ^ ..@.:.:.:.:.:.#.#.:.:.#.#.:.#.#.#.:.#.#.d.d.:.@.} x s 6 @ . ",
"        + + # > 3 F J H A ; = u ! V.+X$X:X:X:X;X=X=X=X$X@XP.J.&...^ ^ @.#.:.:.#.#.:.#.#.:.:.:.:.:.:.:.:.:.:.:.d.d.@.} x w 5 $ . ",
"        + + # > A H K H D 1 - y B 2.P.+X#X#X#X#X@X@X@X_.(.K.7.&...^ @.#.#.:.:.:.:.#.:.d.:.:.:.d.:.:.d.:.:.:.d.f.f.@.} I s 7 $ . ",
"        + + # > A G K J D 1 # 7 m ! 8.J.L.L.L.L.L.L.L.J.l.7.7. .| | O.@.#.:.:.#.:.:.:.d.d.d.d.:.d.:.d.d.d.d.f.f.f.:. .I h 5 @ . ",
"        + + % > 3 G L H D 1 & 7 h I W 6.7.7.7.7.6.7.6.7.*.&. . .} | O.O.#.:.:.:.#.:.#.#.:.:.:.:.:.:.:.:.:.:.d.d.d.@. .x e 7 $ o ",
"        + + # : 2 F H F A ; * 7 a k R _  . .| } `  .} |  .} ) } } | o.@.@.:.:.:.#.#.@.+.+.+...o.+.o.+.o.o.o.+.@.+.| W l w 6 @ . ",
"        + $ # = < A S S 1 : * 5 w l Y ~ ^ ^ ~ ~ ~ ~ ~ ~ ~ ~ ) } _ | ..+.@.@.:.@.#.@.| { W W W W W W W W W W W W W W x g q 5 @ O ",
"        + $ $ * : < 1 1 ; & # 6 a k T ~ ^ ^ ~ ~ ~ ~ ~ ~ ~ ) / ) _ } | | o.@.@.:.@...W U c k k k k c k k k k k k k g g w 6 % @ @ ",
"        O $ $ # * = : - & # # 7 a k R / } } } ) ~ ~ ) ^ ) { ) ) ^ } } } | o.@.@.@.| T k a q 6 0 q q q q q q q q q q 8 6 5 % @ @ ",
"        $ $ $ $ % # # # @ @ $ 5 w k U ( _ ) } } } ) } { { } } } { { } ^ } o.@.@.@.| Y g 0 6 % 5 5 5 % 5 % 5 % 5 % % % % $ $ $ @ ",
"          $ @ $ + + + + + O $ 5 q g z Y T ~ ) ) _ } } ) { } } } | | } | | ..@.@.O.^ Y k w 6 5 % O + O O O O O O + O + O + @ $ $ ",
"            $ + + + + + + O $ 5 7 q f k I T ( ) { } { / } ^ } ..| | | | O.O.@.#.O.O.W U k d q 5 $ O o . X o . . . . O O @ @ @ $ ",
"                        O O @ $ 5 6 0 e g I R ( } { { { ^ | ..o.O.O.O.O.O.O.@.@.@.O.O.^ R I g q 5 O O X                         ",
"                          $ $ $ $ $ % 6 s l T ( _ } }  .| ..+.@.#.,.#.#.#.:.:.,.:.,.#.@.o.) I e 6 $ O                           ",
"                          @ $ @ @ o O 5 q g Y ) | X.X.X.-.>.1.<.g.g.g.g.g.j.<.j.<.j.j.k.g.-.E j 8 @ O                           ",
"                            $ @ o o @ 5 q g U _ X.X.>.>.>.t.r.v.x.x.x.x.x.x.z.v.x.x.x.x.z.0.[ j 9 $ .                           ",
"                                o o @ % 0 g U _ X.>.9.y.s.s.U.U.I.T.I.I.I.I.I.I.I.T.T.T.I.s.] M t $ O                           ",
"                                  o o 5 q g Y / %.9.y.a.S.U.E.Q.!.!.!.!.!.!.!.!.!.~.}.~.Q.U.4.N t $ .                           ",
"                                  o $ 5 q g U _ %.0.a.G.H.R.W.|.[.}.[.{.[.[.{.{.~.}.}.}.].Y.5.V t $ .                           ",
"                                o o o 6 q g U { %.0.a.S.H.].].{.}.}.}.}.}.}.}.}.}.}.}.}.{.F.5.V u $ .                           ",
"                    $ @ @ o o o . X o $ 0 g U _ >.q.a.F.H.H.].{.}.}.}.}.}.}.}.}.}.}.}.}.[.F.5.V u $ o                           ",
"                  $ @ @ $ + @ @ + O O 5 0 g U { =.q.a.S.H.R.].|.[.}.}.}.{.{.{.{.}.}.}.}.|.F.5.V t $ o                           ",
"                  $ $ $ $ % 5 5 % % % 6 w k Y _ %.0.a.S.H.R.].{.[.}.[.[.}.}.{.{.}.}.}.}.|.F.5.V t $ o                           ",
"                O @ $ 5 6 8 q w w w q d g I T } %.0.a.S.H.R.].[.}.}.{.{.{.{.{.{.}.}.}.}.|.F.5.V t % .                           ",
"                O @ $ 5 q d k l x z l I U T R { %.0.a.S.H.R.].[.}.}.}.}.}.}.{.{.}.}.}.}.{.F.5.V u $ .                           ",
"                  O $ 8 s c T ) _ ) ) ( ) ~ )  .%.0.a.S.H.R.].{.}.[.}.}.}.}.{.}.}.}.}.}.{.F.5.V t $ .                           ",
"                  O $ 8 f U ) o.+.@.+.O...} } _ %.9.a.G.F.R.W.|.{.{.[.[.{.{.[.{.}.}.}.}.|.D.4.V t $ o                           ",
"                  O $ 8 d I ( ..+.@.@.@.+...}  .X.9.q.a.G.U.^.E.Q.!.!.|.].|.|.|.|.|.}.~.E.G.] N t $ .                           ",
"                O @ % 6 w g x T ) | @.@.O...| } X.%.4.q.y.s.s.U.I.^.E.Q.R.].].W.W.Q.T.T.U.y.] M 8 % o                           ",
"                O @ $ 5 6 0 d k U W } o...| } }  .X.%.=.>.9.e.k.z.c.U.F.R.H.R.H.E.F.U.c.k.9.[ g 8 % o                           ",
"                  @ $ $ % 5 5 0 g I W } } } } } _ _  .X.+.o.1.f.e.r.c.A.D.F.H.H.D.U.c.r.<.X.E g 8 $ o                           ",
"                  $ @ @ O O % 5 w g I W ( ) ) ) _ } } } ..o.@.#.1.e.r.s.G.S.F.S.G.s.k.e.,.} U d 8 $ o                           ",
"                    $ O O + O % 8 e g x Y W ( } } } | | | O.O.#.,.<.e.s.s.s.s.s.s.p.e.<.@.} U d 6 $ o                           ",
"                      @ O O O $ 5 6 w d k U ~ ) | | ..o.+.@.#.#.f.h.j.e.t.t.r.t.e.e.<.,.@.} U s 7 $ O                           ",
"                        O O @ $ % % 6 0 d k Y ) | o.o.@.#.#.#.#.:.,.,.1.<.<.<.<.<.h.h.f.#.| U f 7 $ o                           ",
"                          $ $ $ O O $ 5 w j Y ) ..+.@.#.#.@.@.+.o.o.@.@.+.@.@.#.#.#.,.d.#.} U f 8 $ o                           ",
"                            @ @ O O O 5 0 v Y ~ o.@.@.:.@.o.| ) ( W R R ( { | ..O.#.:.d.#.| U d 7 $ O                           ",
"                              @ O . O % q g T { o.#.d.#.@.} R x k k g k z U R | ..O.#.d.:.| Y f 7 $ o                           ",
"                                o o O 5 q v U { o.@.#.#.o.W l d q 0 q q s g U R | O.#.d.#. .Y f 8 $ O                           ",
"                                  O $ 5 q g U (  .O.+.+.{ E g 0 5 $ $ % 6 q g U ( | O.@.o.} U d 7 $ o                           ",
"                                  O + % 8 d k U R ( _ ( E l s 6 O . . O 5 6 s l U R R ) ( W z d 7 $ o                           ",
"                                  O @ % 6 q d g k z x x l g w 5 o X . o $ 5 0 e g k z z z k g e 7                               ",
"                                  @ $ $ 5 6 0 q w e e s w w 8     . . O $ 5 5 8 q w e s e e w q                                 ",
"                                  @ $ $ $ % 5 5 5 5 5 5 5 5         @ @ $ $ % 5 5 5 5 5 7 5 5                                   ",
"                                  $ @ $ O $ O + $ $ $ $ $ $         $ $ + $ $ @ $ $ $ + @ @ $                                   ",
"                                  $ @ @ @ O O O o o o O . .         $ $ @ @ O O . O . O . o o                                   "
};
