/* XPM */
static char *__resized[] = {
/* columns rows colors chars-per-pixel */
"64 73 216 2 ",
"   c None",
".  c #272B1C",
"X  c #2A2F1E",
"o  c #2C311E",
"O  c #27301A",
"+  c #2F3520",
"@  c #2C3820",
"#  c #313620",
"$  c #3A3621",
"%  c #333921",
"&  c #3A3B23",
"*  c #3D3E29",
"=  c #5D331F",
"-  c #4D341F",
";  c #433622",
":  c #433A23",
">  c #4B3924",
",  c #4C3623",
"<  c #543A25",
"1  c #5C3A25",
"2  c #573724",
"3  c #623A26",
"4  c #693926",
"5  c #763B28",
"6  c #7C3A29",
"7  c #763725",
"8  c #3B4325",
"9  c #3F4926",
"0  c #414A27",
"q  c #444D28",
"w  c #47472A",
"e  c #465129",
"r  c #4A562B",
"t  c #4D592C",
"y  c #515D2D",
"u  c #55522D",
"i  c #4E4E34",
"p  c #444833",
"a  c #504F35",
"s  c #535237",
"d  c #6A4B27",
"f  c #54622F",
"g  c #5A6B2F",
"h  c #576530",
"j  c #596731",
"k  c #5C6B32",
"l  c #576338",
"z  c #5E7031",
"x  c #606D34",
"c  c #686A3F",
"v  c #637435",
"b  c #677836",
"n  c #697C37",
"m  c #6A7D38",
"M  c #63703E",
"N  c #6B7333",
"B  c #4F5341",
"V  c #575B4A",
"C  c #5B5F50",
"Z  c #635C43",
"A  c #5F674B",
"S  c #646948",
"D  c #736C4B",
"F  c #646A55",
"G  c #796F50",
"H  c #7C7152",
"J  c #70794E",
"K  c #727968",
"L  c #833B2A",
"P  c #8C3C2B",
"I  c #863624",
"U  c #9B3D2C",
"Y  c #953C2B",
"T  c #A43D2D",
"R  c #AB3D2E",
"E  c #B43E2F",
"W  c #BA3E30",
"Q  c #8E402A",
"!  c #867759",
"~  c #6E8139",
"^  c #6E8337",
"/  c #72853A",
"(  c #758A3C",
")  c #798E3D",
"_  c #7C923E",
"`  c #7F993E",
"'  c #778845",
"]  c #7F9540",
"[  c #758151",
"{  c #798174",
"}  c #849E3D",
"|  c #80973F",
" . c #88A23F",
".. c #809641",
"X. c #859C42",
"o. c #889D45",
"O. c #899E4B",
"+. c #8A9957",
"@. c #8A8954",
"#. c #87A041",
"$. c #8AA344",
"%. c #8EA945",
"&. c #8DA349",
"*. c #91AC46",
"=. c #91A44B",
"-. c #94AE49",
";. c #95B146",
":. c #96B149",
">. c #9AB64A",
",. c #9EBB4C",
"<. c #98B947",
"1. c #93A551",
"2. c #9BA655",
"3. c #94AA55",
"4. c #97AC5A",
"5. c #98AD5C",
"6. c #9BA857",
"7. c #99AF55",
"8. c #A0BE4E",
"9. c #A2AB5A",
"0. c #A3A65D",
"q. c #A4BB53",
"w. c #ADBD5C",
"e. c #A9B75A",
"r. c #B0BC5F",
"t. c #808577",
"y. c #8D957B",
"u. c #8E956B",
"i. c #AC9672",
"p. c #AF9973",
"a. c #A6946C",
"s. c #9BAD67",
"d. c #9EB264",
"f. c #ACAB65",
"g. c #AFAC68",
"h. c #B1AD69",
"j. c #A3B66B",
"k. c #B3BD63",
"l. c #BABD6B",
"z. c #B6B26D",
"x. c #AABB7A",
"c. c #A9BA77",
"v. c #BEB971",
"b. c #BEB076",
"n. c #AEAE78",
"m. c #C3BC75",
"M. c #C3B27B",
"N. c #C7B87B",
"B. c #C1A77F",
"V. c #A3C14F",
"C. c #A6C350",
"Z. c #A8C055",
"A. c #BBC269",
"S. c #C9C477",
"D. c #8B8E85",
"F. c #8D9086",
"G. c #93968B",
"H. c #9B9E95",
"J. c #ABB78B",
"K. c #A1A997",
"L. c #A9AAA3",
"P. c #B4BAAC",
"I. c #AFB5AC",
"U. c #9DA884",
"Y. c #CDB982",
"T. c #CCB582",
"R. c #D4B68B",
"E. c #D4BA89",
"W. c #DDBB92",
"Q. c #CCAF86",
"!. c #E1BE96",
"~. c #E6BF9A",
"^. c #B5C489",
"/. c #B4C485",
"(. c #BCCA92",
"). c #BBC3AC",
"_. c #DCC58B",
"`. c #D8C786",
"'. c #C3CF9F",
"]. c #E2CD8D",
"[. c #ECC69D",
"{. c #E6C796",
"}. c #F4D39E",
"|. c #EBD096",
" X c #C1CCA2",
".X c #C8D4A6",
"XX c #D3DCBA",
"oX c #D2DCB6",
"OX c #C7CCB9",
"+X c #F6CEA3",
"@X c #F0C7A0",
"#X c #FCD4A6",
"$X c #FFD7A8",
"%X c #FFD9AB",
"&X c #F7D4A2",
"*X c #F7D3A8",
"=X c #D7E0BD",
"-X c #FFE0B1",
";X c #C5C5C3",
":X c #C8C9C5",
">X c #D5D9CA",
",X c #D6D8D5",
"<X c #CED3C4",
"1X c #DBE3C3",
"2X c #DEE0DC",
"3X c #E9EDDC",
"4X c #E4E6DF",
"5X c #EBF0DF",
"6X c #DFE1E0",
"7X c #E9EBE5",
"8X c #ECECEA",
"9X c #E5E5E4",
"0X c #EEF1E3",
"qX c #F2F5E9",
"wX c #F4F4F5",
"eX c #F9F9F9",
/* pixels */
"                  % @ # # o @ o + o + + o + + o o + + o o +                                                                     ",
"                  % % % % # # % # % # # # # % % # # # # % #                                                                     ",
"                # # % % & & 8 8 8 8 8 8 8 8 8 8 8 8 8 8 8 8                                                                     ",
"                @ # % & 8 q r r t r t r r r r r r t r r r e 0                                                                   ",
"            @ @ @ @ % 8 e y k z v v k x x k v x v x v k k y q & + . . . X X X X . + . X + . + . X + X X X X X X X X             ",
"          @ @ @ @ @ % 9 t k m ( ( ) ( ( ( ( ( ( ( ( ( ( b k r 8 + o + + # @ # # + @ @ # + + + + + + @ + # + @ + # # @           ",
"        & $ $ $ $ # & 9 h b _ X.o.X.X.o.X.X.X.X.X.#.o.X.) v y q & % & 8 8 8 & 8 8 8 8 8 & 8 8 8 & 8 8 8 & 8 8 8 8 & 8 &         ",
"        < < < > ; $ & 0 h ~ ] #.*.$.#.#.$.#.$.#.$.$.$.#.../ v y t t r r r r r r r r r r r r t t t r r r t r r r t r r e         ",
"    : < 4 4 5 3 2 ; & 0 j ~ ] $.*.&.$.$.$.$.$.#.$.$.$.$.` ] ^ ^ v v v v v v v v v b v b v b v b v b b b b v v v v v k h r 8     ",
"@ # : 1 5 P P L 4 , : 0 h ~ ] $.%.$.$.$.$.$.$.$.$.$.$.$.&.` ` ] ] ] ] ] ] ] ] ] ] ] ] ] ] ] ] ] ] ] ] ] ] ] X.X.] ] / v t 9 % + ",
"@ # : 1 L T R Y 7 2 : 0 f n ] #.$.$.#.#.#.X.$.$.$.` $.$.&.%.%.-.:.:.:.:.:.:.:.:.-.:.:.:.*.:.-.:.:.-.:.-.:.-.:.>.>.%...m y 8 @ X ",
"@ # : 3 P T E T 6 2 & 0 f n ] #.$.#.#.#.$.$.$.X.$.$.$.` $.%.;.<.,.,.8.8.8.8.8.8.8.8.8.,.,.,.>.,.>.,.>.,.>.,.,.V.C.>.&.~ h 9 $ X ",
"@ # : 3 P R W R L 2 8 9 f ~ ' ` $.#. .} #.#.$.$.$.#.` #.%.%.;.<.>.,.,.8.C.C.C.C.C.C.8.,.>.>.>.7.>.>.:.>.>.>.,.V.C.,.&./ h 9 @ X ",
"@ @ : 3 P R W R L 1 * 9 f ^ ` ` #.#. .} X.#.$.$.#.#.#.#.` *.%.%.-.:.,.,.8.8.C.C.C.8.,.>.-.*.*.-.-.*.*.*.-.-.>.,.V.q.$./ y 9 % X ",
"@ # : 1 L R E U L 2 8 9 y ^ ` $.#.$.#.O.#.$.#.#.$.] $.#.` ` :.` %.-.>.,.8.,.8.8.,.,.:.-.$.$.$.%.$.&.&.#.$.%.-.>.,.>.o.m f 8 % X ",
"@ % : 1 6 U T Y 7 2 8 9 f ^ ] $.3.3.3.3.1.O.O.] ] &.1.3.3.3.3.3.$.%.:.>.,.,.>.-.%.%.$.$.$.$.$.$.$.$.$.$.$.$.%.*.-.$.] b t 8 % + ",
"@ # & < 4 6 P 6 3 - & 9 f ^ ] 1.5.A.A.J.s.3.' ' ' +.j.A.J.d.5.` $.%.:.>.>.-.$..._ _ ..#.$.%.%.%.*.%.%.%.%.&.$.X.] ' n h e 8 @ + ",
"# # $ : < 3 4 1 , $ & 9 t ^ ] -.c.^.(.).J.{ [ v [ u.J.).(./.c.` $.%.;.,.>.&.] m v b ' ..%.:.>.:.:.:.:.:.:.*.X.] m k t e 8 8 # @ ",
"@ % % * : > > : $ $ % 0 y ^ ` 3./..X1X1X).y.A l F y.).>X1X).A.4.$.%.;.>.:.X.m j t h m ] -.>.,.,.,.>.,.,.>.-.X.~ k r 9 8 & % # # ",
"% # % % % % $ $ $ $ : w y v ) 3./.oX3X4X;XF.F 9 A G.:X6X3XXX^.5.%.%.:.,.:...m h r y b ] -.8.8.,.,.,.8.q.8.>.X.~ f e 8 & % % % # ",
"# # # # @ @ % $ : > < d d x m +.^.<X7X8X;XD.C 9 C F.;X8X0X=X^.d.$. .<.<.:.X./ k h k ~ X.>.,.C.C.,.8.V.V.,.>.#.( v y q 8 8 % % @ ",
"    # @ @ @ % $ < 4 5 d d d x [ U.OX7X8X;Xt.V p C F.;X8X0X=X^.5.$.%.;.<.>.%.] / m / ] %.>.C.,.8.V.,.8.C.,.,.-.X.( b k r 9 & # @ ",
"        @ @ $ > 4 L Y Q d d u S y.).6X8X;XD.C p C F.;X7X0X=X^.5.%. .-.<.,.:.=.#.X.#.&.:.,.,.8.,.,.V.,.,.,.,.,.-.#.../ k r 8 % + ",
"        @ % & < 5 U R U I = > V { ).6X9X;XG.F B F G.:X0X0XXX^.5.&. .;.<.,.,.,.>.>.>.>.,.,.,.,.C.,.,.,.V.,.,.,.,.,.-.X.b y 8 # X ",
"        @ @ $ 1 6 T E R I = , B { I.6X8X,XL.{ K { L.,X8X0XXX^.5.%. .;.8.8.8.8.8.8.,.8.8.,.8.,.,.8.,.,.8.,.8.V.V.q.,.#.~ y 9 % X ",
"        @ @ $ 1 6 R W R I = ; B { I.6XwX6X:XI.H.L.;X9XwX0XXX/.5.%. . .>.8.8.8.8.8.C.V.,.8.,.8.,.,.8.,.,.8.,.V.V.C.,.&.~ h 9 % X ",
"        @ @ $ 1 L T W E I 3 : B { I.6XeXwX6X<X<X,X6XwXeX0XXX^.4.=. .;.<.8.8.8.8.V.8.8.8.,.,.8.,.8.,.8.,.,.8.V.V.V.,.#./ f 9 % X ",
"        @ % & < 6 U E T I 1 : B { I.2XwXeXeX8X7X8XwXeXeX0X)./.4.%. .-.<.8.8.8.8.8.,.,.8.,.8.,.8.8.,.,.8.,.,.V.V.8.>.#.~ y 8 % X ",
"        @ @ & < 5 P U U 7 = : B K H.<X3XqXqXqX0X8XqX8X3X1X XA.s.%. .*.>.8.8.8.8.,.8.,.,.,.,.,.,.8.,.,.8.,.8.V.V.C.>.#.m f w # X ",
"        @ % % > 3 5 L 6 3 , & i F y.).<X1X1X1X1X1X1X1XoX.X^.s.3.=. .;.:.8.8.8.<.,.8.V.8.V.V.V.V.V.V.V.V.8.V.V.V.C.,.&.~ f 8 % X ",
"        @ % % : > 1 3 1 - ; $ w A { j.^.(.(.(.(.(.(.(././.s.s.&.$. .;.8.8.8.8.8.8.8.8.C.V.V.C.V.V.C.V.V.V.V.V.C.C.,.$./ y 9 % X ",
"        % # % & & > > : $ $ $ 0 l ' ` j.j.d.d.d.d.d.s.s.4.3.&.$.$.-.-.>.>.8.8.8.,.,.,.,.8.,.8.,.,.8.,.,.8.8.V.V.q.>.o.m h 9 # X ",
"          % % # % $ % # # # % 0 y b _ X.&.&.&.#.$.#.$.#.#.o.$.$.$.*.;.>.<.,.8.,.,.,.>.>.:.:.-.:.-.-.:.-.-.-.:.:.:.*.] b t 9 % X ",
"          # % % @ @ @ @ o o # 0 y v ) }  . .} } X.} }  .} } } X.} %.%.;.:.>.,.<.>.;.%.#.] ) _ ` ` ] ] ] ] ] ] X.] ] ~ k r 8 % + ",
"                      @ + + # 8 y v ) }  . . .} } } } ` } } } } }  . .%.%.;.>.>.<.%.} ^ v z z z v v v v v v v v v k k r 0 % % + ",
"                        o o % 0 y v _  .$.$.$.X. .X.X.} } X.X.X.$.o.$.$.%.*.<.,.<. .) z y e e e r r r r r r r r r e q 9 8 % % + ",
"                          @ % 8 t v ) } o.$.o.#.#.o.#.&.$.$.=.$.=.&.=.$.*.-.q.q.>.=.( x r w * & 8 8 8 & 8 & & 8 8 & & % % % # % ",
"                            % 0 t g b ( ) } } o.&.=.1.2.2.9.9.9.9.9.9.9.9.e.e.k.r.9.@.! S s p : # @ o + o o @ o @ # @ + % % # % ",
"                              8 r y g v n ( | o.=.2.0.f.h.z.z.v.l.m.m.v.l.S.S.S.m.m.h.a.! ! Z i * + X O o o o o X X + + # # % # ",
"                                0 q r y k n ) o.=.9.h.b.N.Y.E.`._._._._._._.].].].].E.R.B.a.! V p @ . .                         ",
"                                  % 8 0 t v ( o.2.0.M.N.R.{.[.@X}.}.}.}.+X}.&X}.}.&X&X}.{.Q.a.D i % O                           ",
"                                  o @ 8 r g / o.9.h.M.E.!.[.+X#X$X$X$X$X$X$X$X$X$X%X-X%X#XW.i.G i & O                           ",
"                                . . X & q g / o.2.h.M.R.!.@X+X#X%X-X%X%X%X%X%X%X%X%X-X-X$X!.p.H i & .                           ",
"                    % # # o o o X . X % q g / o.2.h.M.R.!.[.+X#X%X%X%X%X%X%X%X%X%X%X%X-X$X{.p.G i % o                           ",
"                  % # % % % % % # o + 8 r z ( } 2.h.M.R.!.~.+X#X$X$X$X$X$X$X$X$X%X%X%X-X#XW.i.G i % O                           ",
"                  # % % & 8 8 8 8 8 9 q f v ) o.2.g.M.R.!.[.+X#X$X$X$X$X$X$X$X$X$X%X-X%X#XW.i.G i & o                           ",
"                # # % 8 0 r y j j f f k v ^ _ o.2.h.M.R.!.[.+X#X$X%X%X%X$X$X$X$X$X%X-X%X#XW.p.G i % O                           ",
"                + @ % 8 t k b / ( / / / ( ) } $.2.h.M.R.!.@X+X#X%X%X%X$X$X%X$X$X$X%X%X-X$XW.i.G i & O                           ",
"                  @ & 9 h m ] $.$.$.$.#.#.#.$.$.2.f.B.R.!.[.+X#X$X$X$X$X$X$X$X$X$X$X-X%X#XW.i.G s & O                           ",
"                  # & q j ( #.-.>.>.>.>.-.*.$.&.2.f.b.T.W.{.[.}.#X#X#X#X$X#X$X$X$X$X$X$X}.E.a.D i % O                           ",
"                  # % q h b ] #.-.:.>.>.:.*.$.&.1.0.h.b.N.E._.].|.|.}.}.+X+X+X+X}.}.}.}.].N.a.D i & o                           ",
"                o # % 8 e h b / ..$.-.:.:.*.%.#.=.2.0.f.h.v.S.S.S.`.{.{.[.[.@X[.[.|.].].S.z.@.S q % o                           ",
"                + % % % 8 e t j b _ o.*.*.$.$.$.o.=.2.2.9.9.e.l.S.S.`.E.~.~.~.~.!._.`.S.A.6...k q # X                           ",
"                  % % % % & 8 e h b _ X.$.$.$.o.o.o.$.&.=.:.q.q.Z.A.m.Y.R.W.W.W.E.Y.S.A.w.=.' j q % +                           ",
"                  % % # + + @ 8 r j m ) _ } X.$.$.$.$.$.*.*.<.<.q.k.l.N.T.Y.E.T.N.m.l.w.,.$./ j 0 % @                           ",
"                    @ + + + @ & 0 r k v ~ ) ..o.$.$.%.*.-.<.<.<.q.Z.l.A.m.m.m.m.v.l.k.q.>.%.^ f 0 % +                           ",
"                        @ # # # & 0 r f k ~ ) X.$.*.-.:.<.>.,.V.V.Z.w.w.l.k.k.k.k.w.w.C.,.#./ h 0 % o                           ",
"                          # % % % % 8 0 f v ) X.%.:.:.>.<.,.<.,.,.8.q.q.q.q.e.q.q.q.C.q.,.&./ h 0 % +                           ",
"                          # # # + + @ 8 r v ( X.*.:.>.,.,.>.:.*.*.&.*.%.*.:.:.>.>.,.8.8.,.%./ j 0 % +                           ",
"                            # # + + @ & r k / X.*.>.,.8.>.-.o._ ) ( ( ) _ ] #.%.<.>.,.V.,.$.( j 0 % +                           ",
"                                o o + & r k ( X.*.>.8.8.:.#.' b k k k k z ^ ( X.%.>.,.V.,.=.( j 0 % +                           ",
"                                  + # 8 r k ( X.*.:.8.>.$.] v y q 0 8 0 t h n ) #.-.,.,.<.$.( j 0 % +                           ",
"                                  o # 8 r k ( X.*.-.-.-.X./ j q & @ @ % 8 t z ( X.$.:.:.-.X./ h 0 % o                           ",
"                                  + # 8 r x ( o.#.#.X...( v y 8 @ . . @ & r z / o.$.#.X...( v f 0 %                             ",
"                                  + # 8 t v ( X.X.) / b x h e & o . . X & e x ( X.X._ ^ b v h t 9                               ",
"                                  @ # 8 t v ( X.] ~ k y r q         X + 8 r x ) ] _ ^ x t r 0 0                                 ",
"                                  + # 8 r k / _ / v t 0 8 &         o # 8 r k ^ ] ( v y 0 8 &                                   ",
"                                  + % & e h b ~ b k r % +           # # & 0 h b m b k r & @                                     ",
"                                  @ # & 9 t h k k y 0 %             @ # & 8 r f k j y q %                                       ",
"                                  # % % 8 9 0 r r e 8               # # % 8 9 e e r e 8                                         ",
"                                  # % % % & 8 8 8 8                 @ % % & $ 8 8 8 8                                           ",
"                                  % # % % # @ % # #                 % % % @ % # % % #                                           ",
"                                  % # # # # @ o o                   % # % # @ + + o o                                           "
};
