/* XPM */
static char *__resized[] = {
/* columns rows colors chars-per-pixel */
"64 73 203 2 ",
"   c None",
".  c #2A2E1E",
"X  c #2C311E",
"o  c #2E3520",
"O  c #2C3820",
"+  c #313620",
"@  c #3A3621",
"#  c #333921",
"$  c #3B3A22",
"%  c #423A23",
"&  c #4B3924",
"*  c #473623",
"=  c #533724",
"-  c #5B3724",
";  c #543A25",
":  c #5C3A25",
">  c #633624",
",  c #623A26",
"<  c #683A27",
"1  c #6F3B28",
"2  c #763B28",
"3  c #7C3A29",
"4  c #743827",
"5  c #3C4525",
"6  c #3E4925",
"7  c #374021",
"8  c #414B27",
"9  c #444D28",
"0  c #49492A",
"q  c #465129",
"w  c #4A552B",
"e  c #4D5A2C",
"r  c #525F2E",
"t  c #55522D",
"y  c #4E4E33",
"u  c #454A35",
"i  c #535735",
"p  c #544B31",
"a  c #6A4B27",
"s  c #4E622A",
"d  c #54622E",
"f  c #596A2F",
"g  c #566430",
"h  c #596631",
"j  c #5C6B32",
"k  c #5F683B",
"l  c #606E34",
"z  c #676C3E",
"x  c #637334",
"c  c #667A34",
"v  c #697C37",
"b  c #6C7E39",
"n  c #6B7333",
"m  c #575C4B",
"M  c #5C634D",
"N  c #696947",
"B  c #746D4B",
"V  c #6C7A49",
"C  c #78754B",
"Z  c #656D55",
"A  c #7A6F50",
"S  c #717766",
"D  c #833B2A",
"F  c #8C3C2B",
"G  c #883726",
"H  c #9B3D2C",
"J  c #953C2C",
"K  c #A43D2D",
"L  c #AB3D2E",
"P  c #B33E2F",
"I  c #BA3E30",
"U  c #8E402A",
"Y  c #867B57",
"T  c #907E60",
"R  c #6E8139",
"E  c #6B8136",
"W  c #72863B",
"Q  c #758A3C",
"!  c #798E3D",
"~  c #7C923E",
"^  c #77903A",
"/  c #778546",
"(  c #7F9541",
")  c #768555",
"_  c #79836F",
"`  c #849D3D",
"'  c #88A23F",
"]  c #87A03F",
"[  c #818949",
"{  c #809642",
"}  c #859D42",
"|  c #889D46",
" . c #899C4E",
".. c #8B975A",
"X. c #909255",
"o. c #86A042",
"O. c #8AA344",
"+. c #8EA945",
"@. c #8DA349",
"#. c #91AC46",
"$. c #92A54B",
"%. c #93AE48",
"&. c #95B146",
"*. c #96B149",
"=. c #99B54A",
"-. c #9EBB4C",
";. c #9BA654",
":. c #93A955",
">. c #96AB59",
",. c #99AE5D",
"<. c #97A755",
"1. c #9FB352",
"2. c #A0BE4E",
"3. c #A3A95C",
"4. c #A3BC52",
"5. c #A9B75B",
"6. c #998964",
"7. c #8C9478",
"8. c #979366",
"9. c #A5956A",
"0. c #AD9672",
"q. c #B49B77",
"w. c #A28F6B",
"e. c #99AB65",
"r. c #9DB263",
"t. c #ACAB65",
"y. c #AEA769",
"u. c #B1AD69",
"i. c #B6B769",
"p. c #BCAB76",
"a. c #A9BA77",
"s. c #BDB373",
"d. c #A7B36B",
"f. c #C4B27B",
"g. c #C6BA7A",
"h. c #A3C14F",
"j. c #A6C450",
"k. c #ABC456",
"l. c #B1C45D",
"z. c #B5C362",
"x. c #BBC368",
"c. c #CCC977",
"v. c #CBC878",
"b. c #D3D07B",
"n. c #8B8D84",
"m. c #8E8F88",
"M. c #93968C",
"N. c #9AA589",
"B. c #AEBD84",
"V. c #B0B995",
"C. c #B5B8AE",
"Z. c #B6B9B1",
"A. c #ACAFA6",
"S. c #C8AD83",
"D. c #CDB584",
"F. c #D3B68A",
"G. c #D6BB8A",
"H. c #DDBB92",
"J. c #E2BE96",
"K. c #B2C284",
"L. c #B5C489",
"P. c #BBCB8D",
"I. c #BECC93",
"U. c #BDC1B1",
"Y. c #DBC889",
"T. c #C0CC9C",
"R. c #E3CF8D",
"E. c #E4D18E",
"W. c #ECC59D",
"Q. c #E7C797",
"!. c #F1CC9F",
"~. c #F4D39E",
"^. c #EAD591",
"/. c #CAD4AB",
"(. c #C7D0AD",
"). c #C4C8BC",
"_. c #D2DCB5",
"`. c #D5DEBB",
"'. c #CFD9B4",
"]. c #F4CDA2",
"[. c #F6D2A1",
"{. c #FBD4A6",
"}. c #FFD7A8",
"|. c #FFDAAB",
" X c #FDDAA5",
".X c #FFDDB0",
"XX c #D8E1BE",
"oX c #C4C5C2",
"OX c #CCCCCA",
"+X c #D8D9D6",
"@X c #DBDFCF",
"#X c #DEE6C4",
"$X c #DCE1D0",
"%X c #E8EDDA",
"&X c #ECF0DF",
"*X c #E0E6CC",
"=X c #E9EBE5",
"-X c #EBEBEA",
";X c #E5E7E1",
":X c #EDF1E2",
">X c #F1F3EB",
",X c #F5F6F3",
"<X c #F9F9F8",
/* pixels */
"                  # # # o X o X o o o o o . o o X o X o X o X X . X o . . o . . o . . o . . X . o o . o X . o o . X o .         ",
"                  + # # # + # # O O + # + + + + + + + + + # + # @ + # # + # # + # # + # + # # + o + + + # # o + + + # +         ",
"                # # # # $ $ 7 5 6 7 6 7 7 5 5 5 5 $ 5 5 7 5 5 5 6 5 5 5 5 5 5 5 5 5 5 5 5 5 5 5 5 5 5 5 5 5 5 5 5 5 5 5         ",
"                o o # # 5 9 w w w e w w e e w w w w e w e e r r r g r r g r r g r r g r g r g r g r r g g e g d g r r w 9       ",
"            O O o + # 5 q s h x E x j x j x x c l x j x x x v b b R b E b b b b R b R b R b b b b b b b R b R R b b x j e 5 + o ",
"          O O o o O # 6 e j b Q ^ ^ ^ W / Q W ( Q W Q Q ! ~ { } } } O.O.} } O.} } o.} O.| } O.} O.} O.| } O.O.O.O.{ ( x r 5 + . ",
"        $ @ $ @ + + # 6 g v ( ( ( ( ' ( ( ( ( ( } { { } } +.#.*.=.=.=.=.=.=.=.=.=.=.=.=.=.=.=.=.*.=.=.=.*.=.=.=.=.*.} b g 5 # o ",
"        ; ; ; & % @ $ 8 g E ( O.+.+.+.( +.+.#.( O.O.O.O.O.#.%.=.=.-.-.4.-.j.-.j.h.4.-.-.-.=.=.-.-.=.=.=.=.-.4.h.j.-.O.R r 5 + . ",
"    % ; , 4 1 , = * $ 9 g R ( O.#.( #.' ' #.*.#.+.' ( O.+.&.#.=.=.=.-.j.j.j.j.j.j.j.-.=.=.*.*.*.*.*.*.*.*.=.=.j.j.-.@.W d 5 # o ",
"O # % : 2 F F D < & $ 9 g E ( O.&.( ( ' ' ( ( +.o.+.+.O.( ( +.%.%.=.=.-.-.j.2.j.2.-.=.*.%.@.+.+.#.#.#.+.#.#.=.-.2.-.O.W d 5 + . ",
"O O % : D H L H 4 = % 8 s E ( o.( &.#.( &.#.( @.( +.( @.+.+.@.( @.%.*.=.-.-.-.-.=.*.*.#.+.O.O.O.O.O.O.O.O.O.#.*.=.*.} b r 5 # o ",
"O # % , F L P K D - % 6 s c ( @.:.,.r.e.:.( ( ( (  .:.,.r.:.@.@.O.#.*.=.-.=.*.#.@.O.O.O.O.O.O.+.O.O.+.O.@.O.@.#.+.} ( j e 5 + . ",
"O O % , F L I L G - % 6 s E (  .r.x.V.B.e.../ W / ..a.K.K.a.>.@.O.+.&.=.-.#.} ~ Q Q ( } +.+.#.#.#.#.#.$.#.@.O.( ( R x d 9 7 # o ",
"O o % , F L I L D - 8 8 s v ( >.z.P./.(.L.7.V M ) 7.V.(./.P.a.@.O.+.&.-.&.O.Q x j x W { #.%.=.=.*.*.=.=.*.#.} Q x g w 9 5 $ + o ",
"O O % , G K P H 3 - 5 6 s c ( ,.K._.$X@XZ.m.Z i Z n.Z.@X#X/.K.>.O.+.&.=.*.} b d w r c ( %.=.2.-.=.-.=.2.-.*.} R g q 5 # # # # + ",
"O @ $ : 3 H K J 4 = # 6 s E ( e.P.XX&X;XoXm.M w M m.oX=X=X_.L.,.+.+.&.=.*.} b d e g v { %.4.h.2.2.-.-.j.-.*.O.R h q 5 7 $ # # + ",
"O # $ & < D F 3 > * $ 6 s E { ,.I.#X>X=XoXn.m u M m.oX-X>X@XL.,.+.' &.=.*.@.Q x j x W } =.2.j.-.2.2.j.j.-.=.@.( x g q 6 7 $ # O ",
"o # @ % ; , < : & @ # 6 s c ` r.T.#X>X=X).n.m 5 m m.oX-X:XXXL.,.+.' &.=.=.#.} Q Q / } #.=.2.-.j.2.-.-.-.j.=.*.O.( E x s 9 7 # o ",
"O # + $ % * & * @ @ @ 6 s c ` ,.P.XX:X=XoXn.m u M m.oX-X:XXXL.,.+.+.&.=.=.=.*.+.O.+.*.=.-.-.2.2.2.-.2.2.2.-.=.=.#.} / l e 5 # o ",
"# # # @ @ # @ $ @ @ % 8 s n ^ <.L.XX&X:XoXM.S m S M.OX-X:X_.L.>.+.' &.=.-.-.-.-.=.=.-.-.-.-.-.2.-.2.-.-.-.-.-.2.=.=.o.b r 5 + . ",
"+ # + # O O O $ % & : a a l b ..B.'.=X-X+XA.n.S m.A.+X-X%X#XL.>.O.' &.=.-.2.j.2.2.2.2.2.-.2.-.-.-.2.-.-.2.2.2.j.j.-.O.W r 5 # o ",
"    # O O O # % ; , 2 a a a l V N.).=X,X-XOXZ.A.Z.OX-X<X=X'.L.e.+.O.' =.-.2.2.2.j.2.2.2.2.-.-.2.2.-.2.-.-.-.-.j.j.=.@.R g 5 + . ",
"        O O @ & < G J F a a t N 7.Z.;X<X<X-X+X+X+X-X<X<X:X'.K.>.&.' &.-.-.2.2.2.2.2.2.2.-.2.-.-.-.-.2.-.2.-.j.j.2.=.O.R g 5 + o ",
"        O O $ ; 2 H L H G - 0 m S A.+X,X<X<X,X-X>X,X<X,X%X/.K.>.+.' ' -.-.2.2.2.-.-.2.-.2.-.2.-.2.-.-.2.-.2.-.j.j.=.| b r 5 + X ",
"        O O $ ; 3 K I L G > * u S N.).%X:X:X&X&X&X&X&X*X#XI.a.:.+.+.&.=.-.-.2.-.2.-.2.-.h.-.-.2.2.-.-.-.-.-.j.j.j.=.O.R d 5 # X ",
"        O O $ : D K I L G > * u Z 7.V./._.XX_._._._._./.T.K.e.:.O.+.&.=.-.h.2.2.-.2.h.2.2.j.2.j.j.2.j.j.j.-.j.j.j.=.@.R d 5 # X ",
"        O o $ : D L I P G > % u M ) e.B.x.L.K.K.B.B.K.x.a.r.:.#.O.+.&.-.-.2.-.2.2.-.2.2.j.j.2.j.2.j.j.2.j.2.j.j.j.-.O.R g 6 o o ",
"        O O $ ; 3 H P K G , % 8 s / ( :.,.,.,.>.>.>.>.e.>.*.( &.O.+.&.=.-.-.h.-.-.-.-.-.=.-.-.=.-.=.-.-.-.=.-.-.2.=.} b r 5 + . ",
"        O O $ ; 1 F K J 3 - * 6 e x ( ' +.+.' o.( ( &.( &.( &.( O.+.%.*.=.-.-.-.-.-.=.*.+.+.#.#.#.+.+.+.+.+.+.#.#.@.( x e 5 # o ",
"        O # @ & , 2 D 3 < & $ 6 e c ^ ( ' ( ' ' #.( ( ' ' ( ( ' | +.#.%.=.=.-.-.=.*.@.( ~ / W Q Q / Q ^ / Q ^ ( Q R v g 9 7 + o ",
"        o # @ $ & : , : = % @ 5 e c / ( ' ' ' ( ( ( ( ( ' ( ' ( O.O.O.+.#.*.=.-.=.#.( E l h g h j h j j h j j j j h g q 6 $ + + ",
"        # O # @ % % & % % @ @ 7 s c ( ( ' +.' o.( &.' ' ' ' ' #.O.} O.O.+.#.=.-.=.O.Q l e 8 6 9 9 q 9 q q 9 9 9 q 9 6 5 $ # + + ",
"          # # + # # # # + o # 6 e l Q ( } } } } O.O.o.o.O.o.O.' O.O.O.O.+.#.=.-.=.O.Q h q 5 7 # 7 # 7 # @ # # @ # # @ # # # # # ",
"          + # # # O o o o o # 7 q g x W ! ` } } } o.o.o.] O.O.+.+.O.+.' +.#.&.-.&.+.~ c d q 6 7 # X o o o o o O o O o o O # o # ",
"                      O O o # $ 8 q r j n Q ~ } O.o.o.] o.O.+.#.+.&.#.#.&.&.=.=.&.&.` ^ E j e 6 # o X . .                       ",
"                        O o # # # 5 8 w h v ! } o.O.o.] O.+.#.=.*.=.=.=.&.&.-.-.-.=.&.#.} Q x e 5 + o .                         ",
"                          # + # @ o $ 6 r x Q ` O.O.@.O.@.*.=.2.4.4.4.j.h.h.j.4.4.4.j.h.=.O.W r 8 @ o                           ",
"                            # + o o o 7 w j Q ` @.$.;.;.;.5.5.i.z.z.z.z.l.z.z.z.z.z.x.x.i.3.[ l 9 # X                           ",
"                              + o o o $ w j W } $.;.3.t.u.s.g.v.c.c.c.c.c.c.c.c.c.c.b.b.c.i.X.z q # o                           ",
"                                . o O 7 w j W } <.3.u.p.g.g.Y.R.E.E.E.E.R.R.R.R.R.E.^.^.R.g.8.B y # .                           ",
"                                  o o 5 w j Q } ;.t.s.f.H.Q.W.!.[.[.[.[.[.[.~.~.~.~. X X!.G.9.B y # X                           ",
"                                  . # 7 w j Q } ;.u.f.F.J.Q.].{.|.|.|.|.}.}.|.}.|.|.|.|.{.H.0.A y # .                           ",
"                                . . o $ q j W | 3.u.f.F.J.W.].}.|.|.|.|.|.|.|.|.|.|..X.X}.J.0.A y # .                           ",
"                    # + o o o . . . o # q j W | ;.u.f.F.J.W.].}.|.|.|.|.}.|.}.|.|.|..X.X{.J.0.A i # X                           ",
"                  # # # # @ # # + X + 5 w j W o.;.u.f.F.J.W.].{.}.}.|.}.}.}.}.}.|.|..X.X XH.0.A y # .                           ",
"                  + # # 7 7 5 5 5 5 6 q d c Q } ;.u.f.F.H.W.].{.}.}.|.|.}.}.}.}.}.|.|..X XH.0.A y @ X                           ",
"                o + # 5 6 w r d d d d h c R ~ O.;.u.f.F.J.W.].}.|.|.|.|.}.}.}.|.}.|.|..X[.H.0.A y # X                           ",
"                o o # 5 e j b W Q W Q W W ^ { @.;.u.f.F.J.!.{.}.|.|.|.|.}.|.}. X|.|.|..X{.H.0.A i # .                           ",
"                  o $ 6 g R ( O.@.+.O.O.O.} } O.;.y.f.F.J.W.].{.|.|.|.}.}.}.}.}.}.|.|.|.{.J.0.A y # X                           ",
"                  o $ 9 h Q o.#.=.=.*.*.#.+.O.@.;.t.p.D.H.J.W.W.].].].{.{.{.}.}.}.|. X X~.G.9.B y @ .                           ",
"                  o # 9 g v ( @.#.*.=.=.=.#.O.O.;.3.u.p.f.f.S.S.F.G.W.].].{.].].!.~.~.~.R.f.6.B y # X                           ",
"                o + # 5 q g c R { +.%.*.&.#.O.+.$.;.3.t.y.9.8.6.w.q.S.J.W.].].].!.Q.Q.R.b.u.X.N q # X                           ",
"                o o # $ 5 9 e h v ! } #.#.+.O.} | $.;.;.X.[ C N A T q.S.J.J.].J.J.Y.Y.v.x.,./ l 9 @ .                           ",
"                  # # # # # 5 q d v ~ } O.O.O.O.| $.$.O.{ v g t i B T S.F.F.H.H.G.D.g.z.5.#.! h 6 # o                           ",
"                  # + + o o O 5 w f b ! ~ { } O.O.+.+.O.( v f e t N Y w.q.f.S.D.D.g.x.l.-.+.W f 9 # o                           ",
"                    + + o o o # 8 w h x R ! { | +.#.#.O.} ! E x j N A Y 6.w.y.i.g.i.z.k.-.O.W g 6 # O                           ",
"                        o o + # $ 6 w r j R ( } +.%.*.*.#.O.` ~ Q b N z B C X.3.5.z.l.k.-.@.Q g 8 # o                           ",
"                          + # # # # 5 9 r c Q } +.&.*.=.=.=.*.%.} / l i t k C  .1.j.k.j.=.+.R g 8 # X                           ",
"                          # # + o o O 5 w j b ( } O.*.=.-.h.h.-.#.! j 9 6 q x ~ O.%.*.*.+.( R g 8 @ o                           ",
"                            # + o o o $ 9 r j b Q { O.*.-.h.j.h.%.~ j 8 # 6 r c W ~ ~ ~ Q R c d 6 #                             ",
"                                        6 q e h x W { +.=.4.j.h.=.~ j 9 7 7 q s h j j j h h g e                                 ",
"                                          7 6 q d x Q o.#.=.2.-.#.^ l 9 # # # 8 q q q q q 9 8                                   ",
"                                          o # 7 q h R ~ } +.%.%.O.W f 9 $ o + # $ # # $ $ # $                                   ",
"                                            X @ 8 r j b W ! ` ~ W c d 8 # o o o o o O O o o                                     ",
"                                                5 w r g j j x x j g q 5 O o o o o o X X o                                       ",
"                                                  8 9 q q w w e w 9 5 $ # # + o + + o                                           ",
"                                                    $ 7 7 $ $ 5 7 $ $ # O + # # # + +                                           ",
"                                                    O + o o o o o + O + # # + # # #                                             ",
"                                                        o o . . o o o + + # # # +                                               ",
"                                                                                                                                ",
"                                                                                                                                ",
"                                                                                                                                ",
"                                                                                                                                "
};
