/* XPM */
static char *__resized[] = {
/* columns rows colors chars-per-pixel */
"64 73 206 2 ",
"   c None",
".  c #2B2F1E",
"X  c #2C311E",
"o  c #2F3520",
"O  c #2C3820",
"+  c #313620",
"@  c #3B3621",
"#  c #333921",
"$  c #3A3C23",
"%  c #433622",
"&  c #423A23",
"*  c #4C3924",
"=  c #4D3723",
"-  c #5B3724",
";  c #533A25",
":  c #5C3A25",
">  c #543724",
",  c #643A26",
"<  c #673825",
"1  c #723B28",
"2  c #7C3A29",
"3  c #793926",
"4  c #3B4324",
"5  c #3F4926",
"6  c #414A27",
"7  c #444D29",
"8  c #4B492C",
"9  c #465129",
"0  c #4A562B",
"q  c #4E5B2C",
"w  c #515D2D",
"e  c #5B582C",
"r  c #4E4E33",
"t  c #444935",
"y  c #585A39",
"u  c #4F4E34",
"i  c #684A27",
"p  c #6C5028",
"a  c #4E622A",
"s  c #54622E",
"d  c #58692F",
"f  c #566530",
"g  c #596731",
"h  c #5C6B31",
"j  c #526238",
"k  c #5F7032",
"l  c #646C38",
"z  c #637435",
"x  c #677A34",
"c  c #697B37",
"v  c #6B7E38",
"b  c #65743A",
"n  c #6C7536",
"m  c #575B4A",
"M  c #5B5F50",
"N  c #5C664B",
"B  c #6A6D45",
"V  c #746C4C",
"C  c #766F4C",
"Z  c #6C7647",
"A  c #717547",
"S  c #646A55",
"D  c #7A6F51",
"F  c #717254",
"G  c #6F7665",
"H  c #823B2A",
"J  c #8A3C2A",
"K  c #893626",
"L  c #983C2C",
"P  c #A43D2D",
"I  c #AB3D2E",
"U  c #B33E2F",
"Y  c #BA3E30",
"T  c #87412A",
"R  c #847956",
"E  c #6E8139",
"W  c #71853A",
"Q  c #758A3B",
"!  c #798E3D",
"~  c #7C923F",
"^  c #798844",
"/  c #7F9540",
"(  c #74844D",
")  c #7E876E",
"_  c #849D3E",
"`  c #80973F",
"'  c #88A23F",
"]  c #87A03E",
"[  c #809740",
"{  c #859C42",
"}  c #899D46",
"|  c #8A9E4B",
" . c #8A9B59",
".. c #96935A",
"X. c #8D9152",
"o. c #87A042",
"O. c #8AA344",
"+. c #8FA945",
"@. c #8DA349",
"#. c #91AC46",
"$. c #93A54D",
"%. c #93AD49",
"&. c #95B246",
"*. c #96B149",
"=. c #99B54A",
"-. c #9EBB4D",
";. c #9CA755",
":. c #94A955",
">. c #96AB5A",
",. c #99AD5C",
"<. c #97A952",
"1. c #98AE55",
"2. c #A0BE4E",
"3. c #A4AA5D",
"4. c #A2B952",
"5. c #AAB85B",
"6. c #988764",
"7. c #8E967B",
"8. c #8C916B",
"9. c #A6946C",
"0. c #AC9672",
"q. c #AD9872",
"w. c #AF9675",
"e. c #9BAD67",
"r. c #9DB163",
"t. c #9FAD7A",
"y. c #ADAD65",
"u. c #B1AD69",
"i. c #A4B56A",
"p. c #B8B76B",
"a. c #B9A776",
"s. c #AABB7A",
"d. c #A9BA77",
"f. c #BCB372",
"g. c #C1A87E",
"h. c #C4B27B",
"j. c #C7B87C",
"k. c #A3C14F",
"l. c #A6C450",
"z. c #AFC15C",
"x. c #A9C155",
"c. c #B1C35D",
"v. c #B5C16D",
"b. c #C0C36E",
"n. c #C4C671",
"m. c #C9CA74",
"M. c #D1CA7D",
"N. c #8A8C84",
"B. c #8D9086",
"V. c #92958A",
"C. c #9B9E95",
"Z. c #9EAB83",
"A. c #ACB88B",
"S. c #AFA58B",
"D. c #A8A9A3",
"F. c #B5BBA9",
"G. c #CCAD88",
"H. c #CDB485",
"J. c #D3B58B",
"K. c #D5B98B",
"L. c #DDBC92",
"P. c #E3BE97",
"I. c #B5C489",
"U. c #B6C689",
"Y. c #BCCB92",
"T. c #BAC2AA",
"R. c #DCCD87",
"E. c #DECE88",
"W. c #D5C484",
"Q. c #D0CC95",
"!. c #E4D38C",
"~. c #EBC69C",
"^. c #E9C898",
"/. c #F2D49C",
"(. c #F8D89F",
"). c #EFCF9A",
"_. c #C1CCA2",
"`. c #C8D4A5",
"'. c #C2C3BD",
"]. c #D3DCB9",
"[. c #D2DCB6",
"{. c #CBD4B5",
"}. c #F3CCA1",
"|. c #F0C7A0",
" X c #FCD4A6",
".X c #FFD7A8",
"XX c #FFDAAC",
"oX c #F6D1A2",
"OX c #D8E1BD",
"+X c #C5C5C3",
"@X c #C8C9C6",
"#X c #D4D7CB",
"$X c #D6D7D3",
"%X c #CED3C4",
"&X c #DBE3C3",
"*X c #DFE8C3",
"=X c #E9EDDD",
"-X c #E5E7DF",
";X c #EBF0DF",
":X c #E9EBE5",
">X c #ECEDEA",
",X c #E4E4E3",
"<X c #EEF1E3",
"1X c #F1F5E8",
"2X c #F5F5F5",
"3X c #F9FAF9",
/* pixels */
"                                                                                                                                ",
"                                                                                                                                ",
"                                                                                                                                ",
"                                                                                                                                ",
"                      # + o X X X X o X o X X X o . . X X X o . X . . X . . . . X X . . . . X X . . . . . . . . . X             ",
"                  # # # + + + + O X o o o O o X o + o O + o o o o o o o + o + o o o o o + o o X o + o o o + o o o + o           ",
"                + # O # # # $ 4 $ 4 4 $ $ 4 $ 4 $ $ 4 4 $ 4 4 4 4 $ 4 4 4 4 4 $ 4 4 4 4 4 $ 4 4 4 4 4 4 4 4 $ 4 4 4 4 $         ",
"                o + # $ 4 5 7 7 9 9 9 9 9 7 9 9 9 9 7 9 9 9 9 0 0 0 0 0 0 0 0 0 0 0 0 0 0 0 0 q 0 0 0 0 0 0 0 q 0 0 0 9         ",
"              O o O # 4 7 0 f g h h d h h g h h d d d h d h k k b x x z x z b x z x x z x x z b x z b x x z x x x z h f 0 4     ",
"          O o o o o # 5 0 h x E W W E E E E E E E W W ! Q Q / / / [ [ / / / / / / / / / / / / / [ / [ [ [ [ [ [ / / W z w 5 + o ",
"        # @ # # + + $ 5 w x ! / o./ / / ~ ~ _ / / / / / / / +.&.*.=.*.*.*.*.*.*.*.*.*.*.%.%.*.%.%.%.%.%.%.%.*.=.*.#.[ c w 5 + o ",
"        * * * % @ @ $ 5 f E / o.O.O.O.o.O.O.O.O.O.o./ O.+.&.&.=.-.-.-.-.-.2.2.2.2.2.-.-.-.-.=.-.-.-.-.=.-.-.2.k.4.-.O.E w 5 + . ",
"      ; , , , - = % $ 7 f E / O.O.O.o.' O.O.O.+.O.O.o.o./ &.&.&.=.-.-.4.k.l.l.l.l.l.4.-.=.=.*.=.=.=.*.=.=.=.-.4.l.2.+.W j 4 # . ",
"O # @ : 1 H J 3 , * $ 7 f E / o.+.O.' ' o.O.O.O.O.O.o.' &./ &.#.%.*.-.-.k.k.l.l.l.-.-.*.%.%.%.%.#.#.#.#.#.%.=.2.k.-.O.W s 5 # . ",
"O # & , H L P L 1 > $ 7 a c / o.O.O.o.@.O.O.@.O.o.o.O.o./ #./ +.+.%.*.=.-.-.-.-.-.=.*.#.O.+.O.O.O.O.O.O.O.+.%.=.-.=.} v w 6 # . ",
"O # @ , H I I P 2 > 4 5 s E ~ @.@.:.:.>.@.@./ / / @.:.:.>.:.:.%.O.#.*.-.-.-.=.*.#.+.@.+.O.O.O.O.O.O.@.O.O.+.@.#.#.O./ z w 4 # X ",
"O O & , J I Y I H - & 5 a E / @.r.r.v.A.e. ./ ( ^ / t.A.d.r.>./ O.#.&.=.-.%.O.[ ~ ~ [ o.+.+.+.+.#.#.#.#.+.+.O.o./ ! c f 9 4 o o ",
"O # & , J I Y I H - & 5 a E / %.v.Y.Y.T.A.) ( b ( 8.I.T.Y.U.r.:.O.#.&.=.=.+.! v z b Q { +.*.*.*.%.%.*.%.*.+.{ ^ c h q 9 5 $ # o ",
"O # & , J I Y P H - & 5 a x ~ 1.I.`.&X&XF.7.N j S 7.T.#X*XT.v.:.O.#.&.-.%.{ E d q f c / %.=.-.-.=.=.-.-.-.%.{ W h 0 5 4 # # o + ",
"O O @ : H L I L 3 ; & 5 a x ~ 1.I.[.=X-XT.B.S t S B.'.:X;X[.U.r.+.' &.=.%.{ c j 0 w b / *.-.k.2.2.-.2.4.4.*.{ v f 9 4 $ # # # # ",
"O # & ; 1 J L H < = $ 5 a x [ ,.Y.&X<X:X+XN.m 5 M B.+X>X;X&XU.,.+.' &.2.*.O.W h j h W _ *.2.k.2.2.2.k.k.2.=.O.Q l w 7 5 4 # # O ",
"O # @ * : , 1 , > @ $ 5 a c [ r.Y.*X1X>X+XN.M t M B.+X>X1X&XU.,.O.+.#.=.=.@./ W v W ~ +.=.2.k.2.2.2.2.2.2.=.#.{ Q c g 0 5 $ # o ",
"O # # @ & ; ; * @ @ $ 5 a x [ r.Y.*X>X>X+XN.m t M V.+X:X;XOXU.,.&.' ' 2.=.=.+.O.{ } #.%.-.2.2.2.2.2.2.2.2.-.=.%.O./ W h 9 4 # o ",
"+ # # # $ @ @ @ @ @ $ 8 a x / ,.U.OX>X,X+XV.M m S V.@X:X;X].U.,.#.' ' 2.-.-.=.=.=.=.=.-.-.-.-.2.-.-.-.2.2.-.-.-.-.*.[ c w 5 + . ",
"# # + # O # # # @ % * 8 e k Q X.I.].:X>X$XD.) G ) D.$X>X<X[.I.>.+.' ' k.k.2.2.2.-.4.2.-.2.-.2.-.-.-.k.-.-.-.k.k.l.=.o.E f 4 # o ",
"# + O o O O # @ ; , 1 i p e k [ Z.{.:X2X,X+XD.C.D.+X,X2X<X[.I.>.+.' ' =.2.k.2.k.2.l.k.2.2.-.-.2.-.-.-.-.-.-.k.k.l.-.@.E f 4 o . ",
"      O O O # & , 2 L J 1 i y B V.T.-X2X2X,X$X@X$X,X2X2X;X[.I.,.+.' #.=.2.2.2.k.l.-.2.-.2.2.-.-.k.-.-.-.k.-.2.k.4.-.o.E f 5 # o ",
"        O # @ ; 1 L P L H : 8 N ) D.-X2X3X2X>X:X>X2X2X2X=X{.I.>.O.+.&.=.2.2.2.2.2.-.-.-.-.-.2.-.-.-.k.-.-.-.k.k.2.-.o.E w 4 o . ",
"        O O @ : 2 P U I K - & u ) C.%X=X1X1X1X1X>X>X<X:X&XT.s.>.&.' ' =.2.2.2.=.-.k.-.-.-.-.2.-.k.-.-.k.-.-.k.k.2.=.O.v w 4 + o ",
"        O O $ : 2 P Y U K - % t S 7.T.].&X*X&X*X&X&X&X].`.U.i.:.+.' =.&.2.2.2.2.-.-.2.l.l.2.l.-.k.2.-.k.2.k.k.l.l.-.@.E f 5 + . ",
"        O O @ : H I Y U K < % t N ( Z.Y.Y.Y.Y.Y.Y.Y.Y.I.v.i.>.:.O.#.#.2.=.2.2.2.-.k.-.l.k.k.l.l.l.l.l.k.k.k.k.l.l.-.O.E w 5 + o ",
"        O O @ : p I U I K < % & j ( / i.r.r.r.r.e.e.e.r.e.:.@./ O.+.&.=.2.2.2.2.2.-.-.-.-.-.-.-.-.-.-.-.k.-.k.4.l.=.@.v w 5 + . ",
"        O # @ ; 1 L I L H - % 5 q x ~ } #.@.@.O.O.@.O.O.O.O.} O.O.+.%.=.2.2.2.=.2.=.=.=.*.*.*.*.%.*.*.%.%.%.*.=.*.#./ b w 5 + o ",
"        O # @ * , H J J < > & 5 q x Q _ o.' _ _ _ _ _ _ { _ { o.O.O.#.%.%.2.=.2.=.=.%.o./ / / / / / / / / / / [ / / E h 0 4 o o ",
"        O O # & ; , < < - % @ 6 a x ! _ ' ' ] _ _ _ _ _ _ _ _ o.} O.+.+.%.*.=.2.=.%./ W x k k k k x b b z z z z z k g 0 7 $ + o ",
"        O # # @ & * > = % @ # 5 q x ! _ +.O.o._ { { } o.{ o.} { O.O.} +.+.#.&.2.=.O.~ x w 9 9 9 0 0 0 0 0 0 0 0 0 9 9 5 4 # + o ",
"        # # # # # @ @ @ + + # 4 q z Q ` o.o.o.' o.O.o.O.o.o.o.O.o.O.O.+.O.%.*.2.=.O.Q d 9 4 $ 4 4 4 $ $ 4 # $ 4 $ 4 $ # # # # o ",
"          # # o # O O O o o # 5 9 d c Q ~ ` } } o.o.o.} ' O.+.O.O.+.O.' +.#.%.2.=.' ! k a 6 4 $ O O o o o o o o o o o o o # # # ",
"            # O O O O O o o # 4 6 0 f z E Q ` { o.o.o.{ ' O.#.' #.#.' &.&.' =.=.=.#.~ Q z s 0 4 # o o . o . . . . X o o o # # o ",
"                        O o o # 4 5 9 w l v ! { +.o.o.o.+.' #.#.&.&.&.=.=.=.-.=.=.&.&.' ~ E h 0 4 o . .                         ",
"                          # # # # # 4 7 q z Q _ o.O.O.} #.$.&.2.2.-.-.-.2.2.2.2.2.4.2.2.%.{ v y 6 # X                           ",
"                          # + # + X O 4 0 l W { O.$.$.$.<.3.5.5.z.z.z.c.c.c.5.c.5.c.c.c.z.;.[ g 7 # X                           ",
"                            # + o X + $ 0 h Q { $.$.3.3.y.p.v.b.n.m.m.n.n.n.n.n.n.m.m.m.n.y.X.l 8 # X                           ",
"                                X X o $ 0 h Q { $.3.y.a.h.j.M.R.R.E.E.E.E.R.R.R.E.!.!.!.R.h...B r # X                           ",
"                                  X X 4 0 k W { ;.y.f.h.K.L.^.|././././././././././.(.(./.W.9.V r # X                           ",
"                                  X # 4 9 h W } ;.y.f.J.L.~.}.oX.X.XXXXX X.X X X.X.XXXXXoXQ.0.D r # .                           ",
"                                  X X 4 0 h W O.;.u.h.J.P.~. X.XXXXXXXXXXXXX.X.X.XXXXXXX.XL.0.D r $ .                           ",
"                                  X X $ 9 d W } 3.u.h.J.P.}. X.XXXXXXXXXXXXXXXXXXXXXXXXX XP.0.D r # .                           ",
"                                  X + $ 9 h W { ;.u.h.K.P.P.oX.XXXXXXXXX.X.X.X.XXXXXXXXXoXL.q.D r $ .                           ",
"                                  # 4 7 q k ! { ;.u.h.J.P.P.P.}.}.}. X X.X.X.X.XXXXXXXXXoXL.q.D r # .                           ",
"                                6 7 q s k E ! o.;.u.h.H.J.J.G.G.J.L.~. X.XXXXXXXXXXXXXXX XP.q.D r # .                           ",
"                            o 4 0 f z v W ! ~ O.;.u.h.J.G.S.w.9.9.a.K./.XXXXXXXXXXXXXXXX XL.w.D r 4 .                           ",
"                  # # X o o o 4 w b ! [ { _ } O.;.u.h.H.G.9.R D D R G.~..XXXXXXX.XXXXXXX XL.q.C r # .                           ",
"                  # # # + + $ 7 h W { %.&.+.O.@.;.u.h.H.a.6.V y y R 0.J.}.oXXXXX XXXXXXXoXL.0.C r # X                           ",
"                  + # # 4 5 9 f x / +.=.=.#.+.} ;.y.f.h.w...B y y A 6.a.J.^.~.}./. X X/.).j.9.V r $ X                           ",
"                o + # 4 7 q h b ! o.#.=.*.#.+.@.;.3.p.p.u...^ l z A R 6.0.G.J.P.~.)./.!.W.a.X.l 9 # X                           ",
"                X o # 5 q z Q / } +.#.%.#.+.O.O.$.1.5.5.5.;.| ~ Q v n C R 6.w.G.L.^.R.M.p.5.X.l 7 # X                           ",
"                  o $ 7 h E { +.#.+.+.} O.{ o.O.+.$.4.4.4.4.-.#.} Q l y y V R a.K.K.M.b.5.$.Q g 7 # X                           ",
"                  o $ 7 h E { @.+.{ [ ~ ~ [ { O.+.%.=.-.-.2.k.-.%.Q h 7 t y R w.h.j.n.c.4.+.W d 7 # X                           ",
"                X + # 5 q z W ! Q W E v W ! [ O.#.*.&.-.k.k.k.k.%.Q d 6 & u V 9.u.p.p.c.2.+.W s 7 # X                           ",
"                o + # 4 9 w h h h h s s z W ` O.#.*.=.-.k.k.k.k.#.! d 6 4 0 B X.3.5.5.5.-.+.W d 6 # X                           ",
"                  # # # 4 5 7 7 6 6 6 0 w n Q { +.*.=.-.2.k.k.2.#.! d 7 4 r l ^ $.1.4.4.=.+.W d 6 # o                           ",
"                  # # # # # $ # # O $ 4 0 l W ~ } #.&.=.2.2.k.-.#.! h 7 4 7 g v [ } #.%.#.{ W j 7 # X                           ",
"                  + # O o o o o X X X $ 9 s x W ! { +.=.-.2.k.2.#.! h 9 4 6 0 l v W ! ~ / Q x w 6 #                             ",
"                                      # 5 0 j k c Q } #.=.2.k.2.%.~ h 9 4 4 5 q s d k z z h g q 5                               ",
"                                          5 6 0 d n ! o.&.-.2.2.%.~ z 7 $ # 4 5 9 9 9 0 0 0 0 7                                 ",
"                                          # # 5 0 d v ` O.%.=.%.+.Q h 7 # # o $ 4 4 4 4 4 4 4                                   ",
"                                          o o # 5 q l E ! ` { { ~ c j 7 # o X o X # X X o o                                     ",
"                                          o o + 4 7 q h z n c c x f 0 4 # o o o X X X X X                                       ",
"                                          o o + # 5 7 0 q w w w q 9 5 $ + o o                                                   ",
"                                          + + # # $ $ 4 4 5 5 5 4 4 $ # # + +                                                   ",
"                                          # # # O # # + + + + + o # # # + #                                                     ",
"                                          + + + + + o o X X X o o o o + + +                                                     "
};
