/* XPM */
static char *__resized[] = {
/* columns rows colors chars-per-pixel */
"64 73 205 2 ",
"   c None",
".  c #2A2E1E",
"X  c #272E1A",
"o  c #2C311F",
"O  c #31391F",
"+  c #2E3520",
"@  c #2C3820",
"#  c #313621",
"$  c #3A3621",
"%  c #333921",
"&  c #3B3B23",
"*  c #433622",
"=  c #423A23",
"-  c #4B3924",
";  c #4C3623",
":  c #533724",
">  c #5B3724",
",  c #543A25",
"<  c #5C3A25",
"1  c #633624",
"2  c #623A26",
"3  c #683A27",
"4  c #6F3B28",
"5  c #763B28",
"6  c #7C3A29",
"7  c #743827",
"8  c #3C4425",
"9  c #3F4A26",
"0  c #414A27",
"q  c #444D28",
"w  c #494829",
"e  c #465129",
"r  c #4A552B",
"t  c #4D5A2C",
"y  c #525E2E",
"u  c #55522D",
"i  c #4E4E33",
"p  c #454A35",
"a  c #535235",
"s  c #6A4B27",
"d  c #4E622A",
"f  c #54612E",
"g  c #566430",
"h  c #596731",
"j  c #5C6B31",
"k  c #5F6B3D",
"l  c #606E33",
"z  c #646A3B",
"x  c #637334",
"c  c #667A34",
"v  c #697B36",
"b  c #6C7E39",
"n  c #6B7333",
"m  c #575C4B",
"M  c #5E6251",
"N  c #5A6448",
"B  c #6C7A49",
"V  c #656D55",
"C  c #796F50",
"Z  c #6E6E4C",
"A  c #717766",
"S  c #833B2A",
"D  c #8C3C2B",
"F  c #883726",
"G  c #9B3D2C",
"H  c #953C2C",
"J  c #A43D2D",
"K  c #AB3D2E",
"L  c #B33E2F",
"P  c #BA3E30",
"I  c #8E402A",
"U  c #6E8139",
"Y  c #6E8337",
"T  c #72853B",
"R  c #758A3C",
"E  c #798E3D",
"W  c #7D923E",
"Q  c #778646",
"!  c #7F9541",
"~  c #768555",
"^  c #79836F",
"/  c #859D3D",
"(  c #88A23F",
")  c #87A03F",
"_  c #809642",
"`  c #859D42",
"'  c #889D46",
"]  c #899B4F",
"[  c #8B975A",
"{  c #83884C",
"}  c #87A042",
"|  c #8AA344",
" . c #8EA945",
".. c #8DA34A",
"X. c #91AC46",
"o. c #91A44B",
"O. c #93AD48",
"+. c #98AE4E",
"@. c #95B146",
"#. c #96B249",
"$. c #99B54A",
"%. c #9EBB4C",
"&. c #98B947",
"*. c #95A550",
"=. c #9BA655",
"-. c #93A955",
";. c #96AB59",
":. c #99AE5D",
">. c #98A858",
",. c #9FB650",
"<. c #A0BE4E",
"1. c #A3A95B",
"2. c #A4BC52",
"3. c #ACBB5C",
"4. c #A6B559",
"5. c #B0BD5F",
"6. c #8C9478",
"7. c #949468",
"8. c #AD9672",
"9. c #AE9A72",
"0. c #A6956C",
"q. c #99AB65",
"w. c #9DB263",
"e. c #ACAB65",
"r. c #AEA968",
"t. c #B1AD69",
"y. c #B4BE63",
"u. c #BABB6C",
"i. c #B5B36A",
"p. c #A9BA77",
"a. c #BEB274",
"s. c #AEAE75",
"d. c #C3BC74",
"f. c #C4B27B",
"g. c #C6BA79",
"h. c #A3C14F",
"j. c #A6C450",
"k. c #A8C055",
"l. c #B5C362",
"z. c #BBC567",
"x. c #CCC977",
"c. c #CBC877",
"v. c #D2CD7C",
"b. c #8B8D84",
"n. c #8E8F88",
"m. c #93968C",
"M. c #9AA589",
"N. c #AFBE83",
"B. c #A9B787",
"V. c #B0B995",
"C. c #B5B8AE",
"Z. c #B6B9B1",
"A. c #ACAFA6",
"S. c #CCB881",
"D. c #D1BB85",
"F. c #D4B68B",
"G. c #D7BB8C",
"H. c #DDBB92",
"J. c #E1BE96",
"K. c #E6BF9A",
"L. c #B2C284",
"P. c #B5C489",
"I. c #BBCB8D",
"U. c #BECC93",
"Y. c #BDC1B1",
"T. c #D9C688",
"R. c #C0CC9C",
"E. c #E3CF8D",
"W. c #E4D18E",
"Q. c #EDC69E",
"!. c #E6C895",
"~. c #EAD394",
"^. c #F4D39E",
"/. c #CAD4AB",
"(. c #C7D0AD",
"). c #C4C8BC",
"_. c #D2DCB5",
"`. c #D5DEBB",
"'. c #CFD9B4",
"]. c #F6CEA3",
"[. c #F0C7A0",
"{. c #F6D4A0",
"}. c #FBD4A6",
"|. c #FFD7A8",
" X c #FFD9AB",
".X c #FDD9A5",
"XX c #F7D2A8",
"oX c #D8E1BE",
"OX c #C4C5C2",
"+X c #CCCCCA",
"@X c #D8D9D6",
"#X c #DBDFCF",
"$X c #DEE6C4",
"%X c #DCE1D0",
"&X c #EBEFDE",
"*X c #E4E9D6",
"=X c #ECF0DF",
"-X c #E0E6CC",
";X c #E9EBE5",
":X c #EBEBEA",
">X c #E5E7E1",
",X c #EDF1E2",
"<X c #F1F3EB",
"1X c #F5F6F3",
"2X c #F9F9F8",
/* pixels */
"                  % % # # o o @ X @ o @ o o o + o + o o o o o o o o o o . o o . o o . o . o o . o o . o + . . + . . + .         ",
"                  # % % # % % # O o @ % # % # % # % # # % # # # # # # % % # # % % % # % % # % % # % % # % # # % % # # %         ",
"                % # % % % & 8 8 8 8 8 8 8 8 8 8 8 8 8 8 8 8 8 8 8 8 0 8 8 8 8 0 8 8 8 8 8 8 8 8 8 8 8 8 8 8 8 8 8 8 8 8         ",
"                @ # % % 8 0 r r d r r r r r r r r r r r r y y y f f y y g y y y f y f f f y f f g y y g g y g y y y y t q       ",
"            @ @ o # % 8 e y j x x x j x x x x x j x l x x x v b b U b U b b b b Y b b U b T b b b b U b U b U U U b x j t 8 % . ",
"          @ @ @ @ @ % 9 t j b T E E R R T T T ! T R R R E W _ ` ' } } ' ' ` | ` } ' ` ' ' ' } ' } ' } ' } ' } } | _ E x y 8 # + ",
"        & & & $ % # % q f v W ` ! | ! | ! ! ! ! ` ` _ ' ` | X.#.$.$.$.$.$.$.$.$.$.$.$.#.$.#.#.$.$.$.#.$.$.$.$.%.%.O.` b g 8 # + ",
"        : : : - * $ & q g Y W '  . . .! |  .| | | } } } | X.@.$.%.%.<.<.h.<.h.h.h.<.%.%.%.%.$.%.%.$.%.$.%.$.%.j.j.%...U y 8 # . ",
"    = , 3 4 4 3 : * & q g U ! | X.!  .! ( (  ...| | } } (  . .#.$.%.%.<.<.j.j.j.j.h.<.$.#.#.#.#.$.#.#.#.#.$.%.j.j.%. .U g 9 # + ",
"@ % = > 5 D D S 3 ; & q g U W | X.! !  .( @.|  .| | } } | | |  .X.#.$.%.<.<.h.h.h.<.$.#.X.X.X.X. . . . . . .#.%.<.%.| U g 8 # . ",
"@ @ = 2 S G K H 7 : & 0 d U W |  ...!  . . .! ..} } } ..| | ..| ..X.#.%.%.<.<.<.%.#.#.X. .| | | | | | | ..|  .$.$.#.' U y 8 % + ",
"@ % = < D K L J F > = 0 d v ! | #.w.w.w.-.! ! ! ! ..-.w.:.;.....|  .#.$.<.#.O.X.| | | | | | | ..| .. .| ..|  . . .' R x t 8 # . ",
"@ # = 2 D K P K S > 0 9 d U ! ..w.l.P.P.q.[ Q Q ~ [ p.N.L.p.:...|  .@.$.<.X.' E R R E ' ..X.X.X.X.X.X.X.X. .} _ W U l g q 8 @ @ ",
"@ @ = 2 D K P K S > = 9 d v ! -.l.U.Y.Y.V.6.B k B 6.V.(./.I.p..... .@.$.#.| R x l l T _ X.@.$.#.#.#.$.$.#. .' R x g r q 8 $ # @ ",
"@ # = 2 S K L J 6 > & 9 d c ! ;.L.'.-X%XY.b.V a V b.Y.#X$X/.L.;.| X.&.&.#._ b g r f v _ O.%.%.<.%.%.%.%.%.#.` U g e 8 % $ % # # ",
"@ % & > 6 H J H 7 : % 9 d Y ! q.P.$X,X;XY.b.N i M n.OX;X;X_.L.;. .( @.&.#.` b f r f v _ #.<.<.<.%.%.%.j.%.$.' U j e 8 8 % % % # ",
"@ % & : 3 S D 5 1 ; & 9 d Y / w.I.$X<X,XOXb.m 8 m n.OX:X<X$XP.w. .( @.$.#...R x j x R ' $.<.h.<.%.h.h.h.h.%.| ! x g r 9 8 % @ @ ",
"@ % $ - , 2 3 < - $ O 9 d c ` :.U.$X<X:X).b.m p m n.OX:X;X$XP.:. .( @.$.$.X.` R R R _ X.$.%.h.h.2.%.h.%.%.%.X.} ! U l y q 8 # + ",
"@ # % $ = - - - $ $ O 9 d c / :.I.oX,X;XOXb.m m M n.OX:X;XoXP.:. .( @.$.%.$.X. ... .X.$.%.%.<.<.%.%.%.%.<.%.$.$. .' R l r 8 # + ",
"# % % % % % $ % $ $ = w d n E *.P.oX,X;XOXm.M m A m.+X:X&X_.P.;. .( X.$.%.%.%.%.$.%.%.%.<.%.%.<.<.%.h.%.%.%.%.<.%.$.` b f 8 # o ",
"% % # % @ @ % $ * - , s s l b ] B.'.:X:X@XA.b.A n.Z.@X:X;X`.P.q. .( &.&.%.<.h.h.%.h.%.%.%.<.%.%.%.<.%.<.%.<.<.j.2.%.| T f 8 # o ",
"    @ @ @ @ # = , 3 5 s s s z ~ M.).>X1X:X+XZ.A.Z.+X:X1X,X'.P.;...( X.$.%.h.<.h.j.<.%.j.<.%.%.<.<.%.<.%.<.%.<.j.h.%.| U f 0 # o ",
"        @ @ $ - 3 S I I s 2 u N 6.Z.>X2X2X:X@X@X@X:X2X2X,X_.L.;.X.( @.&.%.<.h.<.<.<.%.2.%.<.%.<.%.%.<.%.%.%.h.j.h.%...b f 0 # o ",
"        @ % & , 5 G K J F 1 w m ^ A.@X1X2X2X1X:X<X2X2X1X*X/.L.;. .( X.&.%.<.%.<.%.%.<.%.<.%.<.%.%.2.%.<.%.<.<.h.<.$.' b y 8 # o ",
"        @ @ $ < 6 J L K F 1 * i A M.).*X=X=X=X&X&X=X&X-X`.U.p.;.|  .X.&.<.<.<.<.%.<.%.%.h.%.<.%.<.%.<.%.%.%.2.j.h.%.} U g 8 % + ",
"        @ @ & < 6 K P L F 1 * p V 6.V./._.oXoX_._._._./.U.L.q.-.|  .X.<.<.<.<.<.<.<.<.2.h.h.h.h.h.2.j.<.j.h.j.j.h.%.| U f 8 # . ",
"        @ @ $ < S J P K F 1 = p N ~ q.p.L.L.L.L.L.L.z.L.p.w.;...|  .O.$.<.<.<.<.<.%.<.<.h.h.h.h.h.h.%.j.h.h.j.j.j.%.| U g 8 % o ",
"        @ @ & > s G L K S > - 0 d B ] -.:.:.;.;.;.;.;.;.-.-...| | X.@.$.<.&.<.<.<.%.%.%.%.%.%.$.%.%.%.%.%.%.%.%.%.$.' U y 8 % . ",
"        @ @ & : 6 H J H 6 > - 8 d c W !  .( ( } ! | ( (  .( } } |  .X.$.#.<.<.<.%.%.#.X.X. . . . .X. . . . . .X.X.| ! x t 8 @ + ",
"        @ % % - 2 5 S 6 3 ; & 8 d x W ! ( ( ( ( ! ! ! ( ( ! } } ' o.X.O.@.$.+.<.$.#.../ ! R T R R R E Q R R R ! Q T v g e 8 # + ",
"        @ # % = ; < 3 < : * $ 9 d c ! ( ( ( ( ! ( ( ! ! ! ( } } ( | |  .X.@.#.<.$.X._ U j h g j j j j j j j j j j h y e 8 & # # ",
"        # % % $ & * - = $ $ $ 8 t x Q !  .( } }  .! (  .( ( } } } } | | o.X.@.<.&...Q j t 0 9 9 e q q q e q q q e q 8 8 8 % # # ",
"          % % # % $ % % # # % 8 r x T _ ` ` ( ' | | } } } } | } | | } | ..X.&.$.$.| R j r 8 % % 8 % % 8 % % & % % % % % % % % # ",
"          % # % # @ @ @ o @ % 8 r g x T E W / ' ' } } } } | |  .X.|  .| X.@.&.%.$.| W x f e 8 8 O o o o o o @ + @ # o # % # % % ",
"                      @ @ @ % % 0 e y j v T W ` } } ( } | | | X.X.X.X.X.X.@.&.$.&.X.( W Y j t 9 % o o X o                       ",
"                        # # % % % 8 0 r j v E ` | } } ( |  .X.O.&.&.&.@.&.$.&.%.&.&.&.( / T x t 8 % o .                         ",
"                          % # % % % % 0 t x R ` | ..| ..X.O.$.2.2.2.2.2.2.2.<.2.j.2.2.h.2.| b h q % o                           ",
"                            % # + o # & r l R /  .o.o.=.1.1.3.y.l.l.l.l.l.l.l.l.l.l.z.z.5.1.{ z q % o                           ",
"                              # o o o 8 r j T ` o.=.1.r.i.u.d.c.x.v.x.x.x.x.x.x.x.x.v.v.x.i.[ z i % o                           ",
"                                o o @ & r j T ' =.1.t.a.f.S.T.E.W.W.W.W.W.W.E.E.W.W.~.~.E.g.7.Z i O o                           ",
"                                  o # 8 r j T ' =.4.f.f.G.J.Q.^.^.{.{.^.{.{.{.{.{..X.X.X].F.0.Z i % o                           ",
"                                  o + 8 e j R ' =.t.f.F.J.Q.].}..X|. X|.|.|.|.|.|.|. X X}.H.8.C i % X                           ",
"                                . . o 8 e j R ` =.t.f.F.J.Q.].}. X X X X X X X|. X X X X XH.8.C a % X                           ",
"                    % # @ # o o . . o % e j T ` 1.e.f.F.J.Q.].}. X X X|. X X|. X X X X XXXH.8.C a % o                           ",
"                  % # % # # % % # O O 8 r j R / 1.r.f.F.J.Q.].}.|. X X|.|.|.|.|. X X X X X!.8.C i % X                           ",
"                  # % % & 8 8 8 8 8 8 e f c R ' =.r.f.F.H.Q.].}.|.|.|.|.|.|.|.|. X X X XXX!.8.C i & o                           ",
"                # # % & q r y g f f f h x Y W | =.t.f.F.J.Q.].}.|. X X|.|.|. X|. X X X XXXH.8.C i % X X                         ",
"                @ @ % 9 r j b T T T T T R W _ | =.r.f.F.J.Q.].}. X X X|.|.|.|. X X X X X XT.8.C p @ X X o %                     ",
"                  @ % q g b ! | ....| } } } } ..=.r.f.F.J.Q.].}.|.|.|.|.|.|.|.|. X X X X}.J.9.C i % o o # % %                   ",
"                  + & q j T } X.$.$.&.#.X.X.} o.=.e.a.S.H.!.Q.^.{.}.}.}.}.}.}.|..X|. X.X^.H.9.C a 8 O O @ % #                   ",
"                  # % q y v ! | O.#.$.$.@.X.| | ] 1.r.a.f.G.T.!.~.~.^.^.{.].].].{.].{.^.E.D.r.{ z r 9 8 $ % # #                 ",
"                o # % 8 r g c T / | O.@.#.X. .| *.=.1.r.t.d.d.c.T.T.!.!.[.[.[.[.Q.!.E.T.v.u.e.] T x f q 8 # # #                 ",
"                # @ % & 8 q t h b R ' X.X.X...} ' *.*.=.1.4.3.y.z.c.T.G.J.K.K.J.!.T.T.d.z.3.4.+.' E v y 0 $ @ o                 ",
"                  % % % % $ 8 e g v E ' } | } } ' ' | o.o.+.<.2.3.u.d.D.G.H.H.H.F.S.d.y.3.2.%.%.#.| T j e & +                   ",
"                  % # # @ + @ 8 r j b R / _ ` ' ' ' ( | X.X.&.&.2.3.u.g.S.D.D.D.S.d.i.3.%.$.%.<.%.X.R j e % @                   ",
"                    # + + + @ $ 0 r h x T R _ ` |  .X.X.X.@.&.%.j.3.l.u.d.g.d.d.a.u.4.4.$.&.&.$.$.X.R l e % @ .                 ",
"                        @ # # % & 0 r y j T W ` |  . .#.$.&.%.%.2.k.3.y.y.y.y.y.y.3.4.+.X.#.@.$.X.| T g e $ + +                 ",
"                          # # # % % 8 0 f x E `  .#.$.$.%.%.%.%.%.2.2.2.2.2.3.4.2.,.+. ...| | | | ! b g q % +                   ",
"                          % % # # + @ 8 r x T ` X.#.$.%.%.$.#. . .X.X.X.X. .X.X. . .} ! W W ! W ! R c g 9 % #                   ",
"                            % # # . @ & r j T ` X.$.%.%.%.X.` ! R R R R E R E R R R Y U v v v v v x j t 9 &                     ",
"                                + . @ 8 r j T ` X.%.%.%.#.' R v j j j j j j j j h h h f f g t g y y t e 8                       ",
"                                  o # & r j R `  .$.%.%. .! x y q 0 q q e 9 e e e e e 9 9 0 0 q 9 0 0 8                         ",
"                                  + @ 8 r j R '  .#.#. .' Y j q & % % % % % 8 O $ % % $ $ % $ % % $ $                           ",
"                                  + # 8 t l R _ | } ' ! R x t 8 o . . o @ @ @ X + @ @ + @ @ # @ @ @                             ",
"                                  + # 8 r x E ` ` W T v j g e &                                                                 ",
"                                  + @ & r x R _ W b j y r q 9                                                                   ",
"                                  + % 8 r x T W T x y 0 8 %                                                                     ",
"                                  @ @ & e h x b v j q & +                                                                       ",
"                                  # # % 0 t g j h y 0 %                                                                         ",
"                                  # % % 8 0 e e r e 8                                                                           ",
"                                  # % % % & 8 8 8 8                                                                             ",
"                                  % # % # # @ % # #                                                                             ",
"                                  % # # # # @ o o                                                                               "
};
