/* XPM */
static char *__resized[] = {
/* columns rows colors chars-per-pixel */
"64 73 203 2 ",
"   c None",
".  c #2A2E1E",
"X  c #272D1B",
"o  c #2C311E",
"O  c #2E3520",
"+  c #2C3820",
"@  c #313620",
"#  c #3A3621",
"$  c #333921",
"%  c #3A3B23",
"&  c #433622",
"*  c #423A23",
"=  c #4B3924",
"-  c #4C3623",
";  c #533724",
":  c #5B3724",
">  c #543A25",
",  c #5C3A25",
"<  c #633624",
"1  c #623A26",
"2  c #683A27",
"3  c #6F3B28",
"4  c #763B28",
"5  c #7C3A29",
"6  c #743827",
"7  c #3C4425",
"8  c #3E4B25",
"9  c #414B27",
"0  c #444D28",
"q  c #494829",
"w  c #475129",
"e  c #4A552B",
"r  c #4D5A2C",
"t  c #525E2E",
"y  c #55522D",
"u  c #4E4E33",
"i  c #454A35",
"p  c #535034",
"a  c #6A4B27",
"s  c #4E622A",
"d  c #54612E",
"f  c #59692F",
"g  c #566430",
"h  c #596631",
"j  c #5C6B32",
"k  c #5F6B3D",
"l  c #606E33",
"z  c #65693C",
"x  c #637334",
"c  c #667A34",
"v  c #697B37",
"b  c #6C7E39",
"n  c #6B7333",
"m  c #575C4B",
"M  c #5E6251",
"N  c #5A6448",
"B  c #676B4A",
"V  c #746E4B",
"C  c #6C7A49",
"Z  c #656D55",
"A  c #7A6F50",
"S  c #717766",
"D  c #833B2A",
"F  c #8C3C2B",
"G  c #883726",
"H  c #9B3D2C",
"J  c #953C2C",
"K  c #A43D2D",
"L  c #AB3D2E",
"P  c #B33E2F",
"I  c #BA3E30",
"U  c #8E402A",
"Y  c #6E8139",
"T  c #6E8337",
"R  c #72853B",
"E  c #758A3C",
"W  c #798E3D",
"Q  c #7C923E",
"!  c #7A8848",
"~  c #7F9540",
"^  c #768555",
"/  c #79836F",
"(  c #859D3D",
")  c #88A23F",
"_  c #87A03F",
"`  c #809641",
"'  c #859D42",
"]  c #889D46",
"[  c #879B4F",
"{  c #8B975A",
"}  c #878C4E",
"|  c #87A042",
" . c #8AA344",
".. c #8EA945",
"X. c #8DA34A",
"o. c #91AC46",
"O. c #91A44B",
"+. c #93AD48",
"@. c #95B146",
"#. c #96B249",
"$. c #99B54A",
"%. c #9EBB4C",
"&. c #98B947",
"*. c #95A550",
"=. c #9BA655",
"-. c #93A955",
";. c #96AB59",
":. c #99AE5D",
">. c #98A858",
",. c #A0BE4E",
"<. c #A2A95B",
"1. c #A4BC52",
"2. c #ACBD5B",
"3. c #A7B65A",
"4. c #B0BD5F",
"5. c #8C9478",
"6. c #969366",
"7. c #AD9672",
"8. c #A7956C",
"9. c #99AB65",
"0. c #9DB263",
"q. c #ACAB65",
"w. c #AFAC68",
"e. c #B1AD69",
"r. c #B4BE63",
"t. c #BABC6B",
"y. c #B4B16B",
"u. c #A9BA77",
"i. c #BEB274",
"p. c #AEAE75",
"a. c #C3BD75",
"s. c #C4B37B",
"d. c #C6BA79",
"f. c #A3C14F",
"g. c #A6C450",
"h. c #A8C055",
"j. c #B5C362",
"k. c #BBC567",
"l. c #CCC977",
"z. c #CBC778",
"x. c #D3D07B",
"c. c #8B8D84",
"v. c #8E8F88",
"b. c #93968C",
"n. c #9AA589",
"m. c #AFBE83",
"M. c #A9B787",
"N. c #B0B995",
"B. c #B5B8AE",
"V. c #B6B9B1",
"C. c #ACAFA6",
"Z. c #CCB882",
"A. c #D1BB85",
"S. c #D4B68B",
"D. c #D7BA8C",
"F. c #DDBB92",
"G. c #E1BE96",
"H. c #E6BF9A",
"J. c #B2C284",
"K. c #B5C489",
"L. c #BBCB8D",
"P. c #BECC93",
"I. c #BDC1B1",
"U. c #DAC788",
"Y. c #C0CC9C",
"T. c #E3CF8D",
"R. c #E4D18E",
"E. c #EDC69E",
"W. c #E6C895",
"Q. c #EAD394",
"!. c #F4D39E",
"~. c #CAD4AB",
"^. c #C7D0AD",
"/. c #C4C8BC",
"(. c #D2DCB5",
"). c #D5DEBB",
"_. c #CFD9B4",
"`. c #F6CEA3",
"'. c #F0C7A0",
"]. c #F6D4A0",
"[. c #FBD4A6",
"{. c #FFD7A8",
"}. c #FFD9AB",
"|. c #FDDAA5",
" X c #F7D2A8",
".X c #D8E1BE",
"XX c #C4C5C2",
"oX c #CCCCCA",
"OX c #D8D9D6",
"+X c #DBDFCF",
"@X c #DEE6C4",
"#X c #DCE1D0",
"$X c #EBEFDE",
"%X c #E4E9D6",
"&X c #ECF0DF",
"*X c #E0E6CC",
"=X c #E9EBE5",
"-X c #EBEBEA",
";X c #E5E7E1",
":X c #EDF1E2",
">X c #F1F3EB",
",X c #F5F6F3",
"<X c #F9F9F8",
/* pixels */
"                  @ @ @ @ @ O o o o o O o O O o O O o O o o o o o o O o o O o . O O . O . O O . O O . . . O . . . . O .         ",
"                  @ @ + $ @ @ @ + + $ + @ @ @ @ @ @ @ @ @ @ $ # @ O @ $ @ @ @ @ @ @ @ @ @ @ @ $ @ @ + # $ $ $ $ $ $ $ $         ",
"                @ $ $ @ @ 7 7 7 7 7 7 7 7 7 7 7 7 7 7 7 7 7 7 7 7 7 8 7 9 7 7 9 7 7 7 7 7 7 7 7 7 7 7 7 7 7 7 7 7 7 7 7         ",
"                @ @ $ 7 7 0 w r r e e r r e e e e e e r e t t t d d t t t t t t t t g d g t d t t g t g g t g t t t t e 0       ",
"            + + O O $ 7 w t j x x j x j j j x j l x l l x x v b b b Y b b b b b b Y b Y Y Y b b Y Y b b Y b Y Y b b x h r 7 $ . ",
"          + @ + O @ $ 9 r j b R Q Q E E E E E ~ E R E E W Q ` ' |  .] | ] ] | ' ] ] ' | ' | ] ] | ]  .] ]  .|  .| ] W x t 7 $ O ",
"        % % % # @ @ $ 9 d v Q ' ~ |  .~ ~ ~ ~  .' ' ' ' |  .o.#.$.$.$.$.$.$.$.$.&.$.$.#.&.#.#.&.&.$.$.#.#.$.$.$.$.#.' b t 7 $ . ",
"        ; ; ; - & # % 9 g v ( | .. . .|  .o.~ ..| | ' | ..o.+.$.%.%.%.,.,.g.,.g.f.,.1.%.,.$.%.$.$.$.$.%.$.%.,.g.g.%.X.Y g 7 $ . ",
"    * > 2 3 3 < ; & % 0 g Y ~  ...~ ..) ) o.......@...) ~ o.o.&.$.$.,.1.1.f.f.g.g.f.,.%.#.#.#.#.#.#.$.#.#.#.%.g.g.%...Y g 8 $ . ",
"+ @ * , 4 F F D 2 - % 0 g Y ~ | ....~ ) ~ ) X.o.~ ) ~ ~ ..o.~ o.+.#.$.%.,.,.f.g.f.f.&.@.+.+.O.o.+.........+.#.%.g.%. .Y g 7 $ . ",
"+ + * 1 D H L H 6 ; * 0 s Y ~ | ~ o...X.o.~ ..~ ..~ ~ -.....~ o...+.#.$.,.,.%.%.$.#.+.+. . . . .X. . . . .....#.$.#.' b t 7 $ . ",
"+ @ * , F L P K D : * 8 s c ~ X.-.;.0.0.-.X.~ ~ ~ o.-.9.:.;.-.o. ...#.$.%.$.+.o.X. . . ... . . . . . ... . ..... .] W x r 7 @ O ",
"+ @ * 1 F L I L D , * 8 s Y ~ X.0.j.K.K.u.{ ! ! ^ [ u.J.k.u.0.~  ...@.$.$.+.] W E E Q ' ....+.+.+...+.+..... .Q ~ Y x g 0 7 $ O ",
"+ + * 1 F L I L D , * 8 s v ~ -.j.P.I.I.N./ C N ^ 5.K.I.I.L.u.-. ...@.&.#. .E x j x R ` +.+.&.#.#.#.#.#.#.+.' ! x g e 8 7 $ @ O ",
"+ @ * 1 D L P H 5 : % 8 s c ~ 9.J._.*X#XI.5.Z t Z c.I.OX*X~.k.;.....@.%.#.' b g e t v ` +.%.,.%.%.%.%.%.$.#.] Y g w 7 % $ $ $ @ ",
"+ $ % , 5 H K J 6 ; 7 8 s c ~ :.K.@X:X;XI.c.M 8 Z v.XX=X:XoXK.:. ...@.&.#.' v g e g v ` +.,.,.,.%.%.%.g.,.$.| Y g w 7 % $ $ $ @ ",
"+ @ % > 2 D D 5 < = % 8 s c ` :.Y..X>X:XXXc.m 7 M v.XX-X>X@XK.:...) @.$.$.| Y x h x E | $.,.,.g.,.f.f.f.,.$...~ x g e 8 7 $ $ + ",
"$ @ % * > 2 2 1 - # $ 8 s T ( 0.Y.@X>X-XXXc.m 7 m v.XX-X:X).K.:.....@.$.$.+.' ~ E W ' ..$.%.,.,.,.%.f.%.f.$.+.| ~ Y x r 9 % $ + ",
"@ @ $ % & = = * # # % * s c ( :.Y.@X:X=XXXc.M m M v.XX-X=X).K.:. ...@.&.%.$.#... .X.+.#.%.%.,.,.,.%.%.,.,.%.$.#...] E x e 7 $ o ",
"$ $ @ $ @ % $ # # # * q s n E *.k..X:X=XXXb.M m S b.oX-X$X).K.:...) ..$.%.%.%.$.%.$.%.%.%.1.,.%.%.,.%.%.%.%.f.,.,.#.' b t 7 $ o ",
"$ @ @ @ + + @ % & - > a y j v [ M._.=X-XOXC.c.S v.V.OX-X=X).K.:. .) o.&.%.f.,.,.f.,.,.,.,.%.,.,.,.%.%.,.%.,.f.f.g.$. .R d 7 $ o ",
"    @ + + + @ & > 2 a a a a l ^ n./.=X,X-XoXV.C.V.oX-X,X:X).J.:... .o.%.%.,.g.,.f.,.,.,.%.,.%.%.1.%.,.%.,.%.f.f.g.%. .Y d 7 $ o ",
"        + O % = 2 D U U a 3 y B 5.V.;X<X<X-XOXOXOX-X,X<X:X_.J.:.o.) ) ,.%.f.,.f.,.f.,.%.,.%.%.,.%.%.,.%.%.%.f.f.1.$.X.b d 7 $ . ",
"        + @ % > 4 H L K G < = m / C.OX,X<X<X,X-X>X,X<X,X$XI.J.;.o.) o.&.%.%.,.%.%.%.,.%.%.,.%.%.,.%.%.,.%.,.f.f.f.$.] b d 7 $ o ",
"        + + % > 5 K P L G < = u S n._.%X:X:X&X$X&X&X$X%X@XP.u.;...) o.&.,.,.,.,.,.%.,.%.,.,.%.,.%.,.%.%.%.f.f.f.g.$.| Y g 7 @ O ",
"        + + # , D L I P G < & i Z / K.~._.@X(.(.(.(._.~.P.J.9.[  .o.o.,.,.,.,.,.%.,.f.,.f.f.f.,.f.f.f.f.f.f.f.g.g.%. .Y g 7 @ . ",
"        + + % , D K I L G < * i N ^ 5.J.k.K.J.J.K.M.J.k.u.0.-.o. ...+.$.,.,.,.,.%.,.,.f.f.f.f.g.f.f.f.f.f.f.f.g.g.%. .Y g 7 @ O ",
"        + O # , 5 H P L D < * 9 s ^ ~ -.:.:.;.;.;.;.;.;.-.-.X.o. .o.@.$.,.$.,.,.%.%.%.$.%.%.$.%.%.%.%.%.%.%.%.f.%.$.] Y t 7 @ o ",
"        + + % > 4 F K J 5 : * 7 s x Q ~ o...) | ~ ~ &.~ ) ) ..~  ...+.#.$.,.,.$.%.$.$.+.+...................+.o...X.~ x r 7 @ O ",
"        + @ $ = 1 4 D 5 2 - * 7 s c Q ~ ) ~ ) ) ~ ~ ~ ) ) ~ ) ) ]  .+.+.@.$.$.,.%.+.X.' W E E E W W E ! E E ! E W R v g w 7 O O ",
"        + @ $ * = , 2 , ; & % 8 r x ~ ~ ) ) ) ~ @.~ ~ ~ ) ~ ~ ~  . .....+.@.$.,.$.+.~ Y j h h h j j j j j j j j j g t w 8 % @ @ ",
"        $ $ $ % % * * = # # # 7 s x ~ ~ ) o.) | ~ o.) ) ) ..) o. .'  .] ..+.$.$.&.X.E j r 0 8 9 0 0 0 0 0 0 0 w 0 0 8 7 % $ @ @ ",
"          $ $ $ $ $ $ $ @ @ + 7 r x R ~ ` ' ' ' '  . .| | | | |  . .|  ...o.&.$.#. .E j e 7 7 $ $ $ $ 7 $ $ % $ $ 7 $ $ $ $ @ $ ",
"          @ @ @ @ + O O O O @ 7 w d x R E ( ' '  .| ' | | | ..............o.&.%.&...W x d w 7 7 $ o o o O o O o O o O O @ @ $ @ ",
"                      + O + $ 7 9 w d j v E ` ' |  .| | | ....o.o.o.o.o.o.@.&.&.&.o._ W T f r 9 7 o o o .                       ",
"                        + @ @ % % 7 q e h v E ' |  .| | | ..+.+.@.&.&.@.&.$.%.$.&.&.@.o.' E x e 7 o o o                         ",
"                          @ @ $ @ @ $ 9 t x E (  . . .O.O.+.$.1.1.g.1.1.1.1.1.1.1.g.1.f.$.' R h 8 @ o                           ",
"                            @ @ O o O 7 e l E ( O.O.O.=.<.3.3.r.j.j.j.j.j.j.j.j.j.j.k.k.j.<.} l 0 $ o                           ",
"                              @ o o O % w j R ' O.=.<.w.y.t.z.z.l.l.l.l.l.l.l.l.l.l.x.x.l.y.} B w $ o                           ",
"                                O o O 7 e j R ] =.<.e.i.s.d.U.U.R.R.R.R.T.R.R.R.R.R.Q.Q.T.d.6.V u $ o                           ",
"                                  o @ 7 e j E ' =.q.i.Z.D.W.E.`.!.].].].].].].].].].|.|.`.S.8.V u $ o                           ",
"                                  o O 7 e j E ] =.e.s.S.F.E.'.{.{.{.{.{.{.{.{.{.{.{.}.}.[.F.7.A u $ X                           ",
"                                . . O % w f T ] =.e.s.S.G.E.`.{.}.}.}.}.}.}.}.}.}.}.}.}.{.F.7.A p $ X                           ",
"                    $ @ + @ O . . . o $ w f E ] =.w.s.S.G.E.`.[.}.}.}.}.}.}.}.{.}.}.}.}.}.F.7.A p $ o                           ",
"                  @ @ @ @ $ @ $ @ o @ 7 e j E | =.e.s.S.G.E.`.[.{.{.{.{.{.{.}.|.}.}.}.}.}.W.7.A u $ o                           ",
"                  @ % $ % 7 7 7 7 7 8 w d c E ' =.w.s.S.F.E.'.[.{.{.{.{.{.{.{.{.}.}.}.}. XW.7.A u % o                           ",
"                O @ @ % 0 e t g g d d h x T Q  .=.w.s.S.G.E.`.[.}.}.}.{.{.}.{.{.}.}.}.}. XD.7.A u $ o                           ",
"                O + % 8 r h v R E R R R E W '  .=.w.s.S.H.E.`.[.}.}.}.{.{.{.}.{.}.}.}.}.}.W.7.Z u $ o                           ",
"                  @ % 0 g b ~  ... . . .] | '  .=.q.s.S.G.E.`.[.{.{.{.|.{.}.{.{.{.{.}.}.[.F.7.A u % o                           ",
"                  O $ 0 h E | +.$.$.$.#.o.o...X.=.q.i.Z.F.W.E.`.|.[.[.[.[.[.[.[.|.|.|.|.`.D.8.V u $ o                           ",
"                  O $ 0 t v ~ | +.#.$.$.#.o... .*.<.w.i.Z.A.U.T.Q.Q.!.`.`.`. X`.].`.!.!.T.s.6.V u $ X                           ",
"                O @ $ 7 e g v R `  .@.#.@.o...] O.=.<.8.e.a.a.z.U.U.W.W.E.'.E.E.E.W.W.T.z.y.} B 9 @ X                           ",
"                @ @ $ % 7 0 r j v W ' +.o... . .] *.=.=.<.3.r.r.k.z.U.D.G.H.H.H.W.U.U.z.k.:.} j 9 @ .                           ",
"                  @ $ $ $ $ 7 0 g v W ' ]  . .| ] ]  .O.O.+.$.1.2.t.a.Z.S.F.F.F.S.A.a.r.3.+.R h w % $                           ",
"                  $ @ @ O O @ 7 w j b E Q ' ' | ] |  . ...@.@.%.1.2.t.d.Z.A.A.A.Z.d.t.2.%...W c g w 8 7                         ",
"                    @ O O O O $ 9 e h x b E ` '  .....o.o.@.&.%.g.2.r.t.a.a.a.a.a.t.r.h.%.&.~ E v j g e 9                       ",
"                        O O @ $ 7 7 w r j Y W '  ...#.#.$.&.$.,.1.h.2.r.r.r.r.r.r.4.2.1.,.$.o. .~ E c g 0 %                     ",
"                          @ @ $ $ % 7 0 d x E ' ..#.$.$.%.%.%.%.%.%.1.1.1.3.1.3.1.1.,.,.,.$.$.$.+.' E j w % O                   ",
"                          @ $ $ $ $ 7 0 d c W ' ..$.$.$.$.$.#.+.+...+.....+...+...#.#.#.$.,.1.,.%.+.W j w $ O                   ",
"                          + @ % 7 9 e d x Y Q  .+.$.%.,.$.#.| ~ E E E E E E E E W Q ' ..#.$.f.g.g.#.~ l w 7 O .                 ",
"                          @ $ 7 0 t j v T W '  .+.$.%.,.#.] E x j f h h j j f f j c E ' ..#.%.g.f.$.~ x w $ O O                 ",
"                          @ @ 7 e j b W ~ ' ] | ..#.%.$...~ x t w w 9 w w 8 8 w e g x W | +.$.%.$.#.~ j e % O                   ",
"                          O @ 7 e j R Q ' ~ ~ ' |  .+.+.' Y f 0 $ @ O $ % @ @ $ 7 w h Y ~ ' ..+.@.| Y j 0 % O                   ",
"                          O $ 7 e h x R R T Y Y E E ~ ~ E v r 7 O o . O + o o O @ 9 r j b T W Q ~ ! x g 9 $ O O                 ",
"                          @ $ 7 8 e g h h j h f j j x x j g e 7                 O 7 w t g j l x x j g w 7 $ + O                 ",
"                          @ @ % 7 7 0 w w w e w w e e e e e 9                       9 0 0 w e e e e 0 7 $ $ @ +                 ",
"                          @ $ $ @ % % 7 % 7 7 % 7 % 7 % % 7                           % 7 % % 7 7 % $ % $ @ @                   ",
"                          @ $ @ + O O + O O O @ O O + O O                             O O O O @ O O + @ @ $ $                   ",
"                              @ @ O O O . O O . . O . O                                   O o . . O O @ @                       ",
"                                                                                                                                ",
"                                                                                                                                ",
"                                                                                                                                ",
"                                                                                                                                "
};
