/* XPM */
static char *__resized[] = {
/* columns rows colors chars-per-pixel */
"64 73 204 2 ",
"   c None",
".  c #2B2F1E",
"X  c #262E1A",
"o  c #2C311E",
"O  c #2F3520",
"+  c #2C3820",
"@  c #313620",
"#  c #3B3621",
"$  c #333922",
"%  c #393D23",
"&  c #433622",
"*  c #423A23",
"=  c #4C3924",
"-  c #4D3723",
";  c #5B3724",
":  c #533A25",
">  c #5C3A25",
",  c #543724",
"<  c #643A26",
"1  c #673825",
"2  c #723B28",
"3  c #7C3A29",
"4  c #793926",
"5  c #3B4325",
"6  c #3F4926",
"7  c #414A27",
"8  c #444D29",
"9  c #47472B",
"0  c #465129",
"q  c #4A562B",
"w  c #4E5B2C",
"e  c #515D2D",
"r  c #5B582C",
"t  c #4E4E33",
"y  c #444935",
"u  c #5A5D3A",
"i  c #4F4E34",
"p  c #684A27",
"a  c #6C5028",
"s  c #4E622A",
"d  c #53612E",
"f  c #5A6B2F",
"g  c #566430",
"h  c #596631",
"j  c #5B6A31",
"k  c #526238",
"l  c #646C38",
"z  c #637435",
"x  c #667A34",
"c  c #697B37",
"v  c #6C7E38",
"b  c #64753B",
"n  c #666D2E",
"m  c #575B4A",
"M  c #5B5F50",
"N  c #5C664B",
"B  c #686946",
"V  c #766E4D",
"C  c #646A55",
"Z  c #7A6F50",
"A  c #6F774F",
"S  c #6F7665",
"D  c #823B2A",
"F  c #8A3C2A",
"G  c #893626",
"H  c #983C2C",
"J  c #A43D2D",
"K  c #AB3D2E",
"L  c #B33E2F",
"P  c #BA3E30",
"I  c #87412A",
"U  c #847C55",
"Y  c #6E8139",
"T  c #71853A",
"R  c #758A3B",
"E  c #798E3D",
"W  c #7C923E",
"Q  c #7F983F",
"!  c #7A8844",
"~  c #7F9540",
"^  c #74844D",
"/  c #7E876E",
"(  c #849D3E",
")  c #80973F",
"_  c #88A23F",
"`  c #87A03E",
"'  c #809740",
"]  c #859C42",
"[  c #899D46",
"{  c #899E4B",
"}  c #8B8756",
"|  c #8A9B59",
" . c #929257",
".. c #87A042",
"X. c #8AA344",
"o. c #8FA945",
"O. c #8DA349",
"+. c #91AC46",
"@. c #93A54D",
"#. c #93AD49",
"$. c #95B246",
"%. c #96B149",
"&. c #99B54B",
"*. c #9EBB4D",
"=. c #9BA654",
"-. c #94A955",
";. c #96AB5A",
":. c #99AD5C",
">. c #98A854",
",. c #95AA57",
"<. c #A0BE4E",
"1. c #A5AB5D",
"2. c #A4BB53",
"3. c #ACBD5A",
"4. c #A4B656",
"5. c #8E967B",
"6. c #908E6C",
"7. c #A4946A",
"8. c #AC9672",
"9. c #AD9A71",
"0. c #B59C78",
"q. c #9BAD67",
"w. c #9DB163",
"e. c #9FAD7A",
"r. c #ADAC65",
"t. c #ACA668",
"y. c #B1AE68",
"u. c #A5B569",
"i. c #B4BD64",
"p. c #B9B96C",
"a. c #B6A872",
"s. c #AABB7A",
"d. c #A9BA77",
"f. c #BCB173",
"g. c #C2B27A",
"h. c #C7BA7B",
"j. c #A3C14F",
"k. c #A6C450",
"l. c #AFC15C",
"z. c #B1C35D",
"x. c #BEC16C",
"c. c #B2C37F",
"v. c #C5C771",
"b. c #C9C974",
"n. c #C1C46F",
"m. c #8A8C84",
"M. c #8D9086",
"N. c #92958A",
"B. c #9B9E95",
"V. c #9EAB83",
"C. c #ACB88B",
"Z. c #A0A997",
"A. c #A8A9A3",
"S. c #B5BBA9",
"D. c #C1A680",
"F. c #CDB783",
"G. c #D3B58B",
"H. c #D5BA8A",
"J. c #D5BA8A",
"K. c #DDBC92",
"L. c #E2BE96",
"P. c #B5C489",
"I. c #B6C689",
"U. c #BCCB92",
"Y. c #BAC2AA",
"T. c #DCCC87",
"R. c #DACB86",
"E. c #D0CC95",
"W. c #E3D38C",
"Q. c #ECC59D",
"!. c #EECB9C",
"~. c #E5C695",
"^. c #F2D49C",
"/. c #F8D89F",
"(. c #EDD098",
"). c #C1CCA2",
"_. c #C8D4A5",
"`. c #C2C3BD",
"'. c #D3DCB9",
"]. c #D2DCB6",
"[. c #CBD4B5",
"{. c #F4CDA2",
"}. c #FBD4A6",
"|. c #FFD7A8",
" X c #FFDAAB",
".X c #FBD4A5",
"XX c #D8E1BD",
"oX c #C5C5C3",
"OX c #C8C9C6",
"+X c #D4D7CB",
"@X c #D6D7D3",
"#X c #CED3C4",
"$X c #DBE3C3",
"%X c #DFE8C3",
"&X c #E9EDDD",
"*X c #E5E7DF",
"=X c #EBF0DF",
"-X c #E9EBE5",
";X c #ECEDEA",
":X c #E4E4E3",
">X c #EEF1E3",
",X c #F1F5E8",
"<X c #F5F5F5",
"1X c #F9FAF9",
/* pixels */
"                                                                                                                                ",
"                                                                                                                                ",
"                                                                                                                                ",
"                                                                                                                                ",
"                      + @ O o o o o o O o o o o o O o o o o O . . . . O . . . . O . . . . . . O . . . . . . . . . .             ",
"                  $ $ $ @ @ @ @ O o O O @ @ @ o @ O O + O O O O O O O O @ O O @ O O O O @ O @ @ O @ O O O @ + O @ @ +           ",
"                @ $ $ $ $ $ % % 5 5 $ % 5 % % 5 % 5 % % % 5 5 5 % 5 5 % 5 5 5 % 5 % 5 5 % 5 5 % 5 5 5 5 % 5 % 5 % 5 5 %         ",
"                O @ + % 5 6 8 0 0 0 0 0 0 0 0 8 0 8 0 0 0 0 0 q q q w q q q q q q q q q q q q q q q q q w q q w q q q 0         ",
"              + O + $ 5 7 w g h j j j j j h h j h h j j j f z z b x x z x z x z b x z z x x b z z b x x x b x x x z j h q 6     ",
"          + O O O O $ 6 q j x Y Y Y Y Y Y Y Y T Y Y Y T R R E ~ ~ ~ ' ~ ' ~ ~ ~ ~ ' ' ' ' ' ' ' ' ' ' ' ' ' ' ' ' ~ T z e 5 @ O ",
"        % $ $ @ @ @ % 6 e x R ' ( ] Q Q Q ) ' W ~ ~ ~ ' ] ..o.+.%.%.%.%.%.%.%.%.%.#.#.#.#.#.%.#.#.%.#.#.#.#.%.&.%.#.~ c e 5 @ O ",
"        = - = * # # % 6 g v ~ X.X.X.X.X.X...X.X...X.....X.+.$.&.*.*.*.<.*.<.<.<.<.<.<.*.*.*.&.&.<.&.*.&.*.&.<.<.2.*.X.Y e 6 @ . ",
"      : > < 1 > - # % 8 g Y ~ X.X.X._ _ X.X.X.o.o.X._ _ o.o.+.$.&.*.*.j.j.j.k.k.k.k.<.*.&.&.&.&.%.%.&.&.&.&.*.j.k.<.X.T g 5 @ O ",
"+ $ # > 2 F F 3 < - % 8 g Y ~ X.X.X._ _ _ X.X.X.X.X._ _ ....o.o.%.%.&.*.j.j.k.k.k.<.*.%.#.+.+.+.#.#.+.#.#.#.&.<.j.*.O.T g 6 @ . ",
"+ $ * < 3 H J G 2 , % 8 d Y W ..O.X.X...X.X.O...[ ] ..X...O.X.X.O.#.%.*.*.*.<.*.*.&.%.#.X.X.X.+.X.X.X.X.X.o.+.&.*.&.[ Y e 5 @ O ",
"+ $ # < F K L J 3 ; 5 6 d c ~ X.@.-.-.-.@.{ ' ' ' { -.-.,.-.O.X.X.+.%.*.*.*.&.%.+.O.+.X.X.X.X.X.X.X.X.X.X.X.o.#.#.X.~ b e 6 @ . ",
"+ + * < F K P K D ; * 7 s Y W O.:.u.c.d.q.| ! Y ! | q.c.d.w.,.O.X.o.$.*.*.%.O.~ ~ ~ ' X.O.o.o.o.#.o.o.+.o.X.X.] ~ E c g 0 5 O O ",
"+ $ * < F K P K G ; % 7 s x Q -.l.U.U.Y.C.5.A b ^ 6.C.Y.U.P.q.-.X.X.$.&.&.X.W c z c T ' o.%.%.%.#.%.%.%.%.+.[ W c j e 0 6 % @ O ",
"+ $ # < F K P J D ; * 7 s Y W -.P._.$X$XS.5.C k C 5.Y.$X$X_.c.-.X.o.$.*.%.] Y g q g c ~ #.&.*.*.&.&.<.&.&.#.] T j q 7 5 % $ $ @ ",
"+ + * > D H K H 4 : % 6 s x Q -.I.XX&X*XY.M.N t C M.oX:X-X].P.-.o._ $.&.&.~ c g q e c ' %.*.j.*.<.<.<.<.2.%.] v h 8 5 $ $ $ $ @ ",
"+ $ # : 2 F H 3 1 - % 7 s x ' :.U.%X;X;XoXm.M 6 M M.oX;X>XXXI.:.o._ $.*.%.X.! j g j Y [ &.*.k.j.<.<.<.k.<.&.X.R z e 8 6 % $ + @ ",
"+ $ # = > 1 2 < , & $ 6 s Y ' w.U.%X,X;XoXm.m y M M.oX;X>X$XI.;.o.o.$.&.&.o.~ Y c T ~ X.&.j.j.*.<.<.<.<.<.&.+.] R c h q 6 5 $ O ",
"$ $ $ # * : : = & @ % 7 s x ' w.U.%X;X:XoXm.M 5 M N.oX-X>XXXI.;.$._ _ <.&.%.o...[ X.o.%.*.*.j.*.<.<.<.<.<.&.&.#.O.~ T j q 5 @ O ",
"$ @ $ % # % # # # # % 7 s x ~ :.I.XX;X:XoXN.C m C N.OX-X-XXXI.;.+._ _ *.*.*.*.&.%.&.&.*.*.*.*.*.<.<.&.<.<.<.<.<.&.#.' c w 5 O O ",
"@ @ $ + + $ $ % # - = t r n T | P.'.-X;X@XZ./ S / A.@X;X>XXXP.,.o._ $.*.<.<.<.j.*.*.<.*.<.*.*.j.<.*.*.<.*.*.j.j.k.&.X.Y g 6 @ . ",
"$ $ @ + + + $ # - > 2 p a a n ^ V.[.-X<X:XoXA.B.A.oX:X<X>X'.P.;.+._ _ &.<.<.<.j.j.j.j.*.j.*.*.*.*.*.<.*.<.*.j.k.k.*.X.Y e 6 @ . ",
"      + + + $ = < 3 G F p p e A N.Y.:X<X<X:X@XOX@X:X<X<X&X].P.;.X._ $.&.*.<.<.j.j.j.j.*.*.<.*.*.<.*.<.*.*.<.<.j.k.*...Y e 6 @ O ",
"        + + # : 2 H K H D < 9 m / A.*X<X1X<X;X-X;X<X1X<X&X[.P.;.X.o.$.&.*.<.<.*.<.*.*.*.*.*.*.j.<.*.*.<.*.*.j.j.2.&...Y e 6 @ . ",
"        + + % > 3 J L K D ; * i / Z.#X&X,X,X,X>X;X;X>X-X$XY.c.;.#._ _ *.*.<.<.*.*.j.*.*.<.*.*.*.<.*.*.<.*.*.j.j.k.&.X.v e 5 @ O ",
"        + + # > D J L L G 1 = y C 5.Y.#X$X%X%X$X$X$X$X]._.I.q.-.+._ $.$.*.<.<.<.*.*.<.j.j.j.j.j.j.j.j.j.j.j.j.k.k.&.X.v g 7 @ . ",
"        + + # > 3 J P L G 1 & 9 N ^ e.U.U.U.U.U.U.U.U.P.c.w.w.O.X.+.$.*.*.j.<.*.*.j.<.j.j.j.j.j.j.j.j.j.j.j.k.k.k.*.O.T e 6 @ O ",
"        + + # > 3 J P K G ; & 7 k ^ Q q.w.w.u.w.q.q.q.w.;.-.O.O.X.+.$.&.*.*.<.<.<.*.*.<.*.*.<.<.*.<.*.*.*.<.j.j.2.&.O.v e 6 @ . ",
"        + $ # : 2 H K H 3 ; & 7 w x W X.@.+.+.X.O.X.O.X.O.X.X.X.X.+.#.&.*.<.<.<.<.*.&.%.%.%.+.#.#.%.%.#.#.#.%.&.%.+.' c w 5 @ O ",
"        + $ # = < D F F 2 , & 6 w z E ( ( ( ] ( ( ( ( ( ( ( ( ] X.X.#.#.%.&.*.*.*.%.o...~ ~ ~ ~ ~ ~ ~ ~ ~ ~ ~ ' ~ ~ Y h q 5 @ O ",
"        + + $ * : < 1 1 , & # 7 s x E ( _ _ ( ( ( ( ( ( ( ( ] X.X.X.X.#.#.%.&.*.&.+.Q T b z j z z z b z z z z z z z g w 6 % @ O ",
"        $ $ $ # * = , - & # @ 6 w x W ( X.X._ X.X.( ( X.] ] ( X.( X.X.X.+.#.&.&.&.o.E z s q 0 q q q q 0 q q q q q 0 8 6 5 % @ @ ",
"        $ @ $ @ $ # # % @ @ $ 6 w x R ' ] X.X.] ] ] X.] ..X.] X.X.X.X.X.X.+.%.*.&.X.R f 0 6 5 % 5 5 % 5 % 5 % 5 % % % % $ $ @ @ ",
"          $ @ $ $ O + + O O $ 5 q d x R W ' ] ] X.X.] X.X.X.X.X.X._ o.+.+.+.&.*.$.o.E z w 7 5 $ $ O O O O O O O O O + O + @ $ $ ",
"            $ + + + + + + O $ % 7 q h z v R ) ] X.] _ X._ X.X.o.+.o.+._ _ $.&.&.&.o.Q T z d q 6 $ O o . . . . . . O O O @ @ @ $ ",
"                        + O $ $ % 6 0 e z v E ( X.X.X.( X.X.#.%.$.$.$.$.*.$.*.&.*.$.+._ W Y j q 5 O o .                         ",
"                          $ $ $ $ $ 5 7 e z R ] ] X.X.[ +.#.&.&.<.<.<.*.*.<.2.<.2.<.*.&.%.[ v e 6 $ O                           ",
"                          $ $ @ @ @ + 5 q z R ] X.@.@.@.>.1.4.2.l.z.l.l.z.l.3.l.l.l.z.x.3.%.! l 7 $ o                           ",
"                            $ @ O o O % q j T ] @.>.=.1.r.i.p.n.v.v.v.v.v.v.v.v.v.v.b.b.v.y. .l 9 % o                           ",
"                                o . O % q j R ] @.1.r.a.g.h.R.R.T.T.W.T.T.T.T.T.W.W.W.W.T.g. .B t $ o                           ",
"                                  o o 5 q f R [ =.r.f.F.F.~.~.!.^.^.^.^.^.^.^.^.(.^. X/.^.R.7.V t $ .                           ",
"                                  o $ 5 q h T [ =.y.f.G.K.Q.{.}.|. X|.|..X|.|.|. X/. X X{.E.8.Z t $ X                           ",
"                                  o o 5 q f T ] =.y.g.G.L.Q.{.|. X X X X X|. X|. X X X X.XK.8.Z i $ o                           ",
"                                  . o % 0 h R [ 1.y.g.G.L.Q.{.}. X X X X X X|. X X X X X.XK.8.Z i % X                           ",
"                                  . @ % 0 j T X.=.y.g.G.L.Q.{..X.X X X X X|.|.|. X X X X.XK.8.Z i $ X                           ",
"                                  % 5 7 w z T [ =.y.g.G.L.Q.{..X.X X|..X|.|.|.|. X X X X.XK.8.Z i % o                           ",
"                                6 8 q d f Y E ..=.r.g.G.L.Q.{.|. X X X X|.|.|.|. X X X X{.~.8.Z i $ X                           ",
"                            o 5 q h x v T E Q X.=.r.g.H.L.Q.}. X X X X X|. X|.|. X X X X}.K.8.Z i % X                           ",
"                  $ $ @ o o O 6 e x E ' ( ( ] O.=.t.g.G.L.Q.{.|. X X X X X X X|. X X X X|.K.8.Z i % X                           ",
"                  @ $ + @ $ % 8 h R [ +.#.+.X.{ =.r.f.G.K.Q.!.{..X.X.X|.}. X|.|. X X X X{.H.8.V i $ X                           ",
"                  @ $ % % 6 8 d x W o.&.&.#.X.+.=.r.f.h.F.G.H.G.K.L.(.{.{.}..X{.{..X|./.~.F.7.V t $ o X                         ",
"                O @ $ 5 8 w j c E ] +.&.&.+.X.X.@.1.r.p.f.a.a.8.0.a.G.~.Q.{.{.{.!.(.(.W.R.f. .B 8 + . . o                       ",
"                O O $ 6 e z R ~ X.X.#.#.+.X.X.X.#.=.1.3.r. .} Z U 6.0.G.L.L.Q.Q.~.~.R.b.x.r.~ j 7 O . . o $                     ",
"                  O % 8 j Y ] o.+.+.X.X.X.X.X.[ +.%.2.4.@.' z u u U 7.D.K.L.L.L.G.R.h.x.3.@.! f 7 % o + $ @ $                   ",
"                  O % 8 h Y ' o.X.] ) W ) ' ] X.+.#.&.&.X.Y s 7 = B U 0.F.K.K.G.F.h.p.i.4.+.E z w 7 % % $ $ $                   ",
"                o O $ 6 e z Y ~ E T v Y T E ] X.+.#.$.$.( x w 5 * m U t.g.h.h.h.h.i.x.l.*.o.~ R j g 0 6 5 $ $ O                 ",
"                @ + $ 5 8 e h j j h d h z T ) X.+.#.%.+.' x w 5 9 h A 1.i.n.n.p.p.x.l.2.*.$.o.] ~ v h w 5 % O o                 ",
"                  @ $ $ 5 6 8 0 8 7 8 q d x E ] X.+.X.X.E x q 6 7 r R @.2.3.l.l.2.2.<.<.*.*.&.&.X.' v g 8 $ O                   ",
"                  @ @ % $ $ % $ $ $ $ 5 q l v W ] ] ] ' T j q 6 6 e v ] #.%.&.&.&.&.&.*.*.*.*.*.&.+.~ h 0 5 O                   ",
"                  $ $ @ + O O O o o o % 7 e z v T R T v b e 8 % 5 q j T W ) Q Q ~ ] X.o.&.*.2.k.k.%.~ j 0 % o o                 ",
"                              O . . O @ 5 0 w g j j h h g 0 6 % 5 6 q j z x x x x Y W ` +.&.2.j.j.&.~ z 8 % + .                 ",
"                                O O @ $ 5 5 6 8 0 q 0 8 6 5 5 $ % 5 6 0 q 0 0 0 w h Y E X.#.*.<.<.%.~ z 0 % O .                 ",
"                                  @ @ $ $ $ % % % 5 5 % $ % $ $ $ $ % % 5 5 5 5 6 q h Y ' X.+.&.&.o.E j 0 % O                   ",
"                                    $ @ $ O O O O O O O + @ $ + $ + O @ o o o o $ 6 w f v E ' ] ] W Y j 0 % o                   ",
"                                      $ O O O O . O . O O O @ @ @ @ O o o . . O O 5 8 e j z x c c c z e 8 %                     ",
"                                                                            o O + $ 5 7 q q w w e w w q                         ",
"                                                                            @ @ $ $ % % 5 5 5 6 6 5 6                           ",
"                                                                            $ @ $ $ + $ @ $ $ @ @ @ $                           ",
"                                                                              $ @ O O O O O . O O . .                           "
};
