/* XPM */
static char *__resized[] = {
/* columns rows colors chars-per-pixel */
"64 73 212 2 ",
"   c None",
".  c #2A2E1E",
"X  c #2C311E",
"o  c #2E3520",
"O  c #2C3820",
"+  c #313620",
"@  c #3A3621",
"#  c #333921",
"$  c #3B3A22",
"%  c #433622",
"&  c #423A23",
"*  c #4B3924",
"=  c #4C3623",
"-  c #533724",
";  c #5B3724",
":  c #543A25",
">  c #5C3A25",
",  c #633624",
"<  c #623A26",
"1  c #683A27",
"2  c #6F3B28",
"3  c #763B28",
"4  c #7C3A29",
"5  c #743827",
"6  c #3C4425",
"7  c #3E4A25",
"8  c #3F4528",
"9  c #414A27",
"0  c #444D29",
"q  c #47482A",
"w  c #465129",
"e  c #4A552A",
"r  c #4E5A2C",
"t  c #435125",
"y  c #525E2E",
"u  c #55522D",
"i  c #4E4E34",
"p  c #454A35",
"a  c #4E5433",
"s  c #555737",
"d  c #544C31",
"f  c #6A4B27",
"g  c #4E622A",
"h  c #54612E",
"j  c #566430",
"k  c #596631",
"l  c #5C6B32",
"z  c #5F6B3D",
"x  c #5F7331",
"c  c #606E33",
"v  c #64693C",
"b  c #637334",
"n  c #667A34",
"m  c #697B37",
"M  c #6C7E39",
"N  c #6B763C",
"B  c #6B7333",
"V  c #575C4B",
"C  c #5E6251",
"Z  c #5A6448",
"A  c #686849",
"S  c #746E4B",
"D  c #6C7A49",
"F  c #757646",
"G  c #656D55",
"H  c #7A6E51",
"J  c #7E7552",
"K  c #717766",
"L  c #833B2A",
"P  c #8C3C2B",
"I  c #883726",
"U  c #9B3D2C",
"Y  c #953C2C",
"T  c #A43D2D",
"R  c #AB3D2E",
"E  c #B33E2F",
"W  c #BA3E30",
"Q  c #8E402A",
"!  c #857859",
"~  c #807E4F",
"^  c #907E61",
"/  c #6E8139",
"(  c #6D8137",
")  c #72853A",
"_  c #758A3C",
"`  c #798E3D",
"'  c #7D933F",
"]  c #788946",
"[  c #7E9441",
"{  c #768555",
"}  c #79836F",
"|  c #849D3E",
" . c #88A23F",
".. c #87A03F",
"X. c #808A48",
"o. c #819643",
"O. c #859D42",
"+. c #889C45",
"@. c #899C4D",
"#. c #8B975A",
"$. c #969858",
"%. c #91895B",
"&. c #87A042",
"*. c #8AA344",
"=. c #8FA945",
"-. c #8DA44A",
";. c #91AC46",
":. c #94AE48",
">. c #92A64B",
",. c #95B146",
"<. c #96B149",
"1. c #99B54A",
"2. c #9EBB4D",
"3. c #93A955",
"4. c #9DA956",
"5. c #96AB59",
"6. c #99AE5D",
"7. c #96A655",
"8. c #9FB351",
"9. c #A0BE4E",
"0. c #A2AB5A",
"q. c #A3BC52",
"w. c #A9B85A",
"e. c #B1BF5F",
"r. c #998765",
"t. c #9C9261",
"y. c #8C9478",
"u. c #8B956E",
"i. c #A8966D",
"p. c #AC9672",
"a. c #B49C77",
"s. c #A28E6B",
"d. c #99AB65",
"f. c #9DB263",
"g. c #AAAA63",
"h. c #B1AD68",
"j. c #B4B16A",
"k. c #B8BC69",
"l. c #A9BA77",
"z. c #B5AB76",
"x. c #C4B37B",
"c. c #C7B97B",
"v. c #C1A87E",
"b. c #A3C14F",
"n. c #A6C450",
"m. c #ACC457",
"M. c #B2C45E",
"N. c #B5C362",
"B. c #BAC566",
"V. c #CCC977",
"C. c #CDCA78",
"Z. c #CBC579",
"A. c #CDCC77",
"S. c #8B8D84",
"D. c #8E8F88",
"F. c #93968C",
"G. c #9AA589",
"H. c #AEBD84",
"J. c #B0B995",
"K. c #B5B8AE",
"L. c #B6B9B1",
"P. c #ACAFA6",
"I. c #C9AB85",
"U. c #D3B58B",
"Y. c #D6BB8A",
"T. c #DDBB92",
"R. c #CCB484",
"E. c #E1BD95",
"W. c #B2C284",
"Q. c #B5C489",
"!. c #BBCB8D",
"~. c #BECC93",
"^. c #BDC1B1",
"/. c #DCC98A",
"(. c #C0CC9C",
"). c #E3CF8D",
"_. c #E4D18E",
"`. c #EAC49B",
"'. c #E8C797",
"]. c #F0CB9E",
"[. c #F5D49E",
"{. c #EAD591",
"}. c #CAD4AB",
"|. c #C7D0AD",
" X c #C4C8BC",
".X c #D2DCB5",
"XX c #D5DEBB",
"oX c #CFD9B4",
"OX c #F4CCA2",
"+X c #F7D3A1",
"@X c #FBD4A6",
"#X c #FFD6A8",
"$X c #FFDAAC",
"%X c #FDDAA5",
"&X c #FFDDB0",
"*X c #D8E1BE",
"=X c #C4C5C2",
"-X c #CCCCCA",
";X c #D8D9D6",
":X c #DBDFCF",
">X c #DEE6C4",
",X c #DCE1D0",
"<X c #E8EDDA",
"1X c #ECF0DF",
"2X c #E0E6CC",
"3X c #E9EBE5",
"4X c #EBEBEA",
"5X c #E5E7E1",
"6X c #EDF1E2",
"7X c #F1F3EB",
"8X c #F5F6F3",
"9X c #F9F9F8",
/* pixels */
"                  # # + + X O X X o X o X o o o X o o X o o . o . . X . X X X . X o . X X . X X X X X X X X X X X X X X         ",
"                  + # # # + # @ # # + # + O + + + + + + + @ + + + # # + # + + # O # + # + # # X # # + O O # + + # + + +         ",
"                # + # # # 6 6 6 6 6 6 6 6 6 6 6 6 6 6 6 6 6 6 6 8 8 8 8 8 8 8 8 6 6 8 8 8 8 8 6 8 6 8 8 6 6 8 8 8 8 8 6         ",
"                O + # # 6 0 w w e e e e e e e e e e e e e r y y h y h g h y y g j r h y h y h h h h y h h y h h y y r r w       ",
"            O O X O # 6 t y l c x x x x x x x x c c b c b n m m M ( / M m M M M / M ( M M M / M M ( M M / / / / / M b l r 8 + X ",
"          O O O + O # 7 r l M _ ` ` ] _ _ _ ] [ _ _ _ _ _ ' | O.O.O.*.*.&.*.O.O.O.O.O.*.*.*.+.O.*.O.*.O.&.O.+.*.*.O.` b r 8 + X ",
"        $ @ $ @ @ + $ 0 h m ' o.&.[ &.[ [ [ [ [ o.o.O.o.O.*.;.<.1.1.1.1.1.1.1.1.1.1.1.1.<.<.1.1.<.1.<.1.1.1.1.1.1.<.O.( r 8 + X ",
"        : : : = @ @ # 0 j / ' *.=.*.*.&.=.=.;.[ *.*.*. .=.;.:.1.2.2.2.9.9.b.b.n.b.b.q.2.1.2.2.1.1.2.2.1.1.2.9.n.n.1.*./ h 7 # X ",
"    & : 1 2 2 < - % $ t j ( [ *.=.[ =. . .,.=.=.*.*.&. .&.=.;.<.1.1.2.n.q.b.n.n.n.b.2.2.<.<.<.:.<.<.<.<.<.<.2.n.n.2.=./ j 7 # X ",
"O + & > 3 P P L 1 = $ 7 j ( [ *.=.;.[  . .[ =.;.*.&. . . .&.=.=.:.<.1.2.9.n.b.b.b.b.1.<.:.:.;.;.;.;.;.;.;.;.<.2.n.2.=./ h 8 # . ",
"O O & > L U T U 4 - & 0 j n [ *.=.[ =.[ ;.[ =.[ &.*.*.-.*.*.-.&.-.;.<.1.2.2.2.2.1.1.<.=.*.*.*.*.*.*.*.*.*.*.:.<.1.<.O.m y 8 O X ",
"O # & < P R W T 4 ; & 9 g n [ *.3.6.f.d.3.-.[ [ [ -.3.d.d.5.-.-.*.;.<.1.2.1.:.=.*.*.*.*.*.*.*.*.*.*.*.-.*.*.*.=.*.*.] b r 8 + X ",
"O # & < P R W R L ; 9 7 g n [ 3.f.B.Q.W.d.#.] ] { #.l.H.W.l.5.-.*.=.2.2.2.;.O.' _ _ [ o.=.;.;.;.;.;.;.;.;.=.*.o.' / b y 0 6 o X ",
"O O & < P R W R L ; & 7 g ( [ 3.N.!.|. XP.u.D z D u.J.|.|.~.l.-.*.=. .1.1. .` b l b ) o.;.<.1.1.1.<.1.1.<.;.O._ b k e 0 6 # # o ",
"O + % > I T E T 4 ; $ 7 g x [ 5.W..X,X:X^.y.C s G S.^.;X>X}.W.3.*.;.,.1.,.O.M j e j n [ :.1.9.2.2.1.8.2.2.:.O./ k w 6 # # # # o ",
"O # & > 4 Y T Y 5 - 6 7 g ( [ d.!.*X1X5X=XS.C a Z F.=X3X6X.XW.6.-.=.,.2.,.O.m h e j n o.<.9.q.b.9.9.9.b.9.1.O./ k w 6 6 # # # # ",
"O O $ : 1 4 P 4 , = $ 7 g ( o.f.!.>X7X3X=XS.V p V D.=X4X7X>XQ.f.;. .,.1.1.*._ b l b ) *.1.b.b.b.9.9.9.n.b.1.*._ n j e 9 6 # # O ",
"O # @ & : < 1 > = @ # 7 g n | 6.(.>X7X3X XS.V 8 V D.=X4X3X>XQ.6.=. .,.1.1.=.O.] _ _ o.=.1.2.9.b.9.2.9.9.q.1.<.*.[ / x y 9 $ + + ",
"# + # $ & * * % @ @ # 9 g n | 6.!.*X6X3X=XS.V p C D.=X4X3XXXQ.6.=. .,.1.1.1.<.=.-.=.:.1.1.b.q.2.9.9.9.9.9.2.1.<.;.O.] b e 6 # o ",
"+ # # @ + # @ $ @ @ & q g B ` 3.Q.*X1X6X=XF.K V K F.-X4X1X.XQ.6.=. .,.1.2.2.2.1.1.1.2.2.2.2.2.9.2.2.2.2.2.9.9.2.2.<.O.m y 8 + . ",
"# # + # O O # @ & = : f u c m @.H.oX3X4X;XP.S.K D.L.;X4X5X>XQ.6.=. .,.1.2.b.9.9.n.9.2.9.2.9.2.2.2.9.2.2.9.2.9.n.n.2.*./ h 8 + X ",
"    O O O O # & : 1 3 f f f l { G. X3X8X4X-XL.P.L.-X4X8X6XoXQ.6.=.*.,.1.2.9.n.9.b.b.b.9.9.2.2.9.9.2.9.2.2.9.9.n.n.2.*./ j 8 # X ",
"        O O @ * 1 I Y P f f u A y.K.5X9X9X4X;X;X;X4X8X9X6XoXW.5.,. . .2.2.b.9.9.9.b.2.2.2.9.9.2.2.2.9.2.9.2.9.n.9.1.*.M h 8 X X ",
"        O O $ : 3 Y R T I , * V } P.;X8X9X9X8X4X7X8X9X8X<X}.W.5.=. . .2.2.2.9.9.2.2.2.9.9.2.2.2.2.9.2.9.2.9.9.n.n.1.&.M h 7 # X ",
"        O O $ : 4 T W R I , % i K G.=X<X1X1X1X<X1X1X1X2X:X~.l.3.=.=.;.1.9.2.9.2.2.9.2.2.2.9.2.2.9.9.9.9.2.9.9.n.n.1.*./ j 8 O X ",
"        O O @ > L T W R I , % p C u.Q.}..X*X*X.X.X.X.X}.~.W.d.3.*.=.,.1.2.b.9.9.9.2.9.n.9.n.n.9.9.b.b.9.b.b.n.n.n.2.*./ y 8 + X ",
"        O O $ > L T W E P , & q Z { d.H.W.W.W.W.W.W.B.W.l.f.3.=.*.=.,.2.2.9.9.2.9.9.2.n.b.9.n.n.b.b.9.b.b.b.n.n.n.2.*./ h 8 # X ",
"        O # @ : 4 U E R L , & 9 g ] { 3.6.6.5.5.5.5.5.5.3.-.-.*.*.;.,.1.2.2.9.9.2.2.2.2.2.2.1.2.2.2.2.2.2.2.2.9.2.1.O.M h 8 + X ",
"        O O @ : 3 P T Y 4 > % 9 r x ' [ ;.=. .&.[ =. . .=. .=. .*.;.:.<.2.2.2.2.2.1.1.:.;.-.;.*.=.=.=.;.;.-.;.;.;.*.[ b r 6 O . ",
"        O # $ = > 3 L 4 1 - $ 6 g x ' [  . . . .[ [ [  . .[ [ =.*.*.;.:.,.1.2.2.2.<.*.o.` _ _ _ _ ` _ ] _ _ ` ` ] ) n j w 6 # X ",
"        O # @ $ * > < > - % $ 8 g x `  . . . .[  . .[ [ [ [  .[ +.*.*.;.;.<.1.2.2.=.[ / c k j l l l l l l l l l l l j w 7 # @ O ",
"        + # # # & & * % @ @ # 8 y D ` [  . .&.&.=.[  .=. .=. .=.O.*.*.*.*.;.1.2.1.*._ l r 0 7 0 0 0 0 0 t 0 0 0 0 9 7 6 $ # # + ",
"          # # + # @ # @ o # # 8 y c M | o.o.*.O.O.*.&.&.*.&.&.*.*.*.*.*.=.;.1.2.1. ._ l w 7 6 O # 6 # # # 6 # # # 6 # # # # # O ",
"          + # # O O O O X X # 6 w j b ) ` | | O.*.&.&.&.&.*.*.=.=.*.=. .=.;.1.1.1.=.` n h t 6 6 # X X X X X X X o X o O + @ # + ",
"                      O O O # # 9 w y c m _ | o.&.&.&.&. .*.=.;.;.,.=.;.,.,.,.2.1.;.| ' ( l r 7 # + X X X                       ",
"                        O # # # $ $ 9 e l m ' O.*.*.&. .*.=.;.,.1.1.1.1.,.,.2.2.1.1.,.;.| _ x r 8 O X X                         ",
"                          # # # # + # 9 u x _ o.*.*.-.*.-.>.8.9.q.q.q.n.b.b.n.q.q.q.n.q.1.-.M j 9 # X                           ",
"                            + + O o O $ e c _ | -.-.7.4.0.w.w.k.N.N.N.N.M.N.N.N.N.B.B.B.k.0.X.c 0 # X                           ",
"                              + o . + # w c ) | >.0.0.g.j.k.c.Z.V.V.V.V.V.V.V.V.A.A.A.A.V.j.#.v q # X                           ",
"                                X o + 6 w c ) +.7.0.h.z.c.c././._._._._.).).).)._.{.{.{.).c.t.S i # X                           ",
"                                  o + 6 e l _ O.7.g.v.c.T.E.`.[.+X+X+X+X+X+X+X[.+X[.%X%X[.U.i.S i # X                           ",
"                                  . O 6 w l _ +.0.h.x.R.E.].OX#X$X$X$X$X#X#X#X#X$X$X$X$X@XT.p.H i + .                           ",
"                                . . o $ t l ) O.0.h.x.U.E.OX@X#X$X&X$X$X$X#X$X$X$X$X$X&X#XT.p.H i # .                           ",
"                    # O + X X X . . o # e l ) +.0.j.c.T.`.].@X#X&X$X$X$X$X$X#X#X$X$X&X&X#XE.p.H a # X                           ",
"                  # # # + + # + o X + 6 e x ) O.0.g.x.R.E.`.OX@X$X$X#X#X#X#X%X#X#X$X&X$X@X/.p.H i # X                           ",
"                  # # # 6 6 8 8 8 6 8 0 h n _ O.7.0.z.v.I.U.T.`.`.].+X@X#X$X$X%X#X$X$X$X@XT.p.H i $ X                           ",
"                + + + 6 7 e y h h h h l b ( ' O.$.$.r.s.s.p.p.a.I.U.`.+X$X$X$X$X%X$X$X&X@XT.p.H i # .                           ",
"                X X # 8 e l m ) _ _ ) _ ` | o.+.o.X.F H H H H ! r.p.U.].$X$X$X$X$X$X$X$X#XT.p.H a # X                           ",
"                  O $ t j M [ *.=.*.*.*.*.*.*.o.o.N v s a i i V A r.a.'.#X&X&X#X$X$X$X$X#XT.p.H a # X                           ",
"                  o # 0 l / *.:.1.1.1.<.<.:.=.O._ B y 0 8 6 $ q s J p.U.`.OX@X#X+X#X$X%X[.Y.i.S i # X                           ",
"                  + # 0 j M ' *.;.<.1.1.1.:.=.o.` m l y t t t w k S %.a.I.T.E.OXOX+X+X[.).x.t.S i # X                           ",
"                X + # 8 w j b ) o.*.<.<.<.:.=.+.| _ / n n x x b m F ! %.s.a.I.T.`.'.{.).Z.j.%.v 0 # X                           ",
"                O + # $ 6 0 r l m ` *.;.:.*.*.O.o.O.o.| o.' ' | ' ) F A S ^ s.I.T././.V.B.4.X.z 0 # X                           ",
"                  # # # # # 6 0 h m ` O.*.*.*.*.*.=.:.:.1.1.1.<.*._ c e d A ^ a.R.Y.Z.B.w.;._ k 0 # X                           ",
"                  # + + o o + 6 e k M _ ' o.o.*.*.:.<.2.2.b.2.2.=._ h 9 9 s ! i.x.c.Z.w.9.=.) k 9 # o                           ",
"                    + + X o O # 9 e k n ) _ | *.;.<.<.1.2.2.9.1. .) h 9 6 a F $.j.k.B.m.9. .) j 9 # o                           ",
"                        O + + # 6 9 e y l ) ' *.=.;.:.:.<.<.<.:.*.( h 6 6 e F $.f.k.m.m.9.=._ h 9 # o                           ",
"                          + + + # # 6 9 h b _ o.*.*.*.*.*.=.=.+.| m y 7 6 y N +.8.n.m.b.1.=.) k 9 # X                           ",
"                          # # + # X # 8 e l / ` ' o.' ' o.| | ` ) b e 6 7 r m O.1.2.2.<.;.o.M h 9 # X                           ",
"                            # + X X X # w h c m m m m m b N M m c y 0 6 8 r m | 1.1.:.*.` ) b r 9 #                             ",
"                                        9 e y y y y h y y j j y r t 6 # 6 r ( &.1.<.O._ b l r e                                 ",
"                                          8 7 9 9 9 9 9 9 0 9 9 7 $ # + 6 r / *.<.=._ x r 0 8                                   ",
"                                          # # $ # # $ # # # # # # # # 6 0 h M o.*.o./ j 7 # +                                   ",
"                                            O + + X + + o o + O # 6 7 w r l m _ ` ) b e $ o                                     ",
"                                                        X X X O # 9 e k c n n b b c y 0 #                                       ",
"                                                          X o + 6 e l m ) m b k e e 0                                           ",
"                                                            o @ 6 e l ) _ M l e 7 $ #                                           ",
"                                                            o + 6 e l m ) b k 0 # o                                             ",
"                                                            O @ 6 0 r l l l y 9 #                                               ",
"                                                            O # # 8 0 e e e 0                                                   ",
"                                                            + + # # # 6 6 6 6                                                   ",
"                                                            # # + # # # + +                                                     ",
"                                                            # + # O + X X X                                                     "
};
