/* XPM */
static char *__resized[] = {
/* columns rows colors chars-per-pixel */
"64 73 199 2 ",
"   c None",
".  c #2A2E1E",
"X  c #272B1D",
"o  c #2C311E",
"O  c #2E3520",
"+  c #2C3820",
"@  c #313620",
"#  c #3B3621",
"$  c #333921",
"%  c #3B3A22",
"&  c #433622",
"*  c #423A23",
"=  c #4C3924",
"-  c #4D3723",
";  c #5A3725",
":  c #533A25",
">  c #5B3A25",
",  c #543724",
"<  c #633625",
"1  c #643A26",
"2  c #6B3A27",
"3  c #723B28",
"4  c #7C3A29",
"5  c #733827",
"6  c #3C4425",
"7  c #3F4A26",
"8  c #414B27",
"9  c #444D28",
"0  c #4A492B",
"q  c #465129",
"w  c #4A552B",
"e  c #4D5A2C",
"r  c #515E2E",
"t  c #5B582B",
"y  c #4E4E33",
"u  c #444936",
"i  c #545131",
"p  c #6C4E2A",
"a  c #4E6129",
"s  c #54622E",
"d  c #59692E",
"f  c #576530",
"g  c #596731",
"h  c #5C6B32",
"j  c #5F6B3D",
"k  c #5F7431",
"l  c #636C38",
"z  c #637334",
"x  c #667A34",
"c  c #697B36",
"v  c #6C7E38",
"b  c #676D2F",
"n  c #585C4C",
"m  c #5E6251",
"M  c #5C614F",
"N  c #696B47",
"B  c #766E4D",
"V  c #6D7A4B",
"C  c #7A6F50",
"Z  c #676D57",
"A  c #737769",
"S  c #823B2A",
"D  c #8A3B2A",
"F  c #983D2C",
"G  c #A43D2D",
"H  c #AA3D2E",
"J  c #B23E2F",
"K  c #BB3F30",
"L  c #B63E30",
"P  c #88412B",
"I  c #6E8139",
"U  c #6E8236",
"Y  c #72853A",
"T  c #758A3B",
"R  c #798E3D",
"E  c #7C923E",
"W  c #778745",
"Q  c #7F9541",
"!  c #6F8344",
"~  c #849D3D",
"^  c #87A03E",
"/  c #88A23F",
"(  c #809642",
")  c #859D42",
"_  c #899E48",
"`  c #889959",
"'  c #8F8F55",
"]  c #87A042",
"[  c #8AA344",
"{  c #8FA945",
"}  c #8DA34A",
"|  c #91AC46",
" . c #93A44D",
".. c #94AD49",
"X. c #95B246",
"o. c #96B149",
"O. c #99B54B",
"+. c #9EBB4C",
"@. c #9AA554",
"#. c #94AA55",
"$. c #96AB59",
"%. c #99AD5D",
"&. c #96A854",
"*. c #9BB05F",
"=. c #A1BE4E",
"-. c #A5AA5E",
";. c #A0A75A",
":. c #A4BD52",
">. c #ABBD5A",
",. c #A5B856",
"<. c #8D9479",
"1. c #8A9767",
"2. c #A4946A",
"3. c #AC9672",
"4. c #9AAE60",
"5. c #9DB163",
"6. c #9DAE71",
"7. c #ACAB65",
"8. c #AFAB68",
"9. c #B3AC6C",
"0. c #AAB463",
"q. c #B3BD63",
"w. c #BBBD6B",
"e. c #B6B868",
"r. c #BBAF73",
"t. c #A2B274",
"y. c #A9BA7A",
"u. c #BDB771",
"i. c #C1AF79",
"p. c #C2B17A",
"a. c #C6B97A",
"s. c #A3C14F",
"d. c #A5C350",
"f. c #AFC05C",
"g. c #A8C055",
"h. c #B1C35D",
"j. c #BDC16B",
"k. c #ADC176",
"l. c #C4C671",
"z. c #CBC877",
"x. c #C1C36F",
"c. c #8B8D84",
"v. c #8E8F88",
"b. c #93968C",
"n. c #AFBE82",
"m. c #B0B995",
"M. c #B6B8AE",
"N. c #B0B1AC",
"B. c #D1BA86",
"V. c #D4B68A",
"C. c #D5B98A",
"Z. c #DDBC92",
"A. c #CDB883",
"S. c #E1BD96",
"D. c #B2C284",
"F. c #B5C489",
"G. c #BBCB8D",
"H. c #BCCA95",
"J. c #BDC1B1",
"K. c #DBCC87",
"L. c #D8C785",
"P. c #CFCB92",
"I. c #E3D38C",
"U. c #EBC49D",
"Y. c #E8C996",
"T. c #F0CB9E",
"R. c #EED198",
"E. c #F2D49C",
"W. c #F8D89F",
"Q. c #E1CC8D",
"!. c #CAD4AC",
"~. c #CCD8AB",
"^. c #C2C3BE",
"/. c #D2DCB5",
"(. c #D5DEBB",
"). c #CFDAB0",
"_. c #F4CCA2",
"`. c #FCD4A6",
"'. c #FFD6A8",
"]. c #FFD9AB",
"[. c #FAD4A4",
"{. c #D9E3BE",
"}. c #C4C5C2",
"|. c #CBCCCA",
" X c #D8D8D7",
".X c #DDE4C6",
"XX c #DCE1D0",
"oX c #EBEFDE",
"OX c #E5EBD7",
"+X c #EBF0DF",
"@X c #E0E7CC",
"#X c #EAEBE6",
"$X c #EBEBEA",
"%X c #E7E7E6",
"&X c #EDF1E2",
"*X c #EFF0EE",
"=X c #F0F2EA",
"-X c #F6F7F4",
";X c #F8F8F8",
/* pixels */
"        . o o o O . O . O . O . o o o O . . O . o O o o O . o O . O O O . O O . o o o                                           ",
"        $ $ $ @ @ @ @ $ @ @ @ @ $ $ @ $ @ $ $ $ @ @ @ @ $ $ @ @ @ @ @ @ @ @ $ @ @ O $                                           ",
"        6 6 6 6 6 6 6 6 7 6 6 7 6 6 6 6 6 6 6 6 6 6 6 7 6 6 6 6 6 6 6 6 6 6 6 6 6 6 6                                           ",
"      9 w r s s f r f r r s s s r s s s f r f e s s r s r r f s r r e e w w w e w w q 6                                         ",
"o $ 6 e g z c v I I I I v v I v I I I U I v I c c v I v I v I I c c z z l h z z h h r 8 % o X o o o O O $                       ",
"o $ 6 r z R ) _ [ ] _ ) _ ) _ ] ) ] _ ) _ ] ] _ _ _ ) ) _ ] ] ] ) ) E R T T T T Y c h q 6 + o o @ @ O O @ $ $                   ",
". @ 6 r v ) ..+.+.O.o.O.o.O.O.O.O.O.O.O.O.O.O.O.O.O.O.O.O.O.O.O.....[ ) ) ~ ) ) E T z e 6 6 6 + % 6 $ $ $ $ $ $                 ",
"o $ 7 s Y [ +.d.s.+.+.O.+.O.+.O.O.+.O.O.+.+.=.s.s.s.=.s.+.s.+.O.O.X.{ { ) [ { [ ] E c d w 7 7 q q 9 7 6 % + $ O                 ",
"o $ 6 f I { +.d.s.+.O.o.o.o.o.o.o.o.O.O.O.=.s.d.d.d.d.=.=.=.=.O.o.| { / ^ [ [ { [ ~ Y z k a d d d f w 9 6 $ $ o +               ",
"o $ 6 s I { +.s.+.o.| |  .{ | | {  .{ | o.O.+.d.d.d.=.=.=.O...| { { [ ~ ^ ] / { [ ~ E T Y Y U U I x h w 7 $ @ O + O +           ",
"O O 6 s v _ | O.o.| [ [ [ [ ] { [ [ ] { | ..O.O.=.=.=.=.O.o.| { { ] [ [ } _ _ _ ) _ ) ) Q Q [ Q Q R x s 7 % o O $ $ # $         ",
"O @ 6 w z R _ { { { { ] } [ { ] [ [ { [ [ [ [ { { ..O.O.O.o.| [ }  .$.4.4.$._ ) Q ( _ #.4.5.4.O.} Q U s 9 $ # # & = = =         ",
"O @ % q s k I Q ( [ { | | | | | | | | { ) E T Y R ) | O.O.X.| [ } 4.t.D.n.t.1.W V W ` t.F.F.k.5.#.) U s 9 % * - > 1 1 > :       ",
"O @ $ 6 7 w f z T _ | o.O.o.O.o.O.o.o. .( Y z l z R [ O.+.X./ { #.t.G.!.!.m.1.V j V <.m.!.~.P.k.#.E U a 8 % = < 4 D S 3 > * $ + ",
"$ $ $ $ 6 6 q f I ) ..+.+.+.+.+.+.=.+...~ z r w f c ) o.O.X.| { $.y.~..X XJ.<.Z y Z <.J.XX.X).D.%.Q x a 8 % , 5 F G F S > * @ + ",
"$ $ $ $ % 6 q g I ) o.=.:.=.+.+.=.=.=.o.( c r e s c ) o.+.X./ { %.F.{.oX#X^.b.m u m c.J.%XoX{.G.%.E x a 8 % ; S F J H S 1 * + + ",
"O $ $ 6 7 w f z W [ O.=.s.=.=.=.=.s.=.O.] T k h z T [ o.O.X./ | 4.F.{.&X$X}.v.n 7 n c.}.&X=X.XG.%.Q x a 7 * > S H K H D 1 * $ o ",
"O $ 6 9 e z I Q [ | +.=.s.=.+.=.=.=.=.O.| Q W T R ) | O.X.X./ [ 4.F.(.&X$X}.v.n 6 n c.^.=X&X.XG.5.Q x a 7 * > S H K H D 1 * $ o ",
"O @ 6 w z T ] | O.+.+.=.=.=.+.=.=.=.=.+.O.| { [ { | X.+.+.X./ { %.F..X&X$X}.v.m n n v.^.#X&X.XG.*.E x a 7 * ; 4 G L H D 1 * $ o ",
". $ 6 r c _ o.+.=.=.+.+.=.+.=.+.=.+.+.+.+.+.+.+.+.+.+.+.O.| / | %.F.(.&X$X|.b.A n Z b.}.#X&X{.G.%.E x a 7 * , 4 F H F S > 6 + + ",
"o @ 6 s I ] +.d.d.+.+.+.+.=.=.+.+.+.+.=.+.=.=.d.+.s.+.+.+./ / { %.D.(.&X*X XN.v.A c.N. X*X&X.XG.*.Q x a 7 $ - < S D D 2 : % $ o ",
"o @ 7 s I } +.d.d.d.+.=.+.+.+.+.=.=.+.+.+.=.=.=.s.s.s.+.+.| { [ %.F.(.&X;X$X|.M.N.N.|.%X-X=X{.G.5.Q U a 7 $ & , 2 3 2 > = % $ o ",
"o @ 6 s I ] O.d.d.+.+.=.=.+.+.=.+.+.+.=.=.=.=.=.s.s.s.+.O./ { [ $.D./.&X;X;X$X X X X%X*X;X=X.XF.*.Q U a 7 $ $ & = : = = % $ $ $ ",
"o @ 7 f I ] O.=.d.=.=.+.+.=.=.+.+.=.=.+.+.+.=.+.+.+.+.s.+.X./ { $.D.!.OX-X;X;X*X$X$X;X;X-XOX!.F.$.E U a q % % $ # % % % $ $ $ $ ",
"o @ 6 f I ] +.d.d.+.+.+.=.=.+.+.+.+.=.+.=.+.=.=.+.=.=.+.O.X.[ [ #.y.H..XOX&X&XoXoXoXoXoXOX{.H.t.' v b t 0 : - # % $ + + $ $ $ $ ",
"o @ 6 s I [ +.d.d.d.d.d.=.=.=.+.=.+.+.=.+.+.+.+.=.=.=.+.O.X.{ [ #.5.D.H.!.)./.).).{.{.~.!.H.t.1.W b t p p 2 ; - # $ + + + $ o $ ",
"o $ 6 f I [ +.d.d.d.=.=.=.=.=.=.+.+.+.=.+.=.=.+.=.=.=.+.+.| { [ } #.6.t.n.D.D.D.D.D.F.k.y.6.` V g t p p D D 4 < = $ o o 6       ",
"o @ 6 s v ] O.=.=.+.+.+.+.+.+.+.=.=.+.+.+.=.+.+.+.+.=.+.+.o.{ [ ] } } #.#.$.$.$.#.%.*.%.#.` ! f w 0 p S G H F 4 : % $ o         ",
"o $ 6 e z W [ { | | { | o.O.+.+.=.=.+.+.+.=.+.=.+.+.+.O.O.| { [ ] ] ] [ Q [ [ ] [ [ [ / ] E k e 6 & < D G J G p > % + +         ",
"O $ 6 q f v T W R W T Q [ ..+.=.d.d.d.=.=.=.=.+.+.+.O.O...{ } [ ] ^ ^ Q ] Q ^ Q E ^ / / E T k e 6 & < D J K G S > % + +         ",
"O $ $ 7 w s g g d d h c W [ +.=.d.d.d.d.d.=.=.+.+.o.o.| { [ [ ] ] ) ^ ^ ^ Q ^ ^ ^ ^ / ^ ^ T k w 6 & < D J K H 4 > # + +         ",
"@ @ $ % 6 7 8 9 7 9 w f I Q X.+.d.+.+.+.+.=.+.+.O.o.{ } } ] [ ] ] ] ] ] / ] ^ ^ ] ] ] ] ^ R z e 6 - < D H J G 4 > % + +         ",
"@ $ $ $ $ $ $ $ @ $ 6 w k R } o.o.o...o.O.O.+.+.O.o.{ } [ ] [ [ [ ] ] ] } ] ] ] [ [ [ [ ) R x e 7 * ; S F H F 4 : % + +         ",
"$ $ @ @ @ O O o . . O 9 f c W Q Q Q Q Q Q { X.+.+.o.X.{ { { { [ { [ [ ] ] ] _ } ) [ [ [ ) E x e 7 % , 5 S D 4 1 = % $ +         ",
"                      6 e h k z k j k c R Q | O.+.O.o.X.X.X.X.X.X.{ { [ [ [ ] ] [ [ [ [ [ E c e 8 # & ; 2 2 1 : * $ @ +         ",
"                        9 q w w w w w a k Q { X.:.+.+.O.O.O.+.X.o...{ } ) ) ) [ ) _ { { ) E c r 6 $ # & = = = * % $ $ @         ",
"                          $ 6 % 6 6 6 q a T Q +.=.s.=.+.+.+.+.+.O.o.{ { [ [ ) ) ) [ [ ) ( T z e 6 $ @ $ # # $ # $ @ @ $         ",
"                          O @ $ + 6 9 e U E | +.=.=.=.+.+.+.=.+.O.X.X.[ ) ] ) [ ) ) ~ R T x h w 6 $ O O + O O $ $ $ $           ",
"                          O O $ 6 e s k R Q / X.+.+.+.+.+.+.+.+.+.X.{ [ ^ ) [ ] ) ( R I z g w 8 % $ + + + + + + O $             ",
"                          O @ 6 w h I E / / +.+.+.+.+.+.+.+.+.+.O.X.{ [ ] ] ^ [ ) E v h r 9 6 6 $ $ $ O                         ",
"                          o $ 8 a I _ ..+.:.=.=.=.=.=.:.=.:.=.=.+.O...} [ [ [ [ ~ T z r 7 6 $ $ $ $ $                           ",
"                          o $ 9 h W &.g.h.h.h.>.h.h.>.h.>.h.h.h.g.,.,.&. . . .[ ) Y z w 6 O o O @ $ @                           ",
"                          o $ 9 l ' e.l.z.z.l.l.l.l.l.l.l.l.l.l.x.w.9.0.-.;.@. .) Y h w % o . o O $                             ",
"                          o % q B ' p.K.I.I.I.Q.K.K.K.L.K.K.I.K.L.L.a.p.r.7.;...) Y d 9 $ o . .                                 ",
"                          . % y B 2.B.T.W.W.W.E.E.E.R.E.E.E.E.E.R.Y.Z.C.a.r.7.@._ Y h w 6 @ o                                   ",
"                          o $ y C 2.Z.[.].].].W.'.'.'.'.`.`.].`.[.T.U.S.V.i.8.@.) R k s 9 8 6                                   ",
"                          o $ y C 3.P.'.].].].].].].].].].].].].`._._.S.V.p.9.@._ E U z d r w q                                 ",
"                          . $ y C 3.Y.].].].].].].].].].].].].].`._.U.S.V.p.8.@._ ~ E R Y c b w 6 o . o O $                     ",
"                          . @ y C 3.Z.[.].].].].].].].].].].].`._._.U.S.V.A.7.@.{ ] ] [ ) ~ v s 6 @ O o $ $ $                   ",
"                          o % y C 3.Z.[.].].].].].].`.].`.`.`.].`._.U.Z.V.r.7.@.} [ { O..._ T h w 6 $ @ $ $ @                   ",
"                          . $ y C 3.Z.[.].].].].].].].`.].].].`.`._.U.Z.V.r.7.@.{ [ | X.o. .~ c h w 9 6 $ $ @ @                 ",
"                          . % y C 3.Z.[.].].].].`.`.].].].].].].'._.U.Z.V.A.7.@.} [ { | X.| _ E I z f q 6 $ O O                 ",
"                          . $ e C 3.Z.[.].].].].].].'.'.].].`.].'._.U.S.V.i.8.@.[ [ [ { { { { [ _ R x s 8 $ @                   ",
"                          o $ y C 2.Z.[.].].`.`.`.`.'.`.'.'.'.'._._.S.S.V.r.8.@.} ) ] ^ [ [ { ..| ) Y g 9 $ O                   ",
"                          . $ y B 2.A.I.W.[.[._.[.[.[.[.E.E.E.R.Y.Q.Z.V.i.9.-.@.] ] ^ ] [ [ [ _ ] ( I f 9 $ @                   ",
"                          o $ y N ' u.L.I.R.T.U.T._._.U.U.Y.Q.K.L.z.a.r.9.7.@. .} [ ] ] ) ) ) ~ R v h e 8 $ @ O                 ",
"                          o % q j ( 7.a.z.L.Q.U.U.S.S.Y.Y.L.z.l.j.q.q.-.;.@. ._ ] ] [ [ [ ( R c g f w 7 6 $ @ O                 ",
"                          o $ 7 g R  .>.j.z.B.C.S.S.S.Z.B.a.u.h.>.O.&... .} } _ [ [ [ [ ) E v f w 6 6 % $ $ @                   ",
"                          O $ 9 s Y } +.q.j.a.A.V.V.C.A.a.u.q.,.+.o.| { { ) [ ) ) ) ) ) E Y z r 7 $ @ O @ $ $                   ",
"                          + $ 7 d I [ +.>.q.w.a.a.a.a.a.w.w.>.:.+.O.X.{ { { { [ ) ( R T v z s w $ O . O O @                     ",
"                          o $ 8 f Y [ +.g.>.q.e.e.w.e.w.q.>.g.d.+.+.X.O...| | [ ) E I z g r w 8                                 ",
"                          O $ 8 f Y [ +.d.g.:.>.>.>.>.>.>.:.:.=.+.+.+.O.O.X.| { ) R x s q 7 6                                   ",
"                          O $ 8 f Y [ +.:.s.+.+.+.O.o.o.o.o.o.o.X.O.O.=.+.o...| ) T k w 6 $ O                                   ",
"                          O $ 8 f T { +.s.+.+.O.| [ ) ) ) E E E ~ { ..O.=.=.O.| _ T h w % @ O                                   ",
"                          o $ 8 g T } +.s.s.X.X.] E Y c z z k z v Q _ O.=.=.+...) T b w % + .                                   ",
"                          o $ 8 g T { +.=.+.O.[ E U h r w w q e f c E | +.+.O.| ) T h w 6 @ .                                   ",
"                          o $ 8 f Y ] o.O...} ( T k e 8 % $ $ 6 w h Y _ ..o...{ Q I h w 6 + O                                   ",
"                          O $ 8 f c Q ) ) ( E Y x s 8 $ O o . o 6 r c Q ) ) ) R T z f q % @ O                                   ",
"                              8 e h z v c c z h s q 6 $ o . X o 6 e h z c v c z h f w 7 % + O                                   ",
"                                9 e r r r r e w q 6 % $ O o .     9 e r r r r e w q 6 6 $ $ @                                   ",
"                                  6 7 7 6 6 6 6 6 $ $ $ $ @         6 7 6 7 6 6 6 6 % $ $ $ O                                   ",
"                                  $ @ @ @ @ @ @ $ + $ @ $ $         @ @ @ @ @ @ $ O + $ $ $ $                                   ",
"                                  o . o o o O o o O $ @ $ $         . o o O . O O O O @ @ $ $                                   "
};
