/* XPM */
static char *_1_resized[] = {
/* columns rows colors chars-per-pixel */
"64 68 206 2 ",
"   c None",
".  c #262E1A",
"X  c #2A2E1E",
"o  c #222B17",
"O  c #2D321F",
"+  c #323B1F",
"@  c #2F3420",
"#  c #2C3820",
"$  c #313621",
"%  c #3A3621",
"&  c #343A22",
"*  c #3B3C23",
"=  c #3D3F29",
"-  c #423622",
";  c #4C3623",
":  c #433923",
">  c #4C3924",
",  c #553925",
"<  c #5C3A26",
"1  c #583724",
"2  c #6B3A27",
"3  c #683A27",
"4  c #743B28",
"5  c #7B3B29",
"6  c #743727",
"7  c #3B4325",
"8  c #3F4826",
"9  c #3B4226",
"0  c #414A27",
"q  c #444D28",
"w  c #414727",
"e  c #445327",
"r  c #465229",
"t  c #49542A",
"y  c #4D5A2C",
"u  c #4C5227",
"i  c #515D2D",
"p  c #4C4C32",
"a  c #444832",
"s  c #504E36",
"d  c #4D5238",
"f  c #555736",
"g  c #594C29",
"h  c #6F4A2A",
"j  c #54622E",
"k  c #5B6D2D",
"l  c #5B702D",
"z  c #576430",
"x  c #596630",
"c  c #5D6C32",
"v  c #5E7132",
"b  c #62612D",
"n  c #647435",
"m  c #667935",
"M  c #6A7B37",
"N  c #6B7E38",
"B  c #69753D",
"V  c #606D3B",
"C  c #625E41",
"Z  c #5B604D",
"A  c #6B6546",
"S  c #697046",
"D  c #777748",
"F  c #7B7151",
"G  c #6A6D62",
"H  c #737866",
"J  c #74786A",
"K  c #833B2A",
"L  c #8D3B2B",
"P  c #9B3D2C",
"I  c #933C2B",
"U  c #A33D2D",
"Y  c #AC3D2E",
"T  c #B33E2F",
"R  c #BB3E30",
"E  c #8C402B",
"W  c #827656",
"Q  c #87795A",
"!  c #6E8139",
"~  c #72853A",
"^  c #768B3B",
"/  c #798E3D",
"(  c #738836",
")  c #7D933E",
"_  c #7F9540",
"`  c #7F904A",
"'  c #7C8C56",
"]  c #7C8D4B",
"[  c #849D3D",
"{  c #88A23F",
"}  c #858D4B",
"|  c #809641",
" . c #849C42",
".. c #889B47",
"X. c #898455",
"o. c #889252",
"O. c #9B9A5C",
"+. c #87A042",
"@. c #8BA344",
"#. c #8FA946",
"$. c #8DA44A",
"%. c #91AC46",
"&. c #92A54D",
"*. c #93AE48",
"=. c #95B247",
"-. c #96B149",
";. c #99B54B",
":. c #9EBB4D",
">. c #99B947",
",. c #8FA453",
"<. c #94A451",
"1. c #9AA654",
"2. c #94A954",
"3. c #9CAA54",
"4. c #96AB58",
"5. c #98A85A",
"6. c #9DB555",
"7. c #A0BE4E",
"8. c #A3A85C",
"9. c #ABBC5B",
"0. c #A4B855",
"q. c #998A63",
"w. c #919D6E",
"e. c #AC9671",
"r. c #A7956C",
"t. c #97A868",
"y. c #9EB264",
"u. c #9AAA75",
"i. c #ABAA64",
"p. c #ACA569",
"a. c #B3AC6C",
"s. c #A2B56B",
"d. c #A8B868",
"f. c #BAB96D",
"g. c #B6B76A",
"h. c #BCA779",
"j. c #ABBD77",
"k. c #BFB574",
"l. c #C0A67F",
"z. c #C4B37B",
"x. c #C4BD75",
"c. c #A3C14F",
"v. c #A6C450",
"b. c #BFC26E",
"n. c #C8C675",
"m. c #C0C26E",
"M. c #8C8F82",
"N. c #AEBD81",
"B. c #A4A79B",
"V. c #A6AE8D",
"C. c #AAACA7",
"Z. c #B8B9B5",
"A. c #C7AB83",
"S. c #CBB483",
"D. c #CEBD80",
"F. c #DABB8E",
"G. c #D4BC88",
"H. c #DCBA92",
"J. c #E0BB96",
"K. c #B3C484",
"L. c #B9C98A",
"P. c #BCC995",
"I. c #BFCAA2",
"U. c #DBC58A",
"Y. c #DDC98A",
"T. c #D6C684",
"R. c #C2CF9F",
"E. c #DFC091",
"W. c #E1CC8D",
"Q. c #E5C496",
"!. c #EAC59C",
"~. c #ECC99A",
"^. c #E6C895",
"/. c #F0CC9E",
"(. c #EAD094",
"). c #F1D09D",
"_. c #C6D2A3",
"`. c #C8D4A6",
"'. c #CCD6AC",
"]. c #D2DBB6",
"[. c #C7CDB7",
"{. c #F4CDA2",
"}. c #F8CFA5",
"|. c #F6D3A1",
" X c #FBD4A5",
".X c #FFD7A8",
"XX c #FFD9AB",
"oX c #FFD9A7",
"OX c #FFDFB1",
"+X c #DAE3BF",
"@X c #FFE0B1",
"#X c #D7D7D7",
"$X c #CFD1C9",
"%X c #DCE5C3",
"&X c #DEE6C8",
"*X c #DFE0DC",
"=X c #E5EBD6",
"-X c #E9EDDA",
";X c #E1E3DC",
":X c #E1E7CF",
">X c #E8E8E8",
",X c #EEF2E5",
"<X c #F2F4EB",
"1X c #F0F3E7",
"2X c #F7F7F6",
"3X c #EEEEF1",
/* pixels */
"                                                                                                                                ",
"                                                                                                                                ",
"                                                                                                                                ",
"                                                                                                                                ",
"                        O $ O O # @ @ @ @ @ X @ @ @ # @ @ @ @ @ @ @ X @ @ @ @ @ $ O $ $                                         ",
"                      * & & * & & = & & $ * * * * & & * & & * = & * * & & & & & & & & & &                                       ",
"                      q t t t t t t t t t t t t t t t t t t t t r t t t t q r q r q q q q 8                                     ",
"                  9 t z v n m m n m n m m n m m n n m n n n n n n n m m n n c c x x c x i r 9           @                       ",
"                @ 9 y m /  . . . . . . . . . . . . . . . . . . . . . . .[ / ^ ~ ~ ^ ~ ~ n y 8 O O O @ @ $ $ $ $                 ",
"                @ 9 y !  .;.:.:.;.;.-.;.-.-.;.;.-.;.-.;.;.;.;.;.;.;.;.;.*.#.@. . . . .) ! j q 9 & & 9 * & & & $ $               ",
"              X @ 9 y ! #.7.v.:.:.;.;.;.:.;.:.;.;.:.:.v.v.v.7.7.v.:.:.:.;.*.#.$.@.#.$. .( n i t r r r q 8 9 & + @               ",
"              @ @ 9 i ! %.7.v.:.;.*.-.*.*.-.*.*.-.;.:.7.v.v.v.v.:.:.;.-.*.%.@.@.$.#.#.+.) ( n x k v c k t 8 & O @ # #           ",
"                @ 9 i ~ $.:.:.-.#.#.$.#.#.@.#.$.#.%.;.:.7.v.7.7.:.;.*.#.$.@.@.@. .@.@. . .[ _ ~ ^ / ^ M x e * $ @ $ & #         ",
"                @ * y m  .#.*.%.#.@.+.@.@.@.@.@.$.#.$.%.*.;.;.:.:.-.#.@.@. .+. . .[ | | ....,.,.&.$. ./ v t * $ % * * :         ",
"                @ * q z M _  .@.#.#.%.%.#.#.#.%.#. . .) )  .#.;.;.-.#.@. . .+.[ [ ( ( ~ o.t.s.j.b.4.$.) n t * % ; , < < ,       ",
"                # & 9 q i c ! _ $.*.-.-.*.*.;.-.%. .~ n v !  .%.;.;.*.@.+.+.[ [ ( n k V ' V.I._.P.b.,./ v t * - < 6 K 4 3 > $ # ",
"                $ & * & 8 t V ) #.:.:.:.;.:.:.:.-._ m y y c ] #.>.>.%.#._ @._ _ ( l d d ' C.$X:X'.K.,.^ k e * ; 6 I U L 2 > + O ",
"                $ # & 9 7 y v _ *.:.v.:.:.:.v.7.;. .M z y c _ %.>.>.%.%.*.4.6.4.] Z 8 d G C.;X1X%XL.2.^ k e 7 1 K U T P 6 > + O ",
"                # * 7 r y c ~  .-.:.v.v.:.v.:.v.:.@.] n n N  .*.6.-.#._ 4.s.b.V.w.S 8 a G C.*X<X&XL.4.^ k e * , K Y R U 4 > + O ",
"                @ * r z ! _ @.*.:.:.:.:.:.:.:.:.:.-.+._ _  .#.;.>.=.#.#.4.K.`.[.C.' d 8 G C.*X3X%XL.4.^ k e w 1 K Y R U 4 > & # ",
"                @ 9 t m _ *.:.:.:.7.7.7.:.7.7.:.:.:.;.-.-.;.;.:.:.%.#.$.y.I.&X=X[.M.Z d J C.*X>X%XL.*.^ l 8 7 , 5 U T I 4 > & O ",
"                @ 9 y ! @.:.c.7.:.:.:.:.:.:.7.:.7.:.:.7.:.7.:.:.>.%.@.$.y.`.=X<X#XC.' G M.I.>X3X%XL.4./ ! e + w 2 L P E 3 : & # ",
"                @ 9 i ! #.:.v.c.7.:.7.:.:.7.:.:.7.7.:.v.v.7.v.:.>.=.{ #.y.I.>X2X>X$XC.C.Z.#X3X<X%XL.4./ l e 7 7 1 6 5 2 , : # # ",
"                @ 9 i ! #.:.v.c.7.7.:.:.7.:.:.7.:.:.:.:.v.:.:.v.>.=.{ $.y.I.=X2X3X>X#X$X*X3X2X<X+XL.4./ l 8 # # - , , > : & & & ",
"                @ 9 y ! @.:.c.7.:.:.:.:.:.:.:.7.:.:.7.:.:.7.7.:.>.=.#.#.y.P.%X<X2X2X3X1X3X2X2X-X].j.<.( k u * % $ % * % & $ $ & ",
"                @ 9 y ! $.:.v.c.v.:.7.7.:.:.:.:.7.:.:.7.:.7.7.6.:.=.#.%.y.K.'.&X=X-X-X=X-X-X:X%XP.u.] B b g g ; - % $ # $ $ & $ ",
"                @ 9 i ~ #.7.v.v.7.v.7.7.v.:.:.:.7.:.:.7.7.:.7.:.:.=.=.-.6.j.K.P._.`.`.`.`.I.I.P.u.' B b h h 4 2 , % $ # # $     ",
"                @ 9 y ! @.:.v.v.7.7.7.7.:.7.:.:.:.:.7.:.:.7.:.:.:.:.:.;.6.6.s.s.s.s.s.s.s.b.y.t.] S y g h L P L 2 > & O #       ",
"                @ 9 y M  .*.;.;.-.-.;.:.:.:.:.:.7.:.:.:.7.:.:.7.:.:.:.:.;.-.#.$.#.@.#.@.$.$.#._ M i 8 > 6 P T P 4 , % #         ",
"              @ $ & r x ! ) _ _ _  .@.-.:.v.v.:.v.7.7.7.:.7.7.:.:.:.;.;.=.#.@. ._ { [ { +.{ { / v y 9 > 6 U R Y K , % #         ",
"              @ $ & 0 t z c c c c N _ @.;.v.v.v.7.v.:.7.7.:.7.7.:.;.;.*.%.@.{ [ { _ _ { { { { / v t 9 > 5 Y R Y K , & #         ",
"                $ $ 9 7 8 q q 0 q i B  .-.:.v.:.:.:.:.:.:.7.7.:.:.;.%.#.@.+.+.+.+.+.+.+.+.@.+.) ! y 9 > 5 E T U 5 , * #         ",
"                $ & $ & $ $ $ O & q c ^ $.*.*.%.-.=.;.:.:.:.:.:.;.*.#.@.+.+.+.@.+.@. . . . .[ ~ c t 9 > 2 L U I 4 , % #         ",
"                  $ $ @ O O O O O 9 z M ~ / ^ ^ ^ ) +.-.>.:.;.=.#.#.+.+.+.[  . .+.+.@. .| / N n i q * : < 6 K 5 3 : % #         ",
"                                    t i x j i j z m ) @.>.>.;.#.#.{ +. ._  .+.{ { +. .| / M x y r 7 & % > < < < > % & #         ",
"                                      8 8 0 9 a r k ^ #.;.:.-.%.@.@.+.@.@. .@.+.@.@.$.| ~ c t 7 & & $ & % * : * & & % $         ",
"                                      O $ & = a f S } 6.9.9.0.3.3.1.3.3.3.1.1.<.&.&.$.[ ! j 0 $ @ @ $ $ $ & $ & & $ $ $         ",
"                                      . X = s A W q.p.f.m.n.m.k.f.f.f.f.g.g.a.i.8.0.&.[ M i 8 O O O $ $ # # # # # $ &           ",
"                                      o $ a A q.h.S.F.Y.W.W.Y.U.U.U.U.U.T.T.z.z.a.8.&. .! j 8 $ O O                             ",
"                                      $ : C Q h.!.|.|.|.|.|.|.}.|.|.|.{.~.Q.E.S.h.i.<.[ m i 0 $ O                               ",
"                                    p s C F e.H. XOXXXXXXXXXXX.XXX.X X}./.Q.F.z.a.O.} ~ v y 8 $                                 ",
"                                  p C F q.e.A.!.oXOXOXXXXXXXXXXXXX X}.{.Q.F.z.a.O.} B c i e 8                                   ",
"                                & s F r.A.H.~. XXXXXXXXX.XXXXXXX X}.!.J.G.z.a.1.} B i u 8 9                                     ",
"                              . & s F h.Q. XoX X XXX XXX XXXXX X X{.!.J.S.f.8...^ V y 0 9                                       ",
"                            X . $ s Q l.{.OXOXXXXX XXX X XXXXXoX X{.!.H.S.a.3...^ m x y r 0                                     ",
"                          O O . O g Q V.{.OX@XXXXXXXoXXXXXXXXXXX X{.J.H.A.a.1...) / ~ M c y 9 X O O $                           ",
"                        $ $ O X $ s W A.{.XXOXXXXX XXX XoXXXoXoX}.{.!.F.S.a.1.$.{ @.@. .^ x 0 $ O @ $ $                         ",
"                      $ $ & + % w f X.h.^.|.oX.X X X X X X XoX).{.~.H.G.z.i.1...{ =.>.%.) m y 8 & & & $ $                       ",
"                      $ $ & 7 e i B o.a.T.(.)././.).}.}.).).(.W.Y.T.z.k.a.8.&.$.#.-.;.*. .^ v z t 8 & $ $                       ",
"                      O $ 9 e x N | 1.g.m.n.T.Q.!.!./.!.~.^.T.n.b.g.g.i.1.O.&...@.%.*.*.#. ._ M x t 9 $ O                       ",
"                      O $ 8 y M  .*.:.0.9.g.n.D.F.J.J.J.F.z.x.9.0.0.3.&.&...@.@.@.@.@.@.#.*.#. .M y 8 @ O                       ",
"                      O $ 8 j ~ #.7.>.>.7.0.g.x.S.S.A.A.l.a.9.0.:.=.%.#.#.+. .@. ._ _ _  .@.@. .! j 7 $ O                       ",
"                      X $ 8 j ~ %.:.:.>.-.0.9.f.x.h.r.q.q.O.1.0.>.>.=.=.#.#.@.+._ ^ M M M ~ ~ ! c t 9 # O                       ",
"                      O $ 7 i !  .-.-.%.%.-.0.9.9.8.X.D A ] ..;.c.>.:.=.*.%.@. ./ m x i y j z j t 8 9 $ $                       ",
"                      O $ 8 y M )  .$.@.+.#.-.6.3...B f u c ] #.:.7.>.:.;.*.%. .^ c t 8 * 9 8 7 9 & & $ $                       ",
"                        $ 9 y c ~ ^ ^ ^ ^ ) [ +.[ ! z 0 7 u v / #.-.:.:.:.;.%. .~ x 0 & @ O @ $ @ $ $ $                         ",
"                          9 r j x n c c n n m M m k e 7 + 8 y n ~  .*.:.7.;.%. .~ j 0 $ O X O X O $ $                           ",
"                            0 q t t t t t e t y t e 8 & + 9 8 t x ! +.;.:.:.*. .~ x 0 & O O                                     ",
"                              * 9 & 9 * & * 9 9 9 & & $ $ $ $ 9 t V ) %.;.-.%. .~ x r & O                                       ",
"                                # O O @ $ @ O O O + + & $ O O @ 8 z N )  .@.$. .~ x q % O                                       ",
"                                    O                           9 t j n ! ^  . .^ c q & O                                       ",
"                                                                  8 q t x M / [ ~ c q & @                                       ",
"                                                                    % 9 r k ~ ^ ~ z q & @                                       ",
"                                                                      @ w i V m v y 8 & @                                       ",
"                                                                        7 t i i u q 9 # $                                       ",
"                                                                          8 0 8 8 9 & $ $                                       ",
"                                                                            $ & & $ & $ $                                       ",
"                                                                            @ O $ $ $ $ $                                       "
};
