/* XPM */
static char *_2_resized[] = {
/* columns rows colors chars-per-pixel */
"64 77 207 2 ",
"   c None",
".  c #2A2E1E",
"X  c #272E1A",
"o  c #2C311E",
"O  c #30381F",
"+  c #2E3520",
"@  c #2C3820",
"#  c #313621",
"$  c #3B3621",
"%  c #333921",
"&  c #3A3B23",
"*  c #423622",
"=  c #433A23",
"-  c #4B3924",
";  c #4B3623",
":  c #533724",
">  c #5B3725",
",  c #523A25",
"<  c #5B3A25",
"1  c #633625",
"2  c #633A26",
"3  c #693A27",
"4  c #6E3C28",
"5  c #753A28",
"6  c #7D3A29",
"7  c #743827",
"8  c #3C4425",
"9  c #3F4A26",
"0  c #3D432D",
"q  c #414B27",
"w  c #444E29",
"e  c #49482A",
"r  c #465129",
"t  c #4A552A",
"y  c #4D5A2C",
"u  c #515E2D",
"i  c #5A572B",
"p  c #4E4D33",
"a  c #454B36",
"s  c #505032",
"d  c #6D4D2A",
"f  c #4E6129",
"g  c #54612E",
"h  c #5A6A2E",
"j  c #58672D",
"k  c #576530",
"l  c #586631",
"z  c #5C6C32",
"x  c #5F7431",
"c  c #636C38",
"v  c #637334",
"b  c #667A34",
"n  c #697B37",
"m  c #6C7E38",
"M  c #687731",
"N  c #65712F",
"B  c #595E4C",
"V  c #565A4B",
"C  c #5E6252",
"Z  c #6D7B48",
"A  c #796F50",
"S  c #6F704F",
"D  c #6C7060",
"F  c #833B2A",
"G  c #8B3B2A",
"H  c #9C3D2C",
"J  c #943C2C",
"K  c #A43D2D",
"L  c #AA3D2E",
"P  c #B33E2F",
"I  c #BB3F30",
"U  c #8B412B",
"Y  c #6E8139",
"T  c #6D8136",
"R  c #72853A",
"E  c #758A3B",
"W  c #798E3D",
"Q  c #728736",
"!  c #7C923E",
"~  c #798746",
"^  c #7F9541",
"/  c #6D8142",
"(  c #7F8275",
")  c #849C3E",
"_  c #88A13E",
"`  c #809741",
"'  c #859D42",
"]  c #889D45",
"[  c #84984D",
"{  c #889655",
"}  c #858450",
"|  c #87A042",
" . c #8AA344",
".. c #8FA945",
"X. c #8DA349",
"o. c #91AC46",
"O. c #92A34C",
"+. c #93AD48",
"@. c #98AE4D",
"#. c #95B146",
"$. c #96B249",
"%. c #99B54B",
"&. c #9EBB4D",
"*. c #98B847",
"=. c #95A551",
"-. c #9BA655",
";. c #94AB54",
":. c #99AE5D",
">. c #98AA58",
",. c #9CB25D",
"<. c #9BB452",
"1. c #8EA256",
"2. c #A1BE4E",
"3. c #A3A85C",
"4. c #A3BB52",
"5. c #ACBC5C",
"6. c #A4B457",
"7. c #8E946A",
"8. c #AD9672",
"9. c #AE9972",
"0. c #A5956B",
"q. c #9BAD67",
"w. c #9CB160",
"e. c #9FAE77",
"r. c #ABAB64",
"t. c #AEA968",
"y. c #B1AD69",
"u. c #B0AF67",
"i. c #A5B867",
"p. c #B4BD63",
"a. c #B8B96B",
"s. c #BCAF74",
"d. c #ACBD7C",
"f. c #A6B777",
"g. c #BEB772",
"h. c #C3BC75",
"j. c #C3B27A",
"k. c #C6BB79",
"l. c #A3C14F",
"z. c #A6C450",
"x. c #A8C055",
"c. c #B2C15F",
"v. c #B6C461",
"b. c #BEC36C",
"n. c #AEC17B",
"m. c #B0C07F",
"M. c #C9C974",
"N. c #CAC677",
"B. c #D1CC7B",
"V. c #8C8D86",
"C. c #909387",
"Z. c #94978D",
"A. c #9FA787",
"S. c #B0BD8C",
"D. c #B7B8B5",
"F. c #B1B3AA",
"G. c #CEBB82",
"H. c #CCB583",
"J. c #D4B68B",
"K. c #D5BB8A",
"L. c #DDBB92",
"P. c #E1BD96",
"I. c #B3C384",
"U. c #BBCB8D",
"Y. c #B5C48A",
"T. c #BBC994",
"R. c #BEC5AB",
"E. c #DAC788",
"W. c #C1CF98",
"Q. c #E1CF8B",
"!. c #E4D28D",
"~. c #ECC59D",
"^. c #ECC99B",
"/. c #E5C695",
"(. c #F4D49D",
"). c #ECD197",
"_. c #CAD5A9",
"`. c #CFD9B0",
"'. c #CAD3B0",
"]. c #D4DDBC",
"[. c #D1DBB3",
"{. c #D1DCAF",
"}. c #F4CCA2",
"|. c #F8CFA4",
" X c #F5D1A1",
".X c #FCD4A6",
"XX c #FFD7A8",
"oX c #FFD9AB",
"OX c #FAD9A2",
"+X c #FFDDB0",
"@X c #DAE3BE",
"#X c #C6C7C5",
"$X c #D9D9D9",
"%X c #D7DCC9",
"&X c #DCE5C2",
"*X c #DDE1D1",
"=X c #E9EEDB",
"-X c #E4E9D4",
";X c #E1E8CE",
":X c #EAEAEB",
">X c #E9EAE5",
",X c #EEF2E3",
"<X c #EEF0EA",
"1X c #F0F4E6",
"2X c #F2F4ED",
"3X c #F8F8F8",
"4X c #EDECF1",
/* pixels */
"        o o . o o o o o . + . o o o o o o o o . + o o o o o o o o o + o + + . + o o o                                           ",
"        % % % # # # % % % # # # # O # # % # % % # # # # # O # # % # % # # # # # % o %                                           ",
"        8 8 8 8 8 8 8 8 8 8 8 8 8 0 9 8 8 8 q 8 q 8 8 8 8 9 0 9 8 8 8 8 8 8 8 8 8 8 8                                           ",
"      w t u g u g g k u g k u k k u g u g u u u u u u k g g g y u u y y t t t t t t w 9                                         ",
"o % 8 y l b m Y Y m Y Y m Y Y Y Y m Y m Y T m m m m m m Y Y m Y m n M v v c v x z l u w % + X o o o + + %                       ",
"o # 8 u b ~ ' ]  . . . . .] | ]  .' |  .' ] |  .]  . .] ]  . . .' ` ! W E E E E R m l t & + @ o # # + + # % %                   ",
"o # 8 u m ' $.&.%.%.%.%.%.%.%.%.%.%.%.$.%.%.%.%.%.%.%.%.%.&.%.%.$.o. .] ' ' ' ' ^ R x y 9 & 8 @ & 8 % % % % % %                 ",
"o # 9 g Y  .&.l.z.&.%.&.%.%.%.%.%.&.%.&.&.2.l.l.z.2.z.2.&.&.%.&.%.$.o... . .X... .! m h t r r 9 r w 9 8 & @ # +                 ",
"+ % 8 k Y ..2.l.z.%.%.$.$.$.$.$.#.$.$.$.&.2.l.l.z.z.2.2.2.2.%.%.$.o.o.X......... .) R M x f h k l k t 9 8 % # + @ @             ",
". + 8 g R  .&.l.&.%.o.o.........o.....o.+.%.2.l.z.z.2.2.2.%.$.o..... . . . . . . .) ! E Q E T R Y n z t 8 & + o + @ @           ",
"o # 8 k Y ' #.%.$..... . . .X. . . . ...o.+.$.%.2.%.2.2.%.$.o... . . .]  .] ] ) ' ] ' ] ^ ^ X.^ ` E b k 9 % O # # $ % $         ",
"+ # 8 t v E ' ....X. . ... ... . .X. .X.X. . .X...$.%.2.%.$.o. .' | | ' ) ) ! W ^ ^ { >.q.w.w.<...` T g w & $ $ = - - -         ",
"+ % & w u v Y ~ ^  ...o.o.o.o.o.o.o.o...' ! E R W ] o.%.%.$.o. . .) ) ) ) ! Q n n ~ 7.f.Y.I.n.x.;.` T g w & * ; < 3 3 2 ,       ",
"+ # % 8 9 t k v E ] o.%.%.$.$.$.%.$.$.o.` R c z v E ] $.&.$.o. . .' | ' ! Q x h l S 7.F.'.`.U.n.;.^ T g q & ; 1 6 F F 5 < = % @ ",
"@ % % % % 8 r k Y ' o.&.&.&.&.&.2.2.&.+.` n u t u m ' $.&.%.o. . .]  . .) Q h t a C C.R.*X*X{.I.:.! b f 9 8 : 7 J L H 6 < = % @ ",
"% % % % 8 8 r l Y ] %.&.z.4.&.&.2.2.2.+.` n g t k m ' $.%.%.o. . ...;.>.1.~ z w a C Z.'.>X,X@XU.,.! b f 9 = > 6 H P L F 2 = @ @ ",
"# % % 8 9 t k n ^  .%.l.l.2.2.2.z.2.&.%. .E v z M E X.$.&.$.o. .o.<.f.m.A.7.C 0 0 V V.#X<X1X&XU.,.^ x f q & < F L I P G 2 = O O ",
"+ % 8 w u v Y ^  .$.<.&.l.2.&.l.2.2.z.%...' ~ E W ) o.%.%.+.....;.e.I.T.R.A./ V 0 V V.#X<X1X&XU.w.^ b f q & < F L I L G 2 = O o ",
"o # 8 y v ~  .o.%.%.&.&.&.2.&.&.&.2.&.&.%.#.....o.+.%.%.&.#._ ..;.I._.&X&XR.7.V 0 C C.#X>X,X&XU.,.^ b f 9 = > F K P L F 2 = O O ",
"o # 8 u m ' %.&.&.z.&.&.&.&.&.2.&.2.&.&.%.&.&.%.%.2.2.&.%.o._ o.:.I.].-X>X#XZ.D V D Z.#X:X,X@XU.,.! b f 9 = : 5 H L H F < & @ @ ",
"o % 8 u Y  .&.l.z.&.&.&.&.&.&.2.&.2.2.&.2.2.z.2.2.2.2.2.&._ .. .:.Y.].<X3X$XD.C.( V.F.$X2X1X&XU.w.^ b f 9 8 ; 1 F G F 4 , & % @ ",
". % 8 k Y  .&.l.z.z.&.&.2.2.&.&.&.&.&.2.2.2.z.2.2.2.2.2.*.#._  .:.Y.].<X3X4X$XD.F.D.#X:X3X1X@XU.w.^ b f 9 % * : 3 4 3 < - $ % @ ",
"+ # 9 g Y  .&.l.&.2.&.&.&.&.2.&.2.&.&.&.&.z.&.&.2.2.2.2.*.o._ ..:.I.].,X3X3X4X$X$X$X4X3X3X1X@XU.w.^ b f 9 % % $ - - - - $ % % @ ",
"+ # 8 u Y ' &.&.z.z.&.&.&.z.&.&.2.&.&.&.&.&.&.&.2.2.2.2.*.#... .:.I._.-X2X3X3X2X<X<X3X3X2X-X_.I.;.^ b g w & $ $ $ $ $ % $ % # % ",
". % 8 k Y  .<.z.z.&.&.&.&.&.&.&.&.&.&.2.&.2.&.&.2.2.&.&.&.#.....;.n.T.@X-X=X=X=X=X=X=X=X-X].R.e.{ R N i s , ; & % % @ @ @ % # % ",
". # 8 u Y  .&.z.z.z.z.z.z.&.4.&.&.2.&.&.&.2.2.&.&.2.2.&.&.&.#.#.<.w.I.T._._.`.`.`.`.`.{._.T.A.^ Z N d d d 4 2 , & % @ @ @ % % # ",
"+ # 9 k Y  .&.z.z.z.&.2.z.&.&.&.&.2.2.&.&.&.2.&.&.&.&.&.&.%.%.%.<.,.w.n.f.m.I.m.I.m.m.m.f.q.~ / l i d d G G F 2 - $ @ @ @       ",
". # 8 u m ] $.&.&.&.&.%.&.&.&.&.&.&.&.2.2.&.&.2.2.2.&.2.2.&.&.&.&.<.<.;.;.;.1.;.;.;.;.;.1.[ ~ B r e 2 F K L J 5 : & % O         ",
"+ # 8 t x ^  ...o.......$.%.&.&.z.&.&.&.&.z.&.&.&.2.2.&.&.&.%.%.*.#... .| _ | | _ |  .| | W x f q = 1 G L P K 6 > & @ @         ",
"+ # 8 r k v Y E E R R ^ ] o.%.z.z.z.&.z.4.&.2.&.2.&.&.2.&.&.%.%.#.o. ._ ^ _ _ ^ ) ) _ _ ! E x t & * 1 G L I K F > $ @ @         ",
"+ % & 8 w y k l k k l b E  .%.z.z.z.&.z.2.2.2.2.&.&.2.&.&.&.#.o... ._ _ ^ _ ^ _ _ ) _ _ _ Q x t q * 1 G P I K 6 < & @ @         ",
"# # % & 8 8 9 q 9 0 r g m ^ o.&.&.z.&.&.&.2.&.&.2.2.2.&.<.%.o... . . . ._ | _ _ |  . . ._ W M y & * 1 G L P K 6 > & @ @         ",
"% % % % % % % % + # 8 r z E  .o.#.o.o.$.#.%.%.&.&.&.&.%.%.#... . .|  .'  . .] |  . . . .) W b y 9 = < 6 H K J 5 , & @ @         ",
"# # # # + + + . . . + q k n E ^ ^ ~ ^ ^ ' ..%.&.&.&.%.%.#... . .'  .'  .' |  .| '  . ...] ! n y 0 & : 3 F G 5 2 - $ % @         ",
"                      9 t l z z z z z v Y ^ o.<.&.%.%.o... . .| ' ' ' | '  .] |  . . ... .! b y q & * > 2 3 2 , = % % @         ",
"                        w r r r r r r y z ^ X.*.&.%.o... . . . .|  . .'  .'  .| ]  . ...' ! b u 8 # $ * - - = = $ % % +         ",
"                          & & & % % 8 r z R  .*.%.%.o... . . . . . .| | '  .] | ] ]  .) ` R v y 8 # # # $ % % % % # % %         ",
"                          + @ % 8 8 r f b E  .*.&.%.o... ....._ .. . .| | |  .| ' ' ! ! R b k t 8 % + @ % @ % @ % % #           ",
"                          o + % 9 y l b E | o.*.%.*.#.....o.o....... . .| | | | ' ` E m v k t 8 & % o o o @     +               ",
"                          o # 8 y z Q ^  .o.*.%.&.*.*.*.%.#.*.#.#.....| | | |  .' W m z y q 8 8 % % % @                         ",
"                          o % q k Y ) %.2.4.4.4.z.4.4.2.4.4.z.4.&.%.+.X. .X. . .' E v u 9 & @ % % % %                           ",
"                          o % w z ~ 3.5.c.v.c.c.c.c.c.c.c.c.c.c.x.5.6.-.=.O.O...` E N t & + + + + # %                           ",
"                          o % p S } a.N.B.B.B.M.M.M.M.M.M.M.M.M.M.g.a.y.r.3.-.o.' R l t 8 + . + # %                             ",
"                          o % r S { k.Q.!.!.!.Q.E.!.E.!.Q.!.!.E.E.E.G.j.s.y.3.=.] R z t & + + o                                 ",
"                          X % p A 0.G.(.OXOX(.(. X X(.(.(.(.(.(.).^./.J.H.s.r.-.] R h t 8 O +                                   ",
"                          o & p A 8.L..XOX+X+XOXXXXXXXXXXXoXoXXX.X X~.L.J.j.y.-.] R x t 8 o o                                   ",
"                          X % p A 8.P..X+X+X+XoXoXXXoXoXoXoXoXoX.X}.~.P.J.j.y.-.] R h r 8 o o                                   ",
"                          o % p A 8.L.OX+X+XoXoXoXoXoXXXoXoXoXoX.X}.}.P.J.j.y.-.] R h t % o X                                   ",
"                          X % p A 8.L..XoXoXoXoXoXoX.XoXXXoXoX.X.X}.~.P.J.j.t.3.] R h t 8 + o                                   ",
"                          o & p A 8.L..XoXoXoXoXOX.XoX.XoX.X.XoX.X}.~.P.J.j.t.-.] E v u q 8 8                                   ",
"                        X X % p A 8.L..XoX+XoXoXoX.XoX.XoXoXoXoX.X}.~.P.J.j.t.=. .! T x k y t w                                 ",
"                    % + X X # a A 8.P.XX+X+XoXoXoXoXoXoXXXoXoXoX.X}.~.P.J.j.t.-.] ) ! E Y n l t 8 o . o + %                     ",
"                  @ % o o o O p A 9.P..X+XoXoXXXOX.X.XoX.XoXoX.X.X|.~.P.J.j.t.-.X.' |  .] ^ n k 8 # + + + # %                   ",
"                  % % O o O 8 s A 9.K.(.oXoX.X.X.X.X.X.X.X.X.XOX|.^./.L.J.s.r.=.X. ...#.o. .E l r 8 % # # # %                   ",
"                # # # & 8 9 t c } t.G.).(.(.|.|..X|.|.|. X(.).)./.E.K.k.s.y.3.=. ...#.%.%.o.^ n k t 9 8 & % % +                 ",
"                o # O 8 w u z ~ { 3.N.B.E.!./.}.~.}.}.~.^.Q.E.E.B.h.h.s.t.r.=.O.X. .o.#.$.o.] ^ Y v u r 8 % + +                 ",
"                o # % 9 f v ~  .+.6.p.b.N.E.E.P.P.P.P.P.K.E.N.M.p.p.6.3.3.=.O.X. . ...o.o.o... .] E b g 9 & # o                 ",
"                  + % w z R  .$.&.&.4.5.p.h.G.K.P.P.L.L.G.h.a.5.6.&.$.o.O.] ] ]  .| ' ' ]  ...o.o.] R l w % +                   ",
"                  + & r z W ..%.&.&.%.4.6.a.h.H.J.K.G.G.k.g.p.4.&.#.#.....) X. .| ' ^ ^ ! ^ ` ]  .^ Y l w & +                   ",
"                . + & r z W o.%.&.*.%.$.6.5.a.h.h.k.h.h.g.v.x.4.&.*.#.o.o..... .| ` E Y b n m R E Y z y 9 % + +                 ",
"                o + % r l R  .$.#.+.o.o.%.6.5.a.p.a.v.p.p.5.x.l.2.*.*.%.+.o.o...' ! m z k u u j k k t 9 8 % + +                 ",
"                  @ % w l Y `  .X. .....+.@.<.4.5.4.4.5.4.4.4.&.2.&.&.%.%.$.+...' E v g w 8 8 0 9 9 8 & % % #                   ",
"                  + & 9 g b E ! ` ) ! ` ' ] ..o.o.o.o.o.o.o.o.o.+.#.%.2.%.%.#.o.' E z t 8 % + + % % % % % % %                   ",
"                    & q y l v m n n n m m R E E W W W W W E W W !  .+.%.2.2.$.o. .E z t & o . . + + + + # #                     ",
"                      9 t t u k g k u k k l z z x h z h z h z z v ~  .$.&.2.%.o.' E z t & + X .                                 ",
"                        8 q q q 9 q q q 9 r r w r r r r w w 9 t u b ! o.%.&.%.o.' R z t 8 + +                                   ",
"                          & & % & % % % & % % & % 8 % 8 & @ % 8 w l R ] o.$.$...' R z t 8 # +                                   ",
"                            @ + + # + + + + + + o o o o @ o X o 8 y b E ` ]  . .' E v t 8 # o                                   ",
"                                + .                             8 r k z n R ! ' ' E v t 8 # o                                   ",
"                                                                  8 w t u z Y ! ' E v y 8 # o                                   ",
"                                                                    % 8 q u b R W R c t 8 # o                                   ",
"                                                                      + & r l n R M k r & @ +                                   ",
"                                                                        % q u l l k t 9 & # +                                   ",
"                                                                          8 w t t r 9 8 % % #                                   ",
"                                                                            8 8 8 8 & % % % #                                   ",
"                                                                            % # # # % % @ % %                                   ",
"                                                                              o + + + + # % %                                   "
};
