/* XPM */
static char *_3_resized[] = {
/* columns rows colors chars-per-pixel */
"64 77 202 2 ",
"   c None",
".  c #2B2F1E",
"X  c #262A1C",
"o  c #2C311E",
"O  c #2E3520",
"+  c #2C3820",
"@  c #313620",
"#  c #3B3621",
"$  c #333922",
"%  c #3A3C23",
"&  c #423622",
"*  c #433A23",
"=  c #4B3924",
"-  c #4B3623",
";  c #5B3724",
":  c #523A25",
">  c #5C3A25",
",  c #533724",
"<  c #633524",
"1  c #633A26",
"2  c #693A27",
"3  c #6E3C28",
"4  c #7D3A29",
"5  c #753A28",
"6  c #3B4325",
"7  c #3E4926",
"8  c #414A27",
"9  c #444D29",
"0  c #494A2C",
"q  c #475129",
"w  c #4A552A",
"e  c #4D592C",
"r  c #515E2D",
"t  c #5B572B",
"y  c #4E4E33",
"u  c #434935",
"i  c #515136",
"p  c #6B4B27",
"a  c #4E622A",
"s  c #54622E",
"d  c #58692F",
"f  c #566430",
"g  c #586630",
"h  c #5C6B32",
"j  c #626D37",
"k  c #647435",
"l  c #667A34",
"z  c #697B37",
"x  c #6B7E38",
"c  c #666B2E",
"v  c #575C4A",
"b  c #5B5F50",
"n  c #5B654A",
"m  c #686D47",
"M  c #746E4B",
"N  c #646B56",
"B  c #7A6F50",
"V  c #6E7C4A",
"C  c #717866",
"Z  c #833B2A",
"A  c #8A3C2B",
"S  c #873726",
"D  c #983C2C",
"F  c #A43D2D",
"G  c #AB3D2E",
"H  c #B33E2F",
"J  c #BB3F30",
"K  c #8A402A",
"L  c #6E8139",
"P  c #6C8137",
"I  c #71853A",
"U  c #758A3C",
"Y  c #798F3D",
"T  c #7C923E",
"R  c #798945",
"E  c #7E9440",
"W  c #7A8858",
"Q  c #7C8671",
"!  c #849D3E",
"~  c #88A23F",
"^  c #87A03F",
"/  c #809741",
"(  c #849C42",
")  c #899D46",
"_  c #899E4C",
"`  c #8A9857",
"'  c #888D4F",
"]  c #87A042",
"[  c #8AA344",
"{  c #8EA945",
"}  c #8DA34A",
"|  c #91AC46",
" . c #92A44C",
".. c #93AD48",
"X. c #98AE4D",
"o. c #95B146",
"O. c #96B249",
"+. c #9AB54A",
"@. c #9EBB4C",
"#. c #98B847",
"$. c #94A552",
"%. c #9BA655",
"&. c #93A954",
"*. c #96AB5A",
"=. c #99AE5D",
"-. c #9DAA55",
";. c #9CB15F",
":. c #A0BE4E",
">. c #A3A95C",
",. c #A3BC52",
"<. c #ADBD5C",
"1. c #A7B65A",
"2. c #8D967B",
"3. c #8E906D",
"4. c #AD9672",
"5. c #A7956C",
"6. c #9CAD6A",
"7. c #9CB160",
"8. c #9CAB76",
"9. c #ACAB65",
"0. c #AFAC68",
"q. c #B1AD69",
"w. c #B0AF67",
"e. c #A2B56C",
"r. c #B3BC63",
"t. c #B9B86C",
"y. c #ABBB7A",
"u. c #A8BB70",
"i. c #BEB872",
"p. c #BCAF74",
"a. c #C3B27A",
"s. c #C5BA78",
"d. c #A3C14F",
"f. c #A6C350",
"g. c #A8C055",
"h. c #B2C15F",
"j. c #B6C461",
"k. c #BCC16A",
"l. c #C9C974",
"z. c #CAC577",
"x. c #D0CB7B",
"c. c #8A8D84",
"v. c #93958B",
"b. c #8E9088",
"n. c #9EA88B",
"m. c #ADB989",
"M. c #ACB594",
"N. c #ABADA7",
"B. c #B3B9A8",
"V. c #CCB882",
"C. c #D1BA85",
"Z. c #D4B68B",
"A. c #D6BB8A",
"S. c #DABB8F",
"D. c #DDBB92",
"F. c #E1BD96",
"G. c #B6C58A",
"H. c #BACA8D",
"J. c #B4C487",
"K. c #BECE90",
"L. c #BBC1AF",
"P. c #DAC788",
"I. c #E1CF8B",
"U. c #E4D28D",
"Y. c #ECC59D",
"T. c #ECC99B",
"R. c #E5C695",
"E. c #F4D49D",
"W. c #ECD197",
"Q. c #C3CEA2",
"!. c #C8D4A5",
"~. c #C3C6BC",
"^. c #CED8B2",
"/. c #D4DDBA",
"(. c #D3DDB7",
"). c #F4CCA2",
"_. c #F8CFA4",
"`. c #F5D1A1",
"'. c #FCD4A6",
"]. c #FFD7A8",
"[. c #FFD9AB",
"{. c #FAD9A2",
"}. c #FFDDB0",
"|. c #D8E1BD",
" X c #D7E0BD",
".X c #C4C5C3",
"XX c #CACAC8",
"oX c #D6D6D4",
"OX c #D4D9C6",
"+X c #DBE4C3",
"@X c #DFE8C3",
"#X c #E8EDDB",
"$X c #EBF0DF",
"%X c #E5E5E4",
"&X c #EAEBE5",
"*X c #ECEDEA",
"=X c #E7E9E1",
"-X c #EEF2E3",
";X c #EFF0EC",
":X c #F1F5E7",
">X c #F5F5F5",
",X c #F9F9F8",
/* pixels */
"                                                                                                                                ",
"                                                                                                                                ",
"                                                                                                                                ",
"                                                                                                                                ",
"            . . . . . o . . o . O . . . . . . . . O . . . . . . . . O O O O . . . o O . o o o o O O O O $                       ",
"          @ O O O O O O @ O O @ O O O O @ @ @ @ O O O O O O O O O O O O O @ @ @ + + O O @ @ @ @ @ O O $ @ $ $                   ",
"        6 6 6 6 6 6 % 6 6 6 6 % % 6 6 % % 6 % 6 % 6 % 6 6 % 6 6 6 % 6 $ 6 % % 6 % 6 % 6 % 6 % 6 % % $ $ $ + $ $                 ",
"        q w w e e e e e w e e e e e e e e e e e e e e e e e e e e e w q q q q 9 q q q q q 9 q q q 9 7 6 % $ @ O                 ",
"    6 e f h k k k k k z k z k z k k k k k k k k k k k k k k k k k k h h h g h h g h g h h g h h g f e 7 6 $ O O + +             ",
"O @ 7 e k U E ( ( ( E ( / / / / ( / ( ( / ( / / / / / / / ( ( / E R U U I L L L I L I L x I I I L z h e 6 % O O O + +           ",
". @ 7 r x / | +.O.O.O...O.O.O.X...O.O...O...O.O.X.+.O.O.O.O.| O.| { [ ( / / E ( ! ( ! E ( ! ( ! ( U z s 9 $ @ @ @ # $ #         ",
"O @ 6 f L [ +.f.f.@.+.@.+.@.+.+.:.+.+.:.@.:.:.:.:.:.:.:.:.:.:.:.+.o.{ [ [ ] ] ] ) ] ] ) ] ] ] [ ] E L f 7 % # # * = = =         ",
". $ 7 s I { @.f.f.@.+.+.+.O.+.+.O.O.+.+.@.:.d.f.f.f.f.:.:.:.:.+.O.O.{ ~ ~ [ [ { } [ [ ~ ~ [ { { [ / L f 9 % & - > 2 2 1 :       ",
". @ 7 s L [ @.f.@.+.| | | | | | | | | ..O.@.:.:.f.f.f.:.:.+.O.| { { [ ] ~ ~ ] [ { [ [ ] ~ ~ ~ [ ] / L s 9 % = < 4 K Z 5 > * $ + ",
"o @ 6 s L ) O.@.+.| { [ [ [ } [ [ [ [ { | O.@.@.:.:.:.:.:.O.| { [ [ } [ ] ] ] ) ! [ ) ] ] ] } } ] E P a 9 % , 5 D D D Z 1 # $ + ",
"O $ 6 e k E } | | { [ } [ [ [ [ { [ [ } } [ { | ..O.+.@.+.O.{ [ [ } &.&.*.$._ ( / / _ $.*.*.&.| [ E P s 7 * ; 4 F H F Z 1 * + + ",
"O @ 6 9 f z R E ( [ { | | | | } { | { [ ] E E E / [ ..@.+.O.{ [ { *.e.J.k.6.W R L R W 8.m.k.u.7._ E P a 7 7 ; S F J G A 1 * $ o ",
"@ $ % 6 9 r h z R ] { O.O.O.O.+.O.O.O.| / U k h x Y [ O.+.o.| [ &.e.G.L.L.J.2.W n R 6.G.L.L.H.h.&.E l a 7 * ; S G J G A 1 * $ o ",
"@ $ $ % 6 7 q h L ( O.@.+.@.+.+.@.@.@.{ E z f e g x ) O.+.o.| { *.k.K.@XOXL.b.N v n Q L.+X+X!.J.=.E l a 7 * , S F H G K 1 % $ o ",
"@ @ $ $ $ 6 9 f L ( O.@.f.@.@.@.,.:.@.O.E z r e r z ( O.@.o.~ { =.m.(.#X=X.Xb.b i n b.L.=X#X|.H.7.E l a 7 * , 4 D G D 4 > % 6 + ",
"+ $ % % 7 9 r k U [ +.:.f.@.:.@.@.f.@.+.) L h f j I ( O.@.o.~ { =.G.+X-X*XXXb.b 7 b c..X&X:X+XK.7.E l a 7 % - < Z A S 3 : # $ o ",
"O + % 8 e h x U ) | +.:.d.f.@.d.:.f.@.+.| E U L I ! { +.@.#.~ { =.G.+X-X*X.Xb.b 7 b c..X*X:X@XK.7.E l a 7 $ # , 2 3 2 > * # $ $ ",
"O @ 6 w h U ( [ O.+.@.@.@.@.@.:.@.f.@.@.O.| [ ) [ | o.:.o.| ~ | =.G.OX$X%X.Xc.b u b c..X&X-X+XH.7.E P a 7 % $ # = = - * % $ $ o ",
"O @ 7 r x / | @.d.@.@.@.d.@.:.@.@.@.@.@.@.+.+.+.+.@.:.:.:.~ ~ } =.G.(.$X*XXXv.N v N b..X=X&X+XG.7.R l a q % $ # # # % % $ $ $ $ ",
". @ 8 s L [ @.d.d.d.@.@.@.@.@.@.@.:.@.:.:.:.:.:.:.:.:.@.#.| ~ { =.J./.$X;XoXN.Q C c.N.oX*X&X^.J._ I c t t = = * # $ + + $ $ $ + ",
". @ 7 s L [ @.f.f.:.@.@.@.d.d.@.@.@.:.@.:.:.f.:.f.:.:.@.#.| ~ | =.J./.$X>X%XXXB.n.N..X%X>X%X^.n.W c p p 3 3 1 = # + + + + $ $ $ ",
"o $ 6 s L ] @.d.f.d.:.@.@.@.@.@.@.@.@.@.:.:.:.f.:.:.:.@.#.| ~ } =.J.^.$X>X>X%XoXXXoX%X>X,X=XL.c.m r p p A A 4 1 = % + + +       ",
"o $ 6 s L ) +.d.d.d.@.:.@.@.d.:.:.:.@.:.@.@.@.@.:.:.:.@.#.o.{ [ *.J.^.#X>X>X>X;X*X;X,X,X>XoXB.Q v 0 1 Z D G D 5 : # $ o         ",
"o @ 6 r x ) +.d.d.:.@.d.@.@.@.@.:.:.:.@.:.@.:.@.:.@.@.@.+.o.{ [ *.k.L.+X$X:X-X-X-X-X:X:X#X^.n.C y = < S G H D 4 > # + +         ",
"o @ u s I [ @.f.f.d.d.d.d.d.d.d.:.f.:.:.f.:.:.@.:.:.:.:.#.O.{ [ E e.G.K.^.OX X+X|.|.|.|.^.L.b.N u * < S H J G Z > # + +         ",
"o @ 8 s I [ @.f.f.d.d.d.d.d.d.f.f.f.:.f.:.:.:.:.@.:.:.@.+.O.{ [ *.=.6.y.J.G.G.G.H.H.H.H.J.8.W n 0 & < S G J F 4 : % + +         ",
"o @ 6 s x ) +.:.d.d.@.@.@.@.@.@.@.@.@.@.@.@.@.@.:.:.@.@.+.O.{ [ &.E &.*.=.=.;.;.;.;.7.;.*.W V f 8 & < S G H F 4 > * + +         ",
"O $ 6 r l E { O...| | | | | | ....| ....o.+.+.@.:.@.@.+.O.O.{ [ E | | E o.o.E o.[ [  .} ] T l e 6 * > 4 D F D 5 : % + o         ",
"O + 6 q f x U T E E E E E E E E E U E E ( } +.@.@.@.+.+.O.{ } [ | E E o.E E E E ! ! ~ ~ ! Y l e 6 % , 3 Z A 5 1 = # $ +         ",
"O @ % 7 e f h j j h k h h j j h h h h k L E | +.@.+.O.| { } [ ] E E E E ~ E E ~ ! ~ ~ ~ ! Y l r 7 # & , 1 2 1 : * $ @ o         ",
"@ @ $ % 7 7 q q w q q q q q q q q 7 q e j E [ +.@.+.| { [ [ [ ] E o.o.E ~ ~ ~ ~ ! ] [ { ! T k r 7 $ # & = = * % % $ @ $         ",
"@ $ $ $ $ % % % 6 $ $ 6 % $ % % 6 % 6 w d U [ +.@.+.| [ [ [ ] [ E o.E o.{ E { E ] ] [ ( / U k e 6 $ $ @ # % $ $ % $ o 6         ",
"$ @ @ @ @ O + O + O O + O O O $ + 7 q r k Y [ #.@.O.| { [ { { [ o.E o.~ E o.E | ( ! / Y I z s w % $ + o o o o 6 + + $           ",
"                    . . . . O % 7 e d l U ^ { #.@.#.#.{ { { | { o.E o.E E o.| E ) T U z k s w 7 6 $ + o o +     +               ",
"                        . O + 6 e h I E [ { #.@.#.#.@.O.#.#.O.o.#.#.E o.~ E ~ | ( T x h e 9 6 6 $ + $ @                         ",
"                          o $ 8 f L ) +.,.,.:.,.:.,.:.,.:.,.:.,.#.+.&.| [ [ [ ] ( U k r 8 % $ $ $ @ $                           ",
"                          o $ 0 h R X.h.j.j.h.h.h.h.h.h.h.h.j.h.g.g.;.*.%. . . .( U k q 6 + o o @ $ @                           ",
"                          o $ 9 m ' r.l.x.x.l.l.z.l.l.l.l.l.l.l.l.k.t.w.>.>.-. .) I h q % o o o @                               ",
"                          o $ w m 5.a.P.U.U.U.U.I.I.I.I.I.I.U.I.P.P.C.s.p.w.>.$.) U h w 6 @ o o                                 ",
"                          . $ y M 5.C.E.{.{.E.E.E.E.`.E.E.E.`.`.W.T.R.Z.V.p.0.%.( I h w 6 $ o                                   ",
"                          . $ i B 4.S.'.}.}.[.{.].].].].[.].].].`.).Y.F.Z.p.q.%.( U h w 6 + o                                   ",
"                          o $ i B 4.F.'.}.}.}.[.[.[.[.[.[.[.[.[.].).Y.F.Z.a.q.%.) U h q % o o .                                 ",
"                          X $ y B 4.D.{.}.}.[.[.[.[.[.[.[.[.[.[.'.).).F.Z.a.q.%.) I h q % o . . o o o O $ $                     ",
"                          . $ y B 4.S.'.].[.[.].].[.].].].].[.]._.).Y.F.Z.a.q.%.] I h w % @ O @ @ @ @ $ + $ $                   ",
"                          o $ y B 4.S.'.[.[.[.].].].[.].].].].]._.).Y.F.Z.a.0.%.) U l s 9 7 % 6 7 6 6 % $ $ $                   ",
"                          . % y B 4.F.'.}.}.[.[.].].].[.].[.[.[._._.Y.F.Z.a.0.%.[ T P h f f r r r e q 7 % $ @ O                 ",
"                          . $ y B 4.F.'.}.}.[.[.[.{.[.].[.[.[.[.]._.Y.F.Z.a.0.%.[ T T U L L I I L z g e 6 % @ O                 ",
"                          . $ y M 4.D.'.}.}.].].].[.].].].].[.[._._.Y.F.Z.a.9.%.} ) ! ) ( [ [ [ [ E x f 8 % O                   ",
"                          o $ y M 5.A.E.[.[.].'.'.{.'.].].].{.{._.Y.R.D.Z.p.9.$.} { { { O.O.@.O.| ) I g 9 % O                   ",
"                          . $ w M 5.s.R.E.E.E.).`.)._.`.`.E.T.U.R.P.A.V.p.q.>.$.[ [ | #.+.@.O...[ E x r 7 6 +                   ",
"                          o $ y m ' p.x.U.U.T.Y.).).Y.Y.T.I.P.P.x.z.i.p.9.9.%. .[ { { o.o.o.} ( U z g e 6 $ O O                 ",
"                          o $ 9 h ' =.k.z.P.P.F.F.Y.F.R.D.P.z.k.r.r.1.>.%.%. .) [ } { | | ] Y x h r 9 7 % $ @ @                 ",
"                          o $ 8 f U  .<.r.z.P.S.D.D.D.A.V.z.t.<.,.@.X.|  .} ) ) ] ] ] [ ) T x f 9 6 % @ $ $ @                   ",
"                          o $ 8 d L { ,.<.t.s.s.Z.Z.V.C.s.t.<.,.@.o.| { { ] [ [ ] ] ) T Y P h w 6 $ O O + $ $                   ",
"                          O $ 9 d L [ +.<.<.t.s.i.s.s.s.i.j.<.,.@.#.o.| { { } [ ] T T L k h e 8 % O O O O $                     ",
"                          O $ 8 f U [ +.g.g.r.r.r.r.j.r.r.<.g.f.@.#.@.O.o.| | { ) T P h f q 8 6 $ O O O                         ",
"                          o $ 8 f L [ @.g.g.,.,.1.1.,.1.,.,.,.@.@.@.@.@.+.O.o.} ] U z s 9 6 % @ $ @ @ @                         ",
"                          O $ 8 f U { +.:.f.@.@.+.O.O.X.| | | | o.O.+.@.@.+.o.{ ( U j e 6 @ O O $ @ $                           ",
"                          O $ 8 f U | @.:.@.#.o.{ [ E T T U U Y E ] ..+.@.@.+.| ( U h q % O O O @ $                             ",
"                          o $ 9 g U } @.:.@.O.{ ) Y P k h d d h z U ) O.@.:.+.| ) U h q % O o o                                 ",
"                          O $ 8 g U } @.@.@.o.] T l d w q 7 9 w r k T { +.@.+.{ ) U h q 6 @ O                                   ",
"                          o $ 8 f L ] | O.O.} ( U k w 6 % o o 6 9 h I ] O.O.O.} ( U h e 6 @ O                                   ",
"                            $ 8 s k U ! ] ] ] ( U h q 6 o X . o 6 r k U E ] [ [ ( U k w 6 @ o                                   ",
"                              7 e f h z I E ( ( U h q $ o . X . 6 q s j z I T ) ! U k w 6 $ o                                   ",
"                                8 9 e s h L T / U j e % o o         q w r h L T ( U k w 6 @ o                                   ",
"                                  % 6 7 s k U T U h w 6 $ o         % 6 8 r k I T I h w 6 $ o                                   ",
"                                    O % q h x L z f q % @ o           o % q g z L z h q 6 O o                                   ",
"                                      $ 8 r g h s w 7 $ $ o             $ 8 r h h f e 7 % @ O                                   ",
"                                        8 q w q q 7 6 % + $               7 9 w w 9 7 6 $ $ @                                   ",
"                                          6 7 6 6 6 $ $ $ $                 6 6 6 6 % % $ $ @                                   ",
"                                          @ @ $ o $ $ o $ $                 $ @ $ O @ $ + $ $                                   ",
"                                          o O o o @ @ @ O $                   o o O O @ $ $ @                                   "
};
