/* XPM */
static char *_4_resized[] = {
/* columns rows colors chars-per-pixel */
"64 68 204 2 ",
"   c None",
".  c #232D16",
"X  c #252E19",
"o  c #2A2E1E",
"O  c #263119",
"+  c #2C321E",
"@  c #2F381F",
"#  c #31361F",
"$  c #323B1E",
"%  c #3E341E",
"&  c #2F3520",
"*  c #2C3820",
"=  c #273720",
"-  c #313620",
";  c #3D3622",
":  c #343A22",
">  c #3B3B23",
",  c #383E28",
"<  c #443923",
"1  c #4B3923",
"2  c #463722",
"3  c #543925",
"4  c #5C3A26",
"5  c #583722",
"6  c #643A26",
"7  c #6A3B27",
"8  c #6E3B28",
"9  c #733B28",
"0  c #7A3B29",
"q  c #743A27",
"w  c #3B4324",
"e  c #3F4825",
"r  c #3C422C",
"t  c #364220",
"y  c #414B26",
"u  c #444D29",
"i  c #44462C",
"p  c #475129",
"a  c #49542A",
"s  c #4E5A2C",
"d  c #495525",
"f  c #515E2D",
"g  c #505F26",
"h  c #444A33",
"j  c #484B32",
"k  c #464C38",
"l  c #4B513B",
"z  c #4C5533",
"x  c #515A35",
"c  c #54622E",
"v  c #5B6C2D",
"b  c #58662F",
"n  c #576430",
"m  c #586631",
"M  c #5E6D32",
"N  c #57613B",
"B  c #5F7032",
"V  c #626E38",
"C  c #627334",
"Z  c #677835",
"A  c #697C36",
"S  c #6C7E39",
"D  c #66753B",
"F  c #61732F",
"G  c #565C47",
"H  c #5C614E",
"J  c #5D6642",
"K  c #5E6250",
"L  c #686A48",
"P  c #766C4E",
"I  c #6A7647",
"U  c #757B4C",
"Y  c #676A5C",
"T  c #696D5D",
"R  c #656B57",
"E  c #6D7557",
"W  c #71795B",
"Q  c #717469",
"!  c #727668",
"~  c #6F7363",
"^  c #853C2A",
"/  c #8A3C2B",
"(  c #943D2C",
")  c #9B3D2D",
"_  c #A43D2D",
"`  c #AA3E2E",
"'  c #B23E2F",
"]  c #B93E30",
"[  c #B73E30",
"{  c #6E8139",
"}  c #6D8235",
"|  c #708437",
" . c #71843B",
".. c #768A3C",
"X. c #798E3D",
"o. c #728837",
"O. c #7D933E",
"+. c #778843",
"@. c #7E9440",
"#. c #748053",
"$. c #7B8365",
"%. c #7F8375",
"&. c #80973E",
"*. c #819A3F",
"=. c #809641",
"-. c #849C42",
";. c #889F43",
":. c #8B8E51",
">. c #87A142",
",. c #8BA344",
"<. c #8EA945",
"1. c #8EA149",
"2. c #91AC47",
"3. c #92A34D",
"4. c #94AE49",
"5. c #94B146",
"6. c #96B149",
"7. c #99B54B",
"8. c #9EBB4D",
"9. c #98B847",
"0. c #9DAB54",
"q. c #9AA455",
"w. c #9FB352",
"e. c #A1BE4E",
"r. c #A4AA5D",
"t. c #A1AA59",
"y. c #A3BA53",
"u. c #ABBD5A",
"i. c #A6B757",
"p. c #B0BE5F",
"a. c #838A6F",
"s. c #828678",
"d. c #95936F",
"f. c #B19A74",
"g. c #AD9871",
"h. c #ABAB64",
"j. c #B5AD6D",
"k. c #B4BD64",
"l. c #B8BA6A",
"z. c #B9AE72",
"x. c #BBB072",
"c. c #BFBB72",
"v. c #C3BC75",
"b. c #C7B77D",
"n. c #A3C14F",
"m. c #A6C450",
"M. c #AFC15C",
"N. c #B2C45D",
"B. c #BBC06A",
"V. c #C5C572",
"C. c #C9C974",
"Z. c #CCC57A",
"A. c #CFD077",
"S. c #93968A",
"D. c #96998D",
"F. c #949984",
"G. c #93968B",
"H. c #9DA194",
"J. c #A2A49B",
"K. c #A9ACA3",
"L. c #ABACA6",
"P. c #AEB0AA",
"I. c #AEB0A7",
"U. c #B2B4AA",
"Y. c #B8BAB2",
"T. c #CEB586",
"R. c #CEBA82",
"E. c #D4B98A",
"W. c #D4BB88",
"Q. c #DEBC94",
"!. c #E0BC95",
"~. c #BFC1BA",
"^. c #D9C687",
"/. c #DDC090",
"(. c #E2CF8D",
"). c #E0C68F",
"_. c #E4D18E",
"`. c #E3C395",
"'. c #E6C398",
"]. c #ECC49D",
"[. c #ECCC99",
"{. c #F1CE9E",
"}. c #ECD494",
"|. c #F3D29E",
" X c #C2C4BD",
".X c #F5CDA3",
"XX c #F8CEA5",
"oX c #F7D5A1",
"OX c #FBD5A5",
"+X c #FFD7A9",
"@X c #FFD9AB",
"#X c #FED9A5",
"$X c #FFDEB0",
"%X c #C9CAC5",
"&X c #D1D2CD",
"*X c #DDDEDA",
"=X c #D7D8D4",
"-X c #CED0C9",
";X c #E5E5E3",
":X c #E8E9E6",
">X c #EBECEA",
",X c #F0F0EF",
"<X c #F5F5F4",
"1X c #FEFEFE",
/* pixels */
"        + o & o & o & o + + + + + + + o & o & o & o & o o + & o - + + + + +                                                     ",
"        : : : : : : : : : : : - : : : : : : : : : : : : : : : : : : : : : :                                                     ",
"      y u u u u u u u u u u u u u u u u u u u u u u u u u y y y y y y y y e                                                     ",
"    y s m M B M M M C M M M M C M C M M M M M M M M M C M M M b n n n n f f u                                                   ",
"+ : u n S X.@.@.@.@.@.@.@.@.@.@.@.O.@.@.@.@.O.O.@.@.@.@.@.X... .|  .| | D m p > - + & - & & - :                                 ",
"& : u M X.<.6.7.6.6.4.6.6.4.4.6.6.4.4.6.4.6.6.7.6.4.6.6.2.<.;.&.O.&.O.O. .M p , - : : : : : : - :                               ",
"o : u C @.7.m.m.e.7.7.8.8.7.8.7.8.8.8.e.e.e.e.e.e.e.e.8.7.2.-.O.....o.o.C c y $ : t e u u w : : &                               ",
"o : u C =.8.m.e.8.7.6.6.6.6.6.7.6.7.8.n.m.m.m.m.n.e.e.8.4.-.o.C v v v v c d $ $ t u f n f u t : & * *                           ",
"& : u M =.7.8.8.4.2.<.<.1.<.<.<.2.2.6.7.y.n.m.e.e.e.7.6.,...C f y y y y e $ $ $ e c Z S B s e * + & & -                         ",
"o : u M X.2.6.4.<.,.,.,.,.,.,.,.,.,.2.4.7.7.7.8.7.7.4.,.=.S M z i i h u h r i h z C  ...A f e : : : > > >                       ",
"& - e f Z @.-.,.,.<.<.2.,.<.<.,.<.,.;.=.=.;.2.7.7.4.>.X.S I I R Y Y Y Y T T T T E U +.S B s w > < 2 3 3 3                       ",
"& : w u s M S O.;.2.4.4.4.4.7.4.4.,.@.S Z S @.2.6.<.X.Z V E a.D.H.K.J.H.J.J.J.H.d.a.I m s e > > 1 7 9 0 8 3 >                   ",
"- - : , e p m { -.7.8.8.7.7.8.8.7.<...M f b  .,.6.*.} c x ~ H. X=X*X*X=X=X*X*X&XU.F.K p t * : < 6 ^ ) ( 0 4 > &                 ",
"- : : : > u c { ;.7.e.e.e.e.e.e.7.<...M a f S ;.4.*.F d k Q K.*X<X1X1X1X1X1X1X>X%XS.H , O O : < 7 ( ` ` ^ 4 > -                 ",
"@ : , e u f D X.<.8.e.m.e.e.e.e.e.4.=.Z M V ..<.5.&.v y k Q P.;X1X1X1X1X1X1X1X1X-XG.H , O O * < q ) ] ' / 4 > * =               ",
"+ : w a M { O.,.4.8.e.e.e.e.e.e.e.7.,.&...X.,.6.6.*.v y k Q P.;X1X1X1X1X1X1X1X1X-XG.H , O O : < q ) ] ' / 6 ; = *               ",
"+ : u n  .;.4.7.7.8.n.e.8.8.e.e.8.8.7.4.2.5.7.8.6.&.v d j ! P.;X1X1X1X1X1X1X1X<X-XS.H , O O @ 2 7 ( ' ` / 4 > *                 ",
"+ : u M @.4.e.m.n.8.8.8.8.e.8.e.8.8.8.8.8.8.n.y.7.&.v y k ! L.;X1X1X1X1X1X1X1X<X-XS.H , O O & < 6 / _ ) 0 3 ; *                 ",
"+ : u C =.7.n.m.8.8.8.e.8.8.8.8.8.e.m.m.e.m.m.e.7.O.v y k Q P.;X1X1X1X1X1X1X1X1X&XD.K , O O # ; 3 7 0 0 7 1 > & *               ",
"+ : u C @.7.n.n.m.e.8.8.e.8.e.8.e.8.8.8.e.e.m.n.6.O.v y k Q P.;X1X1X1X1X1X1X1X1X&XD.K w + O # $ < 3 4 4 1 ; : : :               ",
"+ : u M @.6.e.n.8.8.8.8.8.e.e.8.e.8.8.8.e.e.e.e.7.&.v d z ! K.;X1X1X1X1X1X1X1X<X%XS.H , O # % $ ; ; ; ; ; , : -                 ",
"+ : p B @.7.n.n.m.8.e.8.8.8.8.8.8.8.e.e.8.e.n.e.7.-.A b x W H. X*X>X<X1X<X<X:X&XI.%.G > # % 2 2 < > - : * : - :                 ",
"+ : u B =.7.m.m.m.8.8.m.m.8.8.8.8.e.8.8.e.8.e.e.7.2.O. .I #.a.D.I.-X;X<X,X*X~.H.S.K k > 2 5 7 8 4 < : * * * :                   ",
"o : u C =.7.n.m.m.m.8.e.8.8.8.8.8.8.e.8.8.e.e.e.7.7.2.,.-.+.I E %.K.&X>X;X XD.T G k r > 3 q / / 9 3 ; - =                       ",
"& : u M +.4.7.8.7.7.8.8.8.8.8.8.e.8.8.e.8.e.8.8.8.8.7.7.<...v z G S.%X;X*XL.Q G , @ @ > 6 ^ _ ` / 6 < * *                       ",
"& - e f Z @.-.>.-.-.,.4.7.8.m.n.e.e.e.8.e.8.e.8.e.e.e.e.2.o.g w G s. X:X*XL.Y - . . + > 6 ( ' ' ( 6 < & =                       ",
"- - w u c C D D D Z ..;.6.n.m.m.m.e.e.e.e.8.e.e.e.e.e.7.<.} d t h s. X>X*XL.Y , . . + < 6 ( ' ] ( 7 < : =                       ",
"- : : e y d d p a s C X.4.7.m.m.e.e.e.e.8.e.e.e.e.7.7.4.*.A g w G Q  X>X*XL.Y , O . + ; 6 ( ' ' ( 7 < : =                       ",
"- : : : : , : : : e f { ;.4.7.6.6.6.7.7.e.e.e.7.7.7.4.<.=.S c u x s.Y.*X-XH.T h $ O $ > 4 ^ _ _ ^ 6 < * =                       ",
": - - - & + + o o : a C  .@.@.@.@.@.,.5.7.8.e.7.7.5.<.,.=. .v c J $.H.U.L.S.W f u t t > 3 9 ^ / 9 3 > : =                       ",
"                    u c M M M M B Z +.,.7.e.7.5.<.<.,.,.-.O.| Z I U ! s.%.$.U D m a e : 2 3 6 7 4 2 ; * &                       ",
"                      y u u u e p f A -.6.7.7.4.,.,.,.>.-.-.&.O...I J J N I { ..Z c y ; : < < 2 > ; : : :                       ",
"                      : : : : > e s Z *.5.8.6.<.<.>.,.>.,.,.,.-.O.Z c p a M S ..S m y : - - : : : : - -                         ",
"                      + + : w y s B ..>.9.7.9.4.<.<.<.<.<.<.<.,.O.} v g c b C Z M s e : & & * = & - - :                         ",
"                      o & : y n } X.-.4.6.7.7.9.5.5.5.5.5.<.<.,.>.O.} Z C v b f a y > - & &                                     ",
"                      + - e f S -.5.8.8.8.n.8.8.8.8.8.8.7.9.2.,.>.-.-.O. .B s e t , : : &                                       ",
"                      o # y m :.0.M.N.N.M.M.M.M.u.M.N.u.u.i.y.0.3.3.1.;...C p : - & - - :                                       ",
"                      o # i V :.l.C.A.A.C.C.V.C.C.C.C.C.V.V.j.h.r.0.0.,.X.B a : & + & -                                         ",
"                      X # i D d.Z._.}._._._._._._._._._.^.^.T.b.z.h.0.1...M d : & o                                             ",
"                      X % i P g./.oX#X#XoXoX|.oX|.|.OXOXoX[.`.E.T.j.r.,...M d , & +                                             ",
"                      X @ j P f.'.@X$X@X@X@X+X@X+X@X@X@X+XXX].Q.T.x.r.1.X.M u : @                                               ",
"                      X # i P f.'.@X$X$X@X@X@X@X@X@X@X@X+XXX].Q.T.x.r.1...v u $ +                                               ",
"                      X - j P f.'.@X$X@X+X+X@X+X+X@X@X+XOX.X].Q.T.x.r.1...v p : +                                               ",
"                      X # j P g.`.+X@X@X+X+X+X+X+X+X@X+XOX.X].Q.T.z.r.1...B s e : :                                             ",
"                      X & i P f.`.@X$X@X+X+X+X+X+X+X+X+X+XXX].Q.T.z.r.;.@.S M f s u                                             ",
"                  : + X + h P f.'.@X$X$X+X+X+X+X+X+X@X@X+XXX].!.T.z.h.1.=.X...{ C c u - o & -                                   ",
"                - - # + - i P f.'.+X@X@X+X+X+X+X+X+X+X+XOXXX].Q.T.j.r.1.>.>.<.;.X.M p : o + - - :                               ",
"                : $ # : > l P j.).oX+XOXOX+XOXOXOXOXOXoX{.[./.E.b.j.q.1.<.4.5.5.-.S f e , : : : -                               ",
"              & - : w e s V :.h.Z.(.}.}..X.X.X.X.X[.[.(.^.^.b.b.j.h.q.3.,.4.7.7.<.+.Z n a w , : &                               ",
"              & & > u c A @.3.r.l.Z.^.`.'.].].].'./.^.Z.V.l.k.h.t.q.1.,.,.<.4.4.<.,.@. .B s w : &                               ",
"                & w a C @.<.w.y.u.k.v.R.E.Q.!.Q.E.W.V.k.u.y.0.4.1.;.,.;.>.>.,.<.<.4.<.>. .m e : &                               ",
"                & w s S ,.9.8.8.7.y.k.v.R.E.E.E.T.v.k.u.8.6.5.,.3.;.,.>.-.*.@.@.=.>.,.>.{ m e : &                               ",
"              o + w s S >.7.8.7.6.7.i.l.c.v.b.v.v.l.k.y.8.9.5.5.<.<.>.>.=.X.{ Z S {  . .C s w : &                               ",
"              + & , s Z =.4.6.5.4.4.y.i.k.B.k.N.k.N.u.m.e.8.7.9.4.4.2.;.O.{ M s s n n n a u > : &                               ",
"                - > a B X.>.,.,.,.,.2.w.7.y.y.y.y.y.8.7.8.8.8.8.7.6.2.;.X.C s e w > w w w : : - -                               ",
"                & t p M } ..X...X.X.@.=.>.,.,.>.>.,.>.,.,.<.9.7.8.7.4.;...M p , & & & - - - : : :                               ",
"                  , p f M M C M M B C Z A A S S A A A S  .@.<.8.e.8.4.>...V u $ o o o + & & -                                   ",
"                      p u p p p a p s s s s s s s s s s m S =.6.8.8.6.>...C d > & o                                             ",
"                      : t > w : w , > w t w w , t t : > y M ..1.6.7.2.;.X.B p : & +                                             ",
"                        & & - - & & & & & & & & & & o + w s Z X.*.<.,.;.X.B a > -                                               ",
"                            &                           : p m C S ..=.-.X.C p , &                                               ",
"                                                            u p f D X.*.X.C s : &                                               ",
"                                                            : : y c S X. .M p : &                                               ",
"                                                              # t s M Z C c p : -                                               ",
"                                                                  u f f s u w : -                                               ",
"                                                                    e e e w : : :                                               ",
"                                                                    : : - - : : :                                               ",
"                                                                    & & & - - - -                                               "
};
