/* XPM */
static char *_5_resized[] = {
/* columns rows colors chars-per-pixel */
"64 73 209 2 ",
"   c None",
".  c #262E19",
"X  c #2A2E1D",
"o  c #222B15",
"O  c #263119",
"+  c #2C321E",
"@  c #29341A",
"#  c #33361E",
"$  c #35391D",
"%  c #2F3520",
"&  c #2C3820",
"*  c #313620",
"=  c #333921",
"-  c #3A3A23",
";  c #3A3D27",
":  c #433923",
">  c #4B3924",
",  c #483723",
"<  c #533924",
"1  c #5B3A25",
"2  c #553621",
"3  c #633A26",
"4  c #6A3B27",
"5  c #733B28",
"6  c #7C3B29",
"7  c #44351F",
"8  c #39421F",
"9  c #3C4425",
"0  c #3F4825",
"q  c #3D432A",
"w  c #374022",
"e  c #3F4430",
"r  c #414B26",
"t  c #434D28",
"y  c #42462A",
"u  c #4D5B26",
"i  c #465129",
"p  c #4A552B",
"a  c #4E5A2B",
"s  c #475226",
"d  c #515E2D",
"f  c #424631",
"g  c #454B35",
"h  c #4A4C35",
"j  c #4C513E",
"k  c #4C5436",
"l  c #55543A",
"z  c #58593A",
"x  c #504F35",
"c  c #54612E",
"v  c #5B6B2D",
"b  c #59672D",
"n  c #566331",
"m  c #586531",
"M  c #5C6A32",
"N  c #5D683E",
"B  c #5F7032",
"V  c #616E36",
"C  c #637334",
"Z  c #677835",
"A  c #697B36",
"S  c #6C7D39",
"D  c #667539",
"F  c #4E5340",
"G  c #555A48",
"H  c #535944",
"J  c #615A42",
"K  c #5C6348",
"L  c #5F6352",
"P  c #676946",
"I  c #736B4B",
"U  c #6D7C41",
"Y  c #6A7547",
"T  c #777948",
"R  c #676B5D",
"E  c #6C725B",
"W  c #727B59",
"Q  c #7B6F52",
"!  c #6D7162",
"~  c #74776C",
"^  c #747968",
"/  c #7B7F71",
"(  c #6B6F61",
")  c #833C2A",
"_  c #8A3C2B",
"`  c #933D2C",
"'  c #9C3D2D",
"]  c #A43D2E",
"[  c #AB3E2E",
"{  c #B33E2F",
"}  c #BA3F30",
"|  c #847758",
" . c #6D8235",
".. c #6E8139",
"X. c #72853B",
"o. c #758A3B",
"O. c #798D3D",
"+. c #708536",
"@. c #7D933E",
"#. c #7D953D",
"$. c #7B8B42",
"%. c #788546",
"&. c #7F9440",
"*. c #768156",
"=. c #7B8365",
"-. c #7E8173",
";. c #80973F",
":. c #828C48",
">. c #809641",
",. c #859C42",
"<. c #8B9A4A",
"1. c #8C8857",
"2. c #91865D",
"3. c #8E9352",
"4. c #969C55",
"5. c #8BA344",
"6. c #8FA946",
"7. c #8EA349",
"8. c #87A042",
"9. c #91AB47",
"0. c #92A44C",
"q. c #94AE49",
"w. c #94B147",
"e. c #96B249",
"r. c #99B54B",
"t. c #9EBB4C",
"y. c #9AA754",
"u. c #9FB550",
"i. c #A0BE4E",
"p. c #A3AC5A",
"a. c #A2A45D",
"s. c #A2BA52",
"d. c #ACBB5C",
"f. c #A7B559",
"g. c #968762",
"h. c #83867B",
"j. c #848877",
"k. c #8B9279",
"l. c #A59869",
"z. c #AA9570",
"x. c #ABAA64",
"c. c #A8A763",
"v. c #B3AB6D",
"b. c #B5BA67",
"n. c #BCAE74",
"m. c #BCA37B",
"M. c #B6AB70",
"N. c #BFB972",
"B. c #BCB572",
"V. c #AEB362",
"C. c #C1BB73",
"Z. c #C6B67C",
"A. c #C0A77F",
"S. c #A3C14F",
"D. c #A6C450",
"F. c #BDC36B",
"G. c #C8C476",
"H. c #D2C97E",
"J. c #969A8B",
"K. c #9C9F94",
"L. c #9DA094",
"P. c #A2A59C",
"I. c #A8AB9D",
"U. c #AAACA4",
"Y. c #AAACA5",
"T. c #B2B4AC",
"R. c #B5B8AF",
"E. c #BABBB5",
"W. c #B7B8B2",
"Q. c #AEB1A8",
"!. c #CCB484",
"~. c #D3B58B",
"^. c #D6BA8B",
"/. c #D2BB86",
"(. c #DCBA92",
"). c #C5AA81",
"_. c #E2BF95",
"`. c #DCC48B",
"'. c #DEC98B",
"]. c #D6C584",
"[. c #E1CC8D",
"{. c #E3C295",
"}. c #EAC49B",
"|. c #EDC99C",
" X c #E8C896",
".X c #F1CC9F",
"XX c #F4D29E",
"oX c #EBD195",
"OX c #C3C4BF",
"+X c #F4CCA2",
"@X c #F6D2A1",
"#X c #FBD4A5",
"$X c #FFD7A9",
"%X c #FFD9AA",
"&X c #FFDFB0",
"*X c #FFE1B2",
"=X c #C6C8C1",
"-X c #D5D6D2",
";X c #DDDEDA",
":X c #D8D9D5",
">X c #D3D4CF",
",X c #E0E1DE",
"<X c #E4E4E2",
"1X c #E9E9E7",
"2X c #ECEDEB",
"3X c #F3F4F2",
"4X c #FEFEFE",
"5X c #F8F8F7",
"6X c #EFF0EE",
/* pixels */
"        + + + + + + % + + X + + % + + + + + % + + + X + % + + + + + % % + % % + % % +                                           ",
"        * * * * * * = * * * * * = * % * * * * * * * * * = % % * * * * = * * * * = * *                                           ",
"        0 0 0 0 q y 0 0 0 y q 0 0 9 9 q 0 0 q 0 q 0 q 0 0 0 9 q q 0 q w 9 9 q 9 0 w w                                           ",
"      t p a d d d d d d d d d d d d n n d d d d d d d d d d c n d d a a p a a p a p p t                                         ",
"+ = q p M D A ....S ......S ..S ......S ..S ..S S S ..S ..S ....S A Z Z C C C C C M c i w * + + % % % % *                       ",
"+ * 0 d D O.,.5.5.5.,.8.,.5.,.5.,.,.,.5.8.8.,.8.,.5.,.8.,.8.,.,.,.>.@.@.O.O.O.O.X.A M p w = % + % * * * * = =                   ",
"+ * 0 d A ,.e.r.r.r.r.r.r.r.r.r.r.r.r.r.r.r.r.r.r.r.r.r.r.r.r.r.e.6.5.;.;.;.>.;.@. .M p 9 = & = = ; = = = = = =                 ",
"X = 0 d ..5.t.S.D.i.t.r.r.r.r.u.r.t.r.r.t.i.i.i.D.s.D.i.D.i.i.t.e.6.;.@.X.+.X.X. .C c r - = w 0 t t t 0 = = = %                 ",
"% = 9 n ..6.t.D.D.r.r.e.e.r.e.r.r.e.e.r.r.s.D.D.D.D.S.S.S.S.t.r.q.;.O.Z v v v v b u s 8 $ $ 0 p n m a i ; = * * &               ",
"X & 9 n ..6.t.i.r.r.9.7.6.6.7.6.6.6.6.9.e.r.t.D.S.S.S.S.t.t.r.e.5.o.Z c s s s s s 8 8 $ $ = s v Z A M a y = % + & % %           ",
"% % 0 d S ,.r.r.r.6.6.5.5.5.5.5.5.5.5.5.6.e.r.r.t.t.i.t.r.r.6.5.@.S v a y q q q q q w w q t n D o.X.Z c r = # # = = - =         ",
"% * 0 p C $.,.6.6.6.5.6.5.5.5.5.5.6.5.5.5.5.5.5.6.e.r.r.r.9.8.@.o.S P K G G G G G G G G G K Y X.o.X.C c 0 - - $ : > > >         ",
"% = ; t c B ..O.>.5.6.6.9.9.9.6.9.9.9.6.,.&.o.X.&.8.9.r.w.8.O...U Y W -.-.h.h.h.h.h.h.h.h.j.=.*.U C c s 9 - : > 1 4 3 3 <       ",
"% * = 9 t p m Z O.,.9.r.r.r.e.r.r.r.e.6.,...C M C O.5.r.6.#.A v N E k.P.T.E.E.E.W.E.E.E.R.I.k.=.K d 0 0 - - > 3 6 ) ) 5 1 : = & ",
"= = = = = 0 i m ..>.e.r.t.t.r.r.t.t.r.9.&.D n p n ..,.9.6.o.B a H ^ K.=X;X1X1X<X<X<X1X1X,XOXI.=.H 0 8 @ * - 2 5 ` ] ' 6 3 - & & ",
"= = = = ; q i M ..8.e.t.D.S.t.S.i.D.i.r.&.Z n p n S ,.r.5.+.c 0 l ~ I.:X5X4X4X4X4X4X4X4X5X;XQ.=.j w @ O * - 1 6 ] { ] ) 3 : = & ",
"* = = 9 r p n Z $.5.r.i.S.i.i.i.i.S.i.r.8.$.B M Z O.5.e.5. .d 0 F ~ Q.;X4X4X4X4X4X4X4X4X4X<XQ.-.F = O O + - 3 ) [ } [ _ 3 : = & ",
"+ = ; t d B ..&.5.e.r.i.S.i.i.i.i.i.i.r.6.&.o.$.$.8.q.e.5. .d 0 F ~ Y.;X4X4X4X4X4X4X4X4X4X<XQ.-.F & . O + : 1 _ [ } [ _ 3 : = @ ",
"+ * 9 p C O.,.9.e.r.t.i.i.i.t.t.i.i.t.t.e.9.6.5.9.w.r.r.5. .u 0 F ~ U.;X5X4X4X4X4X4X4X4X4X;XQ.-.F = O O + - 1 ) ] { [ _ 3 : = & ",
"+ = 0 d A >.r.t.i.i.t.t.t.i.t.i.i.t.i.t.t.t.t.r.t.i.i.t.8. .d 0 j ~ U.:X5X4X4X4X4X4X4X4X4X:XQ.-.F = O O # - 1 6 ' [ ' ) 1 - & & ",
"% = 9 c ..5.r.D.D.i.i.i.i.t.t.i.t.i.t.i.i.i.i.i.S.D.i.r.8. .d 0 j ~ Y.:X4X4X4X4X4X4X4X4X4X,XQ.-.F ; . O + - > 4 ) ` _ 5 < - = % ",
"+ % 0 c ..6.r.D.D.i.i.t.t.t.i.t.t.t.t.t.i.i.S.S.S.D.S.t.5...u 0 j ~ Y.;X4X4X4X4X4X4X4X4X4X,XT.-.H = @ O @ = : 2 4 5 4 2 > - = & ",
"+ % 9 n ..5.r.D.D.i.i.t.t.i.i.t.i.t.t.i.i.i.i.i.S.S.S.r.5. .u 0 j ~ Y.;X4X4X4X4X4X4X4X4X4X,XT.-.F = @ @ + = - : > < > , - = * = ",
"+ * q n S ,.r.D.i.i.t.i.t.t.t.i.i.t.i.t.t.t.t.i.i.S.i.r.5. .c 0 j ~ Y.-X3X4X4X4X4X4X4X4X3X:XY.~ F = + + = - - - - - - - - = = * ",
"+ * 0 d ..8.r.D.D.i.i.r.i.i.t.t.t.t.t.i.i.t.i.r.i.i.i.i.9.O.B c K W J.E.>X1X3X5X4X5X3X2X-XE.J.( h - # $ , , , - - * % % = = = * ",
"+ * 0 d ..5.i.D.D.D.i.D.i.i.i.t.t.i.i.t.t.i.t.i.i.i.i.r.e.&.o...U W k.J.I.OX;X2X3X6X:X=XU.J.~ L f : 7 2 3 4 3 < : * & & & & = = ",
"% * q n ..5.t.D.D.D.D.i.i.i.i.t.t.i.t.t.i.t.t.i.i.i.i.i.r.9.5.&.$.%.W ^ -.K.OX,X6X<X=XL.-.R H e ; : 2 4 ) _ 6 3 , = % & &       ",
"+ * 0 d ..,.r.i.i.i.i.r.t.t.t.t.t.t.t.i.t.t.i.t.r.i.i.i.t.t.r.q.5.X.B z K -.Q.:X2X:XR.j.K g w = = : 3 ) ' ] ` 5 < - * &         ",
"+ * 0 a D $.5.9.6.6.6.9.e.r.t.i.i.i.i.t.i.i.t.i.i.i.r.i.i.i.i.r.6.+.b r g ! P.-X1X:XU.^ h + O O * : 3 _ [ { ] 6 1 - & &         ",
"% * w i n Z ..O.o.$.$.&.8.q.t.i.S.S.S.i.i.i.i.t.i.i.i.i.i.i.i.r.5. .u 8 e R P.-X6X:XU.! e @ o O * : 4 ` { } ] ) 1 - & &         ",
"* * ; 0 p c m M M M M A $.5.r.i.D.D.D.S.i.i.i.i.t.i.r.i.i.i.r.q.8. .u 8 e R P.-X6X:XU.^ g @ . . * : 4 ` { } ] ) 1 - & &         ",
"* * = ; 9 0 t t 0 t i n ..&.w.i.S.i.i.t.i.t.i.t.i.i.i.i.r.r.e.6.#.Z a 0 g ( P.>X1X-XP.^ h + O O * : 4 _ [ { ] 6 2 - & &         ",
"= * = = = = = * * * w p M O.5.e.e.w.w.w.r.r.t.t.t.t.t.t.r.r.6.8.#.Z b s p E K.OX-X=XK.( g % @ % % : 3 ) ] ] ` 5 < - = &         ",
"= = * * * % % % + + = t m A O.&.&.&.&.#.8.5.r.r.t.t.r.w.w.w.5.8.#. .B u n E k.I.T.P.h.L e % @ @ * - < 4 ) _ ) 3 > - & %         ",
"                      0 a M B C B B B Z  .#.6.r.r.w.w.6.5.5.5.8.#.o. .Z N Y *.j.J.~ R F q * % @ * - > 1 4 4 3 < : - * %         ",
"                        t i p p p i s d B O.5.r.t.r.9.6.5.8.5.8.;.;.#.o.X.%.Y Y K H j e ; & % = * = : : > > > : - = * *         ",
"                          ; w ; w q 0 x V $.0.u.i.f.r.0.7.7.7.7.0.5.5.<.&.%.N n t q ; ; = * * * = = = - - - = - * = = =         ",
"                          % % = q f x P T 3.p.d.D.D.d.p.p.p.p.p.p.p.p.p.y.$.U M s 9 w = = = * * * * & = % % % = = = *           ",
"                          o + ; h J Q | l.v.C.G.G.G.C.C.N.N.N.N.N.N.N.b.c.4.%.S m u r 9 ; = * * = = % & & & & & % =             ",
"                          o + : z | z.).!.`.'.[.[.[.'.`.`.'.'.`.'././.Z.A.v.4.:.+.B u r = * * *                                 ",
"                          # - x I z.~.{.+X#X@XXX@X@X@X@X@X@X+X@X|. X{.^.Z.n.c.<.>.S b i 9 * %                                   ",
"                        y h l P | m._.#X%X%X%X%X$X%X$X$X$X#X$X#XXX|._.^.A.M.a.3.O.A b i w *                                     ",
"                      x J I Q g.m.~..X$X&X*X%X%X%X%X%X%X$X$X#X+X|.{./.Z.v.a.3.%.S v d i 9                                       ",
"                    ; l I 2.z.A.~._.#X$X%X%X%X%X%X%X%X$X$X#X+X}.{./.Z.v.a.3.T V d a t r                                         ",
"                  # - l Q z.!.}.XXXX$X$X%X%X$X$X$X%X$X$X#X+X}._./.Z.v.p.<.$.C d t 9 w                                           ",
"                . X ; z | m.{.$X%X%X$X$X%X$X$X$X$X$X%X$X#X+X}._.!.C.x.y.,.X.C c t y w                                           ",
"              % . X 7 z | ).|.%X*X&X%X%X$X$X$X$X$X%X$X$X#X+X}.(.~.n.c.0.,.o.A v c a i                                           ",
"            * @ . X $ z | I.|.%X*X&X%X$X%X%X$X$X$X%X$X$X#X+X}.(.!.n.c.0.,.;.O.+...D m i ; + X + *                               ",
"          = * + @ @ ; z | A.|.$X&X%X%X%X%X$X#X$X$X%X%X#X#X+X}.(.!.n.c.y.5.8.5.5.,.O.D a q * % % * = *                           ",
"        * = = = + = y z | A.{.XX%X%X$X#X$XXX#X#X#X#X#X#X|.|.{.^.!.M.a.0.5.5.9.e.9.8...c t w = = = = =                           ",
"        * * = = 9 t d Y 1.M.].oXXXXX@X+XXX#X#X#XXXXXoXoX[.`./.Z.n.v.y.0.5.6.w.r.r.6.&.D n i 0 w = = *                           ",
"        % = w 0 p c A $.y.V.G.H.'. X|.|..X+X|..XoX[.].H.G.C.B.v.c.y.y.7.8.6.9.e.e.6.,.@...M d t w = %                           ",
"        % % ; r c S ;.5.u.d.d.G.G.].(.{._._.}.{.'.H.G.F.d.d.f.p.y.0.0.<.5.5.6.9.9.9.6.5.,.X.C a r = %                           ",
"        + * q p C O.6.r.r.s.i.d.F.Z./.^.(.(.^./.!.C.b.d.s.r.q.6.0.<.5.8.8.,.,.,.,.5.9.9.7.,.A n t = %                           ",
"        + % ; a D @.w.t.t.t.t.s.d.b.Z.!.~.).A.m.v.x.f.s.r.r.w.6.6.8.8.5.,.,.&.@.O.&.>.5.,.&.D d 0 = %                           ",
"        + % w p D @.w.r.t.r.e.e.f.b.b.B.v.z.g.2.2.4.e.t.t.r.w.9.6.6.5.5.,.@.X.A D A S ....A M i w = *                           ",
"        + * 9 p C O.6.q.w.q.9.e.u.d.d.V.y.1.Q I T :.7.r.i.t.r.r.q.9.6.5.;.o.A M d a d d n d p t ; = *                           ",
"        + * ; i M +.,.8.6.8.5.6.q.t.s.y.<.U n x n S >.e.t.S.t.r.r.e.q.5.,.X.V d r 9 0 0 0 0 w ; = = *                           ",
"          * w i m S O.@.>.@.@.;.8.5.6.8.o.m i 0 t M X.5.w.r.t.t.t.e.w.6.>.+.m s ; * * * * * * * = = =                           ",
"          * w t d M Z A Z Z A A ..X.o...M a 0 = 0 a C X.@.6.e.t.i.t.e.6.,.S m r = % X X % + * * * &                             ",
"              r i d d d d d c c m M v c a r w = ; 0 a m A &.6.r.i.t.e.6.>.S m t = * X X                                         ",
"                y r t r t y r r t i t t 0 w = = = ; 9 i c S >.q.t.t.e.6.>.+.m t w + +                                           ",
"                  = = = = = = = = = w = = = = = * % & w i V o.5.9.e.q.6.>.+.M t = = +                                           ",
"                  + % % * * * * % % % % % = * * % % % = r n A o.,.,.5.<.>.+.M i ; * +                                           ",
"                                                        0 p m C A X.@.,.,.X.M i w * +                                           ",
"                                                          0 t p c D o.@.;.X.M i w = %                                           ",
"                                                            ; w t n Z O.O...M t ; * +                                           ",
"                                                              * w a M A ..C d r = * %                                           ",
"                                                                ; i d M M c i 0 = = %                                           ",
"                                                                  r i p i t 0 w = = *                                           ",
"                                                                    0 w 9 ; ; = = = *                                           ",
"                                                                    * * = = * * = * =                                           ",
"                                                                    + + % % * * = = =                                           "
};
