/* XPM */
static char *__resized[] = {
/* columns rows colors chars-per-pixel */
"64 73 202 2 ",
"   c None",
".  c #2B2F1E",
"X  c #272B1D",
"o  c #2C311E",
"O  c #2F3520",
"+  c #2C3820",
"@  c #313620",
"#  c #3B3621",
"$  c #333921",
"%  c #3A3C23",
"&  c #433622",
"*  c #423A23",
"=  c #4C3924",
"-  c #4D3723",
";  c #5B3724",
":  c #533A25",
">  c #5C3A25",
",  c #543724",
"<  c #643A26",
"1  c #673825",
"2  c #723B28",
"3  c #7C3A29",
"4  c #793926",
"5  c #3B4325",
"6  c #3F4926",
"7  c #414B27",
"8  c #444D29",
"9  c #4B492C",
"0  c #465129",
"q  c #4A562B",
"w  c #4E5A2C",
"e  c #515D2D",
"r  c #5B582C",
"t  c #4E4E33",
"y  c #444935",
"u  c #515236",
"i  c #684A27",
"p  c #6C5028",
"a  c #4E622A",
"s  c #54622E",
"d  c #566530",
"f  c #596631",
"g  c #5C6B31",
"h  c #526238",
"j  c #656B39",
"k  c #647435",
"l  c #667A34",
"z  c #697B37",
"x  c #6B7D38",
"c  c #64753B",
"v  c #666D2E",
"b  c #575B4A",
"n  c #5B5F50",
"m  c #5C664B",
"M  c #6A6C47",
"N  c #766E4D",
"B  c #646A55",
"V  c #7A6F50",
"C  c #6B764E",
"Z  c #6F7665",
"A  c #823B2A",
"S  c #8A3C2A",
"D  c #893626",
"F  c #983C2C",
"G  c #A43D2D",
"H  c #AB3D2E",
"J  c #B33E2F",
"K  c #BB3F30",
"L  c #B63E30",
"P  c #87412A",
"I  c #6E8139",
"U  c #72853A",
"Y  c #758A3B",
"T  c #798E3D",
"R  c #7C923E",
"E  c #798944",
"W  c #7F9540",
"Q  c #74844D",
"!  c #7E876E",
"~  c #849D3E",
"^  c #88A23F",
"/  c #87A03E",
"(  c #809740",
")  c #849C42",
"_  c #899D46",
"`  c #899E4B",
"'  c #8A9B59",
"]  c #96915C",
"[  c #888D4E",
"{  c #87A042",
"}  c #8AA344",
"|  c #8FA945",
" . c #8DA349",
".. c #91AC46",
"X. c #93A44D",
"o. c #94AE49",
"O. c #95B246",
"+. c #96B149",
"@. c #99B54A",
"#. c #9EBB4C",
"$. c #92A652",
"%. c #9BA655",
"&. c #94A955",
"*. c #96AB5A",
"=. c #99AD5C",
"-. c #9BAA52",
";. c #95AA57",
":. c #A0BE4E",
">. c #A4AA5D",
",. c #A4BC53",
"<. c #ABBD5A",
"1. c #A5B856",
"2. c #8E967B",
"3. c #88916F",
"4. c #A4946A",
"5. c #AC9672",
"6. c #9BAD67",
"7. c #9DB163",
"8. c #9FAD7A",
"9. c #ACAB65",
"0. c #AFAC68",
"q. c #B2AD6A",
"w. c #A5B569",
"e. c #B3BD63",
"r. c #BBBD6B",
"t. c #B6B868",
"y. c #BBAF73",
"u. c #AABB7A",
"i. c #A9BA77",
"p. c #BDB771",
"a. c #C3B27A",
"s. c #C6B97A",
"d. c #A3C14F",
"f. c #A5C350",
"g. c #AFC15C",
"h. c #A8C055",
"j. c #B1C35D",
"k. c #BDC16B",
"l. c #B2C37F",
"z. c #C5C771",
"x. c #C6C971",
"c. c #CCC779",
"v. c #C1C46F",
"b. c #8A8C84",
"n. c #8D9086",
"m. c #92958A",
"M. c #9B9E95",
"N. c #9EAB83",
"B. c #ACB88B",
"V. c #A0A997",
"C. c #A8A9A3",
"Z. c #B5BBA9",
"A. c #D1BA86",
"S. c #D4B68A",
"D. c #D5B98A",
"F. c #DDBC92",
"G. c #CDB883",
"H. c #E1BD96",
"J. c #B5C489",
"K. c #B6C689",
"L. c #BCCB92",
"P. c #BAC2AA",
"I. c #DBCC87",
"U. c #D9C886",
"Y. c #D0CC95",
"T. c #E3D38C",
"R. c #EBC49D",
"E. c #E8C996",
"W. c #F0CB9E",
"Q. c #EED198",
"!. c #F2D49C",
"~. c #F8D89F",
"^. c #E1CC8D",
"/. c #C1CCA2",
"(. c #C8D4A5",
"). c #C2C3BD",
"_. c #D3DCB9",
"`. c #D2DCB6",
"'. c #CBD4B5",
"]. c #F4CCA2",
"[. c #FCD4A6",
"{. c #FFD6A8",
"}. c #FFD9AB",
"|. c #FAD4A4",
" X c #D8E1BD",
".X c #C5C5C3",
"XX c #C8C9C6",
"oX c #D4D7CB",
"OX c #D6D7D3",
"+X c #CED3C4",
"@X c #DBE3C3",
"#X c #DFE8C3",
"$X c #E9EDDD",
"%X c #E5E7DF",
"&X c #EBF0DF",
"*X c #E9EBE5",
"=X c #ECEDEA",
"-X c #E4E4E3",
";X c #EEF1E3",
":X c #F1F5E8",
">X c #F5F5F5",
",X c #F9FAF9",
/* pixels */
"                                                                                                                                ",
"                                                                                                                                ",
"                                                                                                                                ",
"                                                                                                                                ",
"            . . . . . . o . . . . . . . . . . . . O . . . . O . . . + O O O . . o o o O o O o o o O O O @                       ",
"          O O O O O O O O O O @ O O O O @ O O O O O O O O O O O O O O O O O @ @ O O O O O O O O O @ @ @ @ $ $                   ",
"        5 % 5 5 5 % 5 5 5 5 5 % 5 5 5 5 5 % % 5 % 5 5 5 5 5 % 5 % 5 5 $ 5 % % % $ 5 5 % % 5 5 % % % $ $ $ @ $ $                 ",
"        0 q q q q q q q q w q q q q q w q q q q q q q q q q q q q 0 0 0 0 0 0 0 0 0 8 0 0 8 0 8 0 8 6 5 5 O O O                 ",
"    5 q f g k k l c k k l c k k k k k l k c k k k k k k k k k k c k g g f g f f g f g f g g g g f d w 8 5 $ O O +               ",
"O @ 6 w k U W ( ( ( ( ( ( ( ( ( ( ( ( ( ( ( W ~ ( ( ( ( ( ( ( ~ W T Y U I I I I I I I I I I I U I l g q 6 $ O O O O O           ",
". @ 6 e z ( o.@.@.@.+.o.+.o.+.+.o.+.o.+.+.o.+.+.+.+.o.o.+.+.o.o.o.} { ) ( ~ W ~ ( ~ ~ W R ~ ( ~ W Y l e 6 $ @ @ $ $ $ %         ",
"O @ 5 d U { @.d.d.#.@.#.#.@.#.#.#.@.#.#.#.:.:.:.:.:.:.:.:.:.:.:.@.+...} { _ { } _ { { _ { } } } { ( z f 8 % # # * = = =         ",
". $ 6 s U } :.f.d.#.@.@.+.@.+.@.@.@.@.@.#.:.d.f.f.f.f.d.:.:.:.@.@.....^ ^ } } } } } } } ^ ^ } | { ( I f 8 % # - > < < < :       ",
". @ 6 s U  .#.f.:.@.o.........o.......o.+.#.:.d.f.f.d.:.:.@.O.o...| } { ^ ^ { } } | } { ^ ^ } } } ( z f 8 % - < 3 P A 3 > * @ + ",
". $ 5 s I { @.#.@...X.} } } } } } } } X...+.@.#.:.:.:.:.#.O.o...{ { } { { { { _ { _ { { { { } | { T I s 7 * , 4 F G P S > * @ + ",
"O $ 5 w k W } o...| | } } } } } } } } } | } ..o.+.+.#.#.@.o...}  . .&.&.&.$.` _ ( ) ` $.&.*.-.X.} W I s 7 % ; 3 F J G A < * O + ",
". $ 5 0 f x E W ) {  .| | | | | | ..| } { W W W ( } o.#.@.+.} }  .*.7.l.l.6.' E U E ' 8.i.J.w.7. .W l a 7 * > A H K H P < * @ o ",
"@ $ $ 6 8 e g z W ) o.+.o.@.+.+.+.@.+.| ) Y c k x T  .@.@.+...} $.7.J./.P.B.2.C c Q 3.N.P.L.L.g.&.W I a 7 * > A H K J S < * $ o ",
"@ $ $ % 5 5 w g I ) o.#.#.@.@.@.@.#.@.o.W z s w f x ) +.#.O.^ ..&.l./. X@XP.n.B h m 2.P.@X@X(.l.*.W k a 6 * ; A G J H S > * $ o ",
"@ @ $ $ % 5 8 f I ) @.#.,.#.d.#.,.:.#.+.( l e q d z ) +.@.O.^ o.&.J. X$X-X).m.n u n b.P.%X$X XL.=.W k a 6 % , 4 F H F A > 5 $ + ",
"O $ $ % 5 0 w k T { @.#.d.:.:.#.#.f.#.@.) I g f g U { +.#.O...} *.K.@X;X=X.Xb.n 6 n b..X*X:X@XL.7.W l a 6 $ - 1 D P S 2 : # $ o ",
"O O 5 6 q g l Y ( o.@.f.d.d.:.d.f.:.,.@. .W U z U R ..@.@.O.^ | *.K.@X;X=X.Xb.n y n b..X=X:X#XL.7.W I a 6 $ # : 1 2 1 > = % $ $ ",
"O @ 5 q g I W  .+.@.#.:.#.:.:.#.#.#.#.#.@.| { ) ~ ..@.#.#.^ ^ ..*.J. X;X=X.Xb.n 6 b b.).*X;X@XL.7.W I a 6 $ $ & : : : * % $ $ o ",
"O $ 6 e z ( +.@.#.#.#.#.:.#.:.#.d.#.#.#.#.@.@.@.@.#.#.d.d.^ ^ } *.J. X$X=X.XM.B b B n..X*X;X XK.*.W l a 7 5 $ # # % # % $ $ $ $ ",
". @ 6 d x { #.:.f.:.#.:.:.#.:.:.#.#.f.#.#.:.:.#.:.:.:.#.#.^ ^ | *.K. X$X=XOXC.! Z ! C.XX=X=X+XJ.' Y v r 9 = = # # $ + + 5 $ + $ ",
". @ 6 e U } ,.f.f.:.:.#.#.:.#.#.#.#.#.#.#.f.f.d.f.:.:.#.#.O.^ O.*.K. X;X>X-X.XC.M.C..X-X>X*X'.N.E v p i i 2 > = % o + + o + $ $ ",
"O @ 6 e x } #.d.f.:.#.:.#.#.#.:.#.#.#.#.:.:.#.f.:.:.:.:.@.^ | } *.J.`.&X,X>X-XOXXXOX-X>X,X*XP.n.C r i p S F 3 < = # o o +       ",
". @ 6 e U { @.:.d.:.:.#.:.#.:.#.#.#.#.f.#.:.#.:.:.:.:.#.@.O.^ } *.J.'.$X>X,X>X=X=X=X>X,X>XOXZ.! b 9 > A F G F 2 : % $ o         ",
". $ 5 h x _ @.d.d.d.#.:.#.:.#.:.f.#.#.#.#.:.#.#.:.:.:.#.@.O.| } *.u./.@X*X=X:X;X;X:X:X:X*X+XV.Z u * 1 D H J P A > % + +         ",
"O @ 6 s U } #.f.f.d.d.d.d.d.:.d.#.f.d.:.d.:.:.:.#.:.:.:.@...| } &.7.J.(._.@X@X@X@X@X#X@X_.L.m.C y * ; D H K J A > % + +         ",
". $ 6 s x { :.f.f.f.d.d.d.d.d.d.f.f.f.f.d.d.#.#.:.:.:.#.#.O.| }  .*.w.B.J.L.L.L.L.L.L.L.J.8.! h y & 1 D J K G A > % + +         ",
". @ 6 e U _ @.d.d.d.#.:.#.#.:.:.#.#.#.#.#.#.#.:.#.:.:.#.@.O.| } } $.&.*.6.7.6.7.7.7.7.7.6.' Q h 5 & 1 D H J G 3 > # + +         ",
"O $ 5 w l W | @.@.+.o.o.+.o.+.+.o.o.o.+.+.#.#.#.:.#.#.#.@.+.| } } { {  . .}  . .} } X.| { W l w 6 * ; A F H P 3 : % + +         ",
"O $ 5 q g z W W W W W W W W W W W W W W { | O.#.#.#.@.@.o.o.} } { { ) ~ ~ ~ ~ ~ ~ ~ ^ ^ ~ T l w 6 % ; 1 A S S 1 = % O +         ",
"O + % 6 q f k k k k k k k k c k k g c l U W ..@.#.#.+.o...} } { ) ) ) ) ~ ~ ~ ~ ~ / ^ ^ ~ T l a 5 # & ; 1 2 < : & # @ O         ",
"@ @ $ 5 6 0 0 q q q q q q q q q 0 0 0 w k W | @.#.+.o...} { } { { { { { ) / ) ~ _ ^ } { ) T k w 7 $ # & = = = * % $ @ @         ",
"@ $ $ $ $ % 5 % 5 % 5 % % % % % 5 5 5 0 g U { @.#.@...} } } { { { { { { { { { { { { { _ ( Y k w 5 $ O @ % # % $ @ $ $ $         ",
"@ @ $ @ @ @ O O O O O O O O + $ + 6 0 w l T | O.@.@.o.| } | | } | } } { { { { { ) ) ) W Y l g q 5 $ O O O O + O $ $ @           ",
"$ $ @ @ O o . . . . . + . O O % 6 q s k U W O.O.#.@.O.| | | | ..| | } / _ { } { ) ( Y I k f q 7 5 $ @ O + + + O O $             ",
"                        . . + 5 q g I T ^ ..O.@.@.@.@.O.O.+.+.+.+.| | } { { { } ) R I g e 0 6 5 $ $ @ O                         ",
"                          o $ 7 a I ) +.#.#.:.#.:.:.:.:.:.:.#.#.@.@... .} } } } _ T k e 7 5 @ $ $ @ @                           ",
"                          o $ 8 g E -.h.k.g.g.g.g.g.<.j.<.<.j.j.g.1.-.%.X.X.X.} ) U k q 6 o o @ @ $ $                           ",
"                          o $ 8 j ] 9.v.x.x.x.x.x.x.x.x.c.x.x.z.k.r.t.0.>.%.$.X.) U g 0 % o o o @ $                             ",
"                          o % 8 M ] s.I.T.T.T.I.I.I.I.I.I.I.I.T.U.U.s.s.y.9.>.X._ U k 0 5 $ o o                                 ",
"                          o $ t N 4.G.W.~.~.~.~.W.!.!.Q.!.!.!.!.Q.E.^.S.G.y.9.%._ U g q 5 o o                                   ",
"                          . $ t N 5.F.[.}.}.}.~.{.{.[.}.}.}.[.[.|.W.R.H.S.y.q.%._ U g q 5 $ o                                   ",
"                          o $ u V 5.Y.{.}.}.}.}.}.{.}.}.}.}.}.}.[.].].H.S.a.q.%._ U g q 5 o o .                                 ",
"                          X $ t V 5.E.}.}.}.}.}.}.}.}.}.}.[.}.}.[.].R.H.S.a.q.%._ U g 0 $ o o . . O O O @ $                     ",
"                          . @ t V 5.F.|.}.}.}.}.}.}.}.}.}.}.}.}.[.].R.H.S.a.q.%.) Y g q 5 O O o O O O @ $ $ @                   ",
"                          o % t V 5.F.|.}.}.}.}.}.}.}.}.[.}.[.[.[.].R.F.S.a.q.%.{ Y k w 6 5 % % 5 5 % % $ @ $                   ",
"                          X $ t V 5.F.[.}.}.}.}.[.}.}.[.}.}.}.}.[.].R.E.S.a.9.%._ R I g s q w w w 0 8 6 % $ @ @                 ",
"                          . % t V 5.F.[.}.}.}.}.}.[.}.}.[.}.}.[.{.].R.H.S.a.q.%.{ R T U z z l x z k f 0 6 $ O O                 ",
"                          . $ t V 5.F.[.}.}.}.}.[.}.}.}.}.}.}.}.{.].R.H.S.y.0.%. ._ ~ ) ) ) ) _ ) R z d 6 % O                   ",
"                          o 5 t N 4.F.].}.}.}.[.[.[.[.[.[.[.[.|.].W.E.H.S.a.9.] } } | | o.+.+.@.o.) I f 0 $ O                   ",
"                          X @ t M 4.G.T.|.|.|.|.|.[.[.].|.~.!.!.E.^.F.G.a.q.>.%.} } | O.@.@.@.o.| W I f 8 $ O                   ",
"                          o @ 0 M ] p.U.T.Q.E.R.W.W.W.W.E.E.^.U.c.c.s.y.0.9.%.$.{ | | @.@.+..._ W z g q 6 $ + O                 ",
"                          o % 0 g [ 9.k.c.U.^.R.H.R.H.E.E.U.c.z.k.t.9.>.>.%.X._ } } ..o.o.} ( U k d q 7 5 $ @ O                 ",
"                          o $ 6 f Y X.g.k.c.A.F.H.H.F.F.S.s.r.<.1.1.@.o.X. ._ } { { } } { ( x g 0 6 % $ $ $ @                   ",
"                          O $ 8 d U  .:.e.r.G.A.S.S.S.A.s.p.e.,.#.+...| } } } } { ) ) ( R U g q 6 @ O O @ @ $                   ",
"                          O $ 6 d U } @.h.e.r.p.s.s.s.s.r.r.<.,.#.#.O.| ..} } } _ ) R U x k e 7 % O O O @ $                     ",
"                          O @ 7 d U } #.,.g.e.t.r.t.r.t.k.h.h.f.#.#.#.+.o.....} { R U k f q 8 5 $ O O O @                       ",
"                          o $ 7 f U } #.f.h.,.<.<.<.<.<.<.,.,.#.#.#.@.@.@.+.+.} ) E l f 0 6 % $ $ $ O O                         ",
"                          O $ 8 f I | @.,.:.:.#.@.@.@.@.@.+.+.+.O.#.#.#.@.@.+...) Y k w 6 $ O @ @ $ @                           ",
"                          o $ 7 f Y | #.d.:.@.@.+.| ) W R R R R ~ } +.@.:.#.@...) Y g 0 5 O O O @ $                             ",
"                          o $ 7 f Y | #.d.:.@.+.^ R U l l g k l x E } @.:.:.#.o._ Y k 0 5 O o O O                               ",
"                          o $ 7 f Y  .#.:.:.+.} R I g e q q 0 q d z ( o.#.:.@.o.~ Y k q 5 O O .                                 ",
"                          O $ 7 f U { +.+.o. .( T g w 6 % $ $ 5 8 g Y { o.+.o.} ~ U g 0 5 O O                                   ",
"                          o $ 7 d z W ) ) ) T U k s 7 5 o o o o 6 s z R ) ) ) R U k s 8 5 @ O                                   ",
"                              7 w g z z x z k g s 0 5 $ o o X o 5 w g c x z z k g s 0 6 % O O                                   ",
"                                8 w w e w e w q 0 5 5 @ o o o     8 w w e e e w q 0 6 5 % @ @                                   ",
"                                  5 7 6 5 5 5 5 5 $ % $ @ @         5 6 6 6 5 5 5 % % % $ $ O                                   ",
"                                  $ @ @ $ $ $ $ @ O @ $ @ @         @ $ @ @ @ @ $ @ @ @ O $ $                                   ",
"                                  o o o o o o O O O @ @ $ $         o O . o O . O O @ @ @ @ @                                   "
};
