/* XPM */
static char *__resized[] = {
/* columns rows colors chars-per-pixel */
"64 73 216 2 ",
"   c None",
".  c #272B1C",
"X  c #2A2F1E",
"o  c #2C311E",
"O  c #27301A",
"+  c #2F3520",
"@  c #2C3820",
"#  c #313620",
"$  c #3A3621",
"%  c #333921",
"&  c #3A3B23",
"*  c #3D3E29",
"=  c #5D331F",
"-  c #4D341F",
";  c #433622",
":  c #433A23",
">  c #4B3924",
",  c #4C3623",
"<  c #543A25",
"1  c #5C3A25",
"2  c #573724",
"3  c #623A26",
"4  c #693926",
"5  c #763B28",
"6  c #7C3A29",
"7  c #763725",
"8  c #3B4325",
"9  c #3F4926",
"0  c #414A27",
"q  c #444D28",
"w  c #47472A",
"e  c #465129",
"r  c #4A562B",
"t  c #4D592C",
"y  c #515D2D",
"u  c #55522D",
"i  c #4E4E34",
"p  c #444833",
"a  c #504F35",
"s  c #535237",
"d  c #6A4B27",
"f  c #54622F",
"g  c #5A6B2F",
"h  c #576530",
"j  c #596731",
"k  c #5C6B32",
"l  c #576338",
"z  c #5E7031",
"x  c #606D34",
"c  c #686A3F",
"v  c #637435",
"b  c #677836",
"n  c #697C37",
"m  c #6A7D38",
"M  c #63703E",
"N  c #6B7333",
"B  c #4F5341",
"V  c #575B4A",
"C  c #5B5F50",
"Z  c #635C43",
"A  c #5F674B",
"S  c #646948",
"D  c #736C4B",
"F  c #646A55",
"G  c #796F50",
"H  c #7C7152",
"J  c #70794E",
"K  c #727968",
"L  c #833B2A",
"P  c #8C3C2B",
"I  c #863624",
"U  c #9B3D2C",
"Y  c #953C2B",
"T  c #A43D2D",
"R  c #AB3D2E",
"E  c #B43E2F",
"W  c #BA3E30",
"Q  c #8E402A",
"!  c #867759",
"~  c #6E8139",
"^  c #6E8337",
"/  c #72853A",
"(  c #758A3C",
")  c #798E3D",
"_  c #7C923E",
"`  c #7F993E",
"'  c #778845",
"]  c #7F9540",
"[  c #758151",
"{  c #798174",
"}  c #849E3D",
"|  c #80973F",
" . c #88A23F",
".. c #809641",
"X. c #859C42",
"o. c #889D45",
"O. c #899E4B",
"+. c #8A9957",
"@. c #8A8954",
"#. c #87A041",
"$. c #8AA344",
"%. c #8EA945",
"&. c #8DA349",
"*. c #91AC46",
"=. c #91A44B",
"-. c #94AE49",
";. c #95B146",
":. c #96B149",
">. c #9AB64A",
",. c #9EBB4C",
"<. c #98B947",
"1. c #93A551",
"2. c #9BA655",
"3. c #94AA55",
"4. c #97AC5A",
"5. c #98AD5C",
"6. c #9BA857",
"7. c #99AF55",
"8. c #A0BE4E",
"9. c #A2AB5A",
"0. c #A3A65D",
"q. c #A4BB53",
"w. c #ADBD5C",
"e. c #A9B75A",
"r. c #B0BC5F",
"t. c #808577",
"y. c #8D957B",
"u. c #8E956B",
"i. c #AC9672",
"p. c #AF9973",
"a. c #A6946C",
"s. c #9BAD67",
"d. c #9EB264",
"f. c #ACAB65",
"g. c #AFAC68",
"h. c #B1AD69",
"j. c #A3B66B",
"k. c #B3BD63",
"l. c #BABD6B",
"z. c #B6B26D",
"x. c #AABB7A",
"c. c #A9BA77",
"v. c #BEB971",
"b. c #BEB076",
"n. c #AEAE78",
"m. c #C3BC75",
"M. c #C3B27B",
"N. c #C7B87B",
"B. c #C1A77F",
"V. c #A3C14F",
"C. c #A6C350",
"Z. c #A8C055",
"A. c #BBC269",
"S. c #C9C477",
"D. c #8B8E85",
"F. c #8D9086",
"G. c #93968B",
"H. c #9B9E95",
"J. c #ABB78B",
"K. c #A1A997",
"L. c #A9AAA3",
"P. c #B4BAAC",
"I. c #AFB5AC",
"U. c #9DA884",
"Y. c #CDB982",
"T. c #CCB582",
"R. c #D4B68B",
"E. c #D4BA89",
"W. c #DDBB92",
"Q. c #CCAF86",
"!. c #E1BE96",
"~. c #E6BF9A",
"^. c #B5C489",
"/. c #B4C485",
"(. c #BCCA92",
"). c #BBC3AC",
"_. c #DCC58B",
"`. c #D8C786",
"'. c #C3CF9F",
"]. c #E2CD8D",
"[. c #ECC69D",
"{. c #E6C796",
"}. c #F4D39E",
"|. c #EBD096",
" X c #C1CCA2",
".X c #C8D4A6",
"XX c #D3DCBA",
"oX c #D2DCB6",
"OX c #C7CCB9",
"+X c #F6CEA3",
"@X c #F0C7A0",
"#X c #FCD4A6",
"$X c #FFD7A8",
"%X c #FFD9AB",
"&X c #F7D4A2",
"*X c #F7D3A8",
"=X c #D7E0BD",
"-X c #FFE0B1",
";X c #C5C5C3",
":X c #C8C9C5",
">X c #D5D9CA",
",X c #D6D8D5",
"<X c #CED3C4",
"1X c #DBE3C3",
"2X c #DEE0DC",
"3X c #E9EDDC",
"4X c #E4E6DF",
"5X c #EBF0DF",
"6X c #DFE1E0",
"7X c #E9EBE5",
"8X c #ECECEA",
"9X c #E5E5E4",
"0X c #EEF1E3",
"qX c #F2F5E9",
"wX c #F4F4F5",
"eX c #F9F9F9",
/* pixels */
"                                                                    + + X + + + o o o o o o o o o o # # % % %                   ",
"                                                                    # % # # # # # # % % % % # % % % # # % % %                   ",
"                                                                    8 8 8 8 8 8 8 8 8 8 9 8 8 8 8 8 & % % % # %                 ",
"                                                                  9 q r r r r r r t r t r r r t r r q 9 % % + @                 ",
"            o X X o X o X X o X X + X X X X X X X + X + . . . + & q y k x v k v v x x k v k v v k k y e 8 % + + @ @             ",
"          + + + + + + + # + # + + + + + # + # # + + + + + + + @ 8 r k m ( ( ( ( / ( ( ( / ( ( ) / ~ x y 9 % % o + % @           ",
"        8 & 8 8 8 & 8 8 8 8 8 & 8 8 8 8 & 8 8 8 & 8 8 8 & & % 8 q f v ) | X.X.X.X.X...X.X.X.} X.X._ n f 0 % # # % $ $ $         ",
"        e r r r r r r r r r r r r r r r r r r r r r r r r r r r f z / _ $.$.%.&.$.$.$.$.$.$.&.$.$._ m f q & $ ; > < < <         ",
"    8 r h z v b b b b b b b v b v v n v v v v v v v v v v v v b n / _ X.$.$.$.$.$.$.$.$.$.$.&.%.$.] ~ h 0 & ; 2 3 5 5 3 < :     ",
"+ # 9 t v / ] ] ] ] ..] ] ] ] ] ..| ........................| ....X.X.X.$.$.$.$.$.$.$.$.$.$.%.%.$.] ~ f 0 & , 4 6 P P 5 1 & @ + ",
"X # 9 y m ] -.:.>.:.:.:.:.:.:.:.-.-.-.-.:.-.:.:.:.-.-.:.-.:.-.-.-.*.&.&.X.$.X.$.$.X.$.X.$.#.$.$.` ] ~ f q & 2 7 U R U L 1 : % @ ",
"+ # 8 h ~ $.>.8.C.,.>.>.>.>.>.>.,.>.,.,.,.8.8.8.8.8.8.8.8.8.,.8.>.;.*.$.$.X.$.X.#.$.$.#.#. .$.$.$.] b h q : 2 I T E R P 3 : @ @ ",
"X % 9 l / &.8.C.C.8.>.>.>.:.:.>.:.>.>.>.,.8.V.C.C.C.C.V.8.8.8.>.;.*.$. . .} $.$.$.$.#.} } X.#.$.#.] ~ y 9 w 2 L R W R P 3 : % + ",
"X # 9 y ~ $.8.C.8.:.:.-.-.-.-.-.*.*.*.-.:.,.8.V.C.C.V.V.8.>.:.-.*.%.#. .} } X.$.$.$.#.X.}  .#.$.#.] ^ y q : 2 L R W E P 3 : @ @ ",
"X # 9 y ~ $.:.>.:.-.%.$.$.$.$.$.%.$.$.%.*.:.>.,.8.8.8.8.,.:.*.%.$.$.o.$.$.X.$.$.X.$.o.$.$.$.$.$.` ] ~ t 0 : 2 6 U E T L 1 : % @ ",
"+ # 9 t v ] %.-.-.%.$.$.$.%.$.$.$.$.$.%.&.&.*.-.-.>.>.,.>.-.*.$.$.&.1.3.3.1.O.......O.1.3.3.3.=.` ] ^ f 0 & 2 5 Y T U 6 1 : @ @ ",
"+ # 8 e h b ' ` X.$.&.%.%.*.%.%.%.%.%.$.$...] ] ..$.-.>.>.:.*.%.` 5.j.A.J.s.] ' ' ' ] s.J.A.j.5.3.` ^ f 9 8 ; 3 6 P L 4 < & # o ",
"+ # & 9 e y k ~ ] X.%.:.:.:.:.:.:.:.:.%.../ b v n ) &.>.,.;. .%.4.j.^.).).^.y.[ A [ y.J.).(.(.A.3.` ^ f 9 & $ , 3 3 3 < : $ % % ",
"# # % & 8 9 r g ~ X.:.,.,.,.,.:.,.,.,.%.] b h t j / o.:.>.;.*.&.4./.(.1X1X).F.F l A y.).1X1X.X/.3.` ^ t 0 & $ $ ; > : : & & % o ",
"# % % % % 8 q h ~ X.:.,.q.8.,.,.q.V.,.-...b y r y n } :.>.;. .*.4./.oX3X6X;XG.C 9 A F.).2X3X=X^.3.( ^ t w & $ $ $ $ $ % # % % % ",
"+ % % & 8 e t v ( $.>.,.V.8.8.8.,.V.,.7.X.~ k h x / o.:.>.;.*.$.4.^.1X0X8X;XD.C B C D.;X7X8XXXJ.[ ' z d u = , ; $ % @ @ o o o 8 ",
"+ @ 8 9 r k b / X.*.>.q.V.8.,.8.V.V.V.>.%.] / m / ..&.<.,.;. .%.5.^.1X0X8X;XD.C 9 C D.;X8X8XOXU.[ z d d d d 3 2 : % @ @ o 8     ",
"+ # 8 r k ~ ..$.-.>.,.8.8.8.,.8.,.V.,.,.:.%.$.X.} *.;.8.>.*. .*.5.^.=X0X8X;XD.C 9 V D.;X9X6X).G.A u d d U Y I 4 > % @ @         ",
"+ # 9 y m ] :.,.,.,.,.8.,.8.8.,.,.,.8.,.,.>.>.:.>.>.8.8.8. . .$.5.^.oX3X8X;XH.F V F G.;X8X6X).{ V q = 6 T R U 5 < & @ @         ",
"X # 9 y m $.,.8.C.8.8.8.,.8.,.8.,.,.8.,.,.C.,.V.,.,.,.,.<.*. .%.5.^.XX0X8X,XL.{ K { L.,X7X,XI.{ s > = I R E T 6 1 & @ @         ",
"X % 9 h / $.,.C.C.8.8.,.,.8.8.,.,.8.,.8.,.V.C.,.C.V.C.,.<.*. .*.5.^.XX0XwX6X;XI.H.L.;X9XwX6XI.{ B , = I E W R 6 1 & @ @         ",
"X # 9 y / o.,.V.V.8.,.8.8.,.,.8.,.,.8.,.C.,.,.C.,.C.,.,.<.*. .&.5./.oX0XeXwX6X,X:X,X9XeXeX9XI.{ B : = I R W R L 1 $ # @         ",
"+ # 9 y m $.>.V.V.8.8.,.,.,.8.,.8.8.,.8.,.8.,.,.,.,.V.,.,.;. .$.5./..X5XwXeXwX8X7X8XeXeXwX,XI.K B : = I T E U 5 1 & % o         ",
"X # 8 f m O.>.8.V.8.8.,.8.8.8.8.8.,.,.,.V.,.,.8.,.V.,.,.>.;.%.$.4.A.(.1X7XqXqX0X0XqXqXqX7X<XK.K B : 2 7 Y T P 5 < $ % @         ",
"+ # 9 f / $.,.C.C.C.V.V.8.8.8.V.V.C.V.,.V.8.8.,.,.,.,.C.,.;.%.$.3.j.(.).XX1X1X1X1X1X1X1XXX(.y.F i * - 4 6 L 5 3 > $ @ @         ",
"X % 9 f m &.8.C.C.V.V.V.V.V.V.8.C.C.V.C.V.V.,.8.C.8.8.,.>.;.%.$.` s.j./.^.^.(.(.(.(.(.(.^.c.u.A q $ ; - 3 3 1 > & $ @ @         ",
"X # 9 y m $.>.8.V.V.8.8.8.8.8.8.,.,.,.,.,.,.,.,.,.,.,.,.>.:.%.$.` 3.3.5.s.d.d.d.d.d.d.s.5.+.J l 9 $ $ $ : > : & $ % % %         ",
"+ % 8 y b ] -.:.:.:.-.-.:.-.:.-.:.:.:.;.:.>.,.,.8.8.8.<.:.:.%.$.` &.%.%.%.%.&.&.$.&.&.&.$.] n y 9 % # # % % % % % % #           ",
"+ @ 8 r j m ] ] ..] ] ] ] ] ] ] _ ) _ ` #.%.;.>.<.<.>.;.;.%.$.#.%.` ` ` ` ` ` ` }  .$. .| ( v t 8 % o o @ @ # @ # # %           ",
"+ + & 9 r j z v b v v v v v v v z z z v / ` %.<.<.>.;.%.%.$. . .` ` ` ` ` ` ` ` } }  . .} ) v y 9 % o o +                       ",
"+ % % 8 9 e r r r r r r r r r r e e r y z ( %.>.<.>.;.$.$.$.$.X.` %.` %. . . . .}  .$. . .) v y 9 % o o                         ",
"% % % % % & 8 & 8 & 8 % 8 8 % 8 8 8 w r x ( =.>.8.>.3.*.=.&.%.=.&.&.&.$.%.$.$.$.$.X.$.$.X.( v t 9 % o                           ",
"# % # # + + + + + + + + o o % % * p s Z G +.9.r.A.w.e.9.9.9.9.9.9.9.6.2.-.1.&.$.o.X._ _ ( m k r 9 %                             ",
"% % # + + + X X X + + . . o + * p Z H @.a.g.l.S.S.S.m.m.m.l.v.v.v.z.z.g.f.0.6.=.X.| ( m v k y r 9                               ",
"                        . X # w Z ! i.Q.E._._.].].]._._._._._._.`.E.Y.M.b.g.f.1.o.) n k y r q 0                                 ",
"                          o % i D a.Q.[.+X+X&X}.}.}.}.}.}.}.+X}.}.{.!.E.T.M.f.2.o.( v t 0 8 %                                   ",
"                          O % a G i.W.*X%X%X%X%X$X$X%X$X$X%X%X$X#X+X[.!.R.M.g.2.o./ g r 8 # o                                   ",
"                          O % a G i.~.$X-X-X%X%X%X%X%X%X%X%X%X%X#X#X[.!.R.M.g.9.} ( g e % + . .                                 ",
"                          O % s G i.!.$X%X-X%X%X%X%X$X%X%X%X%X%X#X+X[.!.E.M.g.2.o.^ g e $ X . . o o o + # %                     ",
"                          o % a G i.W.#X%X-X%X%X%X$X$X$X$X$X%X$X#X+X@X!.R.B.g.2.o.( g r 8 # + + # # # % % % %                   ",
"                          o % i G i.W.#X-X%X%X$X$X$X$X$X$X$X$X$X#X+X~.!.R.M.g.2.o.( v f e 9 8 9 9 9 8 & % % %                   ",
"                          o % s G i.W.$X%X-X%X$X$X$X$X$X%X%X%X$X#X+X@X!.R.M.g.2.$._ ^ v g f f j h y r 9 & % # #                 ",
"                          O % i G i.W.$X-X%X%X$X%X$X$X$X$X%X%X%X#X+X@X!.R.M.g.2.o.} _ ( / ^ / / / m k r 0 % # o                 ",
"                          O % i G i.W.#X%X%X%X$X$X$X$X$X$X%X%X%X#X+X[.!.R.B.f.2.$.#.#.#.$.$.$.&.$.] m h q % +                   ",
"                          o % i D a.R.+X%X%X$X$X$X#X&X$X$X&X&X&X}.[.{.W.T.b.f.2.&.$.%.-.:.>.>.>.-.X./ k q & +                   ",
"                          . & i D 0.Y.].}.}.}.&X+X#X&X+X+X}.|.|.]._.E.M.M.f.0.=.$.&.-.:.>.>.>.*.X.] n y 0 % +                   ",
"                          + % q S @.z.S.`.].|.[.@X@X[.[.{.].`.`.S.m.m.z.f.0.2.=.$.$.%.:.>.-.$.] ( b h r 9 % # +                 ",
"                          o % q l ..0.A.S.`.E.{.~.~.~.!._.E.S.A.k.e.e.0.2.1.=.O.$.$.&.-.*.X._ n j t q 9 & % # +                 ",
"                          + % 0 g ( =.e.A.S.Y.E.W.W.W.E.E.m.A.w.q.q.:.=.&.$.o.$.$.$.$.#.X.) n h q 8 % # % % %                   ",
"                          + % 0 h / $.,.w.l.m.Y.T.R.T.T.m.l.k.q.,.<.-.*.%. .$.$.#.X.| _ ( m k r 8 # + + + % %                   ",
"                          + % 0 h / $.>.Z.k.z.l.m.m.m.m.l.k.w.8.,.<.;.*.%.%.$.&.X.| ) / v k r 9 % # + + + %                     ",
"                          + # 0 h / $.>.Z.Z.k.k.k.k.k.k.Z.w.Z.q.,.,.>.<.;.-.*.&.X.] m x f r 9 8 % # + +                         ",
"                          + % 0 h / %.>.C.Z.Z.q.q.e.q.q.e.8.q.,.,.,.,.,.>.:.-.%.X.) v f q & % % % # #                           ",
"                          + % 0 h / $.,.C.V.,.>.:.:.-.-.-.%.%.%.*.;.>.,.,.>.;.%.X.( k r 8 % + + % # %                           ",
"                          + % 0 g ' &.,.8.8.>.;.%.$.` _ ) ( ( ) _ } -.>.,.,.>.-.X.( k r & + o + # %                             ",
"                          o % 0 h / %.,.8.,.:.%.X.( b v k h k k b ( o.:.,.,.>.-.X.( k r & + X +                                 ",
"                          + % 0 g / %.,.,.>.:.$.] b g r q 9 9 q y v _ *.,.,.>.*.X./ k r 8 + +                                   ",
"                          + % 0 h ~ #.-.:.:.%.X.) z r 9 % + # % q j / X.-.:.-.&.X.( k r 8 + +                                   ",
"                            % 0 h b / ] X.$.$.../ k r % + X . + 9 t v ( _ } $.$.X./ v r 8 % +                                   ",
"                              9 r j x b / ] ..X.( k e % o . . o 8 r f k b / ] ..X.) z r 8 % o                                   ",
"                                0 q r y k ~ ] ..( v r 8 # X         q r y k ~ ] ..) v t 8 # o                                   ",
"                                  % 8 9 y v ( _ / x r 8 % o         % & 9 t v / ] / k r 8 @ +                                   ",
"                                    + & r j n m v f q & # o           + & r g b m b j e & # +                                   ",
"                                      % q y k k f r q % # +             % 0 t j k h r 0 & @ +                                   ",
"                                        9 e e r e 9 8 % % #               9 e r r q 9 8 % % #                                   ",
"                                          8 8 8 8 % % % % #                 8 8 8 8 & % % % #                                   ",
"                                          % # % % % # % # %                 # % # % + % % % %                                   ",
"                                          + o o o # # # % %                   o + o + # # % %                                   "
};
