/* XPM */
static char *__resized[] = {
/* columns rows colors chars-per-pixel */
"64 73 203 2 ",
"   c None",
".  c #2A2E1E",
"X  c #2C311E",
"o  c #2E3520",
"O  c #2C3820",
"+  c #313620",
"@  c #3A3621",
"#  c #333921",
"$  c #3B3A22",
"%  c #423A23",
"&  c #4B3924",
"*  c #473623",
"=  c #533724",
"-  c #5B3724",
";  c #543A25",
":  c #5C3A25",
">  c #633624",
",  c #623A26",
"<  c #683A27",
"1  c #6F3B28",
"2  c #763B28",
"3  c #7C3A29",
"4  c #743827",
"5  c #3C4525",
"6  c #3E4925",
"7  c #374021",
"8  c #414B27",
"9  c #444D28",
"0  c #49492A",
"q  c #465129",
"w  c #4A552B",
"e  c #4D5A2C",
"r  c #525F2E",
"t  c #55522D",
"y  c #4E4E33",
"u  c #454A35",
"i  c #535735",
"p  c #544B31",
"a  c #6A4B27",
"s  c #4E622A",
"d  c #54622E",
"f  c #596A2F",
"g  c #566430",
"h  c #596631",
"j  c #5C6B32",
"k  c #5F683B",
"l  c #606E34",
"z  c #676C3E",
"x  c #637334",
"c  c #667A34",
"v  c #697C37",
"b  c #6C7E39",
"n  c #6B7333",
"m  c #575C4B",
"M  c #5C634D",
"N  c #696947",
"B  c #746D4B",
"V  c #6C7A49",
"C  c #78754B",
"Z  c #656D55",
"A  c #7A6F50",
"S  c #717766",
"D  c #833B2A",
"F  c #8C3C2B",
"G  c #883726",
"H  c #9B3D2C",
"J  c #953C2C",
"K  c #A43D2D",
"L  c #AB3D2E",
"P  c #B33E2F",
"I  c #BA3E30",
"U  c #8E402A",
"Y  c #867B57",
"T  c #907E60",
"R  c #6E8139",
"E  c #6B8136",
"W  c #72863B",
"Q  c #758A3C",
"!  c #798E3D",
"~  c #7C923E",
"^  c #77903A",
"/  c #778546",
"(  c #7F9541",
")  c #768555",
"_  c #79836F",
"`  c #849D3D",
"'  c #88A23F",
"]  c #87A03F",
"[  c #818949",
"{  c #809642",
"}  c #859D42",
"|  c #889D46",
" . c #899C4E",
".. c #8B975A",
"X. c #909255",
"o. c #86A042",
"O. c #8AA344",
"+. c #8EA945",
"@. c #8DA349",
"#. c #91AC46",
"$. c #92A54B",
"%. c #93AE48",
"&. c #95B146",
"*. c #96B149",
"=. c #99B54A",
"-. c #9EBB4C",
";. c #9BA654",
":. c #93A955",
">. c #96AB59",
",. c #99AE5D",
"<. c #97A755",
"1. c #9FB352",
"2. c #A0BE4E",
"3. c #A3A95C",
"4. c #A3BC52",
"5. c #A9B75B",
"6. c #998964",
"7. c #8C9478",
"8. c #979366",
"9. c #A5956A",
"0. c #AD9672",
"q. c #B49B77",
"w. c #A28F6B",
"e. c #99AB65",
"r. c #9DB263",
"t. c #ACAB65",
"y. c #AEA769",
"u. c #B1AD69",
"i. c #B6B769",
"p. c #BCAB76",
"a. c #A9BA77",
"s. c #BDB373",
"d. c #A7B36B",
"f. c #C4B27B",
"g. c #C6BA7A",
"h. c #A3C14F",
"j. c #A6C450",
"k. c #ABC456",
"l. c #B1C45D",
"z. c #B5C362",
"x. c #BBC368",
"c. c #CCC977",
"v. c #CBC878",
"b. c #D3D07B",
"n. c #8B8D84",
"m. c #8E8F88",
"M. c #93968C",
"N. c #9AA589",
"B. c #AEBD84",
"V. c #B0B995",
"C. c #B5B8AE",
"Z. c #B6B9B1",
"A. c #ACAFA6",
"S. c #C8AD83",
"D. c #CDB584",
"F. c #D3B68A",
"G. c #D6BB8A",
"H. c #DDBB92",
"J. c #E2BE96",
"K. c #B2C284",
"L. c #B5C489",
"P. c #BBCB8D",
"I. c #BECC93",
"U. c #BDC1B1",
"Y. c #DBC889",
"T. c #C0CC9C",
"R. c #E3CF8D",
"E. c #E4D18E",
"W. c #ECC59D",
"Q. c #E7C797",
"!. c #F1CC9F",
"~. c #F4D39E",
"^. c #EAD591",
"/. c #CAD4AB",
"(. c #C7D0AD",
"). c #C4C8BC",
"_. c #D2DCB5",
"`. c #D5DEBB",
"'. c #CFD9B4",
"]. c #F4CDA2",
"[. c #F6D2A1",
"{. c #FBD4A6",
"}. c #FFD7A8",
"|. c #FFDAAB",
" X c #FDDAA5",
".X c #FFDDB0",
"XX c #D8E1BE",
"oX c #C4C5C2",
"OX c #CCCCCA",
"+X c #D8D9D6",
"@X c #DBDFCF",
"#X c #DEE6C4",
"$X c #DCE1D0",
"%X c #E8EDDA",
"&X c #ECF0DF",
"*X c #E0E6CC",
"=X c #E9EBE5",
"-X c #EBEBEA",
";X c #E5E7E1",
":X c #EDF1E2",
">X c #F1F3EB",
",X c #F5F6F3",
"<X c #F9F9F8",
/* pixels */
"        . X X . . X . X X . X . X X X X . o o . . o . . o . o . o . o X X X X X X X X X X o o X X + + + O # #                   ",
"        # # # # # # # # # # # # # # + # + + # # + # + # # # + + # + # # # # # # O O # # # # + + + + + + # # +                   ",
"        5 5 5 5 5 5 5 5 8 5 5 5 5 5 5 5 5 5 5 5 5 5 5 5 5 5 5 5 5 5 5 7 5 5 $ 5 5 5 5 7 7 5 7 5 5 7 $ # # # o #                 ",
"      9 e e g r r r r g r r r r r d d r g r r r g r r g r r g r r r e e w e w w w e w w e e e e e w 9 5 $ # O o                 ",
"X # 5 e h x v b R R b R b b b b R b R R b E b E b b b b b R b b b c x x j x j x x j x x x j x x l h r q 7 # + o O O             ",
"X + 5 r x ! } O.@.o.o.| | O.| O.o.} | o.| o.| | | } } O.o.| O.o.} } ~ ! / Q Q Q ^ ^ W Q Q W ^ ^ Q R j e 9 # + o O # O           ",
"X # 5 r b } %.=.-.=.=.=.=.*.=.*.=.=.=.*.=.=.=.=.=.=.=.=.=.=.=.=.%.#.O.| } } ` } ( ( ( ( ( ( ( +.} ! v d 9 # + + + @ $ $         ",
"X + 5 g W O.-.j.j.-.=.-.=.-.=.-.=.-.=.-.-.2.h.h.h.h.h.2.2.-.-.-.=.%.+.+.o.o.o.} +.+.+.O.O.+.' +.O.( b h 9 # @ * & ; ; ;         ",
"X # 5 g W +.-.j.2.-.=.*.*.*.=.*.*.*.=.=.=.2.h.h.j.j.h.2.2.2.=.=.=.#.' ' ] ' O.+.+.O.' ' ( +.+.&.O.( E g 9 $ * = < 1 1 , ; %     ",
". # 5 d R @.-.2.-.*.%.+.+.+.#.+.+.#.+.#.*.=.2.2.j.h.h.2.2.=.=.#.@.+.+.' o.o.o.O.O.O.O.' +.( +.( O.( E g 9 @ = < D F F 2 : % # O ",
"X # 5 d R } *.=.*.+.+.O.O.O.@.O.o.O.o.+.$.&.=.-.2.2.2.-.=.*.#.+.O.@.O.O.O. .O.O.| | O.O.( %.:.( o.( v d 6 $ = 4 H L H D : % o O ",
"o + 5 w x ! | O.+.@.O.O.O.@.O.O.O.+.O.+.@.o.O.@.+.%.=.2.=.%.#.o.@.$.>.,.e.>. .| ( (  .:.,.r.,.>.@.( R s 9 % - 3 K P L F , % O O ",
"o + 7 9 r x R ( } o.@.#.%.+.%.+.#.#.$.@.} ( ! W ! | #.=.&.&.#.+.@.e.a.B.B.a.../ V / ..e.K.K.x.e.@.( E s 9 % - D L I L F < % # O ",
"o + # 5 9 e h x Q } %.*.=.=.*.*.*.=.*.#.{ W l j x ! O.=.-.&.' #.:.d.P./.(.V.7.V k V 7.V.(./.I.z.:.( c s 5 8 : D L I L F , % o O ",
"# # # # 7 5 q h R } *.-.-.-.-.-.2.2.-.%.( c r e g b } %.-.&.+.+.>.K./.#X+XU.7.Z i Z n.U.@X*X'.K.>.( c s 6 % - 3 K P K F , % O O ",
"# # # # # 5 q h R } *.2.h.2.-.-.2.2.2.%.{ v r e r v } *.-.&.' @.>.L._.&X;XoXm.M u M n.).;X:XXXP.e.( c s 6 $ = 4 J K J 3 : $ # O ",
"+ # # 5 9 w h x ( O.=.2.j.2.2.2.2.j.2.=.| / x f x Q o.*.=.&.' #.e.L.#X:X-XOXm.m 6 m n.oX>X:X#XP.r.( E s 6 7 * > 3 G D < ; $ + X ",
"o + # 9 r l R ( o.*.=.2.2.2.-.2.2.2.2.=.+.} ! W ! ` %.=.=.&.' +.>.L.`.:X-XoXm.m 5 m n.oX=X>X#XP.,.( E s 6 # @ = : < > ; % $ 7 X ",
"o # 5 e l Q | %.*.=.-.-.2.2.-.2.2.2.2.-.=.#.+.O.+.&.&.-.=.&.' +.,.L.#X;X-XoXm.M u M m.oX=X:X#XP.,.~ E s 6 $ @ @ % & % % $ # # X ",
". + 5 r b } *.-.2.2.2.2.-.2.-.2.-.-.-.-.-.-.-.=.-.-.-.-.=.&.' +.,.L.`.=X-XOXM.S m S M.oX=X:X`.L.>.^ x s q % @ @ $ $ $ # + # # 7 ",
". # 5 r R O.-.j.j.2.2.-.2.-.-.2.-.2.2.-.-.2.2.2.2.h.2.-.=.&.' @.>.L.`.:X-X+XZ.n.S m.A.+X>X=XOXB...b f a t : & % $ # O O + # # # ",
"o # 5 g R O.-.j.j.2.-.2.-.-.2.-.2.-.-.2.2.2.2.j.h.h.2.-.=.&.' +.,.L.`.:X<X-XOXZ.A.Z.OX-X,X;X(.N.C l a a a 2 < ; % # O O X #     ",
". + 5 g R o.-.-.2.2.-.2.2.-.-.2.-.-.2.-.-.2.2.2.2.2.2.2.=.' ' +.>.K.'.:X<X<X-X+X+X+X-X,X<X;X(._ N t a 2 U J G < & # O O         ",
". # 5 g R o.=.h.j.2.2.-.-.2.2.-.-.2.-.2.-.2.-.2.2.-.2.2.-.=.' O.>.K./.%X,X<X<X-X-X-X<X<X,X$XA._ m 8 - 3 K L J 2 ; $ O O         ",
"o # 5 g R o.-.j.4.h.-.h.-.2.2.-.2.2.2.2.h.-.-.-.-.h.-.-.=.&.+.O.:.a.I.#X$X:X:X&X%X&X&X&X*X'.N._ u * > G L I K 3 : $ O O         ",
". + 5 r R O.-.j.j.h.h.h.2.j.j.2.2.j.2.2.2.-.h.-.2.2.2.-.=.&.+.O.:.e.K.I.(.'.'.'.'.XXXX_./.V._ Z u * > G P I K D : @ O O         ",
". # 5 g R O.-.j.j.h.h.h.2.2.j.2.j.2.j.2.2.h.h.-.-.2.2.-.=.*.+.@.@.:.e.a.a.K.K.K.K.K.K.K.B.e.) M 9 * > G L I K D : $ o X         ",
"o # 5 r b } =.4.-.-.-.-.-.-.-.-.-.-.-.-.-.-.-.-.-.2.2.-.=.*.+.O.@.@.:.:.>.>.>.>.>.,.1.>.:. .V i 6 * , D L P H 2 : $ # O         ",
"o + 5 i x ~ O.#.%.+.+.+.+.+.+.+.@.@.@.#.%.=.=.-.2.-.-.-.*.%.+.O.o.o.| O.o.+.o.o.o.o.@.O.} ( c e 6 % : 3 J H J 2 = $ # O         ",
"o + 7 q g v W Q ! ! Q Q ! / ! Q Q Q W ( ( O.*.-.-.-.=.*.%.+.O.@.} } ` ` } ~ ` ] ` ] ' ' ` ^ x s 5 $ = < 3 D 2 , & $ O O         ",
"o + # 9 q r h j j j j j j j j j f f h x R ( +.=.-.=.*.+.+.O.O.o.o.} ` ` ` ` ` ` ` ] ' O.` ^ x e 5 @ * & : < : & $ # O O         ",
"+ + # 7 5 9 9 9 q 9 9 9 9 q 9 9 6 6 9 w l ! @.=.-.=.%.+.@.o.o.O.O.o.o.o.o.} o.o.] o.O.o.} ! v r 5 @ @ @ % & * % $ + # #         ",
"+ # # # # # # # # # # # # # $ # 7 7 6 q f W O.=.-.=.&.+.O.o.O.o.O.O.O.o.O.o.o.O.| } o.} ` W x e 7 # + + # # + # # # +           ",
"# # + + + + o o + o + o o o O # 7 6 q g c ( O.=.-.&.&.' +.+.+.+.@.o.o.o.o.o.o.o.} } ~ ! W x g q 5 # o o o O # o # + #           ",
"                      . . o o # 6 e j E ^ ( #.=.=.=.&.&.#.#.#.#.#.+.' ' o.o.O.o.} ( Q c j r w 9 # # o o O                       ",
"                        . X + 5 e x ^ ( +.=.=.-.-.=.=.=.=.&.=.=.&.&.+.O.o.| O.O.} ! v h w 8 $ # # # O o                         ",
"                          X # 9 g Q @.=.j.j.4.4.h.j.4.4.4.4.4.4.4.1.%.#.O.O.O.| } Q x e 8 # + + # # #                           ",
"                          X # 9 k / ,.z.z.x.z.z.l.l.z.z.z.x.z.z.5.5.5.;.<.<.$.@.} Q j w $ + o + # #                             ",
"                          X # y z X.i.v.b.b.c.c.c.c.c.c.c.c.c.c.v.g.g.u.t.3.;.$.} W j w # + o X +                               ",
"                          X # y B 8.f.R.^.^.^.R.R.R.R.R.E.E.E.R.R.Y.g.g.f.u.3.;.| Q j w 7 + . o                                 ",
"                          X # y B 9.F.~.~. X X~.[.[.[.~.[.[.[.[.!.!.Q.G.D.p.t.;.| W j w 7 # o                                   ",
"                          . # y A 0.J.{.|.|.|. X}.}.}.}. X|.}.}.~.!.Q.J.F.f.u.;.| Q f w 7 # X                                   ",
"                          . # y A 0.J.{..X.X|.|.|.|.|.|.|.|.|.|.}.].W.J.G.f.u.;.] W j w # + . .                                 ",
"                          X # e A 0.H.{.|..X|.|.}.|.|.}.|.|.|.|.{.].W.J.G.f.u.;.| Q f q $ . . . . o o o + #                     ",
"                          X # y A 0.H.{.|..X|.|.{.|.{.}. X|.|.|.{.].W.J.F.f.u.;.| Q j w 7 # o o + # # # # # #                   ",
"                          X # y A 0.H.{..X|.|.|.|.{.|. X}.{.|.|.{.].W.J.F.f.u.;.| Q c d q 6 5 8 5 5 5 $ # # #                   ",
"                          X # y A 0.H.}..X|.|. X}.|.|.{.|.|.|.|.}.].].J.F.f.y.;.o.! E x f d d g h r w 6 7 # + o                 ",
"                          . # y A 0.H.}..X|.|.}.}.|. X|.|.|.|.|.}.{.W.J.F.f.y.;.O.} ~ Q W W W W R b j w 5 # + o                 ",
"                          . # y A 0.H.{.|.|.|.|. X|.}.}.}.}.|.}.{.].W.J.F.f.y.;.O.o.] o.O.o.@.@.O.( b h 9 # +                   ",
"                          X # y A 9.G.~. X|.{.{.{.{.{.{.}.{.].].W.W.J.F.S.p.y.;.@.O.+.%.=.=.=.=.%.o.R h q # o                   ",
"                          X # w N 8.f.Q.~.~.~.[.].{.{.[.].J.F.F.S.S.f.f.f.u.3.$.O.@.%.&.=.=.=.#.o.( b g 9 # o                   ",
"                          X # u N X.i.v.Y.E.Q.!.].].].W.J.S.q.w.6.w.9.y.t.3.;.$.O.+.#.*.=.%.O.{ Q x h q 5 # + o                 ",
"                          X # 9 k ( 3.x.v.Y.Y.Q.Q.W.W.J.S.q.T A N C [ X.;.;.$.$.| @.+.#.+.} ~ v h e 9 5 # # + o                 ",
"                          X # 9 f Q $.5.i.v.D.G.H.H.H.D.q.6.A i t h b { O.@.O.| o.o.O.o.} ! c g 9 5 # # # # #                   ",
"                          X # 9 d W @.-.k.i.g.D.S.f.S.q.w.Y N i e f b { o.+.+.o.| } ` ~ ! b j w 7 # o o # o #                   ",
"                          X # 8 f R +.j.k.z.x.s.p.0.w.6.Y C z l x v ^ | +.%.#.#.o.{ ! W x h w 6 # # o o # #                     ",
"                          o # 8 d Q +.-.k.l.z.5.3.X.C N N N b Q ^ ` +.#.&.&.&.+.| ( R l r w 8 $ # + o o                         ",
"                          X + 9 h W O.=.h.k.4.1.@.C l i t j / | %.&.=.=.=.=.%.+.} W x d 9 7 # # # + +                           ",
"                          o # 9 g b ` @.=.*.%.O.! l w 6 q j ! +.-.h.h.-.=.&.O.} ( b j w 5 + + + # + #                           ",
"                            + 8 r x R ! ~ ~ ^ Q x r 6 7 9 f ~ *.h.j.h.-.*.@.( Q v l r 9 # + X o + #                             ",
"                                w d j j j j x f d 8 7 7 9 j ~ *.h.j.2.=.+.} R x h e q 8                                         ",
"                                  q 9 9 w q 9 q 8 $ # # 9 j ~ %.-.-.-.#.o.! x r q 5 7                                           ",
"                                  # # 7 # 7 # # # # X 7 9 h W O.%.%.#.| ~ b h q 7 # +                                           ",
"                                    + X X X # X X X # # 9 g x Q ~ ~ ! W c x e 9 # o                                             ",
"                                      X X X o o o X o # 5 w d j l x l h h r q 5                                                 ",
"                                          o + + + + + # # 5 9 w e e w w 9 9 9                                                   ",
"                                          # # # + + # # # # # 7 7 7 7 # $ 7                                                     ",
"                                            + + # # + # # + + + + + + + o o                                                     ",
"                                              # # # + # + + o X X . o X                                                         ",
"                                                                                                                                ",
"                                                                                                                                ",
"                                                                                                                                ",
"                                                                                                                                "
};
