/* XPM */
static char *__resized[] = {
/* columns rows colors chars-per-pixel */
"64 73 206 2 ",
"   c None",
".  c #2B2F1E",
"X  c #2C311E",
"o  c #2F3520",
"O  c #2C3820",
"+  c #313620",
"@  c #3B3621",
"#  c #333921",
"$  c #3A3C23",
"%  c #433622",
"&  c #423A23",
"*  c #4C3924",
"=  c #4D3723",
"-  c #5B3724",
";  c #533A25",
":  c #5C3A25",
">  c #543724",
",  c #643A26",
"<  c #673825",
"1  c #723B28",
"2  c #7C3A29",
"3  c #793926",
"4  c #3B4324",
"5  c #3F4926",
"6  c #414A27",
"7  c #444D29",
"8  c #4B492C",
"9  c #465129",
"0  c #4A562B",
"q  c #4E5B2C",
"w  c #515D2D",
"e  c #5B582C",
"r  c #4E4E33",
"t  c #444935",
"y  c #585A39",
"u  c #4F4E34",
"i  c #684A27",
"p  c #6C5028",
"a  c #4E622A",
"s  c #54622E",
"d  c #58692F",
"f  c #566530",
"g  c #596731",
"h  c #5C6B31",
"j  c #526238",
"k  c #5F7032",
"l  c #646C38",
"z  c #637435",
"x  c #677A34",
"c  c #697B37",
"v  c #6B7E38",
"b  c #65743A",
"n  c #6C7536",
"m  c #575B4A",
"M  c #5B5F50",
"N  c #5C664B",
"B  c #6A6D45",
"V  c #746C4C",
"C  c #766F4C",
"Z  c #6C7647",
"A  c #717547",
"S  c #646A55",
"D  c #7A6F51",
"F  c #717254",
"G  c #6F7665",
"H  c #823B2A",
"J  c #8A3C2A",
"K  c #893626",
"L  c #983C2C",
"P  c #A43D2D",
"I  c #AB3D2E",
"U  c #B33E2F",
"Y  c #BA3E30",
"T  c #87412A",
"R  c #847956",
"E  c #6E8139",
"W  c #71853A",
"Q  c #758A3B",
"!  c #798E3D",
"~  c #7C923F",
"^  c #798844",
"/  c #7F9540",
"(  c #74844D",
")  c #7E876E",
"_  c #849D3E",
"`  c #80973F",
"'  c #88A23F",
"]  c #87A03E",
"[  c #809740",
"{  c #859C42",
"}  c #899D46",
"|  c #8A9E4B",
" . c #8A9B59",
".. c #96935A",
"X. c #8D9152",
"o. c #87A042",
"O. c #8AA344",
"+. c #8FA945",
"@. c #8DA349",
"#. c #91AC46",
"$. c #93A54D",
"%. c #93AD49",
"&. c #95B246",
"*. c #96B149",
"=. c #99B54A",
"-. c #9EBB4D",
";. c #9CA755",
":. c #94A955",
">. c #96AB5A",
",. c #99AD5C",
"<. c #97A952",
"1. c #98AE55",
"2. c #A0BE4E",
"3. c #A4AA5D",
"4. c #A2B952",
"5. c #AAB85B",
"6. c #988764",
"7. c #8E967B",
"8. c #8C916B",
"9. c #A6946C",
"0. c #AC9672",
"q. c #AD9872",
"w. c #AF9675",
"e. c #9BAD67",
"r. c #9DB163",
"t. c #9FAD7A",
"y. c #ADAD65",
"u. c #B1AD69",
"i. c #A4B56A",
"p. c #B8B76B",
"a. c #B9A776",
"s. c #AABB7A",
"d. c #A9BA77",
"f. c #BCB372",
"g. c #C1A87E",
"h. c #C4B27B",
"j. c #C7B87C",
"k. c #A3C14F",
"l. c #A6C450",
"z. c #AFC15C",
"x. c #A9C155",
"c. c #B1C35D",
"v. c #B5C16D",
"b. c #C0C36E",
"n. c #C4C671",
"m. c #C9CA74",
"M. c #D1CA7D",
"N. c #8A8C84",
"B. c #8D9086",
"V. c #92958A",
"C. c #9B9E95",
"Z. c #9EAB83",
"A. c #ACB88B",
"S. c #AFA58B",
"D. c #A8A9A3",
"F. c #B5BBA9",
"G. c #CCAD88",
"H. c #CDB485",
"J. c #D3B58B",
"K. c #D5B98B",
"L. c #DDBC92",
"P. c #E3BE97",
"I. c #B5C489",
"U. c #B6C689",
"Y. c #BCCB92",
"T. c #BAC2AA",
"R. c #DCCD87",
"E. c #DECE88",
"W. c #D5C484",
"Q. c #D0CC95",
"!. c #E4D38C",
"~. c #EBC69C",
"^. c #E9C898",
"/. c #F2D49C",
"(. c #F8D89F",
"). c #EFCF9A",
"_. c #C1CCA2",
"`. c #C8D4A5",
"'. c #C2C3BD",
"]. c #D3DCB9",
"[. c #D2DCB6",
"{. c #CBD4B5",
"}. c #F3CCA1",
"|. c #F0C7A0",
" X c #FCD4A6",
".X c #FFD7A8",
"XX c #FFDAAC",
"oX c #F6D1A2",
"OX c #D8E1BD",
"+X c #C5C5C3",
"@X c #C8C9C6",
"#X c #D4D7CB",
"$X c #D6D7D3",
"%X c #CED3C4",
"&X c #DBE3C3",
"*X c #DFE8C3",
"=X c #E9EDDD",
"-X c #E5E7DF",
";X c #EBF0DF",
":X c #E9EBE5",
">X c #ECEDEA",
",X c #E4E4E3",
"<X c #EEF1E3",
"1X c #F1F5E8",
"2X c #F5F5F5",
"3X c #F9FAF9",
/* pixels */
"                                                                                                                                ",
"                                                                                                                                ",
"                                                                                                                                ",
"                                                                                                                                ",
"            X . . . . . . . . . X X . . . . . . . . . . . . . . . o X o o o . . X X X X X X X X o X o + +                       ",
"          o o o o o o o + o + o o o o o o o + + o + o o o o o o o o o O o o + + O o + + + + # X o + O # # # #                   ",
"        4 4 $ 4 4 $ 4 4 4 4 4 $ 4 $ 4 $ $ 4 4 4 4 4 4 4 $ 4 4 4 $ 4 4 # 4 $ $ $ 4 # 4 $ $ 4 $ 4 $ $ # # # # + #                 ",
"        9 0 0 0 0 0 0 0 0 q 0 0 0 q 0 q 0 0 0 0 0 0 0 0 0 q 0 0 0 9 9 9 9 9 9 9 7 9 9 9 7 9 9 9 9 7 5 4 $ O # o                 ",
"    4 0 s l z z x b x b b b x z x b b x z z z z b z z b n z x b z k h h g g g g g d g h g d h g g f 0 5 4 # o o O               ",
"o # 4 w z W / [ [ [ [ / ` ` ` ` [ [ ` ` [ [ [ [ ` ` ` [ / ` ` [ / ~ Q W W W E W E E v W E W W W E x h 0 4 $ o X O o O           ",
". + 4 s c [ #.=.=.*.*.*.%.%.%.*.%.%.=.%.*.%.%.*.%.&.%.*.%.*.*.%.%.@.O.{ [ [ [ / [ ` ` ` ` [ [ _ [ ^ x f 5 $ o + # # @ #         ",
"X # 4 s E O.-.k.k.-.-.=.-.-.=.-.=.-.=.=.2.-.2.2.2.2.2.2.2.2.2.=.=.*.+.O.o.o.o.O.} O.O.o.] } +.o.O.~ v d 5 $ @ @ % * * *         ",
"X # 4 f W O.2.l.2.-.=.=.=.=.=.*.=.=.=.=.-.2.k.k.l.l.k.k.2.2.-.=.*.&.+.' ' ' O.O.+.+.O.o.' O.+.+.O.{ E f 7 $ @ = : , , : ;       ",
". + 4 f W O.2.k.2.=.%.#.#.#.#.#.%.%.%.%.=.2.2.k.k.l.k.k.2.=.=.%.+.+.O.o.' ' o.@.O.O.O.o.] ' O.O.o.~ E s 7 & = , 2 J H 1 : & # O ",
"o + 6 w E o.=.-.=.%.#.@.O.O.O.O.O.O.O.#.#.%.=.-.2.2.2.2.-.=.#.+.O.@.O.o.o.o.O.O.} } o.o.o.@.+.O.o./ E a 7 $ > 1 L P L H : & o O ",
". # 4 w b ~ O.%.%.O.+.O.O.O.O.O.O.O.O.O.O.O.#.%.%.=.=.-.=.%.#.O.O.@.:.:.>.$.| [ ` { | $.:.:.<.@.O./ E a 6 $ - H L U I H , & O O ",
"o + 4 9 f x ^ ~ o.O.O.+.+.+.+.+.@.+.@.+.o./ ~ ! [ O.%.-.=.*.+.O.@.e.e.v.s.e. .( ^ ( ) e.d.A.d.r.@./ x a 6 4 : H P Y I J , & + X ",
"+ + $ 4 9 f h E ^ o.#.*.=.*.*.*.*.=.*.+.{ ^ x z v ! O.=.=.*.+.O.:.r.I._.T.A.7.( b (  .A.Y.Y.U.v.:./ x a 6 & : K I Y U J , & # X ",
"+ # # $ 4 5 0 d E } *.=.=.=.=.=.=.=.=.%./ x f q g W { *.-.&.#.+.:.v._.OX&XT.B.S j N 7.T.#X*X`.v.>./ E a 5 & - H P U I J : & # O ",
"+ # # # # 4 9 f E { *.2.l.2.2.2.l.2.2.*./ x w 0 w c { %.=.&.' +.>.I.[.=X:X'.V.M j M V.T.-X;XOXU.>./ z a 5 & > 3 L I L H : $ # O ",
"+ O # 4 4 9 q z Q O.=.2.2.l.k.2.-.k.-.=.} E h j l W _ =.-.&.#.O.e.I.&X<X>X+XB.M 5 M N.+X>X<X*XY.r./ x a 5 # = < J J T 1 ; $ # X ",
"o # $ 5 0 h x Q { #.=.2.2.2.-.-.k.k.k.=.+./ W E W ` +.=.-.&.' O.>.I.&X<X>X+XN.M t m N.+X>X1X*XY.r./ E a 5 # @ > , 1 < : * $ + # ",
"o + 4 0 h W / @.*.=.-.2.k.-.k.-.-.2.-.-.*.@.o.{ o.#.&.-.&.' ' #.>.I.].<X>X+XN.M t m N.'.:X<X*XY.r./ E a 5 # # % * ; * * & # # O ",
"o # 4 w c [ *.=.2.-.-.-.-.-.-.-.2.-.-.-.-.=.=.=.=.=.-.2.2.&.' +.,.I.[.<X>X+XV.S m S N.+X,X<X&XI.>./ x a 6 4 # @ @ @ @ @ # # + # ",
". + 4 f E O.=.l.l.2.-.-.-.-.-.-.-.-.-.2.-.k.-.k.-.-.-.-.-.' ' #.,.I.[.<X>X$XD.) G ) D.@X>X>X%XI.| W k e 8 ; % @ @ # # O # # # X ",
". + 4 f E O.-.l.l.-.-.2.k.-.-.k.-.2.-.2.-.k.k.k.k.k.k.-.2.' ' &.>.I.[.<X2X,X@XD.C.D.+X,X2X:X{.Z.( x p p p , , * @ # O O O # # # ",
"o + 4 f E O.-.k.k.k.2.-.-.-.-.-.2.-.-.2.4.k.-.l.k.k.k.-.=.#.+.O.,.I.[.<X3X2X,X$X@X$X,X2X3X:XT.B.Z e i 1 J L 3 , * # X X 4       ",
". # 4 f E o.=.k.k.4.-.2.-.-.k.-.-.-.2.-.-.2.-.-.-.-.-.-.=.&.' O.>.I.{.=X2X3X2X>X:X>X2X3X2X$XF.) m 8 : H L P L 1 ; $ # X         ",
". + 4 f v @.=.4.k.k.-.-.k.-.-.-.k.-.-.-.-.-.-.-.-.k.-.-.-.#.+.O.>.I.Y.*X:X>X1X>X:X1X1X1X=X%XC.) u * : K I U P 2 : $ O O         ",
". # 4 f v O.-.l.l.k.k.k.k.k.k.k.2.l.l.-.2.k.k.-.-.-.k.-.-.&.+.O.:.r.Y.T.[.&X&X&X*X*X*X*X[.T.7.S t & < K U Y P H : $ O O         ",
"o + 4 w W @.-.l.l.l.k.k.k.k.k.l.k.l.l.l.l.-.2.2.-.k.-.-.*.&.+.O.@.>.e.I.I.Y.Y.Y.Y.Y.Y.Y.I.t.) k t & - K I Y P H : @ O O         ",
". + 6 f v O.=.2.k.k.-.-.-.-.-.-.-.-.-.-.-.-.-.-.k.-.-.-.-.&.+.o.O.@.:.>.e.r.r.r.r.r.r.r.e. .Z j 6 % < K I U P 2 : $ O O         ",
"o # 4 w x / #.*.=.*.%.%.*.*.*.*.%.%.*.*.=.=.-.-.-.2.2.=.*.*.+.O.o.o.O.O.@.O.@.@.@.O.#.O.O./ x q 5 % : H L I L i - % O O         ",
"o # 4 0 h v / / / / / / / / / / / / / / o.+.*.-.-.-.=.=.*.#.@.O.@./ ' / / ' ] / _ _ } ' _ Q x q 4 $ > 1 H J 2 , * @ # O         ",
"o o $ 5 0 g k z z z z z z z b z k k k x ^ / +.=.-.=.*.%.+.+.O.O.o.o./ ] ] / / ' _ ' ' ' _ ! x a 6 $ % - < 1 , ; & @ + O         ",
"o o # 4 5 7 0 0 0 0 0 0 0 0 0 0 0 9 9 a z ! +.=.-.=.%.+.O.O.o.o.o.o.O.o.] ' ] ' _ _ +.o.{ ~ z q 4 # @ % * * * % $ # # o         ",
"# # # # # $ 4 $ 4 4 $ 4 $ $ 4 $ 4 4 4 9 d W O.=.-.=.%.O.O.O.o.O.O.O.O.o.' o.o.o.o.o.o.} [ Q z q 6 + # # @ @ $ # # + # #         ",
"# + # o o o o o o o o o o o o O O 4 5 w x ! +.&.=.=.%.+.+.O.O.+.O.O.o.o.o.o.o.O.} { { ~ Q c g 0 4 + O O o O O # # # +           ",
"# # + o o o . . . . . . . . o # 5 0 d z Q / &.&.=.=.&.+.+.+.#.+.+.+.o.o.o.o.o.O.{ ` ! E z s 0 7 $ # X X X O O O o #             ",
"                        . o + 4 0 d E / ' +.&.=.-.=.=.&.&.&.&.&.&.#.+.o.o.o.O.o.{ ~ v h w 9 4 4 $ # # X                         ",
"                          X # 6 a E o.*.=.4.l.2.2.4.2.-.2.2.2.-.=.*.#.@.} } @.O._ ! n w 6 4 # # # # #                           ",
"                          X # 7 h ^ <.5.c.c.c.5.c.5.c.z.c.5.z.z.x.5.1.<.$.$.@.@.{ W l 9 4 o o o + # +                           ",
"                          X # 7 B X.y.n.m.m.m.m.n.n.n.n.n.m.m.n.n.v.p.y.y.;.;.#._ Q k 9 $ o X o o #                             ",
"                          X $ 9 B ..j.R.!.!.E.R.R.E.E.E.E.E.E.E.R.W.j.j.u.y.3.$.{ W k 9 4 + X X                                 ",
"                          . # u C 9.H.).(.(.(././././././././.}.).^.L.J.h.f.y.<.} W k 9 4 + X                                   ",
"                          . $ u D w.W.}.XXXXXXXX X X X.X.X.X.XXXoX).~.P.J.h.u.;.{ Q k 9 4 + X                                   ",
"                          . # u D q.L. XXXXXXXXX.XXXXXXXXXXXXXXX.X X|.P.J.h.u.;.} W k 9 $ X X                                   ",
"                          . # u D q.^.XXXXXXXX.XXXXXXXXXXXXXXXXX.X X|.P.J.h.u.;.} W d 9 4 X .                                   ",
"                          . # r D 0.L..XXXXXXX.X.X.X.X.X.XXXXXXX.XoX|.P.J.h.y.3.o.W k 9 4 X X                                   ",
"                          X # r D 0.L.oXXXXXXXXX.XXX.X.X X X}.}.|.P.P.P.J.h.u.;.{ Q k q 5 4 $                                   ",
"                          . $ r D 0.L. XXXXXXXXXXXXXXXXX X~.L.J.G.G.J.J.J.h.u.;.O.! E h s 0 9 6                                 ",
"                          . # r D 0.L..XXXXXXXXXXXXXXXXX|.J.a.9.9.w.a.G.J.h.u.;.O.` ! E v z s 0 4 o                             ",
"                          . # r D 0.L..XXXXX.X.XXXXXXX.X^.g.6.D V R 0.G.H.h.u.;.@.} _ { [ ^ c s 4 + o o o o +                   ",
"                          X # r C 9.K.oXXXXX.X.X.XXX.X}.K.0.R y m V R w.H.j.u.;.@.o.+.&.%.{ Q g 9 $ + o # + #                   ",
"                          . $ r A 9.H.!.(. XoXoX/.^.~.K.a.6.A w e V 6.g.h.f.y.;.O.+.#.=.*.+./ x s 9 4 4 # # #                   ",
"                          X # 7 B ..f.W.!./.).^.^.G.g.0.6.R A l b ^ ..u.p.u.3.<.O.+.#.*.=.%.{ ! x h w 7 4 # o o                 ",
"                          X $ 7 l X.3.v.M.E.^.L.G.S.6.R A A E ^ ` } ;.5.5.3.3.#.O.O.O.%.%.%.@.O./ Q z q 6 # o o                 ",
"                          X # 7 f ^ $.5.b.M.K.J.g.R V y y l Q o.%.=.4.4.4.4.*.O.O.O.O.o.O.O.+.%.+.{ W g 7 # o                   ",
"                          X # 5 d Q O.4.p.n.j.h.0.R y 8 7 d Q +.2.2.k.2.4.=.%.+.O.{ [ / / / { O.@.{ E g 7 $ o                   ",
"                          X # 7 s W +.-.x.c.f.u.6.V u 4 5 f Q #.2.k.l.2.-.=.*.+.O.[ ! E c v W Q ! W z q 5 $ o o                 ",
"                          X # 6 f W +.-.x.5.y.3.X.l 8 & 6 f ! &.k.k.k.2.=.=.&.#.o./ E z f f f h h g w 9 4 # o o                 ",
"                          o # 6 g W O.-.2.2.1.| ` l r & 9 g ! #.-.k.k.2.-.=.&.#.{ / x f 9 6 5 7 9 7 5 4 $ # O                   ",
"                          X # 7 g W { %.=.%.o./ E g 9 4 9 g ! #.-.k.2.2.=.*.#.o./ E k 0 4 $ o # # $ # # # # #                   ",
"                            # 6 w n Q ! ` ! Q E h 0 5 4 7 h ~ #.2.k.2.-.=.+.{ ~ E z f 9 $ o . o o o o o + + #                   ",
"                              5 q g z z z k g f q 6 4 4 6 h ~ &.2.k.2.=.#.{ ! c h s 0 6 #                                       ",
"                                7 9 0 9 0 9 0 6 5 4 # 4 9 k ~ %.-.2.-.%.@.! x g 0 7 4                                           ",
"                                  4 4 $ 4 4 $ # # # # # 9 g Q O.*.=.%.O.` E d 9 4 $ #                                           ",
"                                    + o o + o o X X X 4 6 s v / { { [ ! E l q 6 $ + X                                           ",
"                                      X . . o o o o o # 4 0 f z v v c z h q 7 4 O X X                                           ",
"                                                  o + # 4 5 9 q w s w 0 0 7 4 $ # + o                                           ",
"                                                  + + # # $ 4 4 4 4 4 4 4 4 $ # # # +                                           ",
"                                                    # O # # + # # # # O # o + + # + #                                           ",
"                                                    # + + o o o X X X o o o o o + # #                                           "
};
