/* XPM */
static char *__resized[] = {
/* columns rows colors chars-per-pixel */
"64 73 205 2 ",
"   c None",
".  c #2A2E1E",
"X  c #272E1A",
"o  c #2C311F",
"O  c #31391F",
"+  c #2E3520",
"@  c #2C3820",
"#  c #313621",
"$  c #3A3621",
"%  c #333921",
"&  c #3B3B23",
"*  c #433622",
"=  c #423A23",
"-  c #4B3924",
";  c #4C3623",
":  c #533724",
">  c #5B3724",
",  c #543A25",
"<  c #5C3A25",
"1  c #633624",
"2  c #623A26",
"3  c #683A27",
"4  c #6F3B28",
"5  c #763B28",
"6  c #7C3A29",
"7  c #743827",
"8  c #3C4425",
"9  c #3F4A26",
"0  c #414A27",
"q  c #444D28",
"w  c #494829",
"e  c #465129",
"r  c #4A552B",
"t  c #4D5A2C",
"y  c #525E2E",
"u  c #55522D",
"i  c #4E4E33",
"p  c #454A35",
"a  c #535235",
"s  c #6A4B27",
"d  c #4E622A",
"f  c #54612E",
"g  c #566430",
"h  c #596731",
"j  c #5C6B31",
"k  c #5F6B3D",
"l  c #606E33",
"z  c #646A3B",
"x  c #637334",
"c  c #667A34",
"v  c #697B36",
"b  c #6C7E39",
"n  c #6B7333",
"m  c #575C4B",
"M  c #5E6251",
"N  c #5A6448",
"B  c #6C7A49",
"V  c #656D55",
"C  c #796F50",
"Z  c #6E6E4C",
"A  c #717766",
"S  c #833B2A",
"D  c #8C3C2B",
"F  c #883726",
"G  c #9B3D2C",
"H  c #953C2C",
"J  c #A43D2D",
"K  c #AB3D2E",
"L  c #B33E2F",
"P  c #BA3E30",
"I  c #8E402A",
"U  c #6E8139",
"Y  c #6E8337",
"T  c #72853B",
"R  c #758A3C",
"E  c #798E3D",
"W  c #7D923E",
"Q  c #778646",
"!  c #7F9541",
"~  c #768555",
"^  c #79836F",
"/  c #859D3D",
"(  c #88A23F",
")  c #87A03F",
"_  c #809642",
"`  c #859D42",
"'  c #889D46",
"]  c #899B4F",
"[  c #8B975A",
"{  c #83884C",
"}  c #87A042",
"|  c #8AA344",
" . c #8EA945",
".. c #8DA34A",
"X. c #91AC46",
"o. c #91A44B",
"O. c #93AD48",
"+. c #98AE4E",
"@. c #95B146",
"#. c #96B249",
"$. c #99B54A",
"%. c #9EBB4C",
"&. c #98B947",
"*. c #95A550",
"=. c #9BA655",
"-. c #93A955",
";. c #96AB59",
":. c #99AE5D",
">. c #98A858",
",. c #9FB650",
"<. c #A0BE4E",
"1. c #A3A95B",
"2. c #A4BC52",
"3. c #ACBB5C",
"4. c #A6B559",
"5. c #B0BD5F",
"6. c #8C9478",
"7. c #949468",
"8. c #AD9672",
"9. c #AE9A72",
"0. c #A6956C",
"q. c #99AB65",
"w. c #9DB263",
"e. c #ACAB65",
"r. c #AEA968",
"t. c #B1AD69",
"y. c #B4BE63",
"u. c #BABB6C",
"i. c #B5B36A",
"p. c #A9BA77",
"a. c #BEB274",
"s. c #AEAE75",
"d. c #C3BC74",
"f. c #C4B27B",
"g. c #C6BA79",
"h. c #A3C14F",
"j. c #A6C450",
"k. c #A8C055",
"l. c #B5C362",
"z. c #BBC567",
"x. c #CCC977",
"c. c #CBC877",
"v. c #D2CD7C",
"b. c #8B8D84",
"n. c #8E8F88",
"m. c #93968C",
"M. c #9AA589",
"N. c #AFBE83",
"B. c #A9B787",
"V. c #B0B995",
"C. c #B5B8AE",
"Z. c #B6B9B1",
"A. c #ACAFA6",
"S. c #CCB881",
"D. c #D1BB85",
"F. c #D4B68B",
"G. c #D7BB8C",
"H. c #DDBB92",
"J. c #E1BE96",
"K. c #E6BF9A",
"L. c #B2C284",
"P. c #B5C489",
"I. c #BBCB8D",
"U. c #BECC93",
"Y. c #BDC1B1",
"T. c #D9C688",
"R. c #C0CC9C",
"E. c #E3CF8D",
"W. c #E4D18E",
"Q. c #EDC69E",
"!. c #E6C895",
"~. c #EAD394",
"^. c #F4D39E",
"/. c #CAD4AB",
"(. c #C7D0AD",
"). c #C4C8BC",
"_. c #D2DCB5",
"`. c #D5DEBB",
"'. c #CFD9B4",
"]. c #F6CEA3",
"[. c #F0C7A0",
"{. c #F6D4A0",
"}. c #FBD4A6",
"|. c #FFD7A8",
" X c #FFD9AB",
".X c #FDD9A5",
"XX c #F7D2A8",
"oX c #D8E1BE",
"OX c #C4C5C2",
"+X c #CCCCCA",
"@X c #D8D9D6",
"#X c #DBDFCF",
"$X c #DEE6C4",
"%X c #DCE1D0",
"&X c #EBEFDE",
"*X c #E4E9D6",
"=X c #ECF0DF",
"-X c #E0E6CC",
";X c #E9EBE5",
":X c #EBEBEA",
">X c #E5E7E1",
",X c #EDF1E2",
"<X c #F1F3EB",
"1X c #F5F6F3",
"2X c #F9F9F8",
/* pixels */
"        o o o o o o o o o o o o o o . o o . + . . + . . + . . + . + + o o + + o o o o o + o o o + + + # % % %                   ",
"        # # # # # # % # # # # # % % # % % # % % % # # % % # # % # # # # # # # # O O @ % @ % # # # # # # % % +                   ",
"        8 8 8 8 8 8 8 8 8 8 8 8 8 8 8 8 8 8 8 8 8 8 8 8 8 9 8 8 8 8 8 8 & 8 8 8 8 8 8 8 8 8 8 8 8 8 & % % % # #                 ",
"      q t y f f f f f f f f f f f f f y g y y y g y y g t g y g y y t t r t t e r r r t r t r t r r q 9 % % # +                 ",
"o % 8 t h x v b U U b U b U U b U U U U b b b U b b U b b U U b b x c x x l l l x x j j j x x x j j y e 8 % # + o @             ",
"o # 8 y c E ` | } } ' ' ' ' ' | ` ` ' } ` | ` ' ` ' ' } ' } } ' ` / W E R T R R R R R R R R R W R b l t 9 % # o @ % @           ",
"o # 8 y b ` O.$.$.$.$.$.#.$.#.$.$.$.$.#.$.$.$.$.$.$.$.$.$.&.$.$.O.O...} ` ` _ ` ! ) ! ! ! ! ! } ` W c f 0 % % % % & & &         ",
". % 9 f b ..%.j.j.j.%.$.%.$.%.$.$.%.$.%.%.<.h.h.h.h.h.<.%.<.%.%.$.#. .| } } | | |  . . .(  . . .' W U g q % $ * ; , , ,         ",
"o % 8 g T  .h.h.j.$.#.$.$.#.#.#.@.$.@.$.$.<.h.h.j.h.2.<.<.<.$.<.#.X. .( } | |  . .| | ( } (  .} } ! Y g q & * : 2 4 4 2 , =     ",
". % 8 f U | %.h.$.$.X.X... .X. . .X.X.X.$.$.<.h.h.h.<.<.<.<.@.O. .| | ( } } } | | | | ( } ! (  .| ! U g 0 & : 3 S D D 5 < = % @ ",
"o # 8 f b ' #.$.$. .| | | | | | | | |  . .O.$.$.<.<.<.<.#.O.O.| ..| | | ..} } } } } } | | .. .| } ! U d q & : 7 G K G S < = + @ ",
"o % 8 t x R }  ... .|  ...| ..| ..| | | | | | .. .@.@.<.<.O.X.| | ..;.q.q.;.] ! ! ! ] -.:.w.;.-.| ! v f q = > 6 J L K D 2 = @ @ ",
"+ # 8 0 y x U Q ` | ..X.X.X.X.X.X.X.X...` ! R R / '  .$.$.( @. ...q.p.z.B.M.] Q Q Q [ p.B.L.L.q...! c d 9 = < S K P K D 2 = % @ ",
"+ % % 8 q r g c R ` X.#.&.$.#.#.$.$.$..._ U x j l R ' $.<.<.(  .o.p.I./.Y.P.6.~ k V 6.V.Y./.U.l.;.! U d q & < S K P K D 2 = # @ ",
"% % % % & 9 e h U ` O.%.<.%.%.$.<.%.%.O.! c f u g v ` #.$.( X.| ;.z.(.%X%XY.m.V a V 6.Y.$X$X'.L.;.! c d 9 = > 6 J L K S 2 = % @ ",
"# % % % % 8 e h U ` $.<.<.<.<.%.<.<.%.#._ v y r g v ` #.<.&.(  .:.P.$X>X;XOXn.N p M b.Y.;X,XoXI.:.W c d q & : 7 H J H 6 < & + @ ",
"+ % % 8 q r g x Q  .$.<.h.h.<.<.h.h.<.$.' T x j l R ' $.$.@.( X.q.P.oX<X:XOXn.m 8 m b.OX<X,X$XU.w.! Y d 9 & - 1 6 I S 3 , & O O ",
"+ % % q y x U ! | O.%.<.<.<.<.<.<.<.<.&.X.` R T E / O.$.&.@.( o.:.P.oX,X:XOXn.m 9 m b.OX:X,X$XU.w.! Y d 9 & $ ; < 2 2 < = & O o ",
"+ # 8 t x R ' X.#.$.%.<.<.<.<.<.%.<.%.%.$.X.....| O.$.$.$.@.(  .:.P.'.;X:XOXn.M p M n.OX;X,X$XP.:.W c d 9 O $ $ * , - = & % % O ",
". # 8 y b ` #.%.<.<.%.<.%.%.%.%.%.<.<.%.%.%.&.%.<.$.<.<.&.X.(  .:.L.$X;X:X+Xm.A m A m.OX;X=X$XP.;.R x d q = $ $ $ O O O # % # % ",
"+ % 8 y U | $.j.j.<.%.%.<.%.%.<.%.%.<.%.<.<.<.h.<.<.<.<.&.@.(  .:.P.`.,X:X@XZ.n.A b.A.@X:X;X'.L.] b l s u , ; * $ # @ @ # @ % % ",
". % 8 g U | %.j.j.<.<.%.%.<.%.%.<.<.%.<.<.<.<.h.<.<.<.<.&.@.( | :.P.`.,X1X:X+XZ.A.Z.+X:X2X>XY.M.B l s s 5 5 1 : = % @ @ + %     ",
". # 8 g U } $.j.j.<.%.<.%.<.%.<.%.<.<.%.<.<.<.<.<.<.<.<.$.X.( X.:.L.'.,X2X2X:X@X@X@X:X1X2X>XY.^ Z u s 5 I I F s - & @ @         ",
"+ % 8 g U } $.2.h.<.<.%.<.%.<.%.<.%.%.<.%.%.%.<.<.<.<.<.&.@.( ..;.L./.*X1X2X1X1X:X:X1X2X<X@XY.^ m w > 7 J K G 5 , $ @ @         ",
". % 8 g U | $.<.j.<.%.<.<.<.<.<.<.<.<.<.%.<.%.<.%.<.<.%.$.X.(  .;.p.U.+X*X&X,X&X&X&X=X=X*X(.M.A i * 1 F K L J 6 < & @ @         ",
". # 8 y T | %.j.j.j.h.h.h.h.<.h.<.h.h.<.h.%.<.%.<.<.h.%.&.@.X.| ..q.L.U./._._._.'.oXoX_.(.P.6.M p * 1 F L P K S < & @ @         ",
"+ % 8 g U | %.h.j.j.h.h.<.h.h.h.h.<.h.h.2.h.<.%.%.<.%.%.%.O. .....;.w.p.z.L.L.L.L.L.L.L.B.q.^ N q = 1 F K P K 6 < & # @         ",
". % 8 y U ` $.<.<.%.%.%.%.%.%.%.%.%.%.%.%.%.%.<.<.<.<.%.$.@. .| ....-.-.;.;.;.;.;.:.,.;.;.! Q d 9 - 2 S K L G 5 , $ # @         ",
"+ + 8 t x ! | X.X.X. . .X...X... ...X.X.O.#.$.%.%.%.%.&.$.O. .| } } (  .!  .!  .( | | | ! ! c t 9 = > 6 G J D 5 , & @ @         ",
"+ # 8 e h x R Q Q R R R R E R E R R R E ` ..#.%.%.%.$.$.O.X.| | } ( ! ! ! ! ! ! ! ) ( ( ) E x t 8 & : 3 6 S 5 2 - & @ @         ",
"+ # % 8 e y h j j j j j j j j j j g h l b ! X.$.%.$.#.X...| | ` } } ! ( ( ! ( ( ) ) ( ( ) R x y 9 $ * : < 2 < - & % % +         ",
"# % % 8 8 0 q q e e q q q q q q 0 0 q r j R | $.%.$.O...| | | | } | (  .} } } } } } | | ) E v t 8 $ $ $ * - = * $ % # %         ",
"% # % % % % % % % % % % % % % & @ 8 8 e j R ..#.%.#.X. .| | | | | | } }  .} } } ' ' ` / / T l t 8 % # # % % % % # % #           ",
"% % # # # # + + # + + + + + @ % 8 9 e d c E  .&.%.&.X. . .| | |  .| }  .!  .| } ` _ W E U x g e 8 % + + + @ + % % # %           ",
"                      . + . + % 9 t x U R } O.&.&.&.@.X.@.@. .@.X. .( ! } } } } ` / R v j y e 9 % % + @ @                       ",
"                        . + % 8 t l R !  .@.#.&.%.&.&.@.&.@.&.$.@.@. .} } } | | ` E v h t 0 8 & % % + +                         ",
"                          o % 0 g Q ' +.j.h.j.j.2.2.2.2.2.2.2.2.2.+.$.o. .| | | _ R x t 0 % % % % % %                           ",
"                          o % q j ! 1.l.z.z.l.l.l.l.l.l.l.l.l.l.y.3.4.=.-.*.o...` R l r 8 + o + % %                             ",
"                          o % e z ] i.x.v.v.x.x.x.x.x.x.x.v.x.x.c.u.u.i.e.1.=.o.` R j e % + o o +                               ",
"                          o % i Z 7.g.E.~.~.W.W.E.E.E.W.W.W.W.E.E.T.D.f.a.i.1.=.` R j e 8 # o o                                 ",
"                          o % i C 0.F.^.^.|.^.^.^.^.^.^.^.^.{.{.].Q.!.G.S.a.r.=.' T j r 8 o o                                   ",
"                          X % i C 8.H.}. X X X X|.|. X X X X|.|.}.[.Q.H.F.f.t.=.' T j r 8 # o                                   ",
"                          o % a C 8.J.}. X X X X X X X X X X X X|.].Q.J.F.f.i.=.) R j r 8 o . .                                 ",
"                          X % i C 8.H.}. X X X X X|. X X X X X|.}.].Q.J.F.f.t.=.} Y j e % o . o o o + + # %                     ",
"                          . % i Z 8.!.XX X X X X|.|.|.|.|.|. X|.}.].K.J.F.f.t.=.' T j r 8 O o o # % % % % # %                   ",
"                          + % i C 8.H.XX X X X X|.|.|.|.|.|.|.|.}.[.Q.J.F.f.r.=.' E c f q 9 8 9 8 8 8 % % % #                   ",
"                        . X % i C 8.!.XX X X X X|.|.|.|. X X X|.}.].[.J.F.f.r.=.| W U x h f f h g y r 0 8 % # +                 ",
"                    % o . X # p C 8.!. X X X X X X X.X|.|. X X X|.].[.J.F.f.r.=.' / W T T T T T T b j t 8 % # +                 ",
"                  % % o o o O i C 9.K.}. X X X|.|.|.|.|.|.|. X X}.].Q.J.F.f.r.=.| } } | | | | ..| ! b g q % +                   ",
"                  # % % O O 8 a C 9.H.]..X X|.|.|.}.|.}.}.}.}.^.].Q.!.H.S.a.r.*...|  .X.#.$.$.$.X.' T h e & +                   ",
"                # # % % & 9 t z { r.g.!.^.^.^.{.].].].^.].^.^.!.E.T.D.f.a.9.1.*.| ..X.#.&.$.#.O.| ! v f 0 % +                   ",
"                o # % 8 e f x Q ] 1.c.c.T.W.!.Q.[.[.[.Q.!.E.T.v.c.d.d.t.r.1.=.o.| | X.#.$.O.| ` T x h e 8 % # +                 ",
"                o + % 9 d c W ' #.4.5.z.c.D.T.K.!.K.K.J.H.T.c.z.y.3.1.1.=.*.o...| |  .X. .' E v j t q 8 & % # +                 ",
"                  O % q h T | #.%.<.2.3.y.d.D.G.H.H.H.G.S.d.u.3.2.2.+.o...| ' | | ' | | ` W v f q 8 % # % % %                   ",
"                  + O e l Q  .&.%.%.$.<.4.i.d.f.F.F.S.g.g.u.y.2.%.&.O.X.| | | | | ` / W R b j r 8 # + + % % %                   ",
"                . + 8 e l R X.$.%.&.@.$.4.3.i.d.d.d.g.d.u.y.3.<.%.&.@.X. . .| | ` W E U x j r 8 % + + + + %                     ",
"                o + & e j T | O.&.@.X.O.$.4.5.y.y.u.y.l.l.3.2.2.<.&.$.&.O.O.X.| ` E T l y e 0 8 % # + +                         ",
"                  + % q f b W | | ..| ..X.#.$.2.2.2.2.2.2.2.2.%.%.%.%.&.$.$.O.X.` E x y q 8 % % % % #                           ",
"                  # % q g x R W W W W W _ ' |  .o.O. . . . .X.X.X.#.$.%.%.$.@.X.` R l t 8 % o # # % %                           ",
"                    % 0 t j x c v v v v b T R R R E E R E T R E W ( O.%.<.%.$.X.` T l e & + o + # #                             ",
"                      0 e t y y f y y f f h h j j j j j j j h j x R ' #.%.<.$.X.` T j e % + o o                                 ",
"                        8 0 0 0 9 9 0 0 q q q q e e e q q 0 0 e y x W X.$.%.$.X.` R j r 8 # +                                   ",
"                          % % % % 8 8 % O 8 8 % @ 8 8 O % % % % q h T ` O.O.O.X.` T j r 8 # +                                   ",
"                            # # o o o o o o o o o o o o + . . + 8 y x R _ ` | | ` R x r 8 # +                                   ",
"                                                                8 e g j v T ! ` ` R x r 8 + o                                   ",
"                                                                  9 q e y j b ! _ R x r 8 # o                                   ",
"                                                                    % & 0 y x T E T l r 8 + o                                   ",
"                                                                      + % e j v T v h e 8 # +                                   ",
"                                                                        % q y h j f r 0 & % +                                   ",
"                                                                          8 q e r q 0 8 % # #                                   ",
"                                                                            8 8 8 8 % % % # %                                   ",
"                                                                            # # # # % # % % #                                   ",
"                                                                              + o + + # # % %                                   "
};
