/* XPM */
static char *__resized[] = {
/* columns rows colors chars-per-pixel */
"64 73 203 2 ",
"   c None",
".  c #2A2E1E",
"X  c #272D1B",
"o  c #2C311E",
"O  c #2E3520",
"+  c #2C3820",
"@  c #313620",
"#  c #3A3621",
"$  c #333921",
"%  c #3A3B23",
"&  c #433622",
"*  c #423A23",
"=  c #4B3924",
"-  c #4C3623",
";  c #533724",
":  c #5B3724",
">  c #543A25",
",  c #5C3A25",
"<  c #633624",
"1  c #623A26",
"2  c #683A27",
"3  c #6F3B28",
"4  c #763B28",
"5  c #7C3A29",
"6  c #743827",
"7  c #3C4425",
"8  c #3E4B25",
"9  c #414B27",
"0  c #444D28",
"q  c #494829",
"w  c #475129",
"e  c #4A552B",
"r  c #4D5A2C",
"t  c #525E2E",
"y  c #55522D",
"u  c #4E4E33",
"i  c #454A35",
"p  c #535034",
"a  c #6A4B27",
"s  c #4E622A",
"d  c #54612E",
"f  c #59692F",
"g  c #566430",
"h  c #596631",
"j  c #5C6B32",
"k  c #5F6B3D",
"l  c #606E33",
"z  c #65693C",
"x  c #637334",
"c  c #667A34",
"v  c #697B37",
"b  c #6C7E39",
"n  c #6B7333",
"m  c #575C4B",
"M  c #5E6251",
"N  c #5A6448",
"B  c #676B4A",
"V  c #746E4B",
"C  c #6C7A49",
"Z  c #656D55",
"A  c #7A6F50",
"S  c #717766",
"D  c #833B2A",
"F  c #8C3C2B",
"G  c #883726",
"H  c #9B3D2C",
"J  c #953C2C",
"K  c #A43D2D",
"L  c #AB3D2E",
"P  c #B33E2F",
"I  c #BA3E30",
"U  c #8E402A",
"Y  c #6E8139",
"T  c #6E8337",
"R  c #72853B",
"E  c #758A3C",
"W  c #798E3D",
"Q  c #7C923E",
"!  c #7A8848",
"~  c #7F9540",
"^  c #768555",
"/  c #79836F",
"(  c #859D3D",
")  c #88A23F",
"_  c #87A03F",
"`  c #809641",
"'  c #859D42",
"]  c #889D46",
"[  c #879B4F",
"{  c #8B975A",
"}  c #878C4E",
"|  c #87A042",
" . c #8AA344",
".. c #8EA945",
"X. c #8DA34A",
"o. c #91AC46",
"O. c #91A44B",
"+. c #93AD48",
"@. c #95B146",
"#. c #96B249",
"$. c #99B54A",
"%. c #9EBB4C",
"&. c #98B947",
"*. c #95A550",
"=. c #9BA655",
"-. c #93A955",
";. c #96AB59",
":. c #99AE5D",
">. c #98A858",
",. c #A0BE4E",
"<. c #A2A95B",
"1. c #A4BC52",
"2. c #ACBD5B",
"3. c #A7B65A",
"4. c #B0BD5F",
"5. c #8C9478",
"6. c #969366",
"7. c #AD9672",
"8. c #A7956C",
"9. c #99AB65",
"0. c #9DB263",
"q. c #ACAB65",
"w. c #AFAC68",
"e. c #B1AD69",
"r. c #B4BE63",
"t. c #BABC6B",
"y. c #B4B16B",
"u. c #A9BA77",
"i. c #BEB274",
"p. c #AEAE75",
"a. c #C3BD75",
"s. c #C4B37B",
"d. c #C6BA79",
"f. c #A3C14F",
"g. c #A6C450",
"h. c #A8C055",
"j. c #B5C362",
"k. c #BBC567",
"l. c #CCC977",
"z. c #CBC778",
"x. c #D3D07B",
"c. c #8B8D84",
"v. c #8E8F88",
"b. c #93968C",
"n. c #9AA589",
"m. c #AFBE83",
"M. c #A9B787",
"N. c #B0B995",
"B. c #B5B8AE",
"V. c #B6B9B1",
"C. c #ACAFA6",
"Z. c #CCB882",
"A. c #D1BB85",
"S. c #D4B68B",
"D. c #D7BA8C",
"F. c #DDBB92",
"G. c #E1BE96",
"H. c #E6BF9A",
"J. c #B2C284",
"K. c #B5C489",
"L. c #BBCB8D",
"P. c #BECC93",
"I. c #BDC1B1",
"U. c #DAC788",
"Y. c #C0CC9C",
"T. c #E3CF8D",
"R. c #E4D18E",
"E. c #EDC69E",
"W. c #E6C895",
"Q. c #EAD394",
"!. c #F4D39E",
"~. c #CAD4AB",
"^. c #C7D0AD",
"/. c #C4C8BC",
"(. c #D2DCB5",
"). c #D5DEBB",
"_. c #CFD9B4",
"`. c #F6CEA3",
"'. c #F0C7A0",
"]. c #F6D4A0",
"[. c #FBD4A6",
"{. c #FFD7A8",
"}. c #FFD9AB",
"|. c #FDDAA5",
" X c #F7D2A8",
".X c #D8E1BE",
"XX c #C4C5C2",
"oX c #CCCCCA",
"OX c #D8D9D6",
"+X c #DBDFCF",
"@X c #DEE6C4",
"#X c #DCE1D0",
"$X c #EBEFDE",
"%X c #E4E9D6",
"&X c #ECF0DF",
"*X c #E0E6CC",
"=X c #E9EBE5",
"-X c #EBEBEA",
";X c #E5E7E1",
":X c #EDF1E2",
">X c #F1F3EB",
",X c #F5F6F3",
"<X c #F9F9F8",
/* pixels */
"        . o o . . o o . o . o o o o . o o o o o o o o o O . . O . O O O o O o O o o + o o o o o o o O @ $ $ $                   ",
"        $ $ $ $ $ $ $ $ $ $ $ $ $ $ $ @ @ @ $ $ @ @ $ @ $ @ @ $ @ @ @ @ @ @ @ @ + o $ $ $ $ @ $ $ $ @ $ $ $ @                   ",
"        7 7 7 7 7 7 7 7 7 7 7 7 7 7 7 7 7 7 7 7 7 9 7 7 7 7 7 7 7 7 7 7 7 % 7 7 7 7 7 7 7 7 7 7 7 7 % $ $ $ $ @                 ",
"      0 r r g t t t g t g t t t d d d t d d d t t t t d g t g t t t r r r e r e e e e r r r e e e w 0 8 $ $ O O                 ",
"o $ 7 r h x v b Y b Y Y b b b b Y b Y b b b Y b b b b b Y b b b b c x x l l x j x x j j x j x c j h t w 7 $ O O o +             ",
"o @ 7 t x W '  . . .| ] ]  .| ] ] ' '  .]  .] ] ' ] | ] ' |  .' ' ( Q W E R E E E E E E E E E W E Y j r 8 $ @ @ + $ +           ",
"o $ 7 t Y ' +.$.%.$.#.#.$.$.$.$.$.$.$.$.&.$.$.$.$.$.$.$.$.&.$.$.+.o. .] ' ` ` ' ~ | | ~ ~ ~ ~ | ' Q v d 9 $ @ @ $ # % #         ",
"o @ 7 g R  .%.g.h.%.%.%.$.$.%.$.%.$.$.$.%.,.,.f.f.f.f.f.1.,.%.%.$.#.o. . . . . . . ...| ) ...... .Q Y g 0 % # & = > > >         ",
"O @ 8 d Y o.%.g.h.&.#.#.#.#.#.#.#.#.$.$.$.,.f.g.g.g.1.,.,.,.,.$.#.o...) | |  ... ...) ) ~ ..) )  .~ T g 0 % & ; 1 6 4 1 > %     ",
". $ 7 d Y  .%.,.%.#.+.....o.o.o.......o.#.$.,.f.g.,.,.,.,.,.+.o..... .( | '  . . . . .)  .~ .... .~ Y g 0 * - 2 D F F 4 , * $ + ",
"O @ 7 s Y | #.$.#.o. . . . . . . . . .X...+.$.$.,.,.,.,.#.+.+... . . .X. . . .| ' ]  . ... .X...| ~ v s 8 % ; 6 J L H D , * $ + ",
"O @ 7 r x ! | ...... .X... .X. . ... .X.X. . . ...@.@.,.,.+.o. . .O.-.:.9.;.[ ' ~ ~ [ -.9.:.:.+. .~ v d 0 * : D K I L D 1 * + + ",
"O @ 7 0 g x Y ! ' | ..o.+.+...+...o.o...' Q E E W ' o.$.@.@.)  .*.9.u.J.M.u.{ ! C ! [ 9.M.K.u.0.X.~ c s 0 % , D L I L F 1 * @ O ",
"O @ $ 7 8 e g c E ' o.#.#.#.#.#.$.$.#...` R l l n E ] $.,.,.@. .*.u.L.~.I.N.5.C k C 5.N.^.~.I.k.;.~ c s 8 * , D L I L F 1 * $ + ",
"@ $ $ $ % 7 w h b ' #.%.%.%.%.%.,.,.%.+.` v d e d b ' $.@.) .. .-.J.~.@X#XI.c.Z p Z 5.I.#X#X_.k.:.~ c s 8 * : 5 K P L D 1 * + + ",
"@ $ $ $ % 7 w h Y ' $.%.f.,.%.%.,.,.,.+.` v t e g v ' +.,.,.) ..;.K.(.$X=X/.b.N i M c.XX=X:X.XL.:.~ c s 0 % ; 4 J K H 4 , # $ + ",
"@ $ % 7 8 e g v ~  .$.,.,.,.,.,.,.,.,.$. .! x f x E ] $.$.@.o. .:.K.@X>X-XXXv.M 7 m c.XX-X>X@XP.0.~ T s 8 % = < 5 F a 6 ; % @ o ",
"O @ % 0 r l Y ~ | #.$.,.g.,.%.,.,.,.,.$.X.~ E E W ' o.$.&.@.) ..:.K.).:X-XXXv.m 7 m c.XX=X:X@XP.0.~ T s 8 $ # - , 2 1 > - # $ $ ",
"O $ 7 r l ! ' o.#.&.%.,.,.,.%.,.,.,.,.%.$.o..... .+.$.&.&.) ) o.:.K._.=X-XXXv.M i M c./.=X:X@XK.:.Q c s 8 $ # # = * = * % $ $ o ",
". @ 7 t v ' #.%.,.,.%.,.%.,.%.,.,.,.%.%.%.%.%.&.$.,.,.,.,...) +.:.K.@X=X-XoXb.S m S b.oX=X:X@XK.;.E c r q & # # # # $ # $ $ $ $ ",
"o $ 7 d T  .%.h.g.,.%.%.,.%.%.,.,.%.%.%.%.,.,.,.,.,.,.,.&.@.....:.K.).:X-XOXC.v.S c.C.OX>X=X_.J.[ b j a y > - & % $ + + @ $ $ $ ",
". $ 7 d T  .%.f.g.f.,.%.%.%.,.%.%.%.,.,.,.,.,.h.,.,.,.,.&.o.)  .;.K.).:X,X-XoXV.C.V.oX-X,X;XI.n.C l a a a 4 2 ; & $ + + o $     ",
"O O 7 g Y  .&.h.f.,.%.,.,.%.,.%.,.%.%.,.,.,.,.,.,.,.,.,.$.o.)  .:.J._.=X<X<X-XOXOXOX-X,X,X;XI./ B y a 4 U J G 3 = $ + +         ",
"O @ 7 g Y | &.,.f.,.,.%.,.%.%.,.%.,.,.%.%.%.,.%.,.,.,.,.&.o... .;.J.~.%X,X<X<X,X-X-X<X<X>XOXI./ m q : G K L H a > # + +         ",
". @ 7 g Y  .%.,.f.,.,.,.,.,.,.,.,.,.,.,.,.%.,.%.,.%.,.%.$.@... .-.u.P.+X#X$X:X$X:X$X:X:X%X/.n./ u & < G L I L a , # + +         ",
"o @ 7 d Y  .%.h.g.g.f.,.f.,.,.f.,.f.f.,.,.,.,.%.,.,.,.%.&.o... .-.0.J.P.~._.(._.(..X(.(.^.K./ Z i & < G P I L 5 , * + +         ",
"o $ 7 g Y  .%.g.g.g.f.f.h.,.,.,.f.,.f.f.h.,.%.%.,.,.,.,.$.#... .X.;.9.u.k.J.J.J.k.K.J.J.m.9./ N i & < G P I L D , % $ +         ",
"o $ 7 t Y ' #.1.,.%.%.%.%.%.%.%.%.%.%.%.%.%.%.%.%.,.%.%.%.+.o. .| X.-.-.9.;.;.;.;.;.:.:.-.~ ! r 9 & < G K P H 4 > # + +         ",
"O @ 7 e x ~  .o.o.o.........o.......o.o.+.#.%.%.%.%.%.%.#.+... .....~ ..~  . .~ | |  . .| W c s 7 * : 5 H K F 6 ; % $ +         ",
"O @ 7 w g x R W W W ! E W E W E ! E E W '  .#.%.%.%.$.#.+...X. .~ ) ~ ) ~ ~ ~ ..( _ _ ) ( W x r 9 # ; 2 5 D 4 1 = % O +         ",
"O $ % 7 e t h j j f j j j j j j f g f j b Q ..&.%.%.#.o... . .| ) ~ ~ ) ~ ~ ~ ) ( _ ) ) ( W c r 7 # & ; , 1 , - # $ + +         ",
"@ @ $ 7 7 8 0 0 w 0 0 0 0 0 0 0 8 8 0 r j ! ..#.%.#.o... . .|  .| ..) ) ) ..) ) |  . .| | W x t 8 # # # * = * & % $ $ $         ",
"@ $ $ $ $ $ $ $ % @ % $ % $ $ % + 7 7 w j R  .$.%.#... . .|  .| ..| ..~ ..) ..~ ]  .' ( Q E l r 7 $ @ @ $ $ @ $ $ $ @           ",
"$ $ @ @ @ O O O O O O O O O O $ 7 7 w s c ~  .&.&.&.#...............~ ..~ ..~ ..' ' Q W R x g w 7 @ O O O + $ O $ @ $           ",
"                      . X O O $ 8 r x T E | ..&.&.&.@.@...o.@.......) ~ ..) ....' Q E v j d w 8 $ $ O O +                       ",
"                        . . @ 7 r x E ~ ..#.&.%.%.%.&.#.&.&.$.&.@.o.....~ ~ ..~ ' W v f e 9 7 % $ $ $ O                         ",
"                          O $ 0 d T  .$.f.g.h.,.1.1.1.1.1.1.1.1.1.$.+.o.o. ... .' W x r 9 $ $ @ $ $ $                           ",
"                          o $ 0 j } <.j.k.k.j.j.j.j.j.j.j.k.j.j.r.4.3.=.$.-.X.X.` E j e 7 @ o @ O $                             ",
"                          o $ 0 z { y.l.x.x.l.l.l.l.l.l.l.l.l.l.z.i.i.y.q.<.>.O.' R j w $ @ o o $                               ",
"                          O $ u V 6.Z.U.Q.Q.R.T.T.R.T.R.R.R.R.T.U.U.A.d.i.y.<.*.' E l e % @ o o                                 ",
"                          o $ u V 8.D.!.!.|.|.!.!.!.].!.!.!.].].!.W.W.D.Z.i.q.=.] R j e 7 o o                                   ",
"                          X $ p A 7.F.[.}.}.}.{.{.{.}.}.}.}.{.{.[.`.E.G.S.s.w.=.] E j e 7 @ o                                   ",
"                          X $ p A 7.G.[.}.}.}.}.}.{.}.}.}.}.}.}.{.`.E.G.S.s.w.<.( T f w 7 o . X                                 ",
"                          o $ p A 7.F.|.}.}.}.}.}.}.}.{.}.}.}.{.[.`.E.G.S.s.w.=.] E j w % o . X o o O O @ $                     ",
"                          X $ u A 7.W. X}.}.}.}.{.{.{.{.[.}.}.{. X`.E.G.S.s.e.=.] E j e 7 @ @ @ @ @ $ $ $ $ $                   ",
"                          + % u A 8.F. X}.}.}.}.{.{.{.{.}.{.}.{. X`.H.G.S.s.w.=.] W c s 0 8 % 9 8 7 7 % $ $ @                   ",
"                          O $ u A 7.W. X}.}.}.}.{.{.{.}.}.{.}.{. X`.'.G.S.s.q.=.] W Y x f g g g g t e 8 % $ @ @                 ",
"                          X $ u A 7.W.}.}.}.}.}.}.{.{.[.}.}.}.{.[.`.'.H.S.s.q.=.X.( Q E R R R R R v j r 8 $ @ o                 ",
"                          X $ p A 7.G.[.{.}.}.[.}.}.[.}.[.}.{.}.[.`.E.G.S.s.q.=.X.| |  .X. . . .] ` b g 0 $ @                   ",
"                          o $ u V 8.S.!.{.}.}.[.[.[.[.[.[.[.[.].!.E.W.F.Z.i.q.=.X. ...o.$.$.$.$.+.' R h w $ O                   ",
"                          X $ i V 6.s.U.!.!.].].`.`.].`.].!.Q.T.T.U.A.d.i.7.<.*. ...o.@.$.$.$.+. .~ v g 0 $ O                   ",
"                          X @ 0 z { y.U.U.R.W.E.'.'.'.E.W.W.U.U.z.d.s.y.q.<.=.O. . .o.@.$.+. .` R x g w 7 $ @ O                 ",
"                          . @ 0 j ! <.k.z.U.U.W.E.H.H.G.F.U.z.k.r.r.<.<.=.*.O.] ]  .....o.] W v h t 0 7 % $ @ O                 ",
"                          @ % 0 j E +.3.j.d.A.D.D.F.F.D.Z.a.t.2.1.$.#.O. . .] X. . . . .( W v d 0 7 $ @ $ $ $                   ",
"                        7 0 w g x W ..%.2.t.d.Z.S.S.Z.d.d.t.r.1.%.@.+.o. . . . .] ' ( W E b f e 7 @ O O $ @ $                   ",
"                      0 e g j c E | o.%.2.r.t.t.a.d.a.a.t.r.2.,.%.&.$.o....... .' ` E b x h e 7 $ O O O @ $                     ",
"                    % w g c ! Q | o.#.%.h.h.4.r.r.r.r.r.r.2.h.1.,.%.&.$.@.o.o. .] Q b j t w 8 7 $ @ O @                         ",
"                  O % w f R | @.$.%.%.%.1.1.1.1.3.3.1.1.1.%.,.%.%.%.%.%.$.$.+...] E x d 0 7 $ $ $ $ @                           ",
"                  O $ w j W o.%.f.%.%.%.#.#.+...o.o.o.o.o.o.o.o.o.@.$.%.%.$.$...' E x d 0 7 % $ $ @ @                           ",
"                . O % w x ~ #.g.g.f.$.#...| ~ W E ! E E E E E W Q _ o.&.,.%.$.o. .Q R l d e 9 7 $ $ @                           ",
"                . + % w l ~ #.f.g.,.$...( E v l f f j f j h h j x E ' #.,.,.$.+. .' W b v j t 0 7 $ o                           ",
"                  + $ w l ~ +.%.%.$.+.' W x d w 8 8 w w w 0 0 w t x ~ o.$.%.#.o.] ` ' ( W b h e 7 $ O                           ",
"                  O 7 0 f R  .+.+...' Q v f w 7 $ $ + $ @ @ @ % 0 h R ' o.+. .] ` ( ~ ( Q R j r 7 $ O                           ",
"                o + $ 8 t c E ~ ~ W T b l r 9 $ o o o o O . . O 7 t x E Q Q W E R b R E R x h w 7 $ O                           ",
"                $ @ @ 7 0 g j c x k h f t w 7 @                 7 w g j x x l j h h j j h g e 9 % @ @                           ",
"                @ @ % 7 7 8 w e w e w w 0 9                       0 w e r e w w w w w e w 8 8 7 $ $ @                           ",
"                  @ @ $ @ 7 % 7 $ 7 $ 7 $                           $ 7 % 7 % 7 % 7 7 % % 7 $ $ $ @ $                           ",
"                  $ @ @ @ @ O O $ O O O @                             @ O O O O O O O + @ @ $ @ $ $ @                           ",
"                      @ O O o O o o o                                   . o o o O . O . O o O @ @                               ",
"                                                                                                                                ",
"                                                                                                                                ",
"                                                                                                                                ",
"                                                                                                                                "
};
