/* XPM */
static char *__resized[] = {
/* columns rows colors chars-per-pixel */
"64 73 204 2 ",
"   c None",
".  c #2B2F1E",
"X  c #262E1A",
"o  c #2C311E",
"O  c #2F3520",
"+  c #2C3820",
"@  c #313620",
"#  c #3B3621",
"$  c #333922",
"%  c #393D23",
"&  c #433622",
"*  c #423A23",
"=  c #4C3924",
"-  c #4D3723",
";  c #5B3724",
":  c #533A25",
">  c #5C3A25",
",  c #543724",
"<  c #643A26",
"1  c #673825",
"2  c #723B28",
"3  c #7C3A29",
"4  c #793926",
"5  c #3B4325",
"6  c #3F4926",
"7  c #414A27",
"8  c #444D29",
"9  c #47472B",
"0  c #465129",
"q  c #4A562B",
"w  c #4E5B2C",
"e  c #515D2D",
"r  c #5B582C",
"t  c #4E4E33",
"y  c #444935",
"u  c #5A5D3A",
"i  c #4F4E34",
"p  c #684A27",
"a  c #6C5028",
"s  c #4E622A",
"d  c #53612E",
"f  c #5A6B2F",
"g  c #566430",
"h  c #596631",
"j  c #5B6A31",
"k  c #526238",
"l  c #646C38",
"z  c #637435",
"x  c #667A34",
"c  c #697B37",
"v  c #6C7E38",
"b  c #64753B",
"n  c #666D2E",
"m  c #575B4A",
"M  c #5B5F50",
"N  c #5C664B",
"B  c #686946",
"V  c #766E4D",
"C  c #646A55",
"Z  c #7A6F50",
"A  c #6F774F",
"S  c #6F7665",
"D  c #823B2A",
"F  c #8A3C2A",
"G  c #893626",
"H  c #983C2C",
"J  c #A43D2D",
"K  c #AB3D2E",
"L  c #B33E2F",
"P  c #BA3E30",
"I  c #87412A",
"U  c #847C55",
"Y  c #6E8139",
"T  c #71853A",
"R  c #758A3B",
"E  c #798E3D",
"W  c #7C923E",
"Q  c #7F983F",
"!  c #7A8844",
"~  c #7F9540",
"^  c #74844D",
"/  c #7E876E",
"(  c #849D3E",
")  c #80973F",
"_  c #88A23F",
"`  c #87A03E",
"'  c #809740",
"]  c #859C42",
"[  c #899D46",
"{  c #899E4B",
"}  c #8B8756",
"|  c #8A9B59",
" . c #929257",
".. c #87A042",
"X. c #8AA344",
"o. c #8FA945",
"O. c #8DA349",
"+. c #91AC46",
"@. c #93A54D",
"#. c #93AD49",
"$. c #95B246",
"%. c #96B149",
"&. c #99B54B",
"*. c #9EBB4D",
"=. c #9BA654",
"-. c #94A955",
";. c #96AB5A",
":. c #99AD5C",
">. c #98A854",
",. c #95AA57",
"<. c #A0BE4E",
"1. c #A5AB5D",
"2. c #A4BB53",
"3. c #ACBD5A",
"4. c #A4B656",
"5. c #8E967B",
"6. c #908E6C",
"7. c #A4946A",
"8. c #AC9672",
"9. c #AD9A71",
"0. c #B59C78",
"q. c #9BAD67",
"w. c #9DB163",
"e. c #9FAD7A",
"r. c #ADAC65",
"t. c #ACA668",
"y. c #B1AE68",
"u. c #A5B569",
"i. c #B4BD64",
"p. c #B9B96C",
"a. c #B6A872",
"s. c #AABB7A",
"d. c #A9BA77",
"f. c #BCB173",
"g. c #C2B27A",
"h. c #C7BA7B",
"j. c #A3C14F",
"k. c #A6C450",
"l. c #AFC15C",
"z. c #B1C35D",
"x. c #BEC16C",
"c. c #B2C37F",
"v. c #C5C771",
"b. c #C9C974",
"n. c #C1C46F",
"m. c #8A8C84",
"M. c #8D9086",
"N. c #92958A",
"B. c #9B9E95",
"V. c #9EAB83",
"C. c #ACB88B",
"Z. c #A0A997",
"A. c #A8A9A3",
"S. c #B5BBA9",
"D. c #C1A680",
"F. c #CDB783",
"G. c #D3B58B",
"H. c #D5BA8A",
"J. c #D5BA8A",
"K. c #DDBC92",
"L. c #E2BE96",
"P. c #B5C489",
"I. c #B6C689",
"U. c #BCCB92",
"Y. c #BAC2AA",
"T. c #DCCC87",
"R. c #DACB86",
"E. c #D0CC95",
"W. c #E3D38C",
"Q. c #ECC59D",
"!. c #EECB9C",
"~. c #E5C695",
"^. c #F2D49C",
"/. c #F8D89F",
"(. c #EDD098",
"). c #C1CCA2",
"_. c #C8D4A5",
"`. c #C2C3BD",
"'. c #D3DCB9",
"]. c #D2DCB6",
"[. c #CBD4B5",
"{. c #F4CDA2",
"}. c #FBD4A6",
"|. c #FFD7A8",
" X c #FFDAAB",
".X c #FBD4A5",
"XX c #D8E1BD",
"oX c #C5C5C3",
"OX c #C8C9C6",
"+X c #D4D7CB",
"@X c #D6D7D3",
"#X c #CED3C4",
"$X c #DBE3C3",
"%X c #DFE8C3",
"&X c #E9EDDD",
"*X c #E5E7DF",
"=X c #EBF0DF",
"-X c #E9EBE5",
";X c #ECEDEA",
":X c #E4E4E3",
">X c #EEF1E3",
",X c #F1F5E8",
"<X c #F5F5F5",
"1X c #F9FAF9",
/* pixels */
"                                                                                                                                ",
"                                                                                                                                ",
"                                                                                                                                ",
"                                                                                                                                ",
"            . . . . . . o . . . . . . . . . . . . . O . . . . . . . . O O O . O o o o o o o o o o o o @ @                       ",
"          O O O O O O O O O O @ O O @ O @ @ @ @ @ @ O O O O O O O O O + O O O O o o o $ $ @ @ o O $ $ + $ $ $                   ",
"        5 % 5 5 % 5 5 5 5 5 5 % % 5 5 5 % 5 % 5 5 5 % 5 % 5 5 5 5 % 5 % % 5 % % 5 5 % 5 % 5 5 % 5 % $ $ $ $ @ $                 ",
"        0 q q q w q q q q q w q w q q q q q q q q q q q q q q q q q 0 0 0 0 8 0 0 0 8 0 8 8 0 0 0 8 6 5 % + @ O                 ",
"    5 q d l z z b z z z z c z b x z x z b z z z z z b z z x z z b z j j h h h h h h h h h h h f h g w 8 5 $ @ @ +               ",
"o @ 6 w z R W ) ' ' ' ' ' ' ' ' ' ) ' ' ' ' ' ) ' ' ' ' ' ' ' ) ~ E R T T Y Y Y T Y T T T T T T T x j q 6 $ o o + O O           ",
"o @ 6 e c ' +.%.&.%.%.%.#.#.%.%.%.#.#.&.%.#.#.%.&.#.#.#.%.%.#.$.#.o...] ) ) ) Q ) ) ) ) W ) ) ( ' R x e 7 $ @ @ $ $ # $         ",
"O @ 6 d Y X.*.j.j.<.*.&.*.*.&.*.&.*.&.&.<.<.<.<.<.<.<.<.<.<.*.*.&.%.o.X.X.] X.X.X.X._ [ X.X.X.X.[ ' v g 7 % $ # & = = =         ",
". $ 6 e T o.*.j.j.*.&.&.&.&.&.&.&.&.&.&.*.<.j.k.k.k.k.j.<.<.*.&.%.#.o._ _ X.X.X.o.X.X._ _ _ X.o.X.) v d 8 % & - > < < < :       ",
". @ 7 g T O.*.j.<.&.#.+.+.+.+.+.+.+.+.#.&.*.<.j.k.j.j.<.<.&.&.#.+.o.X._ _ _ X.O.o.X.X.X._ _ X.X.X.) Y g 8 % - < 3 F D 2 > * $ + ",
"O @ 5 e T [ &.*.&.#.o.X.X.X.X.X.X.X.o.O.+.#.&.*.<.<.<.<.*.&.+.o.X.X.O.] X.] ..] ] X.[ ] X.X.X.X...W c d 7 % , 2 F J H D < # + + ",
". $ 5 e z W X.+.+.o.O.O.X.X.X.X.X.X.X.X.o.O.+.+.#.&.*.*.&.#.+.X.X.O.-.-.-.-.[ ] ' ' [ -.-.-.-.@.X.W Y d 7 * ; 3 J L J F > * $ + ",
"O @ 5 8 g c R ~ ] X.O.o.o.o.o.o.@.o.o.O.] ~ ~ ~ ' X.#.&.&.%.o.X.O.w.q.s.c.q.| ! ! ! / q.d.c.u.w.O.~ Y s 7 5 ; D K P K I < * @ o ",
"@ @ % 6 0 g j c ~ ..o.%.%.%.%.%.%.%.%.o.] R z z c ~ O.&.&.$.o.X.-.q.I.U.Y.C.5.A b ^ | C.Y.U.U.l.-.~ x s 7 * ; G K P L F < * $ o ",
"@ @ $ % 5 7 q j Y ] #.&.*.*.&.&.*.&.&.#.~ c g w h v ] %.*.$._ o.-.c._.$X$XY.M.C k N m.Y.$X$X_.I.,.~ x s 6 * ; 4 J L K F < % $ o ",
"@ $ $ $ $ 5 8 g Y ] %.*.k.*.*.*.<.k.<.%.~ c e 0 g c ] %.&.$.$.o.-.P.].-X-XY.m.C m N M.Y.*X&XXXI.;.~ x s 6 * , 4 H K H D > 5 $ + ",
"@ + $ % 6 8 e z R X.&.k.j.j.*.j.<.<.2.%.] Y j g j T X.%.&.$.o.o.;.I.$X>X;XoXM.M 6 M m.oX-X,X$XU.w.~ x s 6 $ - 1 D H F 2 : # $ o ",
"@ $ % 6 q h c R ] #.&.<.j.j.*.*.k.k.*.&.o.~ T v T ) o.&.*.$._ o.:.I.$X>X;XoXM.M 5 M m.oX;X,X%XU.w.~ Y s 6 $ & , < 2 1 > = % @ $ ",
"O @ 5 q j T ~ O.%.&.*.*.*.*.*.j.*.*.*.*.%.o.O.] _ o.$.<.&._ _ +.;.P.'.>X;XoXm.M y m m.`.-X>X$XU.w.~ Y s 6 $ $ & = : : & % $ $ o ",
"O @ 6 e c ' #.&.*.*.*.*.j.*.*.*.<.*.<.*.*.&.&.%.&.*.*.j.j._ _ o.:.P.].>X;XoXN.C m C m.oX-X>XXXP.;.~ x s 7 5 # $ # % # % $ $ $ $ ",
". $ 6 e Y X.&.k.2.j.*.*.j.*.*.j.*.*.<.*.<.<.<.<.<.<.<.*.&._ _ o.:.P.].>X;X@XA./ S S A.@X;X-X#XP.{ T n r t = & # # @ + + + 5 o $ ",
". @ 6 g Y X.*.k.j.j.*.*.*.*.*.*.<.*.*.<.<.<.<.j.j.j.<.*.*.$._ $.;.P.].>X<X-XoXA.B.A.oX:X<X-X[.V.^ n a a p 2 < = % @ o 5 + + + $ ",
". @ 5 e Y X.*.j.j.*.<.*.*.<.j.*.*.*.<.*.<.<.<.<.<.<.<.<.&._ _ o.:.P.].=X1X<X:X@XOX@X:X1X1X-XY.M.A r p p F F 4 < = $ o o +       ",
". @ 6 g v X.&.j.j.j.j.*.*.*.*.*.<.<.*.<.*.<.<.<.<.<.<.*.&.$.o.X.;.P.[.&X<X1X<X;X-X;X1X1X<X@XS./ m 9 < D H K H 2 : # $ o         ",
"O @ 5 e v O.&.j.j.j.*.j.*.*.*.*.<.<.*.<.*.<.*.*.<.<.<.*.&.+.o.X.;.s.).$X-X;X,X>X,X,X,X,X-X[.Z./ i * > G K L J 3 > % + +         ",
". @ 6 g v X.*.j.k.j.*.j.j.j.j.j.k.<.<.k.<.<.<.<.*.<.<.*.&.$.X.X.-.u.I.).'.$X$X$X$X%X$X$X].Y.5.C t * 1 G K P J D > % + +         ",
". @ 7 e T O.*.k.k.j.j.j.j.k.j.k.<.k.k.<.<.<.<.*.<.<.<.<.&.$.o.o.O.q.q.P.P.U.U.U.U.U.U.I.P.e./ j y & ; G L P J D > % + +         ",
"O @ 6 e v [ *.<.k.j.*.j.*.*.*.*.<.*.*.*.<.<.*.<.<.<.*.*.&.$.o.X...O.-.;.q.w.w.q.w.w.w.w.q.| A k 7 & 1 G K L J 3 > # + +         ",
"O @ 6 w c ~ o.%.&.%.%.#.#.%.%.%.#.#.$.$.&.&.*.*.*.<.<.&.%.%.o.X...X...O.O.O...O.X.O.O.O.X.~ x w 6 * > D H J H 2 > % + +         ",
"O O 5 q j c ~ ~ ~ ~ ~ ~ ~ ~ ~ ~ ~ ~ ~ ~ Q +.$.*.*.<.&.&.%.#.X.X...] ( ` ( ( ( ( ( _ _ _ ( R x w 6 # , 1 F F 3 < = % $ +         ",
"O @ % 6 q g z z b z z z z z z z z j z b ! Q o.&.&.&.%.#.o.o.o.....] ..] ( ( ( ( ( ( _ _ ( E x w 6 # - , 1 2 < : & # @ +         ",
"@ @ $ 5 6 0 q q q q q q q q q 0 0 0 0 s z W o.&.<.&.#.o.X.X...X...] ..] _ _ ] .._ _ X.X.] W x w 6 % # & = = = & % $ $ O         ",
"@ $ $ $ $ % 5 % 5 5 % 5 % 5 % 5 5 5 5 6 f R ..&.&.&.#.X.X.X.....X...X...] X...X.X.[ X.] ' R z w 5 $ $ @ % % % $ $ $ @ $         ",
"$ @ @ @ @ @ O O o O O o O O O $ 5 5 6 s z Q X.&.*.&.#.o.X.X.X.o.X.X.X.......X.] ] ] ) W R c j q 5 $ $ o o o + $ @ @ $           ",
"$ $ @ O O o . . . . o . . . O $ 6 q g z R Q $.$.*.&.$.o.+.+.+.o.o.o.X._ ] ....X.] ' R Y z g q 7 % @ @ o + + + + + $             ",
"                        . o @ 5 0 f Y ~ Q +.$.$.*.&.&.$.$.$.$.$.$.+.X.X.....X.] ] W Y j e 0 5 5 $ $ @ o                         ",
"                          O $ 7 g Y ( %.&.2.<.<.*.<.<.*.2.*.<.*.&.%.#.O.[ X.X.X.( R z e 7 % % $ $ @ $                           ",
"                          o $ 7 j ! 1.3.z.z.z.z.l.i.l.l.l.l.l.l.l.4.4.>.@.@.O.O.] R n q 5 + O O @ $ @                           ",
"                          o $ 8 B  .u.b.b.b.b.v.b.v.v.v.v.b.b.b.n.h.y.r.1.1.@.@.] T j q % O o O @ $                             ",
"                          o $ t B  .h.b.W.W.T.T.T.T.T.T.T.T.T.T.R.b.h.h.a.r.1.@.[ R j q % @ o o                                 ",
"                          X $ t A 7.F.(./././.^.^.^.^.^.^.^.^.^.(.~.K.J.g.f.r.>.[ T f w 5 @ o                                   ",
"                          o % i V 8.K.{. X X X|.}.}.}.|.|..X|.|..X(.Q.K.G.g.y.=.[ T f q 5 @ o                                   ",
"                          o $ i Z 8.~..X X X X X X X X X|. X X X}.{.{.L.G.g.y.=.[ T f 0 5 o o                                   ",
"                          X $ t Z 8.~. X X X X X X X X X X X X X|.{.Q.L.G.g.y.1.[ T f 0 5 o X                                   ",
"                          X $ t Z 8.K..X X X X X X|.|. X|. X|.|.}.{.Q.L.G.g.y.=.] T f 0 % O .                                   ",
"                          o % t V 8.K..X X X X X X|.|.|.|.|. X|.{.!.Q.L.G.g.y.=.] R x w 6 5 %                                   ",
"                          O $ i Z 8.K.}. X X X X|.|.|.|.|. X X|.|.{.Q.L.G.g.y.=.X.W Y j d q 8 7                                 ",
"                          X $ i Z 8.~..X X X X X X X|. X X X X X|.}.{.L.G.g.t.=.X.~ E T c z h q 5 o                             ",
"                          X $ t Z 9.K..X X X X|..X X|.|.|. X|.|.|.{.{.L.G.g.r.=.{ ] ( ] ' E x e 6 O . O O @ $                   ",
"                          o $ t Z 7.K.{. X X|.}..X.X|.|.|..X}.{.{.!.L.K.G.f.t.>.O.o.o.#.+...R j 7 % @ @ @ $ $                   ",
"                        X o $ t B 7.F.(..X.X.X{.}..X.X{.{.Q.~.K.H.G.H.G.h.f.r.=.X.o.$.$.&.O.W x g 8 6 5 % $ O                   ",
"                      O X X $ 9 B  .f.R.W.W.Q.{.{.{.{.Q.~.G.C.8.9.a.a.f.p.r.1.@.X.X.+.&.&.+.X.R c j w 8 5 $ O O                 ",
"                    @ O o . O 7 l } 1.n.b.R.T.L.L.{.L.L.L.D.U U Z }  .r.3.1.4.@.X.X.o.+.+.+.o.[ ~ R b w 6 $ @ o                 ",
"                  $ $ @ O O $ 8 j R @.3.n.h.R.H.L.L.L.K.D.U U m u b ~ @.4.*.&.O.X.[ [ _ X.O.O.+.o.] Y h 7 % O                   ",
"                  @ $ $ % 5 7 w z W o.4.i.i.h.F.H.K.K.h.0.U B 9 7 d Y ..&.&.$.o.X.] ' ' W ) ] o.o.] Y j 8 % O                   ",
"                O @ $ 5 5 0 d l T ) +.<.3.x.p.h.h.h.h.g.0.U u 7 5 w x ( +.&.#.+.[ ] E T Y Y T E ! T z w 6 % O o                 ",
"                O O $ 5 q j c E ( o.$.&.3.3.i.p.n.n.h.3.=.Z h 7 5 w x ) o.$.#.+.X.~ T z j g g j f j w 0 5 $ @ O                 ",
"                  + % 6 g Y ~ o.$.&.<.<.<.2.2.3.3.z.3.2.=.T g 9 6 q z E X.o.+.O.] E x g 0 7 7 7 0 0 6 5 $ $ @                   ",
"                  O 5 0 j ! o.*.<.<.<.<.<.&.&.%.%.%.<.+.] c e 6 6 0 j R W ] ( ] ~ Y j q 6 $ O $ $ % $ $ $ $ $                   ",
"                . O % q f ~ %.k.k.<.&.$.#.X.( ) ) ) ) ) T f q 6 5 7 d z Y T T T c z g 7 $ O O o O O O O @ $ @                   ",
"                o o % q z ~ &.k.k.<.&.#.] ~ Y x z z z z f w 6 5 5 5 0 d g j j j g w 0 6 $ O o o .                               ",
"                o o % 0 z E %.<.<.&.%.X.~ c j w q q q q 0 6 5 $ $ % 5 7 0 0 0 0 0 6 5 % $ @ O o                                 ",
"                  O % 0 j E o.%.%.$...~ Y j q 5 5 % 5 5 $ 5 o 5 $ $ $ % 5 % 5 % 5 % $ $ $ @ $                                   ",
"                  o % 0 h Y ~ ] ] Q ! Y j w 6 $ o o o o o 5 o o $ $ O @ O O + O O @ O $ @ $                                     ",
"                    % 8 d l c c c x z j e 7 5 O o o o o o o $ + @ @ O O O o . O o O O @ @                                       ",
"                        q w e e e w q 0 7 5 % @ O o                                                                             ",
"                          6 6 5 6 5 5 5 5 % $ $ @ @                                                                             ",
"                          @ @ @ O $ $ $ $ @ + $ $ $                                                                             ",
"                          o O . o o o o O O @ $ $                                                                               "
};
