/* XPM */
static char *__resized[] = {
/* columns rows colors chars-per-pixel */
"64 73 212 2 ",
"   c None",
".  c #2A2E1E",
"X  c #2C311E",
"o  c #2E3520",
"O  c #2C3820",
"+  c #313620",
"@  c #3A3621",
"#  c #333921",
"$  c #3B3A22",
"%  c #433622",
"&  c #423A23",
"*  c #4B3924",
"=  c #4C3623",
"-  c #533724",
";  c #5B3724",
":  c #543A25",
">  c #5C3A25",
",  c #633624",
"<  c #623A26",
"1  c #683A27",
"2  c #6F3B28",
"3  c #763B28",
"4  c #7C3A29",
"5  c #743827",
"6  c #3C4425",
"7  c #3E4A25",
"8  c #3F4528",
"9  c #414A27",
"0  c #444D29",
"q  c #47482A",
"w  c #465129",
"e  c #4A552A",
"r  c #4E5A2C",
"t  c #435125",
"y  c #525E2E",
"u  c #55522D",
"i  c #4E4E34",
"p  c #454A35",
"a  c #4E5433",
"s  c #555737",
"d  c #544C31",
"f  c #6A4B27",
"g  c #4E622A",
"h  c #54612E",
"j  c #566430",
"k  c #596631",
"l  c #5C6B32",
"z  c #5F6B3D",
"x  c #5F7331",
"c  c #606E33",
"v  c #64693C",
"b  c #637334",
"n  c #667A34",
"m  c #697B37",
"M  c #6C7E39",
"N  c #6B763C",
"B  c #6B7333",
"V  c #575C4B",
"C  c #5E6251",
"Z  c #5A6448",
"A  c #686849",
"S  c #746E4B",
"D  c #6C7A49",
"F  c #757646",
"G  c #656D55",
"H  c #7A6E51",
"J  c #7E7552",
"K  c #717766",
"L  c #833B2A",
"P  c #8C3C2B",
"I  c #883726",
"U  c #9B3D2C",
"Y  c #953C2C",
"T  c #A43D2D",
"R  c #AB3D2E",
"E  c #B33E2F",
"W  c #BA3E30",
"Q  c #8E402A",
"!  c #857859",
"~  c #807E4F",
"^  c #907E61",
"/  c #6E8139",
"(  c #6D8137",
")  c #72853A",
"_  c #758A3C",
"`  c #798E3D",
"'  c #7D933F",
"]  c #788946",
"[  c #7E9441",
"{  c #768555",
"}  c #79836F",
"|  c #849D3E",
" . c #88A23F",
".. c #87A03F",
"X. c #808A48",
"o. c #819643",
"O. c #859D42",
"+. c #889C45",
"@. c #899C4D",
"#. c #8B975A",
"$. c #969858",
"%. c #91895B",
"&. c #87A042",
"*. c #8AA344",
"=. c #8FA945",
"-. c #8DA44A",
";. c #91AC46",
":. c #94AE48",
">. c #92A64B",
",. c #95B146",
"<. c #96B149",
"1. c #99B54A",
"2. c #9EBB4D",
"3. c #93A955",
"4. c #9DA956",
"5. c #96AB59",
"6. c #99AE5D",
"7. c #96A655",
"8. c #9FB351",
"9. c #A0BE4E",
"0. c #A2AB5A",
"q. c #A3BC52",
"w. c #A9B85A",
"e. c #B1BF5F",
"r. c #998765",
"t. c #9C9261",
"y. c #8C9478",
"u. c #8B956E",
"i. c #A8966D",
"p. c #AC9672",
"a. c #B49C77",
"s. c #A28E6B",
"d. c #99AB65",
"f. c #9DB263",
"g. c #AAAA63",
"h. c #B1AD68",
"j. c #B4B16A",
"k. c #B8BC69",
"l. c #A9BA77",
"z. c #B5AB76",
"x. c #C4B37B",
"c. c #C7B97B",
"v. c #C1A87E",
"b. c #A3C14F",
"n. c #A6C450",
"m. c #ACC457",
"M. c #B2C45E",
"N. c #B5C362",
"B. c #BAC566",
"V. c #CCC977",
"C. c #CDCA78",
"Z. c #CBC579",
"A. c #CDCC77",
"S. c #8B8D84",
"D. c #8E8F88",
"F. c #93968C",
"G. c #9AA589",
"H. c #AEBD84",
"J. c #B0B995",
"K. c #B5B8AE",
"L. c #B6B9B1",
"P. c #ACAFA6",
"I. c #C9AB85",
"U. c #D3B58B",
"Y. c #D6BB8A",
"T. c #DDBB92",
"R. c #CCB484",
"E. c #E1BD95",
"W. c #B2C284",
"Q. c #B5C489",
"!. c #BBCB8D",
"~. c #BECC93",
"^. c #BDC1B1",
"/. c #DCC98A",
"(. c #C0CC9C",
"). c #E3CF8D",
"_. c #E4D18E",
"`. c #EAC49B",
"'. c #E8C797",
"]. c #F0CB9E",
"[. c #F5D49E",
"{. c #EAD591",
"}. c #CAD4AB",
"|. c #C7D0AD",
" X c #C4C8BC",
".X c #D2DCB5",
"XX c #D5DEBB",
"oX c #CFD9B4",
"OX c #F4CCA2",
"+X c #F7D3A1",
"@X c #FBD4A6",
"#X c #FFD6A8",
"$X c #FFDAAC",
"%X c #FDDAA5",
"&X c #FFDDB0",
"*X c #D8E1BE",
"=X c #C4C5C2",
"-X c #CCCCCA",
";X c #D8D9D6",
":X c #DBDFCF",
">X c #DEE6C4",
",X c #DCE1D0",
"<X c #E8EDDA",
"1X c #ECF0DF",
"2X c #E0E6CC",
"3X c #E9EBE5",
"4X c #EBEBEA",
"5X c #E5E7E1",
"6X c #EDF1E2",
"7X c #F1F3EB",
"8X c #F5F6F3",
"9X c #F9F9F8",
/* pixels */
"        . o . X . o o . . o . . o o . . o . X X X X . o o . o o . o o o . o o X X X o X o X o . o o o + # # O                   ",
"        # # + # + + # # + # # + + + o # # # # O + # + + # o o + + o + + + + + + + + + # + + + + + + + + # # #                   ",
"        6 6 6 8 6 6 6 6 6 6 6 6 6 6 6 6 6 8 8 8 6 6 6 6 6 6 8 6 6 6 6 6 6 6 6 6 6 6 6 6 6 6 6 6 6 6 $ # # # # #                 ",
"      0 r r h y j y h y j y y j y j y j y y j r h y y j j y y j y y r r e e r e r e e e e r e r e e 0 7 # # o o                 ",
"X # 6 r k b M / / / / M M / / / / M / / M / M / M M M M / / / / M n b b c c c c l b b c b l x x l l y w 6 # o o O O             ",
"X + 6 y b ` o.*.*.*.+.O.+.&.&.O.&.+.+.&.&.&.O.&.&.O.&.O.&.O.&.O.O.| ' ` ) _ _ _ _ _ ) _ _ _ ` ` _ M l r 7 # + o o # O           ",
"X # 6 h / O.:.1.2.1.1.1.1.1.1.1.<.1.<.<.1.1.1.1.1.1.1.1.1.2.1.<.:.;.=.O.o.| o.O.O.| o.| o.O. .&.o.' n h 9 # + + + $ $ @         ",
"X + 6 h ) *.2.n.n.2.1.2.1.1.2.1.2.1.2.2.2.9.2.q.n.q.b.b.q.2.2.2.1.:.=.*.*.*.*.*.*.*.*.*.&.*.*.*.*.' / k 0 $ @ % = : : :         ",
"o + 6 h / =.9.n.q.2.<.<.<.<.<.<.<.<.<.1.1.q.n.n.n.n.n.9.9.9.1.1.<.;.=. .&. .*.*.=.=. . ... .*.*.*.[ ( j q $ % - < 5 2 < : &     ",
". # 6 j / =.2.b.2.<.;.;.-.;.;.;.=.=.;.;.<.1.2.n.n.n.9.9.9.1.1.;.;.=.*.| &.&.*.*.*.*.*. .&.*.*.*.*.[ ( h 9 $ = 1 L P P 3 > & # O ",
"o o 8 h M O.<.1.<.;.=.*.*.*.*.*.*.+.*.=.=.:.<.1.9.9.9.9.1.<.;.=.*.*.*.-.-.&.+.O.O.+.*.*.*.*.-.=.&.[ ( g 0 $ - 5 Y R U L < & # O ",
"o + 6 e b ` O.=.=.=.*.*.*.=.-.*.=.*.*.*.=.*.=.*.=.;.1.1.1.<.;.*.@.>.5.6.d.5.@.@.[ [ @.3.6.d.6.5.*.[ ( h 9 & ; L T E R P < $ o O ",
"o + 6 9 y b / ] o.*.=.;.;.;.;.;.;.;.;.=.O.[ _ ) ` O.:.1.1.,. .*.-.f.l.H.H.l.#.] D ] #.l.H.H.l.f.-.[ ( g 7 9 ; L R W R P < & + O ",
"o + # 6 9 e k n _ O.;.<.<.1.<.:.1.<.1.>.o.) b l B _ *.1.2.,.;.=.-.l.!.}.|.J.u.D Z D u.J.|.}.~.N.5.[ x g 7 & ; L R W R P < & O O ",
"# # # # 6 6 w k / o.<.2.2.2.2.2.2.9.2.:.[ n y r j M o.<.2.,.=.=.5.l.}.>X;X^.y.G s G y.K.:X>XoXW.6.[ ( g 9 & ; 4 T E T L < & # O ",
"+ # # # # 6 w k ) &.<.2.n.q.2.2.9.9.2.<.o.m h e h M O.<.1.1. .=.6.Q.*X1X5X=XF.C p C S. X5X6X*X!.f.[ x g 0 $ - 5 Y T U 4 > $ o O ",
"+ # # 6 0 e k n [ &.1.9.n.9.9.9.9.9.9.<.&.) x l b _ *.<.1.,. .;.d.Q.*X7X4X=XD.V 8 V S.=X4X6X>X!.6.[ ( g 7 $ * , 4 P L 1 : $ # X ",
"o + $ 9 r b / [ &.:.2.9.9.9.9.9.9.9.9.1.>.O.` ] ` | ;.1.1.,. .=.6.W.>X6X4X=XD.V 8 V S.=X4X7X>X!.f.[ ( g 7 # @ = < < < : & @ # # ",
"o + 6 r x ] O.;.1.2.2.2.9.2.9.2.9.9.9.2.<.;.=.*.=.;.,.2.1.,. .;.5.Q.oX3X4X=XD.C p C S. X3X6X>XQ.6.' ( g 7 $ @ @ & = * & $ # # X ",
"X + 6 y M O.<.2.9.9.2.9.2.9.2.9.9.9.2.2.2.2.2.1.2.2.9.2.2. . .:.6.Q.>X3X4X-XF.K V G F.-X3X6X>XQ.3.` x g 0 & @ @ @ # # # # # # # ",
"o # 6 y / *.2.n.n.9.2.2.9.2.2.9.9.2.2.9.9.9.9.9.9.9.9.2.1.,.*.*.6.Q.XX6X4X;XL.D.} S.P.;X7X3XoXH.#.( x f u : = % $ # O O O # # # ",
". + 7 j / *.1.n.n.9.2.9.2.9.2.2.2.2.9.2.9.9.9.n.b.b.9.2.1.;. .=.6.W.XX6X8X4X-XL.P.L.-X4X8X5X XG.F c f f f 3 , ; & # O O X #     ",
". + 8 h / &.1.n.n.2.9.2.2.9.2.9.9.2.2.9.9.9.9.9.b.9.9.2.1. .=.*.5.W.oX6X9X9X4X;X;X;X4X8X8X5X^.y.G u f 3 Y Y I 2 * # O O         ",
"o # 6 j / &.1.q.b.n.2.2.9.2.2.2.2.9.9.2.2.9.2.2.2.9.9.b.2.,. .=.5.W.}.<X8X9X8X8X4X4X8X9X8X:XP.} s q ; 4 T R Y f : $ O O         ",
". # 6 j / &.1.n.n.2.2.9.2.9.9.2.9.9.9.2.2.9.2.9.2.9.9.2.1.,.=.*.5.l.(.>X,X3X1X1X<X1X1X<X2XoXG.} i % , I R W R f > @ O O         ",
". + 6 y / -.2.n.n.n.q.n.9.b.n.b.9.n.n.9.2.n.9.2.9.9.9.2.1.,.=.*.3.d.W.~.}.oXoX.XoX*X*X*X|.J.} G p % , I E W R L > $ O O         ",
". # 7 j ) *.2.n.n.b.b.b.9.b.b.9.9.n.9.9.q.2.9.2.2.9.9.2.1.<.=.=.-.5.d.l.B.W.W.W.W.W.W.W.l.d.{ Z p % , I R W R L > @ + O         ",
"o + 6 y M O.<.2.b.2.2.2.2.2.2.2.2.2.2.2.2.2.2.9.9.9.9.2.1.:.=.*.&.-.-.5.d.5.5.5.5.6.8.5.5.@.D s q % ; I R E U 3 > $ O O         ",
"o + 6 r b [ =.;.;.=.;.-.=.=.;.-.=.=.-.=.<.<.1.2.2.2.2.1.1.:.=.*.&.*.&.&.[ =.*.[ &.*.*.*.| ' n g 6 & ; 4 U T P 3 : $ O O         ",
"o + 6 w k b ) ` ` ` _ _ _ ` ` ` ] _ _ ` [ =.<.2.2.2.1.<.:.;.-.*.&. .[  .[ [ [  .| ......| ` b r 6 $ - 1 4 L 5 < * + # O         ",
"o + # 8 w y k l l l l l l l l l j k k x / [ ;.1.2.1.<.;.-.=.O.O.&.&.[  . .[  .[ | .. . .| ' b y 9 $ % - > < > * & + # O         ",
"+ + # 6 6 9 0 0 0 w 0 0 0 0 0 0 7 7 0 r l ` =.<.2.1.:.=.=.&.&.*.*.&.&. . . .=. ...*.*.*.| _ b y 6 + @ @ & * & & @ # + #         ",
"# + # # # # # # # # # # # # # # O 6 7 w l _ &.1.1.1.,.*.*.*.*.*.*.*.*.[ =. .*.*.+.+.&.O.' ) b r 6 # + + + # $ # # # +           ",
"# # + + + + o o + o o o o o # # 6 7 t g x ' *.1.2.,.,.=.=.*.*.=.*.*.=. .[ =.=.[ O.o.' ` ) b h w 6 + X X O O o O # + #           ",
"                      . o . o # 7 r x ( ` &.;.1.1.1.,.,.,.,.,.=.;.=.*.[  . .*.[ O.| _ n l h w 7 # # # X O                       ",
"                        . o # 6 r x ` [ =.,.1.2.2.2.1.1.,.,.1.1.,.,.=.*.=.[ =.=.O.` m k r 9 6 $ # # # O                         ",
"                          o # 7 j ] +.1.n.n.9.n.9.9.n.q.q.q.q.q.q.8.:.>.*.*.-.*.O._ b y 9 # # # # # #                           ",
"                          X # q z ] 0.N.B.B.N.N.M.M.N.N.N.N.N.N.k.w.w.0.3.:.-.-.O.) l e 6 o X o # #                             ",
"                          X # q v %.j.V./.A.C.V.V.V.V.V.V.C.C.V.Z.k.k.j.g.0.4.>.O._ l w # o X o o                               ",
"                          o # w F t.c.).{.{._.).).)._.)._._._._././.Y.c.z.h.0.7.O._ l w 6 + X X                                 ",
"                          X # i S i.Y.[.+X%X+X+X+X+X+X[.+X+X+X[.].'.'.Y.R.x.0.7.+.) l e 6 X X                                   ",
"                          X 6 i H i.T.@X$X$X$X$X#X#X$X@X%X$X$X$X@XOX`.E.U.x.h.0.+.) l e 6 # X                                   ",
"                          X # i H p.E.#X&X&X$X$X#X$X#X$X$X$X&X$X#X@XOX`.T.x.h.4.| ) l t $ X . .                                 ",
"                          . # i H p.T.@X$X$X$X$X$X#X#X$X$X$X&X&X$X@XOX`.T.x.h.0.+.) l e $ . . . X X X o + #                     ",
"                          X # i H p.T.@X&X$X$X%X$X#X#X#X#X$X#X@X@XOX`.E.U.I.h.4.+._ x e 6 + X + # # # # # # +                   ",
"                          X $ i H p.T.@X$X&X%X$X%X$X$X@X@XOXOX`.E.T.U.I.z.a.0.4.| ` b y 0 9 6 9 6 6 6 # # # #                   ",
"                          X # i H p.T.@X$X$X$X$X$X$X$X$X@X'.U.I.I.a.p.s.s.$.$.@.+.| M b k j h j j y e 9 6 # + +                 ",
"                          . # i J p.T.#X&X$X$X$X$X$X$X$X`.U.a.^ H H H H H J X.X.+.| | ) ) ) ) ) ) m l r 6 # + X                 ",
"                          . # i H p.'.@X$X$X$X$X$X$X$X%XE.a.r.S s i i i s v M ] O.*.=.*.*.+.=.=.*.o.M j 0 # o                   ",
"                          X # i S i.U.[.%X$X%X@X@X@X+X].U.i.~ s q $ 6 6 q j b _ o.-.;.:.<.1.1.<.:.O.) k w $ o                   ",
"                          X # e S t.c.'.[.[.+XOXOXE.T.I.a.r.S j e w t e y l m ` O.=.:.1.1.1.<.:.*.[ n j 9 # o                   ",
"                          o # q v %.j.Z.)._.'.'.T.I.a.t.%.X.F N b x x b n m ` ' O.=.:.1.1.:.*.| ) b k w 6 # + o                 ",
"                          X # 0 l X.0.B.V././.T.I.p.! H A N ) ` [ [ ' &.o.o.| O.*.=.=.;.=.+.` m l r 0 6 $ + + o                 ",
"                          X # 9 k _ ;.w.B.Z.Y.R.a.^ A i a c _ =.<.1.1.<.<.;.=.=.*.O.*.+.O.' m h 0 6 # + # # #                   ",
"                          o # 9 k ) *.q.e.B.c.x.p.J s q 9 j _ ;.2.9.9.2.2.<.;.=.*.O.o.' ` m l e 6 + o + # # #                   ",
"                          o # 0 h ) *.2.M.B.k.z.t.S i 8 9 h )  .1.2.9.2.1.<.<.=.+.| ` / b k e 6 # + o X + #                     ",
"                          X # 9 h _ =.2.m.M.N.w.$.N a 6 7 h / &.,.1.<.<.:.;.;.-.+.' / b y w 9 6 # + o o                         ",
"                          o # 9 k ) =.1.n.n.q.1.+.N y 6 9 y m ' &.=.=.=.&.=.=.*.O._ b h 0 6 # # # # +                           ",
"                          o # 9 j M o.;.1.2.q.1.O.m r 6 6 r l _ ' [ ' ' ' [ ' ' ' / l e 6 # + + + # #                           ",
"                            # 9 r b / ' O.:.1.1.O.M r 6 6 9 y b m M m m n m m n b c j 0 # X X X o #                             ",
"                                e y k b ) O.,.<.*.( r 6 # 6 0 r h h h h y y j y h y w 9                                         ",
"                                  6 0 r x ` =.:.&./ y 6 # # 6 6 9 9 9 0 9 9 9 q 9 9 9                                           ",
"                                  o # 8 j M O.=.o./ h 9 6 # # # # $ # # # # # # # # #                                           ",
"                                    o 6 e b ) ` _ m l r w 6 6 # o o o o + o o + + o                                             ",
"                                      # w j l b b n b b k r 9 # o X X X                                                         ",
"                                          0 w r j b m ) m k w 6 # X X                                                           ",
"                                          # $ 7 e l M _ ) c r 6 # X                                                             ",
"                                            o # 0 k m / m l e 6 # o                                                             ",
"                                              # 9 r l l k y q 6 # o                                                             ",
"                                                  0 e e w 0 6 # # +                                                             ",
"                                                  6 6 6 6 # # # # +                                                             ",
"                                                    # + # # # # + #                                                             ",
"                                                    X X o + + + # #                                                             "
};
